<svg width="100" height="103" viewBox="0 0 100 103" fill="none" xmlns="http://www.w3.org/2000/svg">
<g filter="url(#filter0_dd_2019_21613)">
<path d="M51.7902 100.998C75.635 100.998 94.9651 99.6084 94.9651 97.8938C94.9651 96.1791 75.635 94.7891 51.7902 94.7891C27.9453 94.7891 8.61523 96.1791 8.61523 97.8938C8.61523 99.6084 27.9453 100.998 51.7902 100.998Z" fill="#CFCFCF"/>
</g>
<path fill-rule="evenodd" clip-rule="evenodd" d="M20.4994 39.6577L19.9875 40.0807C19.7499 39.7907 19.5157 39.4977 19.2891 39.1988L19.8177 38.7969C20.0388 39.0886 20.2674 39.3746 20.4994 39.6577Z" fill="#3C415E"/>
<path fill-rule="evenodd" clip-rule="evenodd" d="M21.8078 41.1299L21.3272 41.5881C21.0677 41.3174 20.8158 41.0399 20.5674 40.7592L21.0657 40.3203C21.3084 40.5945 21.5545 40.8657 21.8078 41.1299Z" fill="#3C415E"/>
<path fill-rule="evenodd" clip-rule="evenodd" d="M23.2129 42.4962L22.7711 42.992C22.4888 42.7406 22.2164 42.4824 21.9482 42.2196L22.4139 41.7461C22.675 42.0021 22.9406 42.2539 23.2129 42.4962Z" fill="#3C415E"/>
<path fill-rule="evenodd" clip-rule="evenodd" d="M17.3076 34.702L16.7067 34.9848C16.6227 34.816 16.551 34.6411 16.4734 34.4691C16.3948 34.2975 16.3254 34.1218 16.2549 33.9464L16.8712 33.6992C16.9392 33.8683 17.0061 34.0378 17.0821 34.2037C17.1573 34.3698 17.2262 34.5387 17.3076 34.702Z" fill="#3C415E"/>
<path fill-rule="evenodd" clip-rule="evenodd" d="M18.2286 36.4372L17.6568 36.775C17.5614 36.6129 17.4651 36.4513 17.3758 36.2855C17.2854 36.1203 17.1913 35.9573 17.1069 35.7888L17.6951 35.4805C17.7767 35.6437 17.8683 35.8019 17.9558 35.9621C18.0422 36.1229 18.136 36.2797 18.2286 36.4372Z" fill="#3C415E"/>
<path fill-rule="evenodd" clip-rule="evenodd" d="M19.2944 38.0813L18.7523 38.4648L18.4321 38.0015L18.1221 37.5309L18.6808 37.1719L18.9824 37.63L19.2944 38.0813Z" fill="#3C415E"/>
<path fill-rule="evenodd" clip-rule="evenodd" d="M15.8965 29.081L15.2334 29.0449L15.2389 28.8977L15.2556 28.7504L15.2903 28.4559C15.2985 28.3574 15.3224 28.2604 15.3415 28.163L15.4017 27.8711L16.0466 28.0298L15.9934 28.2897C15.9763 28.3765 15.9543 28.4623 15.9474 28.5511L15.9164 28.8154L15.9011 28.9476L15.8965 29.081Z" fill="#3C415E"/>
<path fill-rule="evenodd" clip-rule="evenodd" d="M16.0469 30.9982L15.395 31.1246C15.3634 30.9345 15.3262 30.7457 15.2998 30.5544C15.2798 30.3615 15.255 30.1694 15.2397 29.9757L15.9022 29.9297C15.9165 30.1083 15.9398 30.2866 15.9578 30.4651C15.9825 30.6432 16.0176 30.8204 16.0469 30.9982Z" fill="#3C415E"/>
<path fill-rule="evenodd" clip-rule="evenodd" d="M16.5613 32.8722L15.9334 33.0882L15.7586 32.5479C15.701 32.3676 15.6542 32.1837 15.6016 32.0017L16.2426 31.8281C16.2932 32.0029 16.338 32.1793 16.3933 32.3526L16.5613 32.8722Z" fill="#3C415E"/>
<path fill-rule="evenodd" clip-rule="evenodd" d="M18.86 24.4318L18.4961 23.8763C18.8156 23.6627 19.1481 23.4756 19.4819 23.293L19.7947 23.8787C19.4766 24.0529 19.1601 24.2309 18.86 24.4318Z" fill="#3C415E"/>
<path fill-rule="evenodd" clip-rule="evenodd" d="M17.3705 25.6538L16.8867 25.1988C16.9507 25.1234 17.0227 25.0576 17.0932 24.9898L17.3052 24.7872C17.3741 24.7172 17.4521 24.6597 17.5257 24.5963L17.7498 24.4102L18.1622 24.9307L17.9553 25.1027C17.8874 25.1611 17.8144 25.2144 17.7521 25.2784L17.5585 25.4636C17.494 25.5254 17.4276 25.5855 17.3705 25.6538Z" fill="#3C415E"/>
<path fill-rule="evenodd" clip-rule="evenodd" d="M16.3202 27.2228L15.7109 26.9585C15.7453 26.8644 15.793 26.7767 15.8384 26.6879L15.9755 26.4219C16.0237 26.3348 16.08 26.2527 16.1322 26.168C16.1864 26.0848 16.2362 25.998 16.2946 25.918L16.8375 26.3004C16.7853 26.3719 16.7418 26.4491 16.6934 26.523C16.6472 26.5983 16.5965 26.6711 16.5538 26.7483L16.433 26.9838C16.3927 27.0623 16.3498 27.1395 16.3202 27.2228Z" fill="#3C415E"/>
<path fill-rule="evenodd" clip-rule="evenodd" d="M24.2731 22.1421L24.0859 21.505C24.4433 21.3965 24.8032 21.3011 25.1627 21.2031L25.3339 21.8447C24.9795 21.9415 24.6242 22.0355 24.2731 22.1421Z" fill="#3C415E"/>
<path fill-rule="evenodd" clip-rule="evenodd" d="M22.3965 22.7493L22.1719 22.1243L22.7025 21.9395C22.879 21.8763 23.0582 21.8239 23.2359 21.7656L23.438 22.3982C23.2639 22.4553 23.0876 22.5068 22.9153 22.5686L22.3965 22.7493Z" fill="#3C415E"/>
<path fill-rule="evenodd" clip-rule="evenodd" d="M20.5836 23.4891L20.3037 22.8869C20.6449 22.7225 20.9947 22.5838 21.3419 22.4375L21.5879 23.0543C21.2516 23.1961 20.9116 23.3308 20.5836 23.4891Z" fill="#3C415E"/>
<path fill-rule="evenodd" clip-rule="evenodd" d="M30.0571 20.7776L29.9297 20.1258L30.4754 20.0193L31.0218 19.918L31.1429 20.5709L30.5995 20.6717L30.0571 20.7776Z" fill="#3C415E"/>
<path fill-rule="evenodd" clip-rule="evenodd" d="M28.1162 21.1797L27.9746 20.5308C28.3369 20.4487 28.7006 20.3772 29.0637 20.3008L29.1969 20.9514C28.8366 21.0272 28.4751 21.0982 28.1162 21.1797Z" fill="#3C415E"/>
<path fill-rule="evenodd" clip-rule="evenodd" d="M26.1948 21.6273L26.0342 20.9829C26.3944 20.8889 26.7572 20.8098 27.1185 20.7227L27.2677 21.3697C26.9102 21.4561 26.5504 21.5344 26.1948 21.6273Z" fill="#3C415E"/>
<path fill-rule="evenodd" clip-rule="evenodd" d="M35.9199 19.646L35.7822 18.9963L36.8594 18.7617L37.0049 19.4096L35.9199 19.646Z" fill="#3C415E"/>
<path fill-rule="evenodd" clip-rule="evenodd" d="M33.9692 20.0392L33.8423 19.3874L34.9249 19.1719L35.0574 19.8226L33.9692 20.0392Z" fill="#3C415E"/>
<path fill-rule="evenodd" clip-rule="evenodd" d="M32.0201 20.4056L31.9009 19.7523C32.263 19.6849 32.6259 19.6208 32.9873 19.5508L33.1105 20.2033C32.7475 20.2737 32.3835 20.3381 32.0201 20.4056Z" fill="#3C415E"/>
<path fill-rule="evenodd" clip-rule="evenodd" d="M41.7196 18.1428L41.5107 17.5124C41.685 17.4584 41.6052 17.4525 41.7772 17.3936L42.2834 17.2451L42.5372 17.1484L42.773 17.7693L42.5115 17.8688L42.2478 17.9613C42.0718 18.0217 41.8972 18.0877 41.7196 18.1428Z" fill="#3C415E"/>
<path fill-rule="evenodd" clip-rule="evenodd" d="M39.8052 18.7168L39.6299 18.0763L40.1584 17.9293L40.6834 17.7734L40.8757 18.4091L40.0923 18.626L39.8052 18.7168Z" fill="#3C415E"/>
<path fill-rule="evenodd" clip-rule="evenodd" d="M37.8785 19.2066L37.7256 18.5604C38.0814 18.4724 38.4391 18.3894 38.7935 18.2969L38.9579 18.9403C38.5991 19.0339 38.2383 19.1177 37.8785 19.2066Z" fill="#3C415E"/>
<path fill-rule="evenodd" clip-rule="evenodd" d="M46.7138 15.2317L46.4526 14.7484C46.5674 14.6241 46.6535 14.4825 46.751 14.348C46.796 14.2787 46.8325 14.205 46.8741 14.1339L46.9351 14.0266C46.9525 13.9895 46.9678 13.9515 46.9844 13.9141L47.5886 14.1897C47.5687 14.2344 47.5499 14.2798 47.5289 14.3239L47.4572 14.4519C47.4083 14.5364 47.3636 14.6239 47.3106 14.7057C47.1979 14.8641 46.8444 15.0885 46.7138 15.2317Z" fill="#3C415E"/>
<path fill-rule="evenodd" clip-rule="evenodd" d="M45.3997 16.503L45.0439 15.9423C45.1894 15.8446 45.0929 15.8128 45.2286 15.705L45.687 15.491C45.7554 15.4378 45.8182 15.3795 45.8841 15.3242L46.3185 15.8266C46.2453 15.8881 46.1744 15.9531 46.0991 16.0117L45.8701 16.1825C45.72 16.3008 45.5574 16.3976 45.3997 16.503Z" fill="#3C415E"/>
<path fill-rule="evenodd" clip-rule="evenodd" d="M43.6106 17.4303L43.3472 16.8206C43.5151 16.7535 43.6746 16.6726 43.8381 16.5984C44.0026 16.5256 44.1594 16.4411 44.3179 16.3594L44.6267 16.9473C44.4596 17.0335 44.0445 17.1808 43.8733 17.2568C43.7027 17.3343 43.784 17.3607 43.6106 17.4303Z" fill="#3C415E"/>
<path fill-rule="evenodd" clip-rule="evenodd" d="M47.0592 9.31933L46.5207 9.70827C46.3365 9.44452 45.8535 9.27548 45.5908 9.09058L46.2218 8.48828C46.5451 8.71534 46.832 8.99556 47.0592 9.31933Z" fill="#3C415E"/>
<path fill-rule="evenodd" clip-rule="evenodd" d="M47.8346 11.2377L47.1836 11.369C47.1038 10.9517 47.0445 10.7465 46.8965 10.3887L47.5093 10.1328C47.6581 10.4914 47.7631 10.8648 47.8346 11.2377Z" fill="#3C415E"/>
<path fill-rule="evenodd" clip-rule="evenodd" d="M47.8771 13.2964L47.2256 13.1678L47.2516 13.0473L47.2651 12.9237C47.2735 12.8411 47.2848 12.7592 47.2918 12.6763L47.2964 12.4249C47.2966 12.383 47.2997 12.3413 47.2978 12.2991L47.2891 12.1722L47.9523 12.1367L47.9616 12.281C47.9638 12.3292 47.9608 12.3778 47.9605 12.4263L47.7055 12.7753C47.6975 12.8722 47.9341 12.9108 47.9238 13.0076L47.9072 13.1528L47.8771 13.2964Z" fill="#3C415E"/>
<path fill-rule="evenodd" clip-rule="evenodd" d="M41.3286 8.02344L41.4655 8.67321C40.8641 8.80002 40.5184 8.90219 40.4158 8.93051L40.2388 8.29043C40.5986 8.19109 40.9617 8.10076 41.3286 8.02344Z" fill="#3C415E"/>
<path fill-rule="evenodd" clip-rule="evenodd" d="M43.3394 7.76562L43.3556 8.42956C43.0068 8.43802 42.6547 8.47034 42.3028 8.52081L41.96 7.92166C42.3328 7.86819 42.9591 7.77493 43.3394 7.76562Z" fill="#3C415E"/>
<path fill-rule="evenodd" clip-rule="evenodd" d="M45.3747 8.05415L45.1483 8.67846C44.839 8.56866 44.5096 8.49749 44.1704 8.4611L44.2413 7.80078C44.4063 7.81848 44.7882 7.84533 45.3747 8.05415Z" fill="#3C415E"/>
<path fill-rule="evenodd" clip-rule="evenodd" d="M35.6454 9.95312L35.6528 10.624L34.6362 11.0551L34.624 10.3862L35.6454 9.95312Z" fill="#3C415E"/>
<path fill-rule="evenodd" clip-rule="evenodd" d="M37.2455 9.26562L37.7318 9.82769C37.3902 9.95833 37.0496 10.0931 36.7096 10.231L36.46 9.61564C36.8034 9.47637 36.8989 9.39812 37.2455 9.26562Z" fill="#3C415E"/>
<path fill-rule="evenodd" clip-rule="evenodd" d="M39.3744 8.54297L39.3263 9.23422C38.98 9.34409 38.8844 9.40311 38.5411 9.52614L38.3174 8.90083C38.6672 8.77549 39.0194 8.65554 39.3744 8.54297Z" fill="#3C415E"/>
<path fill-rule="evenodd" clip-rule="evenodd" d="M30.1165 11.6345L30.0458 12.2948C29.9458 12.2867 29.8475 12.2662 29.7482 12.2521C29.6491 12.2366 29.3006 12.2807 29.204 12.2546L29.1615 12.1261C29.0659 12.098 28.9715 12.0662 28.8765 12.0361L29.0868 11.4062C29.171 11.4327 29.2547 11.4612 29.3392 11.4863L29.5963 11.5478C29.6814 11.5714 29.7686 11.5833 29.8555 11.5967C29.9427 11.6088 30.0289 11.6278 30.1165 11.6345Z" fill="#3C415E"/>
<path fill-rule="evenodd" clip-rule="evenodd" d="M31.9908 11.457L32.1756 12.0949L31.8882 12.1741C31.7916 12.1978 31.6924 12.2127 31.5946 12.2321L31.4474 12.2594L31.3737 12.2728L31.299 12.2804L30.9999 12.3099L30.9521 11.6475L31.2148 11.6216L31.2805 11.6153L31.0963 11.6615L31.4755 11.5788C31.562 11.5614 31.6494 11.5491 31.7351 11.5279L31.9908 11.457Z" fill="#3C415E"/>
<path fill-rule="evenodd" clip-rule="evenodd" d="M33.8027 10.7383L33.8152 11.407L32.7922 11.8414L32.7852 11.1704L33.8027 10.7383Z" fill="#3C415E"/>
<path fill-rule="evenodd" clip-rule="evenodd" d="M25.4277 8.53652L24.8995 8.93908C24.6677 8.63493 24.2007 8.37941 23.9971 8.05356L24.8102 7.64453C25.0015 7.95053 25.2083 8.24868 25.4277 8.53652Z" fill="#52298A"/>
<path fill-rule="evenodd" clip-rule="evenodd" d="M26.735 9.97239L26.2896 10.465C26.0011 10.2076 25.7342 9.93023 25.4785 9.64446L25.9747 9.20312C26.1932 9.44719 26.3255 9.6073 26.735 9.97239Z" fill="#3C415E"/>
<path fill-rule="evenodd" clip-rule="evenodd" d="M28.2983 11.0741L27.9943 11.6645C27.6464 11.4797 27.3118 11.274 26.998 11.0432L27.391 10.5078C27.6114 10.6699 27.7922 10.8043 28.2983 11.0741Z" fill="#3C415E"/>
<path d="M27.0156 2.91016L25.4647 5.24435L13.6157 3.44768L27.0156 2.91016Z" fill="#FFD844"/>
<path d="M25.5493 9.67615L25.4647 5.24589L13.6157 3.44922L24.0232 7.2964L25.5493 9.67615Z" fill="#F6AF00"/>
<path d="M21.3586 10.8302L24.0232 7.2964L13.6157 3.44922L21.3586 10.8302Z" fill="#FFD844"/>
<path d="M75.4634 49.3775C75.4634 73.1794 46.6797 97.8117 46.6797 97.8117C46.6797 97.8117 17.896 71.5188 17.896 49.3775C17.896 33.4807 30.7829 20.5938 46.6797 20.5938C62.5764 20.5938 75.4634 33.4806 75.4634 49.3775Z" fill="url(#paint0_radial_2019_21613)"/>
<g filter="url(#filter1_dd_2019_21613)">
<path d="M55.7784 57.7876C60.8043 52.7618 60.8043 44.6132 55.7784 39.5874C50.7525 34.5615 42.604 34.5615 37.5782 39.5874C32.5523 44.6132 32.5523 52.7618 37.5782 57.7876C42.604 62.8135 50.7525 62.8135 55.7784 57.7876Z" fill="#EAEAEA"/>
</g>
<path d="M42 49H47M47 49H52M47 49V54M47 49V44" stroke="#24272C" stroke-width="1.5" stroke-linecap="round" stroke-linejoin="round"/>
<path d="M81.3848 69.1747C81.3246 69.2021 81.1314 67.9141 81.1314 67.9141H79.3926V69.2021L81.3848 69.1747Z" fill="#FCCB95"/>
<path d="M73.5323 60.25C73.5323 60.25 72.6307 60.894 72.4375 62.3752C72.4375 62.3752 73.8543 62.6972 73.5323 60.25Z" fill="#FCC072"/>
<path d="M82.5485 78.9922L81.7757 85.7541L85.2533 95.9292H83.5145L79.4872 87.2643C79.3402 86.9482 79.2641 86.6038 79.2641 86.2553L78.9421 83.6289L78.2337 86.5912L78.6201 95.9292H77.0746L75.2072 85.749C75.1226 85.2878 75.1575 84.8127 75.3086 84.3688L77.139 78.9922H82.5485Z" fill="#738598"/>
<path d="M83.2564 78.9912H76.7521L77.4606 71.9072L74.6914 70.6836L76.4302 68.4297L80.8639 69.0442C82.0605 69.2101 82.9639 70.2132 83.0041 71.4205L83.2564 78.9912Z" fill="#FB7668"/>
<path d="M79.908 68.1054C79.908 68.1054 79.0063 67.6546 78.6843 67.2682C78.3623 66.8817 79.1351 65.0142 79.908 64.5634C80.6808 64.1126 81.9687 64.0482 81.9687 64.821C81.9687 65.5938 82.6127 66.8817 81.9687 67.2037C81.3247 67.5258 81.1315 68.1698 79.908 68.1054Z" fill="#FFE1BD"/>
<path d="M80.3589 64.9509C80.3589 64.9509 79.3285 63.6629 79.9725 62.375C79.9725 62.375 80.2301 63.019 81.0673 63.2122C81.9045 63.4054 82.8617 63.5904 83.1925 64.5002C83.7077 65.917 83.7384 67.5315 80.9386 67.9134C80.9386 67.9134 82.0978 66.883 81.8402 66.1746C81.5826 65.4661 80.8097 65.3373 80.3589 64.9509Z" fill="#3C415E"/>
<path d="M79.7791 64.5648L73.5323 60.25C73.5323 60.25 73.2103 61.9888 72.4375 62.3752L79.7791 64.5648Z" fill="#FFD200"/>
<path d="M73.2019 68.9203L73.7028 62.8467L73.7005 62.8457C73.702 62.836 73.7037 62.8269 73.7052 62.8174L73.7085 62.7775L73.7118 62.7788C73.8874 61.764 74.3091 61.5352 74.4981 61.5352C74.6913 61.5352 75.0133 61.7928 75.0777 62.1792C75.138 62.5409 74.7165 63.1661 74.6625 63.2445L74.6913 68.1039L76.4301 68.4259L74.8845 70.4222L74.0225 70.1348C73.5055 69.9626 73.1689 69.4643 73.2019 68.9203Z" fill="#FFE1BD"/>
<path d="M77.6537 63.8523L77.9424 68.6344L76.4302 68.4247L76.6677 63.6328L77.6537 63.8523Z" fill="#FFE1BD"/>
<path d="M85.2531 95.9258H83.5143L81.7934 97.2746C81.5763 97.4448 81.6966 97.7934 81.9726 97.7934H84.9628C85.1232 97.7934 85.2531 97.6634 85.2531 97.5031V95.9258Z" fill="#3C415E"/>
<path d="M78.6202 95.9258H77.0747L75.1798 97.266C74.9487 97.4295 75.0644 97.7933 75.3475 97.7933H78.33C78.4904 97.7933 78.6203 97.6634 78.6203 97.503L78.6202 95.9258Z" fill="#3C415E"/>
<path d="M61.5666 10.7412C61.4012 11.8485 60.3693 12.6119 59.2621 12.4465C58.1547 12.281 57.3912 11.2493 57.5567 10.142C57.7222 9.0346 58.7539 8.27111 59.8612 8.43661C60.9686 8.60203 61.7321 9.63383 61.5666 10.7412Z" fill="#33FFCC"/>
<path d="M59.2274 11.4727C59.2054 11.4591 59.1855 11.4413 59.1695 11.4203L58.4945 10.537C58.4223 10.4425 58.4402 10.3074 58.5348 10.2352C58.6291 10.1629 58.7646 10.1814 58.8367 10.2754L59.3623 10.9633L60.4558 9.8715C60.5396 9.78748 60.6751 9.78771 60.7604 9.87166C60.8442 9.95568 60.8442 10.0921 60.7599 10.1763L59.4926 11.4417C59.4487 11.4855 59.3882 11.5085 59.3263 11.5042C59.2907 11.5021 59.2569 11.4909 59.2274 11.4727Z" fill="#202327"/>
<path d="M2.00626 31.1149C1.92393 31.6658 1.41058 32.0457 0.859672 31.9633C0.308689 31.881 -0.0711723 31.3677 0.0112327 30.8167C0.0935608 30.2658 0.606917 29.886 1.15782 29.9682C1.70865 30.0506 2.08851 30.5639 2.00626 31.1149Z" fill="#33FFCC"/>
<path d="M0.842309 31.4763C0.831384 31.4695 0.821458 31.4607 0.813456 31.4502L0.477604 31.0107C0.441672 30.9637 0.450597 30.8965 0.497685 30.8606C0.54462 30.8246 0.612023 30.8338 0.647878 30.8806L0.909399 31.2229L1.45346 30.6797C1.49509 30.638 1.56256 30.638 1.60496 30.6798C1.64666 30.7217 1.64666 30.7895 1.60472 30.8314L0.974187 31.461C0.952336 31.4828 0.922248 31.4942 0.891394 31.4921C0.873851 31.4909 0.857005 31.4854 0.842309 31.4763Z" fill="#33FFCC"/>
<path d="M99.2226 82.0524C99.1402 82.6033 98.6269 82.9832 98.076 82.9008C97.525 82.8185 97.1451 82.3051 97.2275 81.7542C97.3099 81.2033 97.8232 80.8235 98.3741 80.9057C98.925 80.9881 99.3049 81.5014 99.2226 82.0524Z" fill="#33FFCC"/>
<path d="M98.0586 82.4138C98.0477 82.407 98.0378 82.3982 98.0298 82.3877L97.6939 81.9482C97.658 81.9012 97.6669 81.834 97.714 81.7981C97.7609 81.7621 97.8283 81.7714 97.8642 81.8181L98.1257 82.1604L98.6698 81.6172C98.7114 81.5755 98.7789 81.5755 98.8213 81.6173C98.863 81.6592 98.863 81.727 98.821 81.7689L98.1905 82.3985C98.1686 82.4203 98.1386 82.4317 98.1078 82.4296C98.0902 82.4284 98.0733 82.4229 98.0586 82.4138Z" fill="#212428"/>
<path d="M85.9054 55.2081C85.793 55.2081 85.7017 55.1168 85.7017 55.0044V53.5669C85.7017 53.4545 85.793 53.3633 85.9054 53.3633C86.0178 53.3633 86.1092 53.4546 86.1092 53.5669V55.0044C86.1092 55.1168 86.0178 55.2081 85.9054 55.2081Z" fill="#33FFCC"/>
<path d="M86.6246 54.4896H85.1871C85.0747 54.4896 84.9834 54.3983 84.9834 54.2858C84.9834 54.1734 85.0748 54.082 85.1871 54.082H86.6246C86.7371 54.082 86.8285 54.1734 86.8285 54.2858C86.8284 54.3983 86.7371 54.4896 86.6246 54.4896Z" fill="#33FFCC"/>
<path d="M6.05579 1.84484C5.94338 1.84484 5.85205 1.75351 5.85205 1.6411V0.203666C5.85205 0.0912536 5.94338 0 6.05579 0C6.16828 0 6.25953 0.0913306 6.25953 0.203666V1.6411C6.25953 1.75351 6.1682 1.84484 6.05579 1.84484Z" fill="#33FFCC"/>
<path d="M6.77455 1.13022H5.33704C5.22463 1.13022 5.1333 1.03889 5.1333 0.926399C5.1333 0.813986 5.22463 0.722656 5.33704 0.722656H6.77455C6.88704 0.722656 6.97837 0.813986 6.97837 0.926399C6.97829 1.03889 6.88704 1.13022 6.77455 1.13022Z" fill="#33FFCC"/>
<defs>
<filter id="filter0_dd_2019_21613" x="8.61523" y="93.1548" width="86.3501" height="9.47956" filterUnits="userSpaceOnUse" color-interpolation-filters="sRGB">
<feFlood flood-opacity="0" result="BackgroundImageFix"/>
<feColorMatrix in="SourceAlpha" type="matrix" values="0 0 0 0 0 0 0 0 0 0 0 0 0 0 0 0 0 0 127 0" result="hardAlpha"/>
<feOffset dy="1.63431"/>
<feComposite in2="hardAlpha" operator="out"/>
<feColorMatrix type="matrix" values="0 0 0 0 1 0 0 0 0 1 0 0 0 0 1 0 0 0 0.03 0"/>
<feBlend mode="normal" in2="BackgroundImageFix" result="effect1_dropShadow_2019_21613"/>
<feColorMatrix in="SourceAlpha" type="matrix" values="0 0 0 0 0 0 0 0 0 0 0 0 0 0 0 0 0 0 127 0" result="hardAlpha"/>
<feOffset dy="-1.63431"/>
<feComposite in2="hardAlpha" operator="out"/>
<feColorMatrix type="matrix" values="0 0 0 0 0 0 0 0 0 0 0 0 0 0 0 0 0 0 0.1 0"/>
<feBlend mode="normal" in2="effect1_dropShadow_2019_21613" result="effect2_dropShadow_2019_21613"/>
<feBlend mode="normal" in="SourceGraphic" in2="effect2_dropShadow_2019_21613" result="shape"/>
</filter>
<filter id="filter1_dd_2019_21613" x="33.8086" y="34.1821" width="25.7393" height="29.0108" filterUnits="userSpaceOnUse" color-interpolation-filters="sRGB">
<feFlood flood-opacity="0" result="BackgroundImageFix"/>
<feColorMatrix in="SourceAlpha" type="matrix" values="0 0 0 0 0 0 0 0 0 0 0 0 0 0 0 0 0 0 127 0" result="hardAlpha"/>
<feOffset dy="1.63431"/>
<feComposite in2="hardAlpha" operator="out"/>
<feColorMatrix type="matrix" values="0 0 0 0 1 0 0 0 0 1 0 0 0 0 1 0 0 0 0.03 0"/>
<feBlend mode="normal" in2="BackgroundImageFix" result="effect1_dropShadow_2019_21613"/>
<feColorMatrix in="SourceAlpha" type="matrix" values="0 0 0 0 0 0 0 0 0 0 0 0 0 0 0 0 0 0 127 0" result="hardAlpha"/>
<feOffset dy="-1.63431"/>
<feComposite in2="hardAlpha" operator="out"/>
<feColorMatrix type="matrix" values="0 0 0 0 0 0 0 0 0 0 0 0 0 0 0 0 0 0 0.1 0"/>
<feBlend mode="normal" in2="effect1_dropShadow_2019_21613" result="effect2_dropShadow_2019_21613"/>
<feBlend mode="normal" in="SourceGraphic" in2="effect2_dropShadow_2019_21613" result="shape"/>
</filter>
<radialGradient id="paint0_radial_2019_21613" cx="0" cy="0" r="1" gradientUnits="userSpaceOnUse" gradientTransform="translate(18.196 20.6133) scale(57.5674 80.0607)">
<stop stop-color="#A3A3A3"/>
<stop offset="1" stop-color="white"/>
</radialGradient>
</defs>
</svg>
