<svg width="100" height="103" viewBox="0 0 100 103" fill="none" xmlns="http://www.w3.org/2000/svg">
<g clip-path="url(#clip0_4392_4805)">
<g filter="url(#filter0_dd_4392_4805)">
<path d="M51.7882 100.998C75.6331 100.998 94.9632 99.6084 94.9632 97.8938C94.9632 96.1791 75.6331 94.7891 51.7882 94.7891C27.9433 94.7891 8.61328 96.1791 8.61328 97.8938C8.61328 99.6084 27.9433 100.998 51.7882 100.998Z" fill="black"/>
</g>
<path fill-rule="evenodd" clip-rule="evenodd" d="M20.4994 39.6577L19.9875 40.0807C19.7499 39.7907 19.5157 39.4977 19.2891 39.1988L19.8177 38.7969C20.0388 39.0886 20.2674 39.3746 20.4994 39.6577Z" fill="#3C415E"/>
<path fill-rule="evenodd" clip-rule="evenodd" d="M21.8068 41.1299L21.3262 41.5881C21.0667 41.3174 20.8148 41.0399 20.5664 40.7592L21.0647 40.3203C21.3074 40.5945 21.5535 40.8657 21.8068 41.1299Z" fill="#3C415E"/>
<path fill-rule="evenodd" clip-rule="evenodd" d="M23.2139 42.4962L22.7721 42.992C22.4898 42.7406 22.2174 42.4824 21.9492 42.2196L22.4149 41.7461C22.676 42.0021 22.9416 42.2539 23.2139 42.4962Z" fill="#3C415E"/>
<path fill-rule="evenodd" clip-rule="evenodd" d="M17.3066 34.702L16.7057 34.9848C16.6217 34.816 16.55 34.6411 16.4724 34.4691C16.3938 34.2975 16.3244 34.1218 16.2539 33.9464L16.8702 33.6992C16.9382 33.8683 17.0051 34.0378 17.0811 34.2037C17.1563 34.3698 17.2252 34.5387 17.3066 34.702Z" fill="#3C415E"/>
<path fill-rule="evenodd" clip-rule="evenodd" d="M18.2272 36.4372L17.6554 36.775C17.56 36.6129 17.4637 36.4513 17.3744 36.2855C17.284 36.1203 17.1899 35.9573 17.1055 35.7888L17.6937 35.4805C17.7753 35.6437 17.8669 35.8019 17.9544 35.9621C18.0408 36.1229 18.1346 36.2797 18.2272 36.4372Z" fill="#3C415E"/>
<path fill-rule="evenodd" clip-rule="evenodd" d="M19.2934 38.0813L18.7513 38.4648L18.4311 38.0015L18.1211 37.5309L18.6798 37.1719L18.9814 37.63L19.2934 38.0813Z" fill="#3C415E"/>
<path fill-rule="evenodd" clip-rule="evenodd" d="M15.8975 29.081L15.2344 29.0449L15.2399 28.8977L15.2566 28.7504L15.2913 28.4559C15.2995 28.3574 15.3234 28.2604 15.3425 28.163L15.4027 27.8711L16.0476 28.0298L15.9944 28.2897C15.9773 28.3765 15.9553 28.4623 15.9484 28.5511L15.9174 28.8154L15.9021 28.9476L15.8975 29.081Z" fill="#3C415E"/>
<path fill-rule="evenodd" clip-rule="evenodd" d="M16.0455 30.9982L15.3936 31.1246C15.362 30.9345 15.3248 30.7457 15.2984 30.5544C15.2784 30.3615 15.2536 30.1694 15.2383 29.9757L15.9008 29.9297C15.9151 30.1083 15.9384 30.2866 15.9564 30.4651C15.9811 30.6432 16.0162 30.8204 16.0455 30.9982Z" fill="#3C415E"/>
<path fill-rule="evenodd" clip-rule="evenodd" d="M16.5613 32.8722L15.9334 33.0882L15.7586 32.5479C15.701 32.3676 15.6542 32.1837 15.6016 32.0017L16.2426 31.8281C16.2932 32.0029 16.338 32.1793 16.3933 32.3526L16.5613 32.8722Z" fill="#3C415E"/>
<path fill-rule="evenodd" clip-rule="evenodd" d="M18.86 24.4318L18.4961 23.8763C18.8156 23.6627 19.1481 23.4756 19.4819 23.293L19.7947 23.8787C19.4766 24.0529 19.1601 24.2309 18.86 24.4318Z" fill="#3C415E"/>
<path fill-rule="evenodd" clip-rule="evenodd" d="M17.3705 25.6538L16.8867 25.1988C16.9507 25.1234 17.0227 25.0576 17.0932 24.9898L17.3052 24.7872C17.3741 24.7172 17.4521 24.6597 17.5257 24.5963L17.7498 24.4102L18.1622 24.9307L17.9553 25.1027C17.8874 25.1611 17.8144 25.2144 17.7521 25.2784L17.5585 25.4636C17.494 25.5254 17.4276 25.5855 17.3705 25.6538Z" fill="#3C415E"/>
<path fill-rule="evenodd" clip-rule="evenodd" d="M16.3202 27.2228L15.7109 26.9585C15.7453 26.8644 15.793 26.7767 15.8384 26.6879L15.9755 26.4219C16.0237 26.3348 16.08 26.2527 16.1322 26.168C16.1864 26.0848 16.2362 25.998 16.2946 25.918L16.8375 26.3004C16.7853 26.3719 16.7418 26.4491 16.6934 26.523C16.6472 26.5983 16.5965 26.6711 16.5538 26.7483L16.433 26.9838C16.3927 27.0623 16.3498 27.1395 16.3202 27.2228Z" fill="#3C415E"/>
<path fill-rule="evenodd" clip-rule="evenodd" d="M24.2731 22.1421L24.0859 21.505C24.4433 21.3965 24.8032 21.3011 25.1627 21.2031L25.3339 21.8447C24.9795 21.9415 24.6242 22.0355 24.2731 22.1421Z" fill="#3C415E"/>
<path fill-rule="evenodd" clip-rule="evenodd" d="M22.3965 22.7493L22.1719 22.1243L22.7025 21.9395C22.879 21.8763 23.0582 21.8239 23.2359 21.7656L23.438 22.3982C23.2639 22.4553 23.0876 22.5068 22.9153 22.5686L22.3965 22.7493Z" fill="#3C415E"/>
<path fill-rule="evenodd" clip-rule="evenodd" d="M20.5846 23.4891L20.3047 22.8869C20.6459 22.7225 20.9957 22.5838 21.3429 22.4375L21.5889 23.0543C21.2526 23.1961 20.9126 23.3308 20.5846 23.4891Z" fill="#3C415E"/>
<path fill-rule="evenodd" clip-rule="evenodd" d="M30.0571 20.7776L29.9297 20.1258L30.4754 20.0193L31.0218 19.918L31.1429 20.5709L30.5995 20.6717L30.0571 20.7776Z" fill="#3C415E"/>
<path fill-rule="evenodd" clip-rule="evenodd" d="M28.1143 21.1797L27.9727 20.5308C28.335 20.4487 28.6987 20.3772 29.0618 20.3008L29.195 20.9514C28.8347 21.0272 28.4732 21.0982 28.1143 21.1797Z" fill="#3C415E"/>
<path fill-rule="evenodd" clip-rule="evenodd" d="M26.1958 21.6273L26.0352 20.9829C26.3954 20.8889 26.7582 20.8098 27.1195 20.7227L27.2687 21.3697C26.9112 21.4561 26.5514 21.5344 26.1958 21.6273Z" fill="#3C415E"/>
<path fill-rule="evenodd" clip-rule="evenodd" d="M35.9189 19.646L35.7812 18.9963L36.8585 18.7617L37.004 19.4096L35.9189 19.646Z" fill="#3C415E"/>
<path fill-rule="evenodd" clip-rule="evenodd" d="M33.9706 20.0392L33.8438 19.3874L34.9263 19.1719L35.0588 19.8226L33.9706 20.0392Z" fill="#3C415E"/>
<path fill-rule="evenodd" clip-rule="evenodd" d="M32.0215 20.4056L31.9023 19.7523C32.2644 19.6849 32.6273 19.6208 32.9887 19.5508L33.1119 20.2033C32.7489 20.2737 32.3849 20.3381 32.0215 20.4056Z" fill="#3C415E"/>
<path fill-rule="evenodd" clip-rule="evenodd" d="M41.7206 18.1428L41.5117 17.5124C41.686 17.4584 41.6062 17.4525 41.7782 17.3936L42.2844 17.2451L42.5382 17.1484L42.774 17.7693L42.5125 17.8688L42.2488 17.9613C42.0728 18.0217 41.8982 18.0877 41.7206 18.1428Z" fill="#3C415E"/>
<path fill-rule="evenodd" clip-rule="evenodd" d="M39.8042 18.7168L39.6289 18.0763L40.1574 17.9293L40.6824 17.7734L40.8747 18.4091L40.0913 18.626L39.8042 18.7168Z" fill="#3C415E"/>
<path fill-rule="evenodd" clip-rule="evenodd" d="M37.8795 19.2066L37.7266 18.5604C38.0824 18.4724 38.4401 18.3894 38.7945 18.2969L38.9589 18.9403C38.6001 19.0339 38.2393 19.1177 37.8795 19.2066Z" fill="#3C415E"/>
<path fill-rule="evenodd" clip-rule="evenodd" d="M46.7143 15.2317L46.4531 14.7484C46.5679 14.6241 46.654 14.4825 46.7515 14.348C46.7965 14.2787 46.833 14.205 46.8746 14.1339L46.9356 14.0266C46.953 13.9895 46.9683 13.9515 46.9849 13.9141L47.5891 14.1897C47.5692 14.2344 47.5504 14.2798 47.5294 14.3239L47.4577 14.4519C47.4088 14.5364 47.3641 14.6239 47.3111 14.7057C47.1984 14.8641 46.8449 15.0885 46.7143 15.2317Z" fill="#3C415E"/>
<path fill-rule="evenodd" clip-rule="evenodd" d="M45.3988 16.503L45.043 15.9423C45.1885 15.8446 45.092 15.8128 45.2277 15.705L45.6861 15.491C45.7545 15.4378 45.8173 15.3795 45.8832 15.3242L46.3176 15.8266C46.2444 15.8881 46.1735 15.9531 46.0982 16.0117L45.8692 16.1825C45.7191 16.3008 45.5565 16.3976 45.3988 16.503Z" fill="#3C415E"/>
<path fill-rule="evenodd" clip-rule="evenodd" d="M43.6111 17.4303L43.3477 16.8206C43.5156 16.7535 43.6751 16.6726 43.8386 16.5984C44.0031 16.5256 44.1599 16.4411 44.3184 16.3594L44.6272 16.9473C44.4601 17.0335 44.045 17.1808 43.8738 17.2568C43.7032 17.3343 43.7845 17.3607 43.6111 17.4303Z" fill="#3C415E"/>
<path fill-rule="evenodd" clip-rule="evenodd" d="M47.0582 9.31933L46.5197 9.70827C46.3355 9.44452 45.8525 9.27548 45.5898 9.09058L46.2208 8.48828C46.5441 8.71534 46.831 8.99556 47.0582 9.31933Z" fill="#3C415E"/>
<path fill-rule="evenodd" clip-rule="evenodd" d="M47.8365 11.2377L47.1855 11.369C47.1057 10.9517 47.0464 10.7465 46.8984 10.3887L47.5112 10.1328C47.66 10.4914 47.765 10.8648 47.8365 11.2377Z" fill="#3C415E"/>
<path fill-rule="evenodd" clip-rule="evenodd" d="M47.8781 13.2964L47.2266 13.1678L47.2526 13.0473L47.2661 12.9237C47.2745 12.8411 47.2858 12.7592 47.2928 12.6763L47.2974 12.4249C47.2976 12.383 47.3007 12.3413 47.2988 12.2991L47.2901 12.1722L47.9533 12.1367L47.9626 12.281C47.9648 12.3292 47.9618 12.3778 47.9615 12.4263L47.7065 12.7753C47.6985 12.8722 47.9351 12.9108 47.9248 13.0076L47.9082 13.1528L47.8781 13.2964Z" fill="#3C415E"/>
<path fill-rule="evenodd" clip-rule="evenodd" d="M41.3281 8.02344L41.465 8.67321C40.8636 8.80002 40.5179 8.90219 40.4153 8.93051L40.2383 8.29043C40.5981 8.19109 40.9612 8.10076 41.3281 8.02344Z" fill="#3C415E"/>
<path fill-rule="evenodd" clip-rule="evenodd" d="M43.3403 7.76562L43.3565 8.42956C43.0077 8.43802 42.6556 8.47034 42.3037 8.52081L41.9609 7.92166C42.3337 7.86819 42.96 7.77493 43.3403 7.76562Z" fill="#3C415E"/>
<path fill-rule="evenodd" clip-rule="evenodd" d="M45.3762 8.05415L45.1498 8.67846C44.8405 8.56866 44.5111 8.49749 44.1719 8.4611L44.2428 7.80078C44.4078 7.81848 44.7897 7.84533 45.3762 8.05415Z" fill="#3C415E"/>
<path fill-rule="evenodd" clip-rule="evenodd" d="M35.6464 9.95312L35.6538 10.624L34.6372 11.0551L34.625 10.3862L35.6464 9.95312Z" fill="#3C415E"/>
<path fill-rule="evenodd" clip-rule="evenodd" d="M37.2464 9.26562L37.7327 9.82769C37.3911 9.95833 37.0505 10.0931 36.7105 10.231L36.4609 9.61564C36.8043 9.47637 36.8998 9.39812 37.2464 9.26562Z" fill="#3C415E"/>
<path fill-rule="evenodd" clip-rule="evenodd" d="M39.3734 8.54297L39.3253 9.23422C38.979 9.34409 38.8834 9.40311 38.5401 9.52614L38.3164 8.90083C38.6662 8.77549 39.0184 8.65554 39.3734 8.54297Z" fill="#3C415E"/>
<path fill-rule="evenodd" clip-rule="evenodd" d="M30.115 11.6345L30.0443 12.2948C29.9443 12.2867 29.846 12.2662 29.7467 12.2521C29.6476 12.2366 29.2991 12.2807 29.2025 12.2546L29.16 12.1261C29.0644 12.098 28.97 12.0662 28.875 12.0361L29.0853 11.4062C29.1695 11.4327 29.2532 11.4613 29.3377 11.4864L29.5948 11.5478C29.6799 11.5714 29.7671 11.5833 29.854 11.5967C29.9412 11.6088 30.0274 11.6278 30.115 11.6345Z" fill="#3C415E"/>
<path fill-rule="evenodd" clip-rule="evenodd" d="M31.9918 11.457L32.1766 12.0949L31.8892 12.1741C31.7926 12.1978 31.6934 12.2127 31.5956 12.2321L31.4484 12.2594L31.3747 12.2728L31.3 12.2804L31.0009 12.3099L30.9531 11.6475L31.2158 11.6216L31.2815 11.6153L31.0973 11.6615L31.4765 11.5788C31.563 11.5614 31.6504 11.5491 31.7361 11.5279L31.9918 11.457Z" fill="#3C415E"/>
<path fill-rule="evenodd" clip-rule="evenodd" d="M33.8027 10.7383L33.8152 11.407L32.7922 11.8414L32.7852 11.1704L33.8027 10.7383Z" fill="#3C415E"/>
<path fill-rule="evenodd" clip-rule="evenodd" d="M25.4267 8.53652L24.8985 8.93908C24.6667 8.63493 24.1997 8.37941 23.9961 8.05356L24.8092 7.64453C25.0005 7.95053 25.2073 8.24868 25.4267 8.53652Z" fill="#52298A"/>
<path fill-rule="evenodd" clip-rule="evenodd" d="M26.7331 9.97239L26.2877 10.465C25.9992 10.2076 25.7323 9.93023 25.4766 9.64446L25.9728 9.20312C26.1913 9.44719 26.3236 9.6073 26.7331 9.97239Z" fill="#3C415E"/>
<path fill-rule="evenodd" clip-rule="evenodd" d="M28.2964 11.0741L27.9924 11.6645C27.6445 11.4797 27.3099 11.274 26.9961 11.0432L27.3891 10.5078C27.6095 10.6699 27.7903 10.8043 28.2964 11.0741Z" fill="#3C415E"/>
<path d="M27.0171 2.91016L25.4662 5.24435L13.6172 3.44768L27.0171 2.91016Z" fill="#FFD844"/>
<path d="M25.5508 9.67615L25.4662 5.24589L13.6172 3.44922L24.0247 7.2964L25.5508 9.67615Z" fill="#F6AF00"/>
<path d="M21.3601 10.8302L24.0247 7.2964L13.6172 3.44922L21.3601 10.8302Z" fill="#FFD844"/>
<path d="M75.4619 49.3774C75.4619 73.1793 46.6782 97.8116 46.6782 97.8116C46.6782 97.8116 17.8945 71.5187 17.8945 49.3774C17.8945 33.4806 30.7814 20.5938 46.6782 20.5938C62.5749 20.5938 75.4619 33.4805 75.4619 49.3774Z" fill="url(#paint0_radial_4392_4805)"/>
<g filter="url(#filter1_dd_4392_4805)">
<path d="M55.7782 57.786C60.8041 52.7602 60.8041 44.6116 55.7782 39.5858C50.7523 34.5599 42.6038 34.5599 37.578 39.5858C32.5521 44.6116 32.5521 52.7602 37.578 57.786C42.6038 62.8119 50.7523 62.8119 55.7782 57.786Z" fill="black"/>
</g>
<path d="M42 49H47M47 49H52M47 49V54M47 49V44" stroke="#495261" stroke-width="1.5" stroke-linecap="round" stroke-linejoin="round"/>
<path d="M81.3867 69.1747C81.3265 69.2021 81.1333 67.9141 81.1333 67.9141H79.3945V69.2021L81.3867 69.1747Z" fill="#FCCB95"/>
<path d="M73.5323 60.25C73.5323 60.25 72.6307 60.894 72.4375 62.3752C72.4375 62.3752 73.8543 62.6972 73.5323 60.25Z" fill="#FCC072"/>
<path d="M82.5504 78.9922L81.7776 85.7541L85.2552 95.9292H83.5164L79.4891 87.2643C79.3421 86.9482 79.266 86.6038 79.266 86.2553L78.944 83.6289L78.2356 86.5912L78.622 95.9292H77.0765L75.2091 85.749C75.1245 85.2878 75.1594 84.8127 75.3105 84.3688L77.1409 78.9922H82.5504Z" fill="#738598"/>
<path d="M83.2564 78.9912H76.7521L77.4606 71.9072L74.6914 70.6836L76.4302 68.4297L80.8639 69.0442C82.0605 69.2101 82.9639 70.2132 83.0041 71.4205L83.2564 78.9912Z" fill="#FB7668"/>
<path d="M79.908 68.1054C79.908 68.1054 79.0063 67.6546 78.6843 67.2682C78.3623 66.8817 79.1351 65.0142 79.908 64.5634C80.6808 64.1126 81.9687 64.0482 81.9687 64.821C81.9687 65.5938 82.6127 66.8817 81.9687 67.2037C81.3247 67.5258 81.1315 68.1698 79.908 68.1054Z" fill="#FFE1BD"/>
<path d="M80.3599 64.9509C80.3599 64.9509 79.3295 63.6629 79.9735 62.375C79.9735 62.375 80.2311 63.019 81.0683 63.2122C81.9055 63.4054 82.8627 63.5904 83.1935 64.5002C83.7087 65.917 83.7394 67.5315 80.9396 67.9134C80.9396 67.9134 82.0988 66.883 81.8412 66.1746C81.5836 65.4661 80.8107 65.3373 80.3599 64.9509Z" fill="#3C415E"/>
<path d="M79.7791 64.5648L73.5323 60.25C73.5323 60.25 73.2103 61.9888 72.4375 62.3752L79.7791 64.5648Z" fill="#FFD200"/>
<path d="M73.2014 68.9203L73.7023 62.8467L73.7 62.8457C73.7015 62.836 73.7032 62.8269 73.7047 62.8174L73.7081 62.7775L73.7113 62.7788C73.8869 61.764 74.3086 61.5352 74.4976 61.5352C74.6908 61.5352 75.0128 61.7928 75.0772 62.1792C75.1375 62.5409 74.716 63.1661 74.662 63.2445L74.6908 68.1039L76.4296 68.4259L74.884 70.4222L74.022 70.1348C73.505 69.9626 73.1684 69.4643 73.2014 68.9203Z" fill="#FFE1BD"/>
<path d="M77.6532 63.8523L77.9419 68.6344L76.4297 68.4247L76.6672 63.6328L77.6532 63.8523Z" fill="#FFE1BD"/>
<path d="M85.2512 95.9258H83.5124L81.7915 97.2746C81.5744 97.4448 81.6947 97.7934 81.9707 97.7934H84.9609C85.1213 97.7934 85.2512 97.6634 85.2512 97.5031V95.9258Z" fill="#3C415E"/>
<path d="M78.6183 95.9258H77.0728L75.1779 97.266C74.9468 97.4295 75.0625 97.7933 75.3456 97.7933H78.3281C78.4885 97.7933 78.6184 97.6634 78.6184 97.503L78.6183 95.9258Z" fill="#3C415E"/>
<path d="M61.5676 10.7412C61.4022 11.8485 60.3703 12.6119 59.2631 12.4465C58.1557 12.281 57.3922 11.2493 57.5577 10.142C57.7232 9.0346 58.7549 8.27111 59.8622 8.43661C60.9696 8.60203 61.7331 9.63383 61.5676 10.7412Z" fill="#33FFCC"/>
<path d="M59.2264 11.4727C59.2044 11.4591 59.1845 11.4413 59.1685 11.4203L58.4935 10.537C58.4213 10.4425 58.4392 10.3074 58.5338 10.2352C58.6281 10.1629 58.7636 10.1814 58.8357 10.2754L59.3613 10.9633L60.4548 9.8715C60.5386 9.78748 60.6741 9.78771 60.7594 9.87166C60.8432 9.95568 60.8432 10.0921 60.7589 10.1763L59.4916 11.4417C59.4477 11.4855 59.3872 11.5085 59.3253 11.5042C59.2897 11.5021 59.2559 11.4909 59.2264 11.4727Z" fill="#202327"/>
<path d="M2.00626 31.1149C1.92393 31.6658 1.41058 32.0457 0.859672 31.9633C0.308689 31.881 -0.0711724 31.3677 0.0112327 30.8167C0.0935608 30.2658 0.606917 29.886 1.15782 29.9682C1.70865 30.0506 2.08851 30.5639 2.00626 31.1149Z" fill="#33FFCC"/>
<path d="M0.843774 31.4763C0.832849 31.4695 0.822923 31.4607 0.814921 31.4502L0.479069 31.0107C0.443137 30.9637 0.452062 30.8965 0.49915 30.8606C0.546085 30.8246 0.613488 30.8338 0.649343 30.8806L0.910864 31.2229L1.45492 30.6797C1.49655 30.638 1.56402 30.638 1.60642 30.6798C1.64812 30.7217 1.64812 30.7895 1.60618 30.8314L0.975652 31.461C0.953801 31.4828 0.923713 31.4942 0.892859 31.4921C0.875316 31.4909 0.85847 31.4854 0.843774 31.4763Z" fill="#33FFCC"/>
<path d="M99.2212 82.0524C99.1388 82.6033 98.6255 82.9832 98.0746 82.9008C97.5236 82.8185 97.1437 82.3051 97.2261 81.7542C97.3085 81.2033 97.8218 80.8235 98.3727 80.9057C98.9236 80.9881 99.3035 81.5014 99.2212 82.0524Z" fill="#33FFCC"/>
<path d="M98.0586 82.4138C98.0477 82.407 98.0378 82.3982 98.0298 82.3877L97.6939 81.9482C97.658 81.9012 97.6669 81.834 97.714 81.7981C97.7609 81.7621 97.8283 81.7714 97.8642 81.8181L98.1257 82.1604L98.6698 81.6172C98.7114 81.5755 98.7789 81.5755 98.8213 81.6173C98.863 81.6592 98.863 81.727 98.821 81.7689L98.1905 82.3985C98.1686 82.4203 98.1386 82.4317 98.1078 82.4296C98.0902 82.4284 98.0733 82.4229 98.0586 82.4138Z" fill="#212428"/>
<path d="M85.9068 55.2081C85.7944 55.2081 85.7031 55.1168 85.7031 55.0044V53.5669C85.7031 53.4545 85.7944 53.3633 85.9068 53.3633C86.0192 53.3633 86.1106 53.4546 86.1106 53.5669V55.0044C86.1106 55.1168 86.0192 55.2081 85.9068 55.2081Z" fill="#33FFCC"/>
<path d="M86.6256 54.4896H85.1881C85.0757 54.4896 84.9844 54.3983 84.9844 54.2858C84.9844 54.1734 85.0758 54.082 85.1881 54.082H86.6256C86.7381 54.082 86.8295 54.1734 86.8295 54.2858C86.8294 54.3983 86.7381 54.4896 86.6256 54.4896Z" fill="#33FFCC"/>
<path d="M6.0553 1.84484C5.94289 1.84484 5.85156 1.75351 5.85156 1.6411V0.203666C5.85156 0.0912536 5.94289 0 6.0553 0C6.16779 0 6.25904 0.0913306 6.25904 0.203666V1.6411C6.25904 1.75351 6.16771 1.84484 6.0553 1.84484Z" fill="#33FFCC"/>
<path d="M6.77406 1.13022H5.33655C5.22414 1.13022 5.13281 1.03889 5.13281 0.926399C5.13281 0.813986 5.22414 0.722656 5.33655 0.722656H6.77406C6.88655 0.722656 6.97788 0.813986 6.97788 0.926399C6.9778 1.03889 6.88655 1.13022 6.77406 1.13022Z" fill="#33FFCC"/>
</g>
<defs>
<filter id="filter0_dd_4392_4805" x="8.61328" y="93.1548" width="86.3516" height="9.47565" filterUnits="userSpaceOnUse" color-interpolation-filters="sRGB">
<feFlood flood-opacity="0" result="BackgroundImageFix"/>
<feColorMatrix in="SourceAlpha" type="matrix" values="0 0 0 0 0 0 0 0 0 0 0 0 0 0 0 0 0 0 127 0" result="hardAlpha"/>
<feOffset dy="1.63431"/>
<feComposite in2="hardAlpha" operator="out"/>
<feColorMatrix type="matrix" values="0 0 0 0 1 0 0 0 0 1 0 0 0 0 1 0 0 0 0.03 0"/>
<feBlend mode="normal" in2="BackgroundImageFix" result="effect1_dropShadow_4392_4805"/>
<feColorMatrix in="SourceAlpha" type="matrix" values="0 0 0 0 0 0 0 0 0 0 0 0 0 0 0 0 0 0 127 0" result="hardAlpha"/>
<feOffset dy="-1.63431"/>
<feComposite in2="hardAlpha" operator="out"/>
<feColorMatrix type="matrix" values="0 0 0 0 0 0 0 0 0 0 0 0 0 0 0 0 0 0 0.1 0"/>
<feBlend mode="normal" in2="effect1_dropShadow_4392_4805" result="effect2_dropShadow_4392_4805"/>
<feBlend mode="normal" in="SourceGraphic" in2="effect2_dropShadow_4392_4805" result="shape"/>
</filter>
<filter id="filter1_dd_4392_4805" x="33.8086" y="34.1821" width="25.7383" height="29.0069" filterUnits="userSpaceOnUse" color-interpolation-filters="sRGB">
<feFlood flood-opacity="0" result="BackgroundImageFix"/>
<feColorMatrix in="SourceAlpha" type="matrix" values="0 0 0 0 0 0 0 0 0 0 0 0 0 0 0 0 0 0 127 0" result="hardAlpha"/>
<feOffset dy="1.63431"/>
<feComposite in2="hardAlpha" operator="out"/>
<feColorMatrix type="matrix" values="0 0 0 0 1 0 0 0 0 1 0 0 0 0 1 0 0 0 0.03 0"/>
<feBlend mode="normal" in2="BackgroundImageFix" result="effect1_dropShadow_4392_4805"/>
<feColorMatrix in="SourceAlpha" type="matrix" values="0 0 0 0 0 0 0 0 0 0 0 0 0 0 0 0 0 0 127 0" result="hardAlpha"/>
<feOffset dy="-1.63431"/>
<feComposite in2="hardAlpha" operator="out"/>
<feColorMatrix type="matrix" values="0 0 0 0 0 0 0 0 0 0 0 0 0 0 0 0 0 0 0.1 0"/>
<feBlend mode="normal" in2="effect1_dropShadow_4392_4805" result="effect2_dropShadow_4392_4805"/>
<feBlend mode="normal" in="SourceGraphic" in2="effect2_dropShadow_4392_4805" result="shape"/>
</filter>
<radialGradient id="paint0_radial_4392_4805" cx="0" cy="0" r="1" gradientUnits="userSpaceOnUse" gradientTransform="translate(18.1945 20.6132) scale(57.5674 80.0607)">
<stop offset="0.30288" stop-color="#3D5273"/>
<stop offset="1" stop-color="#1D232B"/>
</radialGradient>
<clipPath id="clip0_4392_4805">
<rect width="100" height="103" fill="white"/>
</clipPath>
</defs>
</svg>
