<svg width="391" height="196" viewBox="0 0 391 196" fill="none" xmlns="http://www.w3.org/2000/svg">
<path d="M3.45881 7.72727V15H2.35795V8.82812H2.31534L0.575284 9.96449V8.91335L2.38991 7.72727H3.45881ZM7.6581 15.1207C7.09702 15.1184 6.61761 14.9704 6.21989 14.6768C5.82216 14.3833 5.51794 13.956 5.30724 13.3949C5.09654 12.8338 4.99119 12.1579 4.99119 11.3672C4.99119 10.5788 5.09654 9.9053 5.30724 9.34659C5.52031 8.78788 5.82571 8.36174 6.22344 8.06818C6.62353 7.77462 7.10175 7.62784 7.6581 7.62784C8.21444 7.62784 8.69148 7.7758 9.0892 8.07173C9.48693 8.36529 9.79115 8.79143 10.0018 9.35014C10.2149 9.90649 10.3214 10.5788 10.3214 11.3672C10.3214 12.1603 10.2161 12.8374 10.0054 13.3984C9.7947 13.9571 9.49048 14.3845 9.09276 14.6804C8.69503 14.974 8.21681 15.1207 7.6581 15.1207ZM7.6581 14.1726C8.15052 14.1726 8.53523 13.9323 8.81222 13.4517C9.09157 12.9711 9.23125 12.2763 9.23125 11.3672C9.23125 10.7635 9.16733 10.2533 9.03949 9.83665C8.91402 9.41761 8.73291 9.10038 8.49616 8.88494C8.26179 8.66714 7.98243 8.55824 7.6581 8.55824C7.16804 8.55824 6.78333 8.79972 6.50398 9.28267C6.22462 9.76562 6.08376 10.4605 6.08139 11.3672C6.08139 11.9732 6.14413 12.4858 6.2696 12.9048C6.39744 13.3215 6.57855 13.6375 6.81293 13.853C7.0473 14.0661 7.32902 14.1726 7.6581 14.1726ZM13.8132 15.1207C13.2521 15.1184 12.7727 14.9704 12.375 14.6768C11.9772 14.3833 11.673 13.956 11.4623 13.3949C11.2516 12.8338 11.1463 12.1579 11.1463 11.3672C11.1463 10.5788 11.2516 9.9053 11.4623 9.34659C11.6754 8.78788 11.9808 8.36174 12.3785 8.06818C12.7786 7.77462 13.2568 7.62784 13.8132 7.62784C14.3695 7.62784 14.8466 7.7758 15.2443 8.07173C15.642 8.36529 15.9462 8.79143 16.1569 9.35014C16.37 9.90649 16.4765 10.5788 16.4765 11.3672C16.4765 12.1603 16.3712 12.8374 16.1605 13.3984C15.9498 13.9571 15.6456 14.3845 15.2478 14.6804C14.8501 14.974 14.3719 15.1207 13.8132 15.1207ZM13.8132 14.1726C14.3056 14.1726 14.6903 13.9323 14.9673 13.4517C15.2466 12.9711 15.3863 12.2763 15.3863 11.3672C15.3863 10.7635 15.3224 10.2533 15.1946 9.83665C15.0691 9.41761 14.888 9.10038 14.6512 8.88494C14.4169 8.66714 14.1375 8.55824 13.8132 8.55824C13.3231 8.55824 12.9384 8.79972 12.6591 9.28267C12.3797 9.76562 12.2388 10.4605 12.2365 11.3672C12.2365 11.9732 12.2992 12.4858 12.4247 12.9048C12.5525 13.3215 12.7336 13.6375 12.968 13.853C13.2024 14.0661 13.4841 14.1726 13.8132 14.1726ZM18.4271 13.1499L18.42 11.8537H18.6046L20.7779 9.54545H22.0492L19.5705 12.1733H19.4036L18.4271 13.1499ZM17.4505 15V7.72727H18.5123V15H17.4505ZM20.8951 15L18.942 12.4077L19.6735 11.6655L22.1984 15H20.8951Z" fill="#7D7D7D"/>
<path d="M3.10014 50.0994C2.65507 50.0994 2.25497 50.0142 1.89986 49.8438C1.54711 49.6709 1.26539 49.4342 1.05469 49.1335C0.843987 48.8329 0.731534 48.4896 0.71733 48.1037H1.78267C1.80871 48.4162 1.94721 48.6731 2.19815 48.8743C2.4491 49.0755 2.74976 49.1761 3.10014 49.1761C3.3795 49.1761 3.62689 49.1122 3.84233 48.9844C4.06013 48.8542 4.23059 48.6754 4.35369 48.4482C4.47917 48.2209 4.5419 47.9616 4.5419 47.6705C4.5419 47.3745 4.47798 47.1106 4.35014 46.8786C4.2223 46.6465 4.04593 46.4643 3.82102 46.3317C3.59848 46.1991 3.3428 46.1316 3.05398 46.1293C2.83381 46.1293 2.61245 46.1671 2.38991 46.2429C2.16738 46.3187 1.98745 46.4181 1.85014 46.5412L0.84517 46.392L1.25355 42.7273H5.25213V43.6683H2.16619L1.93537 45.7031H1.97798C2.12003 45.5658 2.30824 45.451 2.54261 45.3587C2.77936 45.2663 3.03267 45.2202 3.30256 45.2202C3.74527 45.2202 4.13944 45.3255 4.48509 45.5362C4.8331 45.7469 5.10653 46.0346 5.3054 46.3991C5.50663 46.7614 5.60606 47.178 5.60369 47.6491C5.60606 48.1203 5.49953 48.5405 5.28409 48.9098C5.07102 49.2791 4.77509 49.5703 4.39631 49.7834C4.01989 49.9941 3.58783 50.0994 3.10014 50.0994ZM9.13271 50.1207C8.57163 50.1184 8.09222 49.9704 7.6945 49.6768C7.29677 49.3833 6.99255 48.956 6.78185 48.3949C6.57115 47.8338 6.4658 47.1579 6.4658 46.3672C6.4658 45.5788 6.57115 44.9053 6.78185 44.3466C6.99492 43.7879 7.30032 43.3617 7.69805 43.0682C8.09814 42.7746 8.57636 42.6278 9.13271 42.6278C9.68905 42.6278 10.1661 42.7758 10.5638 43.0717C10.9615 43.3653 11.2658 43.7914 11.4765 44.3501C11.6895 44.9065 11.7961 45.5788 11.7961 46.3672C11.7961 47.1603 11.6907 47.8374 11.48 48.3984C11.2693 48.9571 10.9651 49.3845 10.5674 49.6804C10.1696 49.974 9.69142 50.1207 9.13271 50.1207ZM9.13271 49.1726C9.62513 49.1726 10.0098 48.9323 10.2868 48.4517C10.5662 47.9711 10.7059 47.2763 10.7059 46.3672C10.7059 45.7635 10.6419 45.2533 10.5141 44.8366C10.3886 44.4176 10.2075 44.1004 9.97077 43.8849C9.7364 43.6671 9.45704 43.5582 9.13271 43.5582C8.64265 43.5582 8.25794 43.7997 7.97859 44.2827C7.69923 44.7656 7.55837 45.4605 7.556 46.3672C7.556 46.9732 7.61874 47.4858 7.74421 47.9048C7.87205 48.3215 8.05316 48.6375 8.28754 48.853C8.52191 49.0661 8.80363 49.1726 9.13271 49.1726ZM13.7466 48.1499L13.7395 46.8537H13.9241L16.0974 44.5455H17.3687L14.8901 47.1733H14.7232L13.7466 48.1499ZM12.77 50V42.7273H13.8318V50H12.77ZM16.2146 50L14.2615 47.4077L14.993 46.6655L17.5179 50H16.2146Z" fill="#7D7D7D"/>
<path d="M0.699574 85V84.2045L3.16051 81.6548C3.4233 81.3778 3.63991 81.1352 3.81037 80.9268C3.98319 80.7161 4.11222 80.5161 4.19744 80.3267C4.28267 80.1373 4.32528 79.9361 4.32528 79.723C4.32528 79.4815 4.26847 79.2732 4.15483 79.098C4.04119 78.9205 3.88613 78.7843 3.68963 78.6896C3.49313 78.5926 3.27178 78.544 3.02557 78.544C2.76515 78.544 2.53788 78.5973 2.34375 78.7038C2.14962 78.8104 2.00047 78.9607 1.89631 79.1548C1.79214 79.349 1.74006 79.5762 1.74006 79.8366H0.692472C0.692472 79.3939 0.794271 79.0069 0.997869 78.6754C1.20147 78.344 1.48082 78.0871 1.83594 77.9048C2.19105 77.7202 2.5947 77.6278 3.04688 77.6278C3.50379 77.6278 3.90625 77.719 4.25426 77.9013C4.60464 78.0812 4.87808 78.3274 5.07457 78.6399C5.27107 78.95 5.36932 79.3004 5.36932 79.6911C5.36932 79.9609 5.31842 80.2249 5.21662 80.483C5.11719 80.741 4.94318 81.0286 4.6946 81.3459C4.44602 81.6607 4.10038 82.0431 3.65767 82.4929L2.21236 84.0057V84.0589H5.48651V85H0.699574ZM9.06435 85.1207C8.50327 85.1184 8.02386 84.9704 7.62614 84.6768C7.22841 84.3833 6.92419 83.956 6.71349 83.3949C6.50279 82.8338 6.39744 82.1579 6.39744 81.3672C6.39744 80.5788 6.50279 79.9053 6.71349 79.3466C6.92656 78.7879 7.23196 78.3617 7.62969 78.0682C8.02978 77.7746 8.508 77.6278 9.06435 77.6278C9.62069 77.6278 10.0977 77.7758 10.4955 78.0717C10.8932 78.3653 11.1974 78.7914 11.4081 79.3501C11.6212 79.9065 11.7277 80.5788 11.7277 81.3672C11.7277 82.1603 11.6223 82.8374 11.4116 83.3984C11.2009 83.9571 10.8967 84.3845 10.499 84.6804C10.1013 84.974 9.62306 85.1207 9.06435 85.1207ZM9.06435 84.1726C9.55677 84.1726 9.94148 83.9323 10.2185 83.4517C10.4978 82.9711 10.6375 82.2763 10.6375 81.3672C10.6375 80.7635 10.5736 80.2533 10.4457 79.8366C10.3203 79.4176 10.1392 79.1004 9.90241 78.8849C9.66804 78.6671 9.38868 78.5582 9.06435 78.5582C8.57429 78.5582 8.18958 78.7997 7.91023 79.2827C7.63087 79.7656 7.49001 80.4605 7.48764 81.3672C7.48764 81.9732 7.55038 82.4858 7.67585 82.9048C7.80369 83.3215 7.9848 83.6375 8.21918 83.853C8.45355 84.0661 8.73527 84.1726 9.06435 84.1726ZM13.6782 83.1499L13.6711 81.8537H13.8558L16.0291 79.5455H17.3004L14.8217 82.1733H14.6548L13.6782 83.1499ZM12.7017 85V77.7273H13.7635V85H12.7017ZM16.1463 85L14.1931 82.4077L14.9247 81.6655L17.4495 85H16.1463Z" fill="#7D7D7D"/>
<path d="M3.45881 112.727V120H2.35795V113.828H2.31534L0.575284 114.964V113.913L2.38991 112.727H3.45881ZM7.6581 120.121C7.09702 120.118 6.61761 119.97 6.21989 119.677C5.82216 119.383 5.51794 118.956 5.30724 118.395C5.09654 117.834 4.99119 117.158 4.99119 116.367C4.99119 115.579 5.09654 114.905 5.30724 114.347C5.52031 113.788 5.82571 113.362 6.22344 113.068C6.62353 112.775 7.10175 112.628 7.6581 112.628C8.21444 112.628 8.69148 112.776 9.0892 113.072C9.48693 113.365 9.79115 113.791 10.0018 114.35C10.2149 114.906 10.3214 115.579 10.3214 116.367C10.3214 117.16 10.2161 117.837 10.0054 118.398C9.7947 118.957 9.49048 119.384 9.09276 119.68C8.69503 119.974 8.21681 120.121 7.6581 120.121ZM7.6581 119.173C8.15052 119.173 8.53523 118.932 8.81222 118.452C9.09157 117.971 9.23125 117.276 9.23125 116.367C9.23125 115.763 9.16733 115.253 9.03949 114.837C8.91402 114.418 8.73291 114.1 8.49616 113.885C8.26179 113.667 7.98243 113.558 7.6581 113.558C7.16804 113.558 6.78333 113.8 6.50398 114.283C6.22462 114.766 6.08376 115.46 6.08139 116.367C6.08139 116.973 6.14413 117.486 6.2696 117.905C6.39744 118.321 6.57855 118.638 6.81293 118.853C7.0473 119.066 7.32902 119.173 7.6581 119.173ZM12.272 118.15L12.2649 116.854H12.4495L14.6228 114.545H15.8941L13.4154 117.173H13.2485L12.272 118.15ZM11.2954 120V112.727H12.3572V120H11.2954ZM14.74 120L12.7869 117.408L13.5184 116.665L16.0433 120H14.74Z" fill="#7D7D7D"/>
<path d="M3.23153 155.121C2.67045 155.118 2.19105 154.97 1.79332 154.677C1.3956 154.383 1.09138 153.956 0.880682 153.395C0.669981 152.834 0.564631 152.158 0.564631 151.367C0.564631 150.579 0.669981 149.905 0.880682 149.347C1.09375 148.788 1.39915 148.362 1.79688 148.068C2.19697 147.775 2.67519 147.628 3.23153 147.628C3.78788 147.628 4.26491 147.776 4.66264 148.072C5.06037 148.365 5.36458 148.791 5.57528 149.35C5.78835 149.906 5.89489 150.579 5.89489 151.367C5.89489 152.16 5.78954 152.837 5.57884 153.398C5.36813 153.957 5.06392 154.384 4.66619 154.68C4.26847 154.974 3.79025 155.121 3.23153 155.121ZM3.23153 154.173C3.72396 154.173 4.10866 153.932 4.38565 153.452C4.66501 152.971 4.80469 152.276 4.80469 151.367C4.80469 150.763 4.74077 150.253 4.61293 149.837C4.48745 149.418 4.30634 149.1 4.0696 148.885C3.83523 148.667 3.55587 148.558 3.23153 148.558C2.74148 148.558 2.35677 148.8 2.07741 149.283C1.79806 149.766 1.6572 150.46 1.65483 151.367C1.65483 151.973 1.71757 152.486 1.84304 152.905C1.97088 153.321 2.15199 153.638 2.38636 153.853C2.62074 154.066 2.90246 154.173 3.23153 154.173Z" fill="#7D7D7D"/>
<path opacity="0.1" fill-rule="evenodd" clip-rule="evenodd" d="M27 94.0845C27 94.0845 42.1509 91.5371 59.3766 97.6569C92.1387 109.296 94.0077 87.9816 106.156 77.7041C117.271 68.3013 126.476 74.0383 138.851 85.5372C147.978 94.0181 161.28 108.254 175.056 105.962C187.648 103.867 197.262 76.6087 214.716 72.3623C228.549 68.9968 239.105 88.8045 255.034 85.5372C276.644 81.1049 279.36 61.5217 289.305 52.6522C307.015 33.5395 333.189 29 350.53 29C367.768 29 371.143 45.9192 390 55.0112V163.224L219.176 165L27 129.495V94.0845Z" fill="url(#paint0_linear_2265_1857)"/>
<path opacity="0.1" fill-rule="evenodd" clip-rule="evenodd" d="M27 77.0845C27 77.0845 42.1509 74.5371 59.3766 80.6569C92.1387 92.2964 94.0077 70.9816 106.156 60.7041C117.271 51.3013 126.476 57.0383 138.851 68.5372C147.978 77.0181 161.28 91.2543 175.056 88.9625C187.648 86.8675 197.261 59.6087 214.716 55.3623C228.549 51.9968 239.105 71.8045 255.034 68.5372C276.644 64.1049 279.36 44.5217 289.305 35.6522C307.015 16.5395 333.189 12 350.53 12C367.768 12 371.143 28.9192 390 38.0112V146.224L219.176 148L27 112.495V77.0845Z" fill="url(#paint1_linear_2265_1857)"/>
<path d="M27 85.8969C27 85.8969 42.1324 83.354 59.3371 89.4631C92.0593 101.082 93.926 79.8048 106.06 69.5453C117.161 60.159 126.354 65.8859 138.715 77.3647C147.831 85.8307 161.117 100.042 174.875 97.7541C187.452 95.6628 197.283 65.2389 214.716 61C228.532 57.6404 238.846 80.6262 254.756 77.3647C276.34 72.9401 286.611 27.7887 303.29 32C322.329 32 335.02 18 352.34 18C369.557 18 369.301 37.8162 388.135 46.8922L390 48" stroke="#E064FF" stroke-width="1.84723" stroke-linecap="round" stroke-linejoin="round"/>
<path d="M27 68.0482C27 68.0482 42.1324 65.5371 59.3371 71.5698C92.0593 83.0437 93.926 62.0323 106.06 51.901C117.161 42.632 126.354 48.2874 138.715 59.6226C147.831 67.9828 161.117 82.0164 174.875 79.7572C187.452 77.692 197.283 47.6484 214.716 43.4625C228.532 40.1449 238.846 62.8434 254.756 59.6226C276.34 55.2533 286.611 10.6663 303.29 14.825C322.329 14.825 335.02 1 352.34 1C369.557 1 369.301 20.5685 388.135 29.531L390 30.625" stroke="#03B52F" stroke-width="1.84723" stroke-linecap="round" stroke-linejoin="round"/>
<path d="M29.77 190.66V186.73H30.62V190.71C30.62 191.537 30.44 192.14 30.08 192.52C29.72 192.893 29.1367 193.08 28.33 193.08C28.1033 193.08 27.8933 193.07 27.7 193.05C27.5067 193.03 27.33 192.997 27.17 192.95V192.17C27.3567 192.21 27.53 192.24 27.69 192.26C27.8567 192.273 28.0333 192.28 28.22 192.28C28.8 192.28 29.2033 192.16 29.43 191.92C29.6567 191.68 29.77 191.26 29.77 190.66ZM33.0671 193.08C32.5604 193.08 32.1871 192.96 31.9471 192.72C31.7138 192.473 31.5971 192.087 31.5971 191.56C31.5971 191.027 31.7404 190.65 32.0271 190.43C32.3138 190.203 32.8004 190.09 33.4871 190.09C33.7138 190.09 33.9371 190.1 34.1571 190.12C34.3771 190.14 34.5838 190.17 34.7771 190.21V189.73C34.7771 189.363 34.6838 189.1 34.4971 188.94C34.3104 188.78 34.0104 188.7 33.5971 188.7C33.2904 188.7 33.0204 188.713 32.7871 188.74C32.5538 188.76 32.3204 188.797 32.0871 188.85V188.14C32.3538 188.073 32.6238 188.027 32.8971 188C33.1771 187.973 33.4938 187.96 33.8471 187.96C34.4404 187.96 34.8804 188.1 35.1671 188.38C35.4538 188.653 35.5971 189.08 35.5971 189.66V193H34.8471L34.8071 192.54H34.7871C34.5871 192.7 34.3271 192.83 34.0071 192.93C33.6938 193.03 33.3804 193.08 33.0671 193.08ZM33.5771 190.76C33.1238 190.76 32.8071 190.817 32.6271 190.93C32.4538 191.037 32.3671 191.23 32.3671 191.51C32.3671 191.803 32.4404 192.017 32.5871 192.15C32.7338 192.277 32.9738 192.34 33.3071 192.34C33.5671 192.34 33.8338 192.3 34.1071 192.22C34.3804 192.14 34.6038 192.04 34.7771 191.92V190.86C34.5571 190.827 34.3504 190.803 34.1571 190.79C33.9704 190.77 33.7771 190.76 33.5771 190.76ZM37.6988 193H36.8787V188.06H37.5888L37.6288 188.54H37.6588C37.9254 188.34 38.2021 188.193 38.4888 188.1C38.7821 188.007 39.1088 187.96 39.4688 187.96C40.0154 187.96 40.4288 188.097 40.7088 188.37C40.9954 188.643 41.1388 189.047 41.1388 189.58V193H40.3188V189.68C40.3188 189.347 40.2254 189.1 40.0388 188.94C39.8521 188.78 39.5654 188.7 39.1788 188.7C38.9388 188.7 38.6921 188.74 38.4388 188.82C38.1921 188.893 37.9454 189.003 37.6988 189.15V193Z" fill="#CCCCCC"/>
<path d="M92.57 190.42V193H91.72V186.73H95.74V187.5H92.57V189.67H95.37V190.42H92.57ZM100.272 192.04V192.73C100.099 192.823 99.8423 192.907 99.5023 192.98C99.169 193.047 98.829 193.08 98.4823 193.08C97.709 193.08 97.1557 192.88 96.8223 192.48C96.489 192.08 96.3223 191.42 96.3223 190.5C96.3223 189.613 96.4957 188.97 96.8423 188.57C97.189 188.163 97.7423 187.96 98.5023 187.96C99.209 187.96 99.7157 188.12 100.022 188.44C100.329 188.753 100.482 189.28 100.482 190.02C100.482 190.153 100.479 190.277 100.472 190.39C100.466 190.503 100.452 190.64 100.432 190.8H97.1523C97.159 191.347 97.269 191.737 97.4823 191.97C97.7023 192.203 98.079 192.32 98.6123 192.32C98.899 192.32 99.199 192.293 99.5123 192.24C99.8257 192.187 100.079 192.12 100.272 192.04ZM99.7323 189.91C99.7257 189.47 99.629 189.16 99.4423 188.98C99.2557 188.793 98.9423 188.7 98.5023 188.7C98.009 188.7 97.659 188.807 97.4523 189.02C97.2523 189.227 97.1523 189.593 97.1523 190.12H99.7223C99.7223 190.107 99.7223 190.077 99.7223 190.03C99.729 189.977 99.7323 189.937 99.7323 189.91ZM103.983 187.96C104.656 187.96 105.136 188.16 105.423 188.56C105.716 188.953 105.863 189.6 105.863 190.5C105.863 191.42 105.683 192.08 105.323 192.48C104.963 192.88 104.359 193.08 103.513 193.08C103.133 193.08 102.776 193.057 102.443 193.01C102.109 192.97 101.806 192.907 101.533 192.82V186.35H102.353V188.4C102.586 188.26 102.843 188.153 103.123 188.08C103.403 188 103.689 187.96 103.983 187.96ZM105.043 190.5C105.043 189.827 104.946 189.36 104.753 189.1C104.566 188.833 104.213 188.7 103.693 188.7C103.453 188.7 103.216 188.733 102.983 188.8C102.749 188.86 102.539 188.947 102.353 189.06V192.19C102.499 192.23 102.666 192.263 102.853 192.29C103.039 192.31 103.243 192.32 103.463 192.32C104.083 192.32 104.499 192.19 104.713 191.93C104.933 191.67 105.043 191.193 105.043 190.5Z" fill="#CCCCCC"/>
<path d="M162.63 186.73V193H161.83V188.06L160.04 191.75H159.31L157.52 188.05V193H156.72V186.73H157.79L159.69 190.72L161.6 186.73H162.63ZM165.134 193.08C164.627 193.08 164.254 192.96 164.014 192.72C163.78 192.473 163.664 192.087 163.664 191.56C163.664 191.027 163.807 190.65 164.094 190.43C164.38 190.203 164.867 190.09 165.554 190.09C165.78 190.09 166.004 190.1 166.224 190.12C166.444 190.14 166.65 190.17 166.844 190.21V189.73C166.844 189.363 166.75 189.1 166.564 188.94C166.377 188.78 166.077 188.7 165.664 188.7C165.357 188.7 165.087 188.713 164.854 188.74C164.62 188.76 164.387 188.797 164.154 188.85V188.14C164.42 188.073 164.69 188.027 164.964 188C165.244 187.973 165.56 187.96 165.914 187.96C166.507 187.96 166.947 188.1 167.234 188.38C167.52 188.653 167.664 189.08 167.664 189.66V193H166.914L166.874 192.54H166.854C166.654 192.7 166.394 192.83 166.074 192.93C165.76 193.03 165.447 193.08 165.134 193.08ZM165.644 190.76C165.19 190.76 164.874 190.817 164.694 190.93C164.52 191.037 164.434 191.23 164.434 191.51C164.434 191.803 164.507 192.017 164.654 192.15C164.8 192.277 165.04 192.34 165.374 192.34C165.634 192.34 165.9 192.3 166.174 192.22C166.447 192.14 166.67 192.04 166.844 191.92V190.86C166.624 190.827 166.417 190.803 166.224 190.79C166.037 190.77 165.844 190.76 165.644 190.76ZM169.765 193H168.945V188.06H169.695L169.735 188.48H169.775C170.035 188.327 170.295 188.213 170.555 188.14C170.815 188.06 171.072 188.02 171.325 188.02C171.432 188.02 171.502 188.02 171.535 188.02C171.575 188.02 171.605 188.023 171.625 188.03V188.82C171.578 188.807 171.518 188.8 171.445 188.8C171.378 188.793 171.272 188.79 171.125 188.79C170.885 188.79 170.648 188.82 170.415 188.88C170.188 188.933 169.972 189.017 169.765 189.13V193Z" fill="#CCCCCC"/>
<path d="M221.98 193H221.08L223.56 186.73H224.44L226.89 193H225.99L225.42 191.49H222.55L221.98 193ZM223.98 187.51C223.913 187.743 223.833 187.99 223.74 188.25C223.653 188.51 223.563 188.77 223.47 189.03L222.83 190.74H225.14L224.5 189.03C224.367 188.663 224.26 188.367 224.18 188.14C224.107 187.913 224.04 187.703 223.98 187.51ZM228.457 194.52H227.637V188.06H228.347L228.397 188.5H228.427C228.633 188.327 228.88 188.193 229.167 188.1C229.453 188.007 229.76 187.96 230.087 187.96C230.76 187.96 231.24 188.16 231.527 188.56C231.82 188.96 231.967 189.613 231.967 190.52C231.967 191.427 231.79 192.08 231.437 192.48C231.083 192.88 230.493 193.08 229.667 193.08C229.42 193.08 229.193 193.063 228.987 193.03C228.787 192.997 228.61 192.947 228.457 192.88V194.52ZM231.147 190.52C231.147 189.84 231.05 189.367 230.857 189.1C230.67 188.833 230.317 188.7 229.797 188.7C229.55 188.7 229.313 188.737 229.087 188.81C228.867 188.877 228.657 188.977 228.457 189.11V192.12C228.623 192.187 228.793 192.237 228.967 192.27C229.147 192.303 229.347 192.32 229.567 192.32C230.187 192.32 230.603 192.193 230.817 191.94C231.037 191.68 231.147 191.207 231.147 190.52ZM233.867 193H233.047V188.06H233.797L233.837 188.48H233.877C234.137 188.327 234.397 188.213 234.657 188.14C234.917 188.06 235.173 188.02 235.427 188.02C235.533 188.02 235.603 188.02 235.637 188.02C235.677 188.02 235.707 188.023 235.727 188.03V188.82C235.68 188.807 235.62 188.8 235.547 188.8C235.48 188.793 235.373 188.79 235.227 188.79C234.987 188.79 234.75 188.82 234.517 188.88C234.29 188.933 234.073 189.017 233.867 189.13V193Z" fill="#CCCCCC"/>
<path d="M291.63 186.73V193H290.83V188.06L289.04 191.75H288.31L286.52 188.05V193H285.72V186.73H286.79L288.69 190.72L290.6 186.73H291.63ZM294.134 193.08C293.627 193.08 293.254 192.96 293.014 192.72C292.78 192.473 292.664 192.087 292.664 191.56C292.664 191.027 292.807 190.65 293.094 190.43C293.38 190.203 293.867 190.09 294.554 190.09C294.78 190.09 295.004 190.1 295.224 190.12C295.444 190.14 295.65 190.17 295.844 190.21V189.73C295.844 189.363 295.75 189.1 295.564 188.94C295.377 188.78 295.077 188.7 294.664 188.7C294.357 188.7 294.087 188.713 293.854 188.74C293.62 188.76 293.387 188.797 293.154 188.85V188.14C293.42 188.073 293.69 188.027 293.964 188C294.244 187.973 294.56 187.96 294.914 187.96C295.507 187.96 295.947 188.1 296.234 188.38C296.52 188.653 296.664 189.08 296.664 189.66V193H295.914L295.874 192.54H295.854C295.654 192.7 295.394 192.83 295.074 192.93C294.76 193.03 294.447 193.08 294.134 193.08ZM294.644 190.76C294.19 190.76 293.874 190.817 293.694 190.93C293.52 191.037 293.434 191.23 293.434 191.51C293.434 191.803 293.507 192.017 293.654 192.15C293.8 192.277 294.04 192.34 294.374 192.34C294.634 192.34 294.9 192.3 295.174 192.22C295.447 192.14 295.67 192.04 295.844 191.92V190.86C295.624 190.827 295.417 190.803 295.224 190.79C295.037 190.77 294.844 190.76 294.644 190.76ZM298.298 193.88C298.551 193.88 298.741 193.823 298.868 193.71C299.001 193.603 299.141 193.343 299.288 192.93L297.268 188.06H298.188L299.708 192.11L301.148 188.06H302.028L300.008 193.33C299.828 193.81 299.618 194.143 299.378 194.33C299.138 194.523 298.828 194.62 298.448 194.62C298.334 194.62 298.214 194.613 298.088 194.6C297.968 194.587 297.848 194.57 297.728 194.55V193.83C297.801 193.85 297.881 193.863 297.968 193.87C298.061 193.877 298.171 193.88 298.298 193.88Z" fill="#CCCCCC"/>
<path d="M354.77 191.66V187.73H355.62V191.71C355.62 192.537 355.44 193.14 355.08 193.52C354.72 193.893 354.137 194.08 353.33 194.08C353.103 194.08 352.893 194.07 352.7 194.05C352.507 194.03 352.33 193.997 352.17 193.95V193.17C352.357 193.21 352.53 193.24 352.69 193.26C352.857 193.273 353.033 193.28 353.22 193.28C353.8 193.28 354.203 193.16 354.43 192.92C354.657 192.68 354.77 192.26 354.77 191.66ZM358.498 194.08C357.952 194.08 357.542 193.943 357.268 193.67C356.995 193.397 356.858 192.987 356.858 192.44V189.06H357.678V192.34C357.678 192.68 357.765 192.927 357.938 193.08C358.112 193.233 358.385 193.31 358.758 193.31C358.985 193.31 359.212 193.283 359.438 193.23C359.672 193.17 359.905 193.08 360.138 192.96V189.06H360.958V194H360.208L360.168 193.59H360.148C359.802 193.77 359.502 193.897 359.248 193.97C358.995 194.043 358.745 194.08 358.498 194.08ZM363.099 194H362.279V189.06H362.989L363.029 189.54H363.059C363.326 189.34 363.602 189.193 363.889 189.1C364.182 189.007 364.509 188.96 364.869 188.96C365.416 188.96 365.829 189.097 366.109 189.37C366.396 189.643 366.539 190.047 366.539 190.58V194H365.719V190.68C365.719 190.347 365.626 190.1 365.439 189.94C365.252 189.78 364.966 189.7 364.579 189.7C364.339 189.7 364.092 189.74 363.839 189.82C363.592 189.893 363.346 190.003 363.099 190.15V194ZM371.526 193.04V193.73C371.353 193.823 371.096 193.907 370.756 193.98C370.423 194.047 370.083 194.08 369.736 194.08C368.963 194.08 368.41 193.88 368.076 193.48C367.743 193.08 367.576 192.42 367.576 191.5C367.576 190.613 367.75 189.97 368.096 189.57C368.443 189.163 368.996 188.96 369.756 188.96C370.463 188.96 370.97 189.12 371.276 189.44C371.583 189.753 371.736 190.28 371.736 191.02C371.736 191.153 371.733 191.277 371.726 191.39C371.72 191.503 371.706 191.64 371.686 191.8H368.406C368.413 192.347 368.523 192.737 368.736 192.97C368.956 193.203 369.333 193.32 369.866 193.32C370.153 193.32 370.453 193.293 370.766 193.24C371.08 193.187 371.333 193.12 371.526 193.04ZM370.986 190.91C370.98 190.47 370.883 190.16 370.696 189.98C370.51 189.793 370.196 189.7 369.756 189.7C369.263 189.7 368.913 189.807 368.706 190.02C368.506 190.227 368.406 190.593 368.406 191.12H370.976C370.976 191.107 370.976 191.077 370.976 191.03C370.983 190.977 370.986 190.937 370.986 190.91Z" fill="#CCCCCC"/>
<defs>
<linearGradient id="paint0_linear_2265_1857" x1="96.4626" y1="81.9334" x2="96.5" y2="148" gradientUnits="userSpaceOnUse">
<stop stop-color="#E064FF"/>
<stop offset="1" stop-color="white" stop-opacity="0.01"/>
</linearGradient>
<linearGradient id="paint1_linear_2265_1857" x1="96.4625" y1="64.9334" x2="97.5" y2="145.5" gradientUnits="userSpaceOnUse">
<stop stop-color="#03B52F"/>
<stop offset="1" stop-color="white" stop-opacity="0.01"/>
</linearGradient>
</defs>
</svg>
