<?xml version="1.0" encoding="utf-8"?>
<!-- Generator: Adobe Illustrator 17.0.0, SVG Export Plug-In . SVG Version: 6.00 Build 0)  -->
<!DOCTYPE svg PUBLIC "-//W3C//DTD SVG 1.1//EN" "http://www.w3.org/Graphics/SVG/1.1/DTD/svg11.dtd">
<svg version="1.1" id="Layer_1" xmlns="http://www.w3.org/2000/svg" xmlns:xlink="http://www.w3.org/1999/xlink" x="0px" y="0px"
	 width="40px" height="40px" viewBox="0 0 40 40" enable-background="new 0 0 40 40" xml:space="preserve">
<g>
	<circle fill="none" stroke="#BEBCBC" cx="20" cy="20" r="19"/>
	<path fill="#0162DD" d="M28.006,14.112H16.187c-0.422,0-0.763-0.341-0.763-0.763s0.341-0.763,0.763-0.763h11.819
		c0.422,0,0.763,0.341,0.763,0.763C28.769,13.771,28.428,14.112,28.006,14.112z M28.006,27.839H16.187
		c-0.422,0-0.763-0.341-0.763-0.763c0-0.422,0.341-0.763,0.763-0.763h11.819c0.422,0,0.763,0.341,0.763,0.763
		C28.769,27.497,28.428,27.839,28.006,27.839z M28.006,20.975H16.187c-0.422,0-0.763-0.341-0.763-0.763
		c0-0.422,0.341-0.763,0.763-0.763h11.819c0.422,0,0.763,0.341,0.763,0.763C28.769,20.634,28.428,20.975,28.006,20.975z"/>
	<path fill="#0162DD" d="M11.231,13.349c0,0.15,0.029,0.299,0.087,0.437c0.057,0.138,0.141,0.265,0.248,0.371
		c0.106,0.106,0.233,0.19,0.371,0.247c0.138,0.057,0.287,0.087,0.437,0.087s0.299-0.029,0.437-0.087
		c0.138-0.057,0.265-0.141,0.371-0.247c0.106-0.106,0.19-0.232,0.248-0.371c0.058-0.138,0.087-0.287,0.087-0.437
		c0-0.303-0.121-0.594-0.335-0.809c-0.214-0.214-0.506-0.335-0.809-0.335c-0.303,0-0.594,0.121-0.809,0.335
		C11.352,12.755,11.231,13.046,11.231,13.349z"/>
	<path fill="#0162DD" d="M11.231,20.212c0,0.15,0.029,0.299,0.087,0.437c0.057,0.138,0.141,0.265,0.248,0.371
		c0.106,0.106,0.233,0.19,0.371,0.247c0.138,0.057,0.287,0.087,0.437,0.087s0.299-0.029,0.437-0.087
		c0.138-0.057,0.265-0.142,0.371-0.247c0.106-0.106,0.19-0.232,0.248-0.371c0.058-0.138,0.087-0.287,0.087-0.437
		c0-0.303-0.121-0.594-0.335-0.809c-0.214-0.214-0.506-0.335-0.809-0.335c-0.303,0-0.594,0.121-0.809,0.335
		C11.352,19.618,11.231,19.908,11.231,20.212z"/>
	<path fill="#0162DD" d="M11.231,27.075c0,0.15,0.029,0.299,0.087,0.437c0.057,0.138,0.141,0.265,0.248,0.371
		c0.106,0.106,0.233,0.191,0.371,0.248c0.138,0.057,0.287,0.087,0.437,0.087s0.299-0.029,0.437-0.087
		c0.138-0.057,0.265-0.142,0.371-0.248c0.106-0.106,0.19-0.232,0.248-0.371c0.058-0.139,0.087-0.287,0.087-0.437
		c0-0.303-0.121-0.594-0.335-0.809c-0.214-0.214-0.506-0.335-0.809-0.335c-0.303,0-0.594,0.121-0.809,0.335
		C11.352,26.48,11.231,26.771,11.231,27.075z"/>
</g>
</svg>
