<?xml version="1.0" encoding="utf-8"?>
<!-- Generator: Adobe Illustrator 17.0.0, SVG Export Plug-In . SVG Version: 6.00 Build 0)  -->
<!DOCTYPE svg PUBLIC "-//W3C//DTD SVG 1.1//EN" "http://www.w3.org/Graphics/SVG/1.1/DTD/svg11.dtd">
<svg version="1.1" id="Layer_1" xmlns="http://www.w3.org/2000/svg" xmlns:xlink="http://www.w3.org/1999/xlink" x="0px" y="0px"
	 width="40px" height="40px" viewBox="0 0 40 40" enable-background="new 0 0 40 40" xml:space="preserve">
<circle fill="none" stroke="#3C4147" cx="20" cy="20" r="19.5"/>
<path fill="#00C9FF" d="M28.217,13.957h-12.13c-0.433,0-0.783-0.35-0.783-0.783s0.35-0.783,0.783-0.783h12.13
	c0.433,0,0.783,0.35,0.783,0.783C29,13.607,28.65,13.957,28.217,13.957z M28.217,28.045h-12.13c-0.433,0-0.783-0.35-0.783-0.783
	c0-0.433,0.35-0.783,0.783-0.783h12.13c0.433,0,0.783,0.35,0.783,0.783C29,27.694,28.65,28.045,28.217,28.045z M28.217,21.001
	h-12.13c-0.433,0-0.783-0.35-0.783-0.783s0.35-0.783,0.783-0.783h12.13c0.433,0,0.783,0.35,0.783,0.783S28.65,21.001,28.217,21.001z
	"/>
<path fill="#00C9FF" d="M11,13.174c0,0.154,0.03,0.307,0.089,0.449s0.145,0.272,0.254,0.381c0.109,0.109,0.239,0.195,0.381,0.254
	s0.295,0.089,0.449,0.089s0.307-0.03,0.449-0.089s0.272-0.145,0.381-0.254s0.195-0.238,0.254-0.381
	c0.059-0.142,0.089-0.295,0.089-0.449c0-0.311-0.124-0.61-0.344-0.83S12.483,12,12.172,12s-0.61,0.124-0.83,0.344
	C11.124,12.564,11,12.863,11,13.174z"/>
<path fill="#00C9FF" d="M11,20.218c0,0.154,0.03,0.307,0.089,0.449s0.145,0.272,0.254,0.381c0.109,0.109,0.239,0.195,0.381,0.254
	s0.295,0.089,0.449,0.089s0.307-0.03,0.449-0.089s0.272-0.146,0.381-0.254c0.109-0.109,0.195-0.238,0.254-0.381
	c0.059-0.142,0.089-0.295,0.089-0.449c0-0.311-0.124-0.61-0.344-0.83s-0.519-0.344-0.83-0.344s-0.61,0.124-0.83,0.344
	C11.124,19.608,11,19.906,11,20.218z"/>
<path fill="#00C9FF" d="M11,27.261c0,0.154,0.03,0.307,0.089,0.449s0.145,0.272,0.254,0.381c0.109,0.109,0.239,0.196,0.381,0.255
	c0.142,0.059,0.295,0.089,0.449,0.089s0.307-0.03,0.449-0.089s0.272-0.146,0.381-0.255c0.109-0.109,0.195-0.238,0.254-0.381
	s0.089-0.295,0.089-0.449c0-0.311-0.124-0.61-0.344-0.83s-0.519-0.344-0.83-0.344s-0.61,0.124-0.83,0.344
	C11.124,26.651,11,26.949,11,27.261z"/>
</svg>
