<svg width="43" height="48" viewBox="0 0 43 48" fill="none" xmlns="http://www.w3.org/2000/svg">
<path d="M27.0061 38.1408C33.4934 34.2593 36.2654 28.259 37.152 26.0397C37.6067 24.9012 37.8646 24.0079 38.1382 23.0606C38.4979 21.8154 38.7783 20.6208 39 19.4861V15.9686C39 10.9257 37.482 7.00589 34.4528 4.20228C31.4171 1.40517 26.8699 0 20.8111 0C16.6023 0 13.0007 0.778692 10 2.32768C12.3973 1.66892 17.229 0.607817 22.4035 2.56083C24.0484 3.18164 26.5069 4.10961 28.2628 6.57902C29.439 8.23284 29.8286 9.91559 30.1997 11.5185C30.4879 12.7632 30.6373 13.9239 30.7034 14.9645C30.7139 15.0211 30.724 15.0773 30.7326 15.128C30.8517 17.09 30.9341 19.1196 30.9712 21.2126C31.0411 25.139 30.9446 28.8616 30.7326 32.3569C30.0394 33.6968 28.7293 35.7744 26.4208 37.5399C25.6438 38.1341 24.8074 38.6476 23.9118 39.0805C21.8666 40.0737 19.9252 40.7109 18.0863 41C19.0404 40.9665 19.9912 40.8465 20.923 40.6337C23.687 40.0026 25.6082 38.9772 27.0061 38.1408Z" fill="url(#paint0_linear_3419_4384)"/>
<path d="M28.5236 6.27444C26.7413 3.739 24.2461 2.78632 22.5768 2.14898C17.3248 0.143839 12.4211 1.23333 9.98776 1.90942C9.04175 2.40353 8.15277 2.9715 7.3248 3.61826C4.97941 5.45106 3.75657 7.44871 3.44297 7.96337C1.34662 11.4053 0.997713 14.9075 1.00001 16.9127C1.00106 17.7829 1.06833 18.5042 1.12954 19C1.49391 18.6209 2.04944 18.0961 2.79969 17.5795C4.13995 16.6564 5.39601 16.2453 6.60861 15.9227C10.1221 14.988 13.9672 14.6108 15.3045 14.4933C15.8464 14.4053 16.4945 14.2428 17.1898 13.9394C18.8621 13.2098 19.9105 12.0565 20.4528 11.3498C18.4793 12.2952 16.1665 12.431 14.0915 11.7538C13.5512 11.5774 12.9514 11.2515 12.8728 10.6746C12.8172 10.2674 13.0496 9.88117 13.2936 9.55554C13.3299 9.50716 13.3696 9.46199 13.407 9.41446C13.477 9.35152 13.546 9.28772 13.618 9.22713C15.9141 7.29778 19.0006 7.21472 20.9603 7.28579C23.0431 7.36094 26.0349 7.46926 28.4246 9.82465C30.2289 11.6031 30.8001 13.7838 31 14.8837C30.9329 13.8155 30.7813 12.6238 30.4888 11.3457C30.1127 9.70027 29.7172 7.97258 28.5236 6.27444Z" fill="url(#paint1_linear_3419_4384)"/>
<path d="M3.84921 36.0168C4.69881 33.016 7.15969 30.6667 9.9645 29.2982C11.6294 28.4857 13.413 27.9778 15.2361 27.6262C16.6726 27.249 18.1888 27.047 19.5142 26.7608C24.3991 25.7057 26.5129 25.0016 28.3956 23.534C29.1905 22.9143 29.9118 22.1843 30.4088 21.136C31.2191 19.4264 31.0092 17.7649 30.859 17C30.1261 17.5 29.0908 17.942 27.7456 18.3259C24.7908 19.1694 21.3411 19.8744 17.4035 20.4346C11.4937 21.2781 7.12751 22.965 4.31765 25.4957C0.271574 29.1394 -1.17269 35.5941 1.02568 40.5987C2.06102 42.9559 3.74066 44.7256 5.76802 46C4.99793 44.7626 4.39885 43.4187 4.0036 42.0156C3.45459 40.0653 3.29725 37.9661 3.84921 36.0168Z" fill="url(#paint2_linear_3419_4384)"/>
<path d="M40.437 44.2398C40.1669 43.553 40.0647 42.6314 39.8709 40.8165C39.7645 39.8191 39.7017 38.9913 39.6642 38.421V19C39.4406 20.125 39.1575 21.3088 38.7948 22.543C38.5189 23.4819 38.2586 24.3676 37.7999 25.4957C36.9057 27.6953 34.1093 33.6423 27.5653 37.4896C26.1555 38.3184 24.2174 39.335 21.4289 39.9603C20.4892 40.1712 19.5297 40.2904 18.5671 40.3232C17.7977 40.4422 17.0456 40.5032 16.312 40.5032C13.0446 40.5032 9.92004 39.0725 8.99019 35.6824C8.30438 33.1821 9.30869 30.1939 11.3843 28.6216C12.297 27.9302 13.4156 27.5046 14.5881 27.197C12.787 27.5443 11.0251 28.0459 9.38044 28.8482C6.60967 30.1998 4.17867 32.5196 3.33955 35.4832C2.79453 37.4081 2.94971 39.4812 3.49223 41.407C3.88248 42.7924 4.47422 44.1195 5.23512 45.3416C8.20906 47.2104 11.941 48 15.4783 48C18.534 48 21.4531 47.4468 24.2353 46.334C27.0109 45.2278 29.376 43.5617 31.3241 41.336C31.5394 42.2465 32.1474 44.2158 33.9357 45.7676C37.6332 48.9757 42.7518 47.2549 43 47.167C41.3339 46.0921 40.7035 44.9181 40.437 44.2398Z" fill="url(#paint3_linear_3419_4384)"/>
<defs>
<linearGradient id="paint0_linear_3419_4384" x1="24.5" y1="48.2611" x2="24.5" y2="-7.61498" gradientUnits="userSpaceOnUse">
<stop stop-color="#4B0082"/>
<stop offset="0.276" stop-color="#9400D3"/>
<stop offset="0.531" stop-color="#C05EEA"/>
<stop offset="0.761" stop-color="#9400D3"/>
<stop offset="0.951" stop-color="#4B0082"/>
</linearGradient>
<linearGradient id="paint1_linear_3419_4384" x1="16.0002" y1="22.188" x2="16.0002" y2="-2.34313" gradientUnits="userSpaceOnUse">
<stop stop-color="#4B0082"/>
<stop offset="0.276" stop-color="#9400D3"/>
<stop offset="0.531" stop-color="#C05EEA"/>
<stop offset="0.761" stop-color="#9400D3"/>
<stop offset="0.951" stop-color="#4B0082"/>
</linearGradient>
<linearGradient id="paint2_linear_3419_4384" x1="15.4999" y1="51.1354" x2="15.4999" y2="11.6134" gradientUnits="userSpaceOnUse">
<stop stop-color="#4B0082"/>
<stop offset="0.276" stop-color="#9400D3"/>
<stop offset="0.531" stop-color="#C05EEA"/>
<stop offset="0.761" stop-color="#9400D3"/>
<stop offset="0.951" stop-color="#4B0082"/>
</linearGradient>
<linearGradient id="paint3_linear_3419_4384" x1="23.0001" y1="53.1359" x2="23.0001" y2="13.6134" gradientUnits="userSpaceOnUse">
<stop stop-color="#4B0082"/>
<stop offset="0.276" stop-color="#9400D3"/>
<stop offset="0.531" stop-color="#C05EEA"/>
<stop offset="0.761" stop-color="#9400D3"/>
<stop offset="0.951" stop-color="#4B0082"/>
</linearGradient>
</defs>
</svg>
