<svg width="232" height="37" viewBox="0 0 232 37" fill="none" xmlns="http://www.w3.org/2000/svg">
<path d="M27.5911 2.27722L36.4206 9.84425V36.0915H27.5911V32.3729C25.8672 34.0128 24.1389 35.193 22.4052 35.9155C20.6716 36.638 18.7911 37 16.7668 37C12.2228 37 8.29125 35.2358 4.97406 31.7112C1.65688 28.1856 0 23.8026 0 18.5639C0 13.1302 1.60409 8.67744 4.81483 5.2065C8.02299 1.73556 11.9223 0 16.5102 0C18.6213 0 20.6026 0.399733 22.4544 1.19732C24.3062 1.9949 26.0193 3.19205 27.5922 4.78637V2.27739L27.5911 2.27722ZM18.3091 8.14812C15.5794 8.14812 13.3128 9.11283 11.5075 11.0433C9.70214 12.9737 8.8 15.4469 8.8 18.4655C8.8 21.5046 9.71741 24.0083 11.5567 25.9691C13.3932 27.9317 15.6562 28.9126 18.3414 28.9126C21.115 28.9126 23.413 27.9479 25.2406 26.0174C27.0665 24.0888 27.9803 21.5593 27.9803 18.4334C27.9803 15.3709 27.0665 12.8925 25.2406 10.9943C23.4128 9.09757 21.1033 8.14812 18.3091 8.14812Z" fill="#9C2A49"/>
<path d="M27.5913 0.951172L36.4208 8.47363V0.951345H27.5913V0.951172Z" fill="#DE834C"/>
<path d="M18.3894 26.1752C22.2673 26.1752 25.4101 22.7636 25.4101 18.5554C25.4101 14.347 22.2673 10.9355 18.3894 10.9355C14.5115 10.9355 11.3687 14.347 11.3687 18.5554C11.3687 22.7637 14.5115 26.1752 18.3894 26.1752Z" fill="#DE834C"/>
<path d="M215.582 35.4436C214.776 35.4436 213.931 35.3806 213.048 35.2545C212.165 35.1536 211.51 35.0023 211.081 34.8006V29.8452C211.812 30.1478 212.645 30.2991 213.578 30.2991C214.41 30.2991 215.053 30.11 215.507 29.7317C215.986 29.3787 216.364 28.8113 216.642 28.0295L217.096 26.819L209.228 9.79688H215.885L220.613 21.5989L225.077 9.79688H231.735L224.245 28.7861C223.362 31.0557 222.227 32.7327 220.84 33.8171C219.479 34.9014 217.726 35.4436 215.582 35.4436Z" fill="#9C2A49"/>
<path d="M196.107 28.5223C193.838 28.5223 191.997 27.9801 190.584 26.8957C189.197 25.7861 188.504 24.2478 188.504 22.2808C188.504 20.2381 189.172 18.6746 190.509 17.5902C191.871 16.4807 193.812 15.9259 196.334 15.9259C197.318 15.9259 198.301 16.0393 199.285 16.2663C200.268 16.468 201.113 16.7454 201.819 17.0985V16.7202C201.819 14.7784 200.23 13.8075 197.053 13.8075C194.834 13.8075 192.804 14.2362 190.963 15.0937V10.5166C191.77 10.1383 192.829 9.8357 194.14 9.60874C195.451 9.35656 196.813 9.23047 198.225 9.23047C201.605 9.23047 204.152 9.91136 205.867 11.2731C207.607 12.6097 208.477 14.4884 208.477 16.9094V27.9549H202.235V26.4039C201.554 27.0596 200.697 27.5766 199.663 27.9549C198.629 28.3331 197.444 28.5223 196.107 28.5223ZM198.074 24.4369C198.856 24.4369 199.587 24.2856 200.268 23.983C200.949 23.6552 201.466 23.2391 201.819 22.7347V21.146C200.735 20.4147 199.499 20.049 198.112 20.049C197.229 20.049 196.548 20.2381 196.069 20.6164C195.59 20.9947 195.351 21.5495 195.351 22.2808C195.351 22.9617 195.578 23.4913 196.031 23.8695C196.511 24.2478 197.192 24.4369 198.074 24.4369Z" fill="#9C2A49"/>
<path d="M165.064 9.79787H171.495V11.6136C173.185 10.0248 175.328 9.23047 177.926 9.23047C179.817 9.23047 181.494 9.63396 182.957 10.4409C184.419 11.2227 185.554 12.3449 186.361 13.8075C187.168 15.245 187.572 16.922 187.572 18.8385C187.572 20.7299 187.168 22.4195 186.361 23.9074C185.554 25.37 184.419 26.5048 182.957 27.3118C181.519 28.1188 179.842 28.5223 177.926 28.5223C176.715 28.5223 175.555 28.3331 174.446 27.9549C173.361 27.6018 172.453 27.1101 171.722 26.4796V36.239H165.064V9.79787ZM176.186 23.34C177.547 23.34 178.644 22.9365 179.477 22.1295C180.309 21.3225 180.725 20.2255 180.725 18.8385C180.725 17.4515 180.309 16.3672 179.477 15.5854C178.644 14.7784 177.547 14.3749 176.186 14.3749C175.177 14.3749 174.269 14.6397 173.462 15.1693C172.655 15.6737 172.075 16.3672 171.722 17.2498V20.4651C172.075 21.3477 172.655 22.0538 173.462 22.5834C174.269 23.0878 175.177 23.34 176.186 23.34Z" fill="#9C2A49"/>
<path d="M136.633 28.5223C134.363 28.5223 132.522 27.9801 131.11 26.8957C129.723 25.7861 129.03 24.2478 129.03 22.2808C129.03 20.2381 129.698 18.6746 131.035 17.5902C132.396 16.4807 134.338 15.9259 136.86 15.9259C137.843 15.9259 138.827 16.0393 139.81 16.2663C140.794 16.468 141.639 16.7454 142.345 17.0985V16.7202C142.345 14.7784 140.756 13.8075 137.579 13.8075C135.36 13.8075 133.329 14.2362 131.489 15.0937V10.5166C132.296 10.1383 133.355 9.8357 134.666 9.60874C135.977 9.35656 137.339 9.23047 138.751 9.23047C142.131 9.23047 144.678 9.91136 146.392 11.2731C148.132 12.6097 149.002 14.4884 149.002 16.9094V27.9549H142.761V26.4039C142.08 27.0596 141.223 27.5766 140.189 27.9549C139.155 28.3331 137.97 28.5223 136.633 28.5223ZM138.6 24.4369C139.382 24.4369 140.113 24.2856 140.794 23.983C141.475 23.6552 141.992 23.2391 142.345 22.7347V21.146C141.261 20.4147 140.025 20.049 138.638 20.049C137.755 20.049 137.074 20.2381 136.595 20.6164C136.116 20.9947 135.876 21.5495 135.876 22.2808C135.876 22.9617 136.103 23.4913 136.557 23.8695C137.037 24.2478 137.717 24.4369 138.6 24.4369Z" fill="#9C2A49"/>
<path d="M106.883 0H113.541V11.6507C114.348 10.8438 115.268 10.2385 116.302 9.83503C117.361 9.43154 118.471 9.2298 119.631 9.2298C122.178 9.2298 124.057 9.89808 125.267 11.2346C126.503 12.546 127.121 14.3365 127.121 16.6061V27.9542H120.463V17.4761C120.463 15.4334 119.53 14.4121 117.664 14.4121C116.806 14.4121 116.025 14.6139 115.318 15.0173C114.612 15.3956 114.02 15.9882 113.541 16.7952V27.9542H106.883V0Z" fill="#9C2A49"/>
<path d="M100.16 28.5211C97.9153 28.5211 96.2131 27.9033 95.053 26.6676C93.9182 25.4067 93.3508 23.6918 93.3508 21.5231V14.4116H90.7786V9.7967H93.3508V4.34961H100.008V9.7967H104.169V14.4116H100.008V20.6152C100.008 21.5987 100.185 22.3048 100.538 22.7336C100.916 23.1623 101.572 23.3766 102.505 23.3766C103.337 23.3766 104.169 23.1497 105.002 22.6957V27.6511C104.346 27.9537 103.64 28.168 102.883 28.2941C102.152 28.4454 101.244 28.5211 100.16 28.5211Z" fill="#9C2A49"/>
<path d="M76.7029 9.79604H83.1335V12.0657C83.8396 11.2587 84.8357 10.6408 86.1218 10.2121C87.4079 9.75821 88.8328 9.53125 90.3963 9.53125V14.6379C88.7319 14.6379 87.2566 14.8775 85.9705 15.3566C84.7096 15.8358 83.8396 16.5545 83.3604 17.5128V27.953H76.7029V9.79604Z" fill="#9C2A49"/>
<path d="M56.9116 1.51367H63.4936L74.0473 27.9548H67.2006L65.0823 22.5077H55.3229L53.2046 27.9548H46.3201L56.9116 1.51367ZM63.4179 17.3632L60.2026 8.47385L56.9495 17.3632H63.4179Z" fill="#9C2A49"/>
</svg>
