<svg width="32" height="32" viewBox="0 0 32 32" fill="none" xmlns="http://www.w3.org/2000/svg">
<circle cx="16" cy="16" r="16" fill="url(#paint0_linear_3434_3675)"/>
<path d="M17.5324 20.7886C19.573 19.5889 20.4449 17.7343 20.7237 17.0484C20.8667 16.6965 20.9479 16.4204 21.0339 16.1276C21.1471 15.7427 21.2353 15.3735 21.305 15.0228V13.9356C21.305 12.3769 20.8275 11.1654 19.8747 10.2988C18.9199 9.43431 17.4896 9 15.5839 9C14.26 9 13.1272 9.24068 12.1833 9.71944C12.9374 9.51583 14.4572 9.18786 16.0847 9.7915C16.6021 9.98338 17.3754 10.2702 17.9277 11.0335C18.2977 11.5446 18.4202 12.0647 18.5369 12.5601C18.6276 12.9449 18.6746 13.3036 18.6954 13.6252C18.6987 13.6427 18.7019 13.6601 18.7046 13.6758C18.742 14.2822 18.768 14.9095 18.7796 15.5564C18.8016 16.77 18.7713 17.9206 18.7046 19.0009C18.4865 19.4151 18.0745 20.0572 17.3483 20.6029C17.104 20.7865 16.8409 20.9452 16.5592 21.0791C15.9159 21.386 15.3052 21.583 14.7268 21.6723C15.0269 21.662 15.326 21.6249 15.6191 21.5591C16.4885 21.3641 17.0928 21.0471 17.5324 20.7886Z" fill="url(#paint1_linear_3434_3675)"/>
<path d="M17.9658 11.0243C17.4129 10.2568 16.639 9.96844 16.1212 9.77552C14.4922 9.16858 12.9712 9.49836 12.2165 9.70301C11.923 9.85257 11.6473 10.0245 11.3905 10.2203C10.663 10.775 10.2837 11.3797 10.1865 11.5355C9.53622 12.5773 9.428 13.6375 9.42871 14.2444C9.42904 14.5078 9.4499 14.7261 9.46889 14.8762C9.58191 14.7615 9.75422 14.6026 9.98693 14.4463C10.4026 14.1668 10.7922 14.0424 11.1683 13.9447C12.2581 13.6618 13.4508 13.5476 13.8656 13.5121C14.0337 13.4854 14.2347 13.4362 14.4504 13.3444C14.969 13.1236 15.2942 12.7745 15.4624 12.5606C14.8503 12.8467 14.1329 12.8878 13.4893 12.6828C13.3217 12.6294 13.1357 12.5308 13.1113 12.3562C13.0941 12.2329 13.1662 12.116 13.2418 12.0174C13.2531 12.0028 13.2654 11.9891 13.277 11.9747C13.2987 11.9557 13.3201 11.9364 13.3425 11.918C14.0547 11.334 15.012 11.3089 15.6199 11.3304C16.2659 11.3532 17.1938 11.3859 17.9351 12.0989C18.4947 12.6372 18.6719 13.2973 18.7339 13.6303C18.7131 13.3069 18.666 12.9462 18.5753 12.5593C18.4587 12.0613 18.336 11.5383 17.9658 11.0243Z" fill="url(#paint2_linear_3434_3675)"/>
<path d="M10.1858 20.1892C10.4476 19.2644 11.2057 18.5403 12.0698 18.1185C12.5827 17.8681 13.1322 17.7115 13.6938 17.6032C14.1363 17.4869 14.6034 17.4247 15.0118 17.3365C16.5167 17.0113 17.1679 16.7943 17.7479 16.3419C17.9928 16.151 18.215 15.926 18.3681 15.6029C18.6177 15.076 18.5531 14.5639 18.5068 14.3281C18.281 14.4822 17.962 14.6184 17.5476 14.7368C16.6373 14.9968 15.5746 15.214 14.3615 15.3867C12.5409 15.6467 11.1958 16.1666 10.3301 16.9466C9.08366 18.0696 8.63873 20.059 9.31598 21.6014C9.63494 22.3279 10.1524 22.8734 10.777 23.2661C10.5397 22.8848 10.3552 22.4705 10.2334 22.0381C10.0643 21.437 10.0158 20.79 10.1858 20.1892Z" fill="url(#paint3_linear_3434_3675)"/>
<path d="M21.5491 22.8323C21.4652 22.6191 21.4334 22.3332 21.3732 21.77C21.3402 21.4605 21.3207 21.2036 21.309 21.0266V15C21.2395 15.3491 21.1516 15.7165 21.0389 16.0994C20.9532 16.3908 20.8723 16.6656 20.7298 17.0157C20.452 17.6983 19.5832 19.5437 17.5501 20.7376C17.1121 20.9948 16.5099 21.3102 15.6436 21.5043C15.3516 21.5697 15.0535 21.6067 14.7545 21.6169C14.5154 21.6538 14.2817 21.6728 14.0538 21.6728C13.0387 21.6728 12.0679 21.2288 11.779 20.1768C11.566 19.4009 11.878 18.4736 12.5228 17.9857C12.8064 17.7712 13.154 17.6391 13.5182 17.5436C12.9586 17.6514 12.4113 17.8071 11.9003 18.056C11.0394 18.4754 10.2842 19.1953 10.0235 20.115C9.85413 20.7123 9.90235 21.3556 10.0709 21.9532C10.1921 22.3831 10.376 22.7949 10.6124 23.1742C11.5363 23.7541 12.6958 23.9991 13.7948 23.9991C14.7442 23.9991 15.6511 23.8275 16.5155 23.4821C17.3778 23.1389 18.1126 22.6219 18.7179 21.9312C18.7847 22.2137 18.9736 22.8248 19.5293 23.3064C20.678 24.3019 22.2683 23.7679 22.3454 23.7406C21.8278 23.4071 21.6319 23.0428 21.5491 22.8323Z" fill="url(#paint4_linear_3434_3675)"/>
<defs>
<linearGradient id="paint0_linear_3434_3675" x1="16" y1="0" x2="16" y2="32" gradientUnits="userSpaceOnUse">
<stop stop-color="#F0CDFF"/>
<stop offset="1" stop-color="#F0CDFF"/>
</linearGradient>
<linearGradient id="paint1_linear_3434_3675" x1="16.7442" y1="23.9166" x2="16.7442" y2="6.64635" gradientUnits="userSpaceOnUse">
<stop stop-color="#4B0082"/>
<stop offset="0.276" stop-color="#9400D3"/>
<stop offset="0.531" stop-color="#C05EEA"/>
<stop offset="0.761" stop-color="#9400D3"/>
<stop offset="0.951" stop-color="#4B0082"/>
</linearGradient>
<linearGradient id="paint2_linear_3434_3675" x1="14.0814" y1="15.8412" x2="14.0814" y2="8.41579" gradientUnits="userSpaceOnUse">
<stop stop-color="#4B0082"/>
<stop offset="0.276" stop-color="#9400D3"/>
<stop offset="0.531" stop-color="#C05EEA"/>
<stop offset="0.761" stop-color="#9400D3"/>
<stop offset="0.951" stop-color="#4B0082"/>
</linearGradient>
<linearGradient id="paint3_linear_3434_3675" x1="13.7751" y1="24.8489" x2="13.7751" y2="12.6679" gradientUnits="userSpaceOnUse">
<stop stop-color="#4B0082"/>
<stop offset="0.276" stop-color="#9400D3"/>
<stop offset="0.531" stop-color="#C05EEA"/>
<stop offset="0.761" stop-color="#9400D3"/>
<stop offset="0.951" stop-color="#4B0082"/>
</linearGradient>
<linearGradient id="paint4_linear_3434_3675" x1="16.1317" y1="25.5928" x2="16.1317" y2="13.3285" gradientUnits="userSpaceOnUse">
<stop stop-color="#4B0082"/>
<stop offset="0.276" stop-color="#9400D3"/>
<stop offset="0.531" stop-color="#C05EEA"/>
<stop offset="0.761" stop-color="#9400D3"/>
<stop offset="0.951" stop-color="#4B0082"/>
</linearGradient>
</defs>
</svg>
