<svg width="244" height="38" viewBox="0 0 244 38" fill="none" xmlns="http://www.w3.org/2000/svg">
<path d="M28.3369 2.33877L37.405 10.1103V37.067H28.3369V33.2478C26.5664 34.9321 24.7913 36.1441 23.0108 36.8862C21.2302 37.6282 19.299 38 17.2199 38C12.5531 38 8.51533 36.1881 5.1085 32.5683C1.70166 28.9474 0 24.4459 0 19.0656C0 13.4851 1.64744 8.91196 4.94496 5.34721C8.23983 1.78246 12.2445 0 16.9564 0C19.1246 0 21.1595 0.410536 23.0613 1.22968C24.9631 2.04882 26.7225 3.27832 28.3379 4.91573V2.33894L28.3369 2.33877ZM18.804 8.36834C16.0005 8.36834 13.6726 9.35912 11.8185 11.3417C9.96437 13.3244 9.03784 15.8644 9.03784 18.9645C9.03784 22.0858 9.98004 24.6571 11.869 26.6709C13.7552 28.6867 16.0793 29.694 18.8371 29.694C21.6857 29.694 24.0457 28.7032 25.9227 26.7206C27.798 24.7399 28.7365 22.142 28.7365 18.9316C28.7365 15.7864 27.798 13.2409 25.9227 11.2914C24.0456 9.34345 21.6737 8.36834 18.804 8.36834Z" fill="white"/>
<path d="M28.337 0.976562L37.4052 8.70233V0.97674H28.337V0.976562Z" fill="#DE834C"/>
<path d="M18.8865 26.8839C22.8692 26.8839 26.097 23.3801 26.097 19.0582C26.097 14.7361 22.8692 11.2324 18.8865 11.2324C14.9038 11.2324 11.676 14.7361 11.676 19.0582C11.676 23.3803 14.9038 26.8839 18.8865 26.8839Z" fill="#DE834C"/>
<path d="M226.544 36.4024C225.715 36.4024 224.848 36.3376 223.941 36.2081C223.035 36.1045 222.361 35.9492 221.921 35.742V30.6527C222.672 30.9635 223.527 31.1189 224.485 31.1189C225.34 31.1189 226 30.9246 226.467 30.5361C226.959 30.1735 227.347 29.5908 227.632 28.7879L228.098 27.5447L220.018 10.0625H226.855L231.711 22.1835L236.295 10.0625H243.133L235.441 29.5649C234.534 31.8959 233.369 33.6182 231.944 34.7319C230.546 35.8456 228.746 36.4024 226.544 36.4024Z" fill="white"/>
<path d="M206.543 29.2937C204.212 29.2937 202.321 28.7368 200.87 27.6231C199.446 26.4836 198.734 24.9037 198.734 22.8835C198.734 20.7856 199.42 19.1799 200.793 18.0662C202.191 16.9266 204.186 16.3568 206.776 16.3568C207.786 16.3568 208.796 16.4734 209.806 16.7065C210.816 16.9137 211.684 17.1986 212.409 17.5611V17.1727C212.409 15.1784 210.777 14.1812 207.514 14.1812C205.235 14.1812 203.15 14.6215 201.259 15.5021V10.8013C202.088 10.4129 203.176 10.1021 204.522 9.86896C205.869 9.60997 207.268 9.48047 208.718 9.48047C212.189 9.48047 214.804 10.1798 216.566 11.5783C218.353 12.951 219.246 14.8805 219.246 17.3669V28.7109H212.836V27.1181C212.137 27.7915 211.256 28.3224 210.194 28.7109C209.132 29.0994 207.915 29.2937 206.543 29.2937ZM208.563 25.0979C209.366 25.0979 210.117 24.9425 210.816 24.6317C211.515 24.295 212.046 23.8677 212.409 23.3497V21.718C211.295 20.9669 210.026 20.5914 208.602 20.5914C207.695 20.5914 206.996 20.7856 206.504 21.1741C206.012 21.5626 205.766 22.1324 205.766 22.8835C205.766 23.5828 205.999 24.1267 206.465 24.5152C206.957 24.9037 207.656 25.0979 208.563 25.0979Z" fill="white"/>
<path d="M174.661 10.0632H181.265V11.928C183.001 10.2963 185.202 9.48047 187.87 9.48047C189.812 9.48047 191.535 9.89486 193.037 10.7236C194.539 11.5265 195.704 12.6791 196.533 14.1812C197.362 15.6575 197.776 17.3798 197.776 19.3482C197.776 21.2907 197.362 23.026 196.533 24.554C195.704 26.0562 194.539 27.2217 193.037 28.0505C191.56 28.8793 189.838 29.2937 187.87 29.2937C186.627 29.2937 185.435 29.0994 184.296 28.7109C183.182 28.3483 182.25 27.8433 181.498 27.1958V37.2189H174.661V10.0632ZM186.083 23.9713C187.481 23.9713 188.608 23.5569 189.463 22.7281C190.317 21.8993 190.745 20.7727 190.745 19.3482C190.745 17.9237 190.317 16.8101 189.463 16.0072C188.608 15.1784 187.481 14.764 186.083 14.764C185.047 14.764 184.114 15.0359 183.285 15.5798C182.457 16.0978 181.861 16.8101 181.498 17.7165V21.0187C181.861 21.9252 182.457 22.6504 183.285 23.1943C184.114 23.7123 185.047 23.9713 186.083 23.9713Z" fill="white"/>
<path d="M145.461 29.2937C143.13 29.2937 141.239 28.7368 139.789 27.6231C138.365 26.4836 137.652 24.9037 137.652 22.8835C137.652 20.7856 138.339 19.1799 139.711 18.0662C141.11 16.9266 143.104 16.3568 145.694 16.3568C146.704 16.3568 147.714 16.4734 148.724 16.7065C149.735 16.9137 150.602 17.1986 151.327 17.5611V17.1727C151.327 15.1784 149.696 14.1812 146.432 14.1812C144.153 14.1812 142.068 14.6215 140.178 15.5021V10.8013C141.006 10.4129 142.094 10.1021 143.441 9.86896C144.788 9.60997 146.186 9.48047 147.637 9.48047C151.107 9.48047 153.723 10.1798 155.484 11.5783C157.271 12.951 158.165 14.8805 158.165 17.3669V28.7109H151.755V27.1181C151.055 27.7915 150.175 28.3224 149.113 28.7109C148.051 29.0994 146.834 29.2937 145.461 29.2937ZM147.481 25.0979C148.284 25.0979 149.035 24.9425 149.735 24.6317C150.434 24.295 150.965 23.8677 151.327 23.3497V21.718C150.214 20.9669 148.945 20.5914 147.52 20.5914C146.614 20.5914 145.914 20.7856 145.422 21.1741C144.93 21.5626 144.684 22.1324 144.684 22.8835C144.684 23.5828 144.917 24.1267 145.383 24.5152C145.875 24.9037 146.575 25.0979 147.481 25.0979Z" fill="white"/>
<path d="M114.907 0H121.745V11.9656C122.573 11.1368 123.519 10.5152 124.581 10.1008C125.668 9.68645 126.808 9.47925 127.999 9.47925C130.615 9.47925 132.545 10.1656 133.788 11.5383C135.057 12.885 135.692 14.7239 135.692 17.0549V28.7097H128.854V17.9484C128.854 15.8506 127.896 14.8016 125.979 14.8016C125.099 14.8016 124.296 15.0088 123.571 15.4232C122.845 15.8117 122.237 16.4203 121.745 17.2491V28.7097H114.907V0Z" fill="white"/>
<path d="M108.002 29.2896C105.697 29.2896 103.949 28.6551 102.757 27.386C101.592 26.091 101.009 24.3298 101.009 22.1025V14.7988H98.3672V10.0592H101.009V4.46484H107.846V10.0592H112.12V14.7988H107.846V21.1701C107.846 22.1802 108.028 22.9054 108.39 23.3457C108.779 23.7859 109.452 24.0061 110.411 24.0061C111.265 24.0061 112.12 23.773 112.975 23.3068V28.3961C112.301 28.7069 111.576 28.927 110.799 29.0565C110.048 29.2119 109.116 29.2896 108.002 29.2896Z" fill="white"/>
<path d="M83.9112 10.061H90.5156V12.392C91.2408 11.5632 92.2638 10.9286 93.5847 10.4884C94.9055 10.0222 96.3689 9.78906 97.9746 9.78906V15.0337C96.2653 15.0337 94.7501 15.2798 93.4293 15.7719C92.1343 16.264 91.2407 17.0021 90.7487 17.9863V28.7087H83.9112V10.061Z" fill="white"/>
<path d="M63.585 1.55273H70.3448L81.1838 28.7085H74.152L71.9765 23.1142H61.9533L59.7777 28.7085H52.7072L63.585 1.55273ZM70.2671 17.8306L66.9649 8.70102L63.6238 17.8306H70.2671Z" fill="white"/>
</svg>
