<svg width="36" height="36" viewBox="0 0 36 36" fill="none" xmlns="http://www.w3.org/2000/svg">
<circle cx="18" cy="18" r="16" fill="url(#paint0_linear_3434_3754)"/>
<path d="M35.5 18C35.5 27.665 27.665 35.5 18 35.5C8.33502 35.5 0.5 27.665 0.5 18C0.5 8.33502 8.33502 0.5 18 0.5C27.665 0.5 35.5 8.33502 35.5 18Z" fill="#E98D3B" stroke="#B9763A"/>
<path d="M25.129 14.5481C24.9013 12.1747 22.8513 11.3791 20.2648 11.1521L20.2647 7.85933L18.2614 7.86025L18.2608 11.0663C17.7342 11.0654 17.1967 11.0765 16.6602 11.0874L16.6614 7.86033L14.6579 7.86015L14.6577 11.1518C14.2239 11.1603 13.7971 11.1693 13.3818 11.1685L13.3816 11.1581L10.6173 11.1575L10.6176 13.2977C10.6176 13.2977 12.0981 13.2695 12.0735 13.2965C12.8853 13.297 13.1488 13.7681 13.226 14.1755L13.2267 17.9261C13.2823 17.9262 13.3549 17.929 13.4387 17.9394L13.2267 17.9401L13.2266 23.1947C13.1904 23.4495 13.0404 23.8567 12.4726 23.858C12.499 23.8804 11.0164 23.8582 11.0164 23.8582L10.6181 26.2509L13.2269 26.2509C13.7117 26.2517 14.1892 26.2602 14.6572 26.263L14.6583 29.5926L16.6605 29.5919L16.6604 26.2992C17.2102 26.3093 17.7423 26.3135 18.2618 26.3138L18.2608 29.593L20.2641 29.592L20.2645 26.269C23.6344 26.0757 25.9921 25.227 26.285 22.0629C26.5218 19.5157 25.3233 18.378 23.4106 17.9192C24.5734 17.3279 25.299 16.2855 25.129 14.5481ZM22.3245 21.6683C22.327 24.157 18.065 23.8736 16.7064 23.8749L16.7079 19.4629C18.0669 19.4637 22.3256 19.0732 22.3245 21.6683ZM21.3928 15.4437C21.3928 17.7081 17.839 17.4428 16.7086 17.4429L16.7084 13.4429C17.8388 13.4428 21.3929 13.0819 21.3928 15.4437Z" fill="white"/>
<defs>
<linearGradient id="paint0_linear_3434_3754" x1="18" y1="2" x2="18" y2="34" gradientUnits="userSpaceOnUse">
<stop stop-color="#F0CDFF"/>
<stop offset="1" stop-color="#F0CDFF"/>
</linearGradient>
</defs>
</svg>
