<svg width="234" height="175" viewBox="0 0 234 175" fill="none" xmlns="http://www.w3.org/2000/svg">
<rect width="234" height="175" rx="16" fill="#475569"/>
<rect x="27" y="31" width="180" height="113" rx="14" fill="#94A3BB"/>
<path d="M41 79C41 77.3431 42.3431 76 44 76H51.2439V99.4146H44C42.3431 99.4146 41 98.0715 41 96.4146V79Z" fill="#E8F0FB"/>
<rect x="52.707" y="76" width="18.2927" height="23.4146" rx="3" fill="#E8F0FB"/>
<rect x="60.7559" y="84.0488" width="10.2439" height="0.731707" fill="#C0D7ED"/>
<rect x="60.7559" y="92.0977" width="10.2439" height="0.731707" fill="#C0D7ED"/>
<rect x="60.0234" y="99.4146" width="15.3659" height="0.731707" transform="rotate(-90 60.0234 99.4146)" fill="#C0D7ED"/>
<rect x="41" y="85" width="10.2439" height="0.731707" fill="#C0D7ED"/>
<rect x="41" y="81" width="10.2439" height="0.731707" fill="#C0D7ED"/>
<rect x="41" y="89" width="10.2439" height="0.731707" fill="#C0D7ED"/>
<rect x="41" y="78.5854" width="10.2439" height="0.731707" fill="#C0D7ED"/>
<rect x="41" y="87" width="10.2439" height="0.731707" fill="#C0D7ED"/>
<rect x="41" y="83" width="10.2439" height="0.731707" fill="#C0D7ED"/>
<rect x="41" y="91" width="10.2439" height="0.731707" fill="#C0D7ED"/>
<rect x="41" y="93" width="10.2439" height="0.731707" fill="#C0D7ED"/>
<rect x="41" y="95" width="10.2439" height="0.731707" fill="#C0D7ED"/>
<circle cx="172.5" cy="121.5" r="8.5" fill="#7793A9"/>
<circle cx="184.5" cy="121.5" r="8.5" fill="#9CB0C3"/>
</svg>
