<?xml version="1.0" encoding="utf-8"?>
<!-- Generator: Adobe Illustrator 17.0.0, SVG Export Plug-In . SVG Version: 6.00 Build 0)  -->
<!DOCTYPE svg PUBLIC "-//W3C//DTD SVG 1.1//EN" "http://www.w3.org/Graphics/SVG/1.1/DTD/svg11.dtd">
<svg version="1.1" id="Layer_1" xmlns="http://www.w3.org/2000/svg" xmlns:xlink="http://www.w3.org/1999/xlink" x="0px" y="0px"
	 width="1177.82px" height="724.47px" viewBox="0 0 1177.82 724.47" enable-background="new 0 0 1177.82 724.47"
	 xml:space="preserve">
<title>under construction</title>
<path opacity="0.06" fill="#4583FF" enable-background="new    " d="M1177.82,465.31c0.02,19.629-2.354,39.186-7.07,58.24
	c-1.587,6.42-3.43,12.707-5.53,18.86c-2.569,7.595-5.547,15.046-8.92,22.32c-1.7,3.68-3.497,7.287-5.39,10.82
	c0.031,20.128-4.113,40.044-12.17,58.49c-14.564,33.094-40.536,59.853-73.18,75.4c-20.41,9.738-42.716,14.86-65.33,15H223.59
	c-34.554,0.074-68.512-9.004-98.42-26.31l-0.46-0.26c-4.26-2.493-8.413-5.133-12.46-7.92c-9.105-6.29-17.659-13.342-25.57-21.08
	c-10.708-10.464-20.143-22.155-28.11-34.83c-18.712-29.712-28.625-64.117-28.59-99.23c-18.95-33.25-30-73.08-30-115.88
	c0-54,17.56-103.26,46.41-140.55c6.015-7.791,12.603-15.121,19.71-21.93c7.012-6.738,14.549-12.907,22.54-18.45
	c6.393-4.439,13.074-8.448,20-12c2.89-1.47,5.79-2.86,8.74-4.15c2.59-1.15,5.21-2.22,7.86-3.23c3.18-1.207,6.4-2.317,9.66-3.33
	c3.26-1.013,6.477-1.9,9.65-2.66c4.667-1.14,9.413-2.067,14.24-2.78c4-0.59,8-1,12-1.31c3.18-0.24,6.39-0.37,9.62-0.41h1.75
	c3.56,0,7.1,0.14,10.61,0.38c0.37-0.74,0.77-1.49,1.14-2.22c1.4-2.67,2.85-5.33,4.31-7.93c-0.003-0.023-0.003-0.047,0-0.07
	c0.25-0.46,0.5-0.91,0.76-1.35c1.18-2.13,2.41-4.24,3.67-6.33c0.58-1,1.15-1.94,1.74-2.88c0.125-0.234,0.262-0.461,0.41-0.68
	c0.6-1,1.21-2,1.83-3c3.087-4.933,6.297-9.78,9.63-14.54l0.85-1.22c0.52-0.74,1-1.46,1.58-2.2c1.38-1.93,2.8-3.87,4.23-5.77
	c1-1.36,2-2.71,3.08-4c2.6-3.333,5.267-6.667,8-10c2.733-3.333,5.573-6.623,8.52-9.87c0.4-0.45,0.8-0.89,1.22-1.33l4.27-4.66l0,0
	c0.21-0.22,0.39-0.42,0.59-0.62l0,0c0.51-0.55,1-1.1,1.55-1.63c2.29-2.43,4.64-4.81,7-7.18c12.01-11.963,24.806-23.111,38.3-33.37
	c0.53-0.42,1.07-0.82,1.6-1.22c2.54-1.91,5.12-3.8,7.7-5.66c14.191-10.181,29.025-19.433,44.41-27.7c1.06-0.61,2.14-1.18,3.23-1.74
	c13.793-7.297,27.978-13.827,42.49-19.56c7.91-3.13,16-6.07,24.14-8.76c5.42-1.78,10.86-3.47,16.37-5.06
	c8.613-2.48,17.287-4.703,26.02-6.67c25.729-5.773,51.904-9.339,78.24-10.66c8-0.407,16.09-0.617,24.27-0.63
	c39.47-0.052,78.786,4.921,117,14.8c0.803,1.214,2.175,1.928,3.63,1.89h3.36c1.46,0.4,2.91,0.8,4.37,1.22
	c8.153,2.347,16.19,4.91,24.11,7.69l2,0.72c19.548,6.951,38.567,15.306,56.91,25c16.535,8.718,32.455,18.554,47.65,29.44
	c2.34,1.68,4.647,3.373,6.92,5.08c2.76-1.767,5.567-3.46,8.42-5.08c11.019-6.276,22.722-11.265,34.88-14.87
	c25.418-7.522,52.312-8.574,78.24-3.06c33.25,7.05,63.35,24.55,87.66,49.44c9.898,10.184,18.709,21.371,26.29,33.38
	c0.55,0.86,1.1,1.73,1.63,2.61c6.515,10.629,12.116,21.792,16.74,33.37c0.17,0.43,0.34,0.83,0.49,1.25
	c4.269,10.841,7.712,21.99,10.3,33.35c0.12,0.58,0.26,1.15,0.38,1.73c2.42,10.994,4.064,22.145,4.92,33.37c0,0.4,0,0.81,0.08,1.23
	c0.42,5.807,0.633,11.673,0.64,17.6c0,5.3-0.18,10.56-0.51,15.78c0,0.57-0.08,1.16-0.13,1.75c-0.09,1.51-0.22,3-0.35,4.52
	c7.637,6.161,14.785,12.904,21.38,20.17c2.913,3.18,5.733,6.48,8.46,9.9c8.305,10.409,15.605,21.582,21.8,33.37
	C1168.1,387.57,1177.82,425.12,1177.82,465.31z"/>
<path opacity="0.1" fill="#6C63FF" enable-background="new    " d="M1064.82,705.74c0,6.83-23.53,13.23-64.59,18.73H223.59
	c-34.554,0.074-68.512-9.004-98.42-26.31l-0.46-0.26c11.8-4.3,33.1-8.31,62.09-11.93l0,0l1.3-0.16c13-1.59,27.53-3.1,43.41-4.53
	c0.4,0,0.81-0.06,1.21-0.11l0,0c12.6-1.12,26.003-2.17,40.21-3.15c0.45,0,0.89-0.08,1.34-0.1c5.48-0.393,11.073-0.767,16.78-1.12
	l0,0l2.2-0.14c41.55-2.58,88.78-4.64,140-6h0.06c7.173-0.2,14.423-0.377,21.75-0.53c8.147-0.193,16.393-0.363,24.74-0.51
	c6.37-0.14,12.82-0.24,19.29-0.34h0.15c29.19-0.44,59.35-0.66,90.19-0.66c76.26,0,148.34,1.39,212.21,3.89h0.18
	c9.82,0.38,19.46,0.8,28.86,1.23l8,0.38c10.607,0.507,20.94,1.05,31,1.63l0,0C987.98,682.48,1064.82,693.41,1064.82,705.74z"/>
<g opacity="0.2">
	<path fill="#3F3D56" d="M680.28,664.03c-0.032,1.079-0.156,2.152-0.37,3.21c-6.96-1.107-13.96-2.107-21-3c0-0.28,0-0.57,0-0.86
		c0.065-2.999,0.928-5.926,2.5-8.48c2.06-3.26,5.19-5.3,8.64-5.19s6.44,2.34,8.29,5.71
		C679.739,658.067,680.409,661.039,680.28,664.03z"/>
	
		<ellipse transform="matrix(-0.9995 -0.0316 0.0316 -0.9995 1319.562 1314.0521)" fill="#3F3D56" cx="670.16" cy="646.604" rx="10.7" ry="14.01"/>
	
		<ellipse transform="matrix(-0.9995 -0.0316 0.0316 -0.9995 1321.1938 1279.8369)" fill="#3F3D56" cx="670.705" cy="629.483" rx="10.7" ry="14.01"/>
	
		<ellipse transform="matrix(-0.9995 -0.0316 0.0316 -0.9995 1322.8053 1245.6215)" fill="#3F3D56" cx="671.241" cy="612.363" rx="10.7" ry="14.01"/>
	
		<ellipse transform="matrix(-0.9995 -0.0316 0.0316 -0.9995 1324.4171 1211.406)" fill="#3F3D56" cx="671.777" cy="595.242" rx="10.7" ry="14.01"/>
	<path fill="#00C9FF" d="M635.38,476.79c-1.408-1.907-2.678-3.912-3.8-6l28.26-3.73l-30.42-0.73
		c-5.486-13.014-5.374-27.712,0.31-40.64l40.12,22.45L633.1,419.3c14.894-24.089,46.495-31.543,70.584-16.649
		c24.089,14.894,31.543,46.495,16.649,70.584c-1.314,2.126-2.783,4.153-4.393,6.065c2.19,2.966,4.051,6.161,5.55,9.53l-37.09,17.8
		l39.33-11.83c5.032,16.603,1.338,34.625-9.82,47.91c16.803,22.798,11.943,54.901-10.855,71.704s-54.901,11.943-71.704-10.855
		c-14.046-19.058-13.22-45.254,1.999-63.389c-14.041-19.056-13.215-45.247,2-63.38H635.38z"/>
	<path opacity="0.1" enable-background="new    " d="M725.91,511.37c-0.35,11.501-4.579,22.546-12,31.34
		c16.803,22.798,11.943,54.901-10.855,71.704s-54.901,11.943-71.704-10.855c-14.046-19.058-13.22-45.254,1.999-63.389
		C626.78,531.24,726.09,505.62,725.91,511.37z"/>
</g>
<g opacity="0.2">
	<path fill="#3F3D56" d="M528.28,664.03c-0.032,1.079-0.156,2.152-0.37,3.21c-6.96-1.107-13.96-2.107-21-3c0-0.28,0-0.57,0-0.86
		c0.065-2.999,0.928-5.926,2.5-8.48c2.06-3.26,5.19-5.3,8.64-5.19s6.44,2.34,8.29,5.71
		C527.739,658.067,528.409,661.039,528.28,664.03z"/>
	
		<ellipse transform="matrix(-0.9995 -0.0316 0.0316 -0.9995 1015.6159 1309.259)" fill="#3F3D56" cx="518.149" cy="646.608" rx="10.7" ry="14.01"/>
	
		<ellipse transform="matrix(-0.9995 -0.0316 0.0316 -0.9995 1017.2476 1275.0438)" fill="#3F3D56" cx="518.694" cy="629.487" rx="10.7" ry="14.01"/>
	
		<ellipse transform="matrix(-0.9995 -0.0316 0.0316 -0.9995 1018.8593 1240.8286)" fill="#3F3D56" cx="519.23" cy="612.367" rx="10.7" ry="14.01"/>
	
		<ellipse transform="matrix(-0.9995 -0.0316 0.0316 -0.9995 1020.4709 1206.6129)" fill="#3F3D56" cx="519.766" cy="595.247" rx="10.7" ry="14.01"/>
	<path fill="#00C9FF" d="M483.38,476.79c-1.408-1.907-2.678-3.912-3.8-6l28.26-3.73l-30.42-0.73
		c-5.486-13.014-5.374-27.712,0.31-40.64l40.12,22.45L481.1,419.3c14.894-24.089,46.495-31.543,70.584-16.649
		c24.089,14.894,31.543,46.495,16.649,70.584c-1.314,2.126-2.783,4.153-4.393,6.065c2.19,2.966,4.051,6.161,5.55,9.53l-37.09,17.8
		l39.33-11.83c5.032,16.603,1.338,34.625-9.82,47.91c16.803,22.798,11.943,54.901-10.855,71.704s-54.901,11.943-71.704-10.855
		c-14.046-19.058-13.22-45.254,1.999-63.389c-14.041-19.056-13.215-45.247,2-63.38H483.38z"/>
	<path opacity="0.1" enable-background="new    " d="M573.91,511.37c-0.35,11.501-4.579,22.546-12,31.34
		c16.803,22.798,11.943,54.901-10.855,71.704s-54.901,11.943-71.704-10.855c-14.046-19.058-13.22-45.254,1.999-63.389
		C474.78,531.24,574.09,505.62,573.91,511.37z"/>
</g>
<g opacity="0.2">
	<path fill="#3F3D56" d="M943.48,674.97c-0.076,2.043-0.32,4.077-0.73,6.08c-13.4-2.14-26.897-4.053-40.49-5.74
		c0-0.54,0-1.09,0-1.65c0.127-5.775,1.791-11.412,4.82-16.33c4-6.27,10-10.2,16.63-10s12.4,4.51,16,11
		C942.425,663.442,943.726,669.187,943.48,674.97z"/>
	
		<ellipse transform="matrix(-0.9995 -0.0316 0.0316 -0.9995 1827.217 1311.6548)" fill="#3F3D56" cx="923.968" cy="641.396" rx="20.61" ry="26.98"/>
	
		<ellipse transform="matrix(-0.9995 -0.0316 0.0316 -0.9995 1830.3363 1245.7831)" fill="#3F3D56" cx="925.008" cy="608.435" rx="20.61" ry="26.98"/>
	
		<ellipse transform="matrix(-0.9995 -0.0316 0.0316 -0.9995 1833.4755 1179.9121)" fill="#3F3D56" cx="926.057" cy="575.475" rx="20.61" ry="26.98"/>
	
		<ellipse transform="matrix(-0.9996 -0.03 0.03 -0.9996 1835.1868 1109.6161)" fill="#3F3D56" cx="925.914" cy="541.047" rx="20.619" ry="26.992"/>
	<path fill="#00C9FF" d="M857.03,314.51c-2.698-3.671-5.141-7.523-7.31-11.53l54.4-7.18l-58.55-1.41
		c-10.57-25.051-10.36-53.348,0.58-78.24l77.25,43.21l-70.74-55.52c28.766-46.315,89.632-60.541,135.947-31.775
		c46.315,28.766,60.541,89.632,31.775,135.947c-2.476,3.987-5.234,7.793-8.252,11.388c4.213,5.714,7.797,11.867,10.69,18.35
		l-71.41,34.29l75.71-22.8c9.694,31.925,2.611,66.587-18.83,92.15c32.343,43.892,22.981,105.693-20.911,138.036
		c-43.892,32.343-105.693,22.981-138.036-20.911C822.31,521.831,823.9,471.409,853.19,436.5c-27.015-36.684-25.429-87.088,3.84-122
		L857.03,314.51z"/>
	<path opacity="0.1" enable-background="new    " d="M1031.33,381.07c-0.656,22.129-8.76,43.389-23,60.34
		c32.343,43.892,22.982,105.693-20.911,138.036c-43.892,32.343-105.693,22.981-138.036-20.911
		c-27.033-36.685-25.443-87.106,3.847-122.016C840.49,419.31,1031.68,370,1031.33,381.07z"/>
</g>
<polygon fill="#F1C0C0" points="157.82,676.73 168.31,676.7 183.1,676.7 201.8,372.92 386.99,63.89 378.94,55.25 378.94,33.37 
	178.66,365.76 "/>
<polygon opacity="0.1" enable-background="new    " points="169.43,676.7 183.1,676.7 201.8,372.92 386.99,63.89 378.94,55.25 
	187.92,368.29 "/>
<polygon fill="#F1C0C0" points="126.91,679.26 606.76,715.98 607.17,716.01 1071.56,687.45 1071.91,687.43 1071.91,667.82 
	560.21,658.43 133.3,658.02 130.18,658.02 129.84,660.22 "/>
<polygon opacity="0.1" enable-background="new    " points="126.91,679.26 606.76,715.98 607.17,716.01 1071.56,687.45 
	1071.91,687.07 1071.91,668.23 1071.5,668.23 606.76,683.75 133.3,658.02 133.23,658.02 132.39,658.57 129.84,660.22 "/>
<polygon opacity="0.1" enable-background="new    " points="126.91,679.26 606.76,715.98 606.76,683.75 132.39,658.57 
	129.84,660.22 "/>
<polygon fill="#F1C0C0" points="378.88,54.84 590.43,281.9 583.89,681.3 601.86,683.47 602.16,683.51 620.13,683.51 622.28,299.05 
	1018.41,431.37 1025.09,666.97 1039.55,668.59 1044.45,669.14 1033.11,415.03 619.01,269.65 391.95,33.6 378.88,33.6 "/>
<polygon opacity="0.1" enable-background="new    " points="620.65,291.7 622.28,299.05 1018.41,431.37 1025.09,666.97 
	1039.55,668.59 1028.21,426.47 "/>
<polygon opacity="0.1" enable-background="new    " points="378.88,54.84 590.43,281.9 583.89,681.3 601.86,683.47 606.76,268.83 
	378.88,33.6 "/>
<polygon fill="#F1C0C0" points="621.42,451.99 766.71,480.6 766.76,480.61 1021.23,530.74 1032.88,526.07 1032.84,525.25 
	1032.08,509 621.57,426.05 "/>
<polygon opacity="0.1" enable-background="new    " points="766.76,480.61 1021.23,530.74 1032.88,526.07 1032.84,525.25 "/>
<polygon fill="#F1C0C0" points="776.49,350.56 780.42,566.9 782.45,677.89 800.34,677.29 811.6,676.91 808.1,353.69 800.34,351.11 
	798.64,350.56 "/>
<polygon opacity="0.1" enable-background="new    " points="776.65,350.51 776.65,350.56 780.42,566.9 782.45,677.89 800.34,677.29 
	800.34,350.51 "/>
<path fill="#3F3D56" d="M496.26,405.81c1.05,0.57,2.053,1.222,3,1.95c1.12,0.981,2.127,2.084,3,3.29c4.29,5.55,8.25,12,7.83,19
	c0.018,2.057-0.784,4.036-2.23,5.5c-1.77,1.51-4.31,1.58-6.63,1.58c-2.52,0-5.17,0-7.35-1.3s-4-3.83-6.58-3.77
	c-0.364,0.06-0.736,0.06-1.1,0c-0.89-0.29-1.07-1.46-1.65-2.2c-1-1.33-3.11-1-4.68-0.42s-3.31,1.45-4.86,0.78
	c-0.9-0.475-1.635-1.21-2.11-2.11c-3.71-6-4.5-13.21-5.2-20.18c-0.43-4.24-3.71-18.7,5.34-15.41c4,1.44,7.74,4.32,11.38,6.43
	L496.26,405.81z"/>
<path fill="#3F3D56" d="M487.32,407.24c1.663,1.196,3.928,1.106,5.49-0.22c1.489-1.345,2.438-3.187,2.67-5.18
	c1-0.31,1.51,1,2.15,1.8c1.12,1.36,3.4,1.34,4.42,2.79c0.71,1,0.55,2.39,1.05,3.52c0.65,1.46,2.26,2.22,3.36,3.4
	c1.039,1.289,1.789,2.786,2.2,4.39l1.64,4.92c0.785,2.046,1.289,4.189,1.5,6.37c0.209,2.203-0.476,4.397-1.9,6.09
	c-2.2,2.37-5.81,2.62-9,2.55c-1.065,0.023-2.129-0.102-3.16-0.37c-2.83-0.88-4.64-3.73-5.39-6.6s-0.67-5.88-1.11-8.82
	c-0.475-2.888-1.315-5.704-2.5-8.38c-0.88-2.08-3.3-5.18-3.26-7.39C486.2,406.11,486.72,406.77,487.32,407.24z"/>
<path fill="#BE6F72" d="M490.91,397.11c-0.467-1.42-0.74-2.897-0.81-4.39c0-3,1.37-5.82,2.75-8.5l-11.43,1.55
	c-1.38,0.19-2.92,0.47-3.7,1.62c-0.601,1.157-0.601,2.533,0,3.69c0.573,1.141,1.029,2.337,1.36,3.57
	c0.026,1.079,0.15,2.153,0.37,3.21c0.356,0.776,0.854,1.478,1.47,2.07c3.27,3.62,5.72,7.89,8.16,12.12
	c-0.07-0.12,6.89-5.51,6.61-7.27c-0.16-1-2.17-2.2-2.81-3.16C491.996,400.227,491.332,398.705,490.91,397.11z"/>
<polygon fill="#F1C0C0" points="588.91,358.04 588.91,367.89 420.24,400.79 411.49,406.09 381.3,406.09 381.3,400.54 547.02,360.5 
	"/>
<polygon opacity="0.1" enable-background="new    " points="588.91,367.89 420.24,400.79 411.49,406.09 381.3,406.09 548.25,370.36 
	"/>
<path fill="#00C9FF" d="M453.49,637.66c-3.87-4.686-10.459-6.087-15.9-3.38c-0.566,0.266-1.064,0.656-1.46,1.14
	c-1,1.4-0.36,3.33-0.27,5.06c0.23,4.22-3.13,7.65-6.15,10.6c-1.62,1.58-3.27,3.27-4,5.42s-0.19,4.88,1.77,6
	c0.855,0.429,1.786,0.687,2.74,0.76c3.196,0.624,6.474,0.715,9.7,0.27c3.19-0.61,6.32-2.42,7.7-5.36
	c0.266-0.797,0.707-1.525,1.29-2.13c1.76-1.39,4.46,0.24,6.46-0.75c1.65-0.82,1.72-2.11,1.74-3.81
	C457.17,646.78,456.47,641.46,453.49,637.66z"/>
<path fill="#00C9FF" d="M477.49,637.48c1.23,3.24,1.4,6.77,1.56,10.23c0.09,2,0.15,4.14-0.93,5.83s-3.19,2.58-5.21,3
	c-4.17,0.86-9,0.05-11.69-3.26c-2.06-2.53-2.49-6-2.11-9.28c0.32-2.69,1-5.84-0.93-7.75c-0.5-0.51-1.15-0.87-1.61-1.42
	c-1-1.22-0.84-3.06-0.3-4.56c0.703-1.435,1.23-2.949,1.57-4.51c0.08-0.74,13.54,0.52,14.78,1.13c1.69,0.83,1.43,2.22,1.94,3.9
	C475.27,633.13,476.63,635.24,477.49,637.48z"/>
<path fill="#3F3D56" d="M479.96,493.82c2.64,1.71,3.66,5.07,4.07,8.19c1.13,8.55-0.85,17.19-1,25.82
	c-0.14,12.09,3.36,24.4,0.37,36.11c-1.79,7-0.27,15-1.95,22.07c-0.5,2.1-1.42,4.08-1.9,6.18c-1,4.55,0.05,9.31,1.46,13.76
	c0.45,1.199,0.736,2.454,0.85,3.73c-0.068,1.964-0.566,3.89-1.46,5.64l-6,14.19c-0.67,1.59-3.31,1.85-5,2.06
	c-3.18,0.38-6.73,0.65-9.26-1.32s-3.14-5.27-3.53-8.35c-0.748-5.913-1.082-11.871-1-17.83c0.11-1.555-0.028-3.118-0.41-4.63
	c-0.55-1.71-1.76-3.19-2.09-5c-0.42-2.34,0.77-4.64,1.21-7c0.302-2.156,0.268-4.345-0.1-6.49c-0.39-3.2-0.84-6.4-1.35-9.58
	c-0.72-4.45,0.31-8.84,1-13.3c0.65-4.19-0.18-8.46-1-12.62c0.071,3.376-0.35,6.745-1.25,10c-0.53,1.59-1.29,3.11-1.75,4.73
	c-2.05,7.27,2.32,14.9,1.7,22.43c-0.29,3.52-1.67,7-1.28,10.47c0.27,2.54,1.45,4.87,2.26,7.29s1.23,5.19,0,7.45
	c-3.25,6.14-0.82,14.49,2.09,20.79c0.591,1.117,1.105,2.273,1.54,3.46c0.86,2.84,0.14,5.89,0.37,8.85
	c-1.697,0.278-3.427-0.242-4.69-1.41c-0.44-0.46-0.8-1-1.23-1.48c-1.201-1.145-2.624-2.033-4.18-2.61
	c-0.914-0.511-1.955-0.751-3-0.69c-1.099,0.307-2.088,0.921-2.85,1.77c-0.989,0.87-2.038,1.668-3.14,2.39
	c-0.469,0.361-1.018,0.604-1.6,0.71c-0.6,0.093-1.193-0.209-1.47-0.75c-0.062-0.167-0.1-0.342-0.11-0.52
	c-0.371-3.019-0.568-6.058-0.59-9.1c0-5.23-6.26-8.83-7.05-14c-0.63-4.17,0.54-8.42,0.15-12.62c-0.19-2.16-0.79-4.28-0.75-6.44
	c0-1.4,0.32-2.77,0.43-4.16c0.092-1.543,0.068-3.091-0.07-4.63l-0.31-4.83c-0.3-4.77-0.63-9.64-2.51-14
	c-2.229-5.091-3.549-10.533-3.9-16.08c-0.2-3.5-0.07-7-0.47-10.51c-0.36-3.17-1.16-6.32-0.93-9.5c0.19-2.46,1-4.84,1.19-7.3
	c0.39-4.73-1.41-9.33-2.82-13.86s-2.45-9.55-0.6-13.92c0.264-0.717,0.704-1.357,1.28-1.86c0.709-0.469,1.517-0.77,2.36-0.88
	c17.158-3.604,34.744-4.726,52.22-3.33C474.759,491.472,477.524,492.334,479.96,493.82z"/>
<circle fill="#BE6F72" cx="423.19" cy="371.59" r="16.02"/>
<path fill="#BE6F72" d="M420.09,391.6c0.23,0.916,0.23,1.874,0,2.79c-0.252,0.64-0.607,1.234-1.05,1.76
	c-1.551,2-3.267,3.867-5.13,5.58c0.949,2.12,2.658,3.808,4.79,4.73c2.117,0.901,4.337,1.536,6.61,1.89
	c1.135,0.298,2.315,0.38,3.48,0.24c1.073-0.27,2.09-0.73,3-1.36l8.9-5.33c1.343-0.727,2.586-1.625,3.7-2.67
	c1.632-1.678,2.556-3.919,2.58-6.26c0.041-0.419-0.072-0.839-0.32-1.18c-0.341-0.297-0.769-0.476-1.22-0.51
	c-3.13-0.69-5.6-3.23-7-6.11c-1.266-2.952-2.085-6.077-2.43-9.27l-9.49,5c-1.41,0.75-2.81,1.5-4.27,2.15
	c-0.93,0.42-2.81,0.77-3.47,1.62C417.51,386.24,419.76,389.71,420.09,391.6z"/>
<path fill="#3F3D56" d="M413.97,398.82c-1.351,1.108-2.406,2.534-3.07,4.15c-0.62,2,0,4.11,0.56,6.09
	c2.625,8.439,4.63,17.059,6,25.79c0.84,6,1.15,12.09,1.56,18.16c0.84,12.38,2.06,32.12,3.69,44.42c6,0.27,11.85-1.48,17.8-2.12
	c11.12-1.18,22.57,1.52,33.46-1c-2.64-10.43-5.28-28.24-7.92-38.66c-1.168-4.105-1.978-8.305-2.42-12.55
	c-0.23-3.05-0.09-6.11-0.05-9.18c0.09-6-0.24-12-0.57-18c-0.38-7-0.76-14-2.42-20.85c-0.116-0.873-0.525-1.68-1.16-2.29
	c-1-0.73-2.3-0.47-3.49-0.31c-3.644,0.463-7.332-0.411-10.38-2.46c-1.32-0.9-3.09-2-4.32-1c-0.525,0.603-0.871,1.341-1,2.13
	c-1.101,2.862-3.382,5.11-6.26,6.17c-2.85,1.032-5.834,1.645-8.86,1.82c-0.926,0.199-1.892,0.09-2.75-0.31
	c-1.42-0.87-1.52-4-3.31-4.21C417.49,394.43,415.03,397.81,413.97,398.82z"/>
<path fill="#00C9FF" d="M437.63,423.24c-3.69-3.53-5.31-8.65-8-13c-1.832-2.925-4.172-5.499-6.91-7.6
	c-1.376-0.909-2.639-1.98-3.76-3.19c-0.95-1.17-1.67-2.73-3.11-3.18c-1.208-0.263-2.468,0.085-3.37,0.93
	c-0.882,0.84-1.716,1.728-2.5,2.66c-4.24,4.39-11.69,5-15.05,10.08c-0.906,1.077-1.523,2.368-1.79,3.75
	c-0.967,7.394,0.944,14.876,5.34,20.9c0.851,1.396,2.158,2.456,3.7,3c-0.209,1.865,0.038,3.752,0.72,5.5
	c1.852,6.329,4.127,12.526,6.81,18.55c-0.642,2.356-1.09,4.761-1.34,7.19c-0.7,6.11-0.05,12.31-0.71,18.43
	c-0.54,5-2,9.87-2.05,14.88c0,0.8,0.07,1.75,0.76,2.16c0.367,0.189,0.778,0.275,1.19,0.25l12.3,0.37c7.14,0.21,14.35,0.42,21.38-0.9
	c0.936-0.138,1.844-0.425,2.69-0.85c2.38-1.33,3.17-4.33,3.55-7c0.496-3.463,0.694-6.963,0.59-10.46c1.49,4.71,3.26,9.58,7.76,11.62
	c2.38,1.08,5.1,1,7.71,0.93c5.625-0.25,11.232-0.828,16.79-1.73c1.211,0.15,2.315-0.71,2.466-1.921
	c0.027-0.216,0.022-0.435-0.016-0.649l0.06-5.46c0.12-11.09-2.63-21.69-3.7-32.73c-0.34-3.48-0.31-7-1.16-10.41
	c-0.35-1.43-0.86-2.83-1.17-4.27c-0.267-1.41-0.434-2.837-0.5-4.27l-0.78-11c-0.37-5.09-0.9-10-1.29-15.08
	c-0.214-4.947-0.931-9.859-2.14-14.66c-0.87-3-2.68-6.4-5.81-6.77c-1.67-0.19-3.29,0.54-4.88,1.05c-3.908,1.23-8.102,1.213-12-0.05
	c-1.204-0.475-2.459-0.811-3.74-1c-1.313-0.179-2.62,0.364-3.42,1.42c-0.388,0.781-0.57,1.649-0.53,2.52
	C441.25,403.24,440.38,413.53,437.63,423.24z"/>
<path fill="#3F3D56" d="M421.54,423.54c-4.61-4.86-9.34-9.81-15.28-12.9c-2.34-1.22-5-2.14-7.59-1.68s-5,2.71-4.88,5.34
	c0.08,1.63,1.07,3.07,1.38,4.67c0.36,1.8-0.16,3.72,0.4,5.46c0.455,1.147,1.135,2.19,2,3.07l7.08,8.39c3,3.5,6,7.05,9.86,9.47
	s8.86,3.55,13.1,1.83c3.017-1.402,5.525-3.704,7.18-6.59c1.76-2.8,3-5.86,4.65-8.75c2.568-4.618,5.957-8.728,10-12.13
	c-2.08-0.54-4.69-1.3-6-3c-0.373-0.54-0.691-1.117-0.95-1.72l-1.62-3.5c-1.114-0.058-2.201,0.352-3,1.13
	c-0.695,0.803-1.44,1.561-2.23,2.27c-1.41,1.06-3.32,1.35-4.6,2.56c-0.495,0.519-0.944,1.082-1.34,1.68
	C427.741,421.714,424.767,423.318,421.54,423.54z"/>
<path fill="#BE6F72" d="M449.81,402.63c3.47-6.33,3.31-13.92,4.3-21.07c0.107-1.893,0.772-3.713,1.91-5.23c2-2.26,5.53-2.29,8.55-2
	c0.89,0.1,2,0.52,1.95,1.41c-0.07,0.319-0.226,0.613-0.45,0.85c-2.927,3.778-4.649,8.35-4.94,13.12c1.57,1.09,4-1.15,5.51,0
	c1,0.84,0.54,2.5-0.06,3.7c-1.393,2.78-2.83,5.54-4.31,8.28c-1.181,2.415-2.722,4.637-4.57,6.59c-1.27,1.22-2.76,2.18-4.05,3.38
	c-3,2.81-4.81,6.78-7.91,9.52c-0.262,0.284-0.617,0.465-1,0.51c-0.394-0.028-0.766-0.195-1.05-0.47
	c-1.549-1.26-2.833-2.813-3.78-4.57c-1.18-2.18-1-2.82,0.86-4.36C444.25,409.54,447.64,406.59,449.81,402.63z"/>
<path fill="#00C9FF" d="M415.74,419.24c0.6,0.37,1.34,0.79,2,0.48c0.27-0.163,0.499-0.385,0.67-0.65
	c1.143-1.526,2.097-3.184,2.84-4.94c0.128-0.248,0.2-0.521,0.21-0.8c0-0.64-0.57-1.11-1.1-1.48c-2.84-1.81-5.893-3.261-9.09-4.32
	c-2.64-1-5.4-1.87-8.2-1.62c-2.126,0.143-4.102,1.147-5.47,2.78c-2,2.57,1.35,3.35,3.45,4.28
	C405.91,415.18,411.17,416.46,415.74,419.24z"/>
<path opacity="0.1" enable-background="new    " d="M412.59,436.24c-0.069,0.463,0.087,0.931,0.42,1.26
	c0.29-1.42-0.09-2.92,0.21-4.35c0.44-2.15,2.53-3.77,2.71-5.93C412.1,426.47,412.62,433.92,412.59,436.24z"/>
<polygon opacity="0.2" enable-background="new    " points="588.91,358.04 588.91,367.89 548.25,370.36 547.02,360.5 "/>
<path fill="#3F3D56" d="M408.77,373.97c2.54-2.07,1.07-6.41,2.79-9.19c1-1.52,2.69-2.32,4.35-3c2.003-0.937,4.15-1.532,6.35-1.76
	c2.232-0.214,4.44,0.599,6,2.21c0.65,0.74,1.09,1.64,1.7,2.41c1.539,1.83,3.959,2.668,6.3,2.18c1.33-0.3,2.71-1.31,2.62-2.67
	c-0.15-0.827-0.573-1.58-1.2-2.14l-2.86-3.17c-3.25-3.6-6.86-7.42-11.63-8.32c-3.32-0.63-6.72,0.26-9.92,1.33
	c-1.29,0.43-2.74,1.07-3.1,2.38c-0.24,0.9,0.12,1.88-0.09,2.79c-0.41,1.81-2.73,2.42-3.81,3.94s-0.75,3.32-1.06,5
	s-1.21,3.32-1.32,5.06c-0.07,1.05,0.46,3,1.64,3.38S408.04,372.72,408.77,373.97z"/>
<path fill="#FED253" d="M437.91,362.71c-0.843-4.4-2.661-8.555-5.32-12.16c-2.364-3.368-5.653-5.98-9.47-7.52
	c-3.865-1.51-8.209-1.168-11.79,0.93c-2.624,1.873-4.665,4.448-5.89,7.43c-2.59,5.58-3.55,12.4-0.54,17.76
	c1.2-1.46,3.26-0.8,5.08-1.33c2.28-0.65,4.21-2.17,6.38-3.12C422.91,361.81,430.91,364.15,437.91,362.71z"/>
<path opacity="0.1" enable-background="new    " d="M406.43,362.4c-0.23-1.8-0.38-3.89,0.9-5.17c0.129-0.159,0.325-0.248,0.53-0.24
	c0.18,0.059,0.329,0.189,0.41,0.36c0.739,1.166,1.368,2.398,1.88,3.68c-1.525-0.351-3.11,0.263-4,1.55"/>
<path opacity="0.1" enable-background="new    " d="M429.8,357.32l-0.36-3.57c-0.058-0.294-0.034-0.599,0.07-0.88
	c0.312-0.488,0.943-0.661,1.46-0.4c0.492,0.273,0.897,0.678,1.17,1.17c0.832,1.278,1.523,2.643,2.06,4.07
	c-1.611-0.31-3.268-0.29-4.87,0.06"/>
<polygon opacity="0.1" enable-background="new    " points="438.75,502.21 438.75,510.37 431.86,510.83 395.62,510.83 
	395.62,502.21 "/>
<polygon fill="#F1C0C0" points="438.75,502.21 438.75,510.83 395.62,510.83 281.04,367.3 281.04,360.52 305.06,360.52 "/>
<polygon opacity="0.1" enable-background="new    " points="438.75,502.21 438.75,510.83 395.62,510.83 281.04,367.3 281.04,360.52 
	305.06,360.52 "/>
<polygon opacity="0.1" enable-background="new    " points="438.75,502.21 438.75,510.83 395.62,510.83 281.04,367.3 281.04,360.52 
	396.24,502.21 "/>
<path fill="#00C9FF" d="M296.06,646.07c0.303,1.629-0.772,3.195-2.401,3.498c-0.072,0.013-0.145,0.024-0.219,0.032
	c-2.78,0.94-5.73,1.87-7.7,4s-2.36,6.08,0,7.81c1.206,0.728,2.591,1.105,4,1.09c4.53,0.31,9.25,0.25,13.36-1.67
	c2.94-1.36,5.71-3.68,8.94-3.47c1.67,0.1,3.45,0.88,4.94,0.12s1.91-2.88,1.92-4.65c0.038-3.695-0.519-7.372-1.65-10.89
	c-0.15-0.48-6.51-0.85-7.27-1l-7.71-1c-1.46-0.19-4.61-1.29-5.76-0.07S296.06,644.62,296.06,646.07z"/>
<path fill="#00C9FF" d="M342.07,621.11c0.326,1.801,0.856,3.559,1.58,5.24c1.07,2.72,2.44,5.61,5.06,6.93
	c2.38,1.19,5.3,0.76,7.72-0.37c1.01-0.418,1.895-1.09,2.57-1.95c0.781-1.361,1.129-2.927,1-4.49c0-3.87-0.23-7.87-2-11.31
	c-1.52-3-4.17-5.58-4.21-8.9l-9.11,1.76c-0.488,0.047-0.952,0.231-1.34,0.53c-0.289,0.304-0.489,0.681-0.58,1.09
	C341.787,613.382,341.553,617.278,342.07,621.11z"/>
<path fill="#00C9FF" d="M233.28,526.11c-0.38,3.22-0.22,6.67,1.46,9.45s5.22,4.62,8.28,3.51c0.317-0.081,0.587-0.286,0.75-0.57
	c0.081-0.338,0.035-0.694-0.13-1c-1.351-3.605-1.24-7.596,0.31-11.12c0.2-0.46,0.63-1,1.1-0.82c0.197,0.1,0.355,0.261,0.45,0.46
	c0.484,0.838,0.726,1.793,0.7,2.76c-0.141,0.876-0.168,1.767-0.08,2.65c0.19,0.86,1.11,1.67,1.91,1.3
	c0.467-0.287,0.796-0.753,0.91-1.29c2.23-6.45,1.22-13.5,0.2-20.25c0.032-0.585-0.416-1.084-1-1.117
	c-0.063-0.003-0.127-0.001-0.19,0.007c-4.72-0.47-7.3-1.6-10,2.79C235.63,516.57,233.28,521.66,233.28,526.11z"/>
<path fill="#3F3D56" d="M288.46,509.7c-1.4,5.82-2.81,11.71-2.9,17.69c0.025,3.725,0.305,7.444,0.84,11.13l1.05,8.66
	c0.36,2.92,0.71,5.83,1.22,8.72c0.325,1.489,0.503,3.006,0.53,4.53c-0.098,1.502-0.336,2.992-0.71,4.45
	c-0.629,3.062-0.98,6.175-1.05,9.3c-0.11,5,0.51,10,0.9,15c0.779,9.964,0.661,19.977-0.35,29.92c-0.404,2.684,0.179,5.423,1.64,7.71
	c0.593,0.721,1.081,1.522,1.45,2.38c0.75,2.29-1,4.58-1.45,6.93c-0.599,3.816,2.005,7.396,5.82,8c8,0.95,16.22,0.52,23.43,4.18
	c0.76-2.22-0.9-4.74-0.14-7c0.48-1.4,1.8-2.31,2.7-3.49c1.209-1.798,1.812-3.935,1.72-6.1c0.035-2.826-0.467-5.632-1.48-8.27
	c-0.85-2.2-2.07-4.37-2-6.73c0-1.16,0.41-2.38-0.06-3.45c-0.322-0.615-0.76-1.161-1.29-1.61c-2.989-3.274-4.825-7.435-5.23-11.85
	c-0.39-4.381-0.249-8.793,0.42-13.14c0.49-4.14,1.15-8.51,3.78-11.74c-1.22-9.794-0.503-19.732,2.11-29.25
	c0.26-0.88,0.67-1.9,1.57-2.11c0.726-0.074,1.442,0.209,1.92,0.76c1.57,1.47,2.32,3.6,3,5.64c0.75,2.21,1.51,4.57,0.94,6.83
	c-0.24,1-0.72,1.88-1,2.84c-0.608,1.929-0.502,4.013,0.3,5.87c0.391,0.679,0.636,1.431,0.72,2.21c-0.093,0.669-0.295,1.317-0.6,1.92
	c-0.75,2.393-0.448,4.992,0.83,7.15c1.275,2.124,2.847,4.053,4.67,5.73c-0.871,3.838-0.646,7.844,0.65,11.56
	c0.189,0.338,0.236,0.737,0.13,1.11c-0.18,0.38-0.64,0.52-1,0.79c-1,0.82-0.38,2.37,0.29,3.44c1.836,2.937,3.864,5.75,6.07,8.42
	c2,2.39,1.82,7,4.8,7.86c1.252,0.27,2.548,0.27,3.8,0c2.94-0.45,6.22-1.3,7.66-3.9c0.59-1.07,0.83-2.37,1.75-3.17
	s2.11-0.94,2.62-1.9s-0.06-2.22,0.11-3.33s1.14-2,1.45-3.17c0.74-2.7-2.41-4.92-2.84-7.68c-0.62-4,4.42-7,4.21-11
	c-0.44-8.69-0.72-17.42-1.17-26.11c-0.565-7.784-0.645-15.596-0.24-23.39c0.35-4.85,1-9.93-0.78-14.44
	c-2.56-6.36-9.62-9.93-16.45-10.61s-13.64,0.94-20.41,2C311.174,510.722,299.758,510.96,288.46,509.7z"/>
<circle fill="#FBBEBE" cx="308.76" cy="398.1" r="16.02"/>
<path fill="#FBBEBE" d="M302.24,417.11c-1.114,2.594-3.709,4.235-6.53,4.13c-0.58,2.4,0.81,4.82,2.4,6.71
	c6.723,7.823,17.151,11.4,27.26,9.35c1.932-0.346,3.765-1.11,5.37-2.24c2.164-1.807,3.617-4.323,4.1-7.1
	c0.46-2.758,0.591-5.561,0.39-8.35c0.056-0.551-0.101-1.102-0.44-1.54c-0.4-0.31-0.894-0.472-1.4-0.46
	c-3.38-0.3-6.91-0.43-9.88-2.09s-5.08-5.41-3.65-8.49c-0.23,0.48-6.07,0.71-6.84,0.81c-2.41,0.34-4.82,0.72-7.22,1.16
	c-1.153,0.063-2.293,0.279-3.39,0.64c-1.45,0.75-0.91,0.38-0.57,1.74C302.35,413.46,303.1,414.95,302.24,417.11z"/>
<path fill="#3F3D56" d="M314.43,426.85c-2.158,0.025-4.31-0.214-6.41-0.71c-2.12-0.495-3.989-1.742-5.26-3.51
	c-0.74-1.12-1.22-2.53-2.4-3.16c-1.93-1-4.13,0.69-5.67,2.24c-1.402,1.529-3.027,2.837-4.82,3.88c-2.14,1.13-4.64,1.53-6.66,2.86
	c-1.578,1.192-2.932,2.655-4,4.32l-14.17,19.3c-5.69,7.76-10.64,16.09-15.71,24.28c-4.39,7.09-6.69,15.25-10,22.9
	c-0.262,0.468-0.371,1.007-0.31,1.54c0.12,0.52,0.75,0.94,1.19,0.64c-1.49,1.48-0.18,4-0.53,6.08
	c-0.398,1.455-1.228,2.756-2.38,3.73c2.201-0.287,4.436-0.182,6.6,0.31c2.237,0.634,4.348,1.649,6.24,3c1.21-0.19,1.1-2.34,2-3.14
	c0.54-0.47,1.34-0.41,2.05-0.55c2.67-0.52,3.73-3.73,5.78-5.54c1.71-1.51,4.13-2,5.94-3.42c2.94-2.31,3.57-6.42,5.11-9.83
	c1.31-2.89,3.37-5.41,4.52-8.37c0.75-1.92,1.11-4,2.18-5.77c1.71-2.86,4.93-4.38,8-5.75c1.94-0.87,4-1.77,6.09-1.63
	c-0.11,4.65-0.7,9.23,0.31,13.77c0.35,1.6,0.84,3.16,1.26,4.75c1.91,7.16,2.36,14.62,2.45,22c4.595-1.051,9.287-1.614,14-1.68
	c3.71-0.11,7.41,0.37,11.12,0.3c4.4-0.08,8.75-0.93,13.15-1.23s9,0,12.89,2c-0.316-6.338-0.139-12.69,0.53-19l1.06-9.94
	c0.239-2.888,0.684-5.755,1.33-8.58c0.58-2.28,1.42-4.48,2.06-6.75c2.25-8,1.84-16.54,1.41-24.87c-0.22-4.28-1.87-8.49-3.81-12.3
	c-0.702-1.415-1.504-2.779-2.4-4.08c-4.765-6.565-12.565-10.227-20.66-9.7c-0.509,0.016-1.01,0.124-1.48,0.32
	c-0.844,0.54-1.503,1.325-1.89,2.25C321.071,421.529,318.069,424.644,314.43,426.85z"/>
<path fill="#3F3D56" d="M294.67,403.41c0.45-1,1.66-1.37,2.4-2.17c1.42-1.52,0.78-3.95,1-6c0.36-3,2.85-5.51,5.7-6.58
	c2.906-0.933,5.999-1.129,9-0.57c1.445,0.105,2.84,0.569,4.06,1.35c0.52,0.38,1,0.87,1.49,1.22c1.858,1.123,4.272,0.559,5.44-1.27
	c-3.54-4.26-7.46-8.76-12.84-10.07c-1.846-0.377-3.726-0.554-5.61-0.53c-2.49-0.05-5.06-0.09-7.36,0.86
	c-3.13,1.29-5.33,4.26-6.46,7.46c-0.988,3.244-1.517,6.61-1.57,10c-0.205,2.262-0.205,4.538,0,6.8
	c0.387,3.089,1.534,6.034,3.34,8.57c0.244,0.394,0.589,0.715,1,0.93C298.82,415.41,294.3,404.24,294.67,403.41z"/>
<path fill="#FED253" d="M323.24,386.92c-0.55-4.71-3.91-8.6-7.48-11.73c-2.877-2.714-6.305-4.777-10.05-6.05
	c-3.77-1.11-8.11-0.87-11.34,1.38c-2.6,1.81-4.25,4.69-5.52,7.59c-1.668,3.422-2.495,7.194-2.41,11c0.25,3.78,2.09,7.61,5.37,9.52
	c1.18-1.74,3.23-2.64,5.2-3.35C305.596,392.022,314.352,389.232,323.24,386.92z"/>
<path opacity="0.1" enable-background="new    " d="M292.91,384.96c0.32,0,0.53,0.33,0.69,0.6c0.814,1.269,1.514,2.607,2.09,4
	c-1.17,0.25-3.18,0.53-3.76-0.5C291.62,388.54,291.99,384.91,292.91,384.96z"/>
<path opacity="0.1" enable-background="new    " d="M315.7,382.7c-0.24,0.23-0.52-0.24-0.52-0.58v-3.88
	c-0.007-0.108,0.018-0.215,0.07-0.31c0.084-0.096,0.203-0.154,0.33-0.16c0.81-0.09,1.48,0.6,2,1.26
	c0.789,1.07,1.475,2.211,2.05,3.41l-4.23-0.13"/>
<path fill="#3F3D56" d="M368.49,446.95c0.92-0.874,1.903-1.679,2.94-2.41c2.77-1.85,6.12-2.58,9.23-3.76s6.27-3.09,7.48-6.19
	c0.606-1.938,0.803-3.981,0.58-6c0.029-0.845-0.121-1.687-0.44-2.47c-0.381-0.692-0.923-1.282-1.58-1.72
	c-4.22-3.12-9.88-3.37-15.12-3.05c-11.553,0.716-22.876,3.543-33.41,8.34c-0.557,0.184-1.045,0.533-1.4,1
	c-0.205,0.433-0.298,0.911-0.27,1.39c-0.186,2.949,0.197,5.906,1.13,8.71c1.38,3.56,4.22,6.43,5.41,10.06
	c0.54,1.63,0.72,3.36,1.19,5c0.386,1.694,1.387,3.184,2.81,4.18c3.95,2.36,7.68-0.81,10.42-3.27L368.49,446.95z"/>
<path fill="#00C9FF" d="M316.76,460.8l-5.07-11.06c-0.743-1.533-1.385-3.113-1.92-4.73c-0.58-1.93-0.86-3.93-1.4-5.87
	c-1.78-6.46-6.27-11.84-8.46-18.17c-0.138-0.572-0.421-1.098-0.82-1.53c-0.647-0.458-1.464-0.604-2.23-0.4
	c-3.06,0.53-5.45,2.86-8.25,4.18c-1.3,0.6-2.7,1-4,1.69c-1.315,0.623-2.293,1.787-2.68,3.19c-0.31,1.53,0.45,3,1.09,4.49
	c2.72,6.14,3.34,13,3.46,19.72c0.09,4.52-0.14,9.37-2.81,13c-5.13,7-1.85,17.28,0.07,25.75c0.23,1,0.5,2.08,0.66,3.14
	c0.169,1.326,0.246,2.663,0.23,4c0,4.49-0.25,9.12-2.13,13.19c1.856,0.988,3.902,1.567,6,1.7c5.807,0.74,11.637,1.26,17.49,1.56
	c1.834,0.172,3.683,0.078,5.49-0.28c4.414-1.193,7.457-5.228,7.39-9.8c0.32,2.77,0.91,5.78,2.92,7.7s4.94,2.21,7.67,2.36
	c7.705,0.409,15.43,0.191,23.1-0.65c0.49-0.022,0.971-0.134,1.42-0.33c1.48-0.74,1.56-2.78,1.44-4.42
	c-0.22-3.07-0.45-6.14-0.82-9.19c-0.314-1.944-0.474-3.91-0.48-5.88c0.152-2.026,0.487-4.034,1-6c1.34-6.24,2.4-12.61,1.95-19
	c-0.178-1.557-0.241-3.124-0.19-4.69c0.26-3.53,2.12-6.89,1.77-10.4c-1-10.32-1.81-20.91-4.69-30.87c-0.52-1.78-1.18-3.69-2.73-4.71
	c-2-1.34-4.81-0.64-7.1-1.49c-1.075-0.5-2.096-1.106-3.05-1.81c-2.072-1.296-4.448-2.027-6.89-2.12c-1.84-0.07-3.89,0.34-5,1.82
	c-0.514,0.833-0.854,1.762-1,2.73c-1.45,6.1-3.15,12.13-4.85,18.16l-1.63,5.78l-4.37,15.52C316.91,458.73,317.2,459.24,316.76,460.8
	z"/>
<polyline fill="#F1C0C0" points="342.33,400.25 439.06,501.9 439.06,510.52 395.93,510.52 323.24,415.65 "/>
<polyline opacity="0.1" enable-background="new    " points="342.33,400.25 439.06,501.9 439.06,510.52 395.93,510.52 
	323.24,415.65 "/>
<polygon opacity="0.1" enable-background="new    " points="324.78,414.31 325.09,414.42 396.55,501.9 439.06,501.9 439.06,510.52 
	395.93,510.52 323.24,415.65 "/>
<path fill="#00C9FF" d="M335.91,416.45c-3.5,1.53-7.39,3.49-8.44,7.17c-0.207,0.646-0.252,1.333-0.13,2
	c0.524,1.606,1.983,2.723,3.67,2.81c1.647,0.04,3.284-0.26,4.81-0.88l20.65-6.82c0.56-0.18,1.2-0.45,1.34-1
	c0.036-0.346-0.034-0.695-0.2-1c-0.64-1.56-1.27-4.75-2.61-5.84c-1.1-0.88-3.28-0.57-4.61-0.55
	C345.27,412.38,340.46,414.45,335.91,416.45z"/>
<path fill="#3F3D56" d="M354.32,421.54c3.479-0.01,6.938,0.526,10.25,1.59c3.327,1.08,6.274,3.093,8.49,5.8
	c0.645,0.757,1.104,1.654,1.34,2.62c0.2,1,3.46,1.6,2.74,2.28c2.19-0.35,1.67,0.68,3.89,0.66s4.62-0.59,5.95-2.36
	c0.924-1.454,1.336-3.175,1.17-4.89c0.029-1.187-0.196-2.367-0.66-3.46c-1-2.1-3.3-3.23-5.42-4.2l-17.86-8.17
	c-1.036-0.551-2.148-0.945-3.3-1.17c-0.969-0.092-1.946-0.068-2.91,0.07l-8.09,0.93c3.6,2.329,5.702,6.386,5.53,10.67"/>
</svg>
