<svg width="143" height="144" viewBox="0 0 143 144" fill="none" xmlns="http://www.w3.org/2000/svg">
<g filter="url(#filter0_b_1377_15001)">
<path d="M142.209 6.0842V138.039C142.209 140.957 139.844 143.322 136.927 143.322H5.8674C2.94971 143.322 0.583984 140.957 0.583984 138.039V6.0842C0.583984 3.16628 2.94971 0.800781 5.8674 0.800781H136.926C139.844 0.800706 142.209 3.16628 142.209 6.0842Z" fill="url(#paint0_linear_1377_15001)" fill-opacity="0.12"/>
<path d="M141.709 6.0842V138.039C141.709 140.681 139.568 142.822 136.927 142.822H5.8674C3.22573 142.822 1.08398 140.681 1.08398 138.039V6.0842C1.08398 3.44244 3.22584 1.30078 5.8674 1.30078H136.926C139.568 1.30071 141.709 3.44232 141.709 6.0842Z" stroke="url(#paint1_radial_1377_15001)"/>
<path d="M141.709 6.0842V138.039C141.709 140.681 139.568 142.822 136.927 142.822H5.8674C3.22573 142.822 1.08398 140.681 1.08398 138.039V6.0842C1.08398 3.44244 3.22584 1.30078 5.8674 1.30078H136.926C139.568 1.30071 141.709 3.44232 141.709 6.0842Z" stroke="url(#paint2_radial_1377_15001)"/>
<path d="M141.709 6.0842V138.039C141.709 140.681 139.568 142.822 136.927 142.822H5.8674C3.22573 142.822 1.08398 140.681 1.08398 138.039V6.0842C1.08398 3.44244 3.22584 1.30078 5.8674 1.30078H136.926C139.568 1.30071 141.709 3.44232 141.709 6.0842Z" stroke="url(#paint3_radial_1377_15001)"/>
</g>
<path d="M72.9504 47.487C72.3109 47.487 71.793 46.969 71.793 46.3296V38.7471C71.793 38.1074 72.3109 37.5897 72.9504 37.5897C73.59 37.5897 74.108 38.1074 74.108 38.7471V46.3296C74.1079 46.969 73.59 47.487 72.9504 47.487Z" fill="#00C9FF"/>
<path d="M85.6765 49.4719C85.5513 49.4719 85.4227 49.4457 85.3029 49.3883C84.8561 49.1833 84.6633 48.6532 84.8701 48.2084L87.4925 42.5531C87.6978 42.1065 88.2313 41.9084 88.6726 42.1203C89.1194 42.3256 89.3123 42.8554 89.1054 43.3004L86.483 48.9555C86.3336 49.2806 86.0119 49.4719 85.6765 49.4719Z" fill="#00C9FF"/>
<path d="M93.2224 56.9741C92.8661 56.9741 92.5306 56.7588 92.3933 56.4077C92.2144 55.9506 92.4404 55.4345 92.8991 55.2554L98.775 52.9613C99.2356 52.7859 99.7499 53.01 99.9271 53.4671C100.106 53.9242 99.8802 54.4404 99.4213 54.6194L93.5456 56.9132C93.4395 56.9551 93.33 56.9741 93.2224 56.9741Z" fill="#00C9FF"/>
<path d="M60.0497 49.6011C59.6934 49.6011 59.3579 49.3857 59.2206 49.0347L56.9265 43.1587C56.7476 42.7016 56.9736 42.1855 57.4323 42.0064C57.8894 41.8275 58.4056 42.0569 58.5847 42.5121L60.8787 48.3881C61.0576 48.8452 60.8317 49.3613 60.3729 49.5401C60.2669 49.582 60.1574 49.6011 60.0497 49.6011Z" fill="#00C9FF"/>
<path d="M99.0078 85.2259C98.8828 85.2259 98.7541 85.2 98.6341 85.1442L92.9774 82.5234C92.5306 82.3167 92.3378 81.7866 92.5428 81.3417C92.7497 80.8951 93.2814 80.7039 93.7245 80.9073L99.3814 83.5281C99.8282 83.7347 100.021 84.2649 99.816 84.7098C99.6647 85.0347 99.3433 85.2259 99.0078 85.2259Z" fill="#00C9FF"/>
<path d="M57.599 95.9393C57.4739 95.9393 57.3453 95.9133 57.2255 95.8577C56.7787 95.6509 56.5858 95.1207 56.7909 94.6758L59.4117 89.0207C59.6185 88.5741 60.1555 88.381 60.5934 88.5863C61.0402 88.7929 61.2331 89.3231 61.028 89.768L58.4072 95.4231C58.2559 95.7483 57.9345 95.9393 57.599 95.9393Z" fill="#00C9FF"/>
<path d="M88.1452 96.0278C87.7889 96.0278 87.4534 95.8122 87.3161 95.4612L85.0223 89.5855C84.8432 89.1283 85.0692 88.6122 85.5279 88.4332C85.9832 88.2541 86.5011 88.4834 86.6802 88.9389L88.9743 94.8146C89.1532 95.2718 88.9272 95.7879 88.4685 95.9669C88.3625 96.0088 88.2529 96.0278 88.1452 96.0278Z" fill="#00C9FF"/>
<path d="M52.5471 57.1473C52.422 57.1473 52.2933 57.1213 52.1735 57.0658L46.5182 54.445C46.0716 54.2382 45.8789 53.708 46.0838 53.2631C46.2923 52.8184 46.8224 52.6219 47.2655 52.8287L52.9208 55.4495C53.3674 55.6564 53.5602 56.1863 53.3552 56.6312C53.2039 56.9562 52.8825 57.1473 52.5471 57.1473Z" fill="#00C9FF"/>
<path d="M46.7984 85.0704C46.4421 85.0704 46.1069 84.855 45.9696 84.504C45.7905 84.0469 46.0165 83.5307 46.4751 83.3517L52.3511 81.0594C52.8116 80.8803 53.3259 81.1063 53.5034 81.5652C53.6822 82.0221 53.4563 82.5385 52.9976 82.7173L47.1217 85.0098C47.0157 85.0513 46.9064 85.0704 46.7984 85.0704Z" fill="#00C9FF"/>
<path d="M72.9504 100.385C72.3109 100.385 71.793 99.8671 71.793 99.2274V91.6452C71.793 91.0055 72.3109 90.4875 72.9504 90.4875C73.59 90.4875 74.108 91.0055 74.108 91.6452V99.2274C74.1079 99.8671 73.59 100.385 72.9504 100.385Z" fill="#00C9FF"/>
<path d="M50.2963 70.1445H42.712C42.0726 70.1445 41.5547 69.6266 41.5547 68.9869C41.5547 68.3476 42.0726 67.8296 42.712 67.8296H50.2963C50.936 67.8296 51.4537 68.3476 51.4537 68.9869C51.4537 69.6266 50.9359 70.1445 50.2963 70.1445Z" fill="#00C9FF"/>
<path d="M103.193 70.1445H95.6085C94.9691 70.1445 94.4512 69.6266 94.4512 68.9869C94.4512 68.3476 94.9691 67.8296 95.6085 67.8296H103.193C103.832 67.8296 104.35 68.3476 104.35 68.9869C104.35 69.6266 103.832 70.1445 103.193 70.1445Z" fill="#00C9FF"/>
<path d="M75.9656 73.161C75.6701 73.161 75.3728 73.048 75.1469 72.8221L59.2608 56.9342C58.8089 56.4823 58.8089 55.749 59.2608 55.2971C59.7126 54.8453 60.4459 54.8453 60.8978 55.2971L76.7841 71.1851C77.236 71.6369 77.236 72.3703 76.7841 72.8221C76.5582 73.0481 76.2609 73.161 75.9656 73.161Z" fill="#00C9FF"/>
<path d="M70.1534 72.9418C69.8582 72.9418 69.5609 72.8289 69.335 72.603C68.8831 72.1511 68.8831 71.4176 69.335 70.9657L80.6521 59.6503C81.104 59.1985 81.8375 59.1985 82.2894 59.6503C82.7412 60.1022 82.7412 60.8355 82.2894 61.2873L70.9721 72.603C70.7463 72.8289 70.4489 72.9418 70.1534 72.9418Z" fill="#00C9FF"/>
<path d="M72.9476 100.386C55.6345 100.386 41.5488 86.3001 41.5488 68.9887C41.5488 51.6776 55.6345 37.5919 72.9476 37.5919C90.259 37.5919 104.345 51.6776 104.345 68.9887C104.345 86.3001 90.259 100.386 72.9476 100.386ZM72.9476 39.9066C56.9102 39.9066 43.8639 52.9531 43.8639 68.9887C43.8639 85.0243 56.9102 98.0709 72.9476 98.0709C88.9834 98.0709 102.03 85.0243 102.03 68.9887C102.03 52.9531 88.9834 39.9066 72.9476 39.9066Z" fill="#00C9FF"/>
<path d="M104.637 51.2536C103.954 51.2536 103.275 50.9948 102.755 50.4769L89.9969 37.719C88.9594 36.6796 88.9594 34.9921 89.9969 33.9527L90.8659 33.0839C94.7763 29.177 101.133 29.177 105.044 33.0839L107.39 35.4301C111.297 39.3387 111.297 45.6977 107.39 49.606L106.521 50.475C106.001 50.9948 105.318 51.2536 104.637 51.2536ZM97.9547 32.4652C95.9804 32.4652 94.0062 33.2178 92.5031 34.7209L91.6341 35.59C91.5177 35.7063 91.5177 35.9653 91.6341 36.0817L104.392 48.8397C104.529 48.977 104.752 48.9735 104.886 48.8397L105.753 47.9709C108.759 44.9642 108.759 40.0721 105.753 37.0672L103.407 34.721C101.903 33.2178 99.929 32.4652 97.9547 32.4652Z" fill="#00C9FF"/>
<path d="M41.2553 51.2539C40.5741 51.2539 39.8927 50.9952 39.3731 50.4772L38.5025 49.6064C34.5955 45.6981 34.5955 39.3391 38.5025 35.4305L40.8521 33.0844C42.7429 31.1916 45.2612 30.1491 47.9376 30.1491C50.6158 30.1491 53.1321 31.1916 55.0264 33.0844L55.8954 33.9531C56.3975 34.4555 56.6758 35.1245 56.6758 35.8372C56.6758 36.548 56.3976 37.217 55.8936 37.7194L43.1375 50.4773C42.6177 50.9952 41.9365 51.2539 41.2553 51.2539ZM47.9376 32.4621C45.8782 32.4621 43.942 33.2631 42.4876 34.7213L40.1379 37.0675C37.133 40.0723 37.133 44.9645 40.1395 47.9694L41.0103 48.84C41.1249 48.9582 41.3857 48.9582 41.5003 48.84L54.2582 36.082C54.3433 35.9969 54.3627 35.9013 54.3627 35.837C54.3627 35.7709 54.3434 35.6754 54.2601 35.5902L53.3895 34.7212C51.9329 33.2632 49.997 32.4621 47.9376 32.4621Z" fill="#00C9FF"/>
<path d="M45.3702 100.384C45.0748 100.384 44.7777 100.271 44.5518 100.045C44.0999 99.5936 44.0999 98.8601 44.5518 98.4082L51.9327 91.0273C52.3845 90.5755 53.1178 90.5755 53.5697 91.0273C54.0215 91.4791 54.0215 92.2127 53.5697 92.6645L46.1888 100.045C45.9628 100.271 45.6657 100.384 45.3702 100.384Z" fill="#00C9FF"/>
<path d="M100.529 100.384C100.233 100.384 99.9359 100.271 99.71 100.045L92.3291 92.6645C91.8773 92.2127 91.8773 91.4791 92.3291 91.0273C92.781 90.5755 93.5143 90.5755 93.9661 91.0273L101.347 98.4082C101.799 98.8601 101.799 99.5936 101.347 100.045C101.121 100.271 100.824 100.384 100.529 100.384Z" fill="#00C9FF"/>
<defs>
<filter id="filter0_b_1377_15001" x="-87.316" y="-87.0992" width="317.425" height="318.321" filterUnits="userSpaceOnUse" color-interpolation-filters="sRGB">
<feFlood flood-opacity="0" result="BackgroundImageFix"/>
<feGaussianBlur in="BackgroundImageFix" stdDeviation="43.95"/>
<feComposite in2="SourceAlpha" operator="in" result="effect1_backgroundBlur_1377_15001"/>
<feBlend mode="normal" in="SourceGraphic" in2="effect1_backgroundBlur_1377_15001" result="shape"/>
</filter>
<linearGradient id="paint0_linear_1377_15001" x1="0.583984" y1="0.800781" x2="169.064" y2="48.3862" gradientUnits="userSpaceOnUse">
<stop offset="0.0303834" stop-color="white" stop-opacity="0.4"/>
<stop offset="0.960276" stop-color="white" stop-opacity="0.11"/>
</linearGradient>
<radialGradient id="paint1_radial_1377_15001" cx="0" cy="0" r="1" gradientUnits="userSpaceOnUse" gradientTransform="translate(161.059 -10.4155) rotate(135.712) scale(220.169 76.3404)">
<stop stop-color="white"/>
<stop offset="1" stop-color="white" stop-opacity="0"/>
</radialGradient>
<radialGradient id="paint2_radial_1377_15001" cx="0" cy="0" r="1" gradientUnits="userSpaceOnUse" gradientTransform="translate(0.583984 0.800781) scale(34.284 55.8881)">
<stop stop-color="white" stop-opacity="0.81"/>
<stop offset="1" stop-color="white" stop-opacity="0.19"/>
</radialGradient>
<radialGradient id="paint3_radial_1377_15001" cx="0" cy="0" r="1" gradientUnits="userSpaceOnUse" gradientTransform="translate(142.251 0.800782) rotate(90) scale(57.1509 30.0168)">
<stop stop-opacity="0.5"/>
<stop offset="1" stop-opacity="0"/>
</radialGradient>
</defs>
</svg>
