<svg width="100" height="81" viewBox="0 0 100 81" fill="none" xmlns="http://www.w3.org/2000/svg">
<g clip-path="url(#clip0_4393_5025)">
<mask id="mask0_4393_5025" style="mask-type:luminance" maskUnits="userSpaceOnUse" x="0" y="0" width="100" height="81">
<path d="M100 0H0V81H100V0Z" fill="white"/>
</mask>
<g mask="url(#mask0_4393_5025)">
<mask id="mask1_4393_5025" style="mask-type:luminance" maskUnits="userSpaceOnUse" x="0" y="0" width="100" height="81">
<path d="M100 0H0V81H100V0Z" fill="white"/>
</mask>
<g mask="url(#mask1_4393_5025)">
<path d="M84.3027 13.2321C84.6471 13.7658 84.7881 14.4062 84.6996 15.0357C84.6111 15.6652 84.2991 16.2415 83.821 16.6588L82.6914 17.6587L82.791 17.7921L84.0602 16.9754C84.5918 16.6295 85.2299 16.4876 85.8573 16.5758C86.4848 16.664 87.0594 16.9763 87.4758 17.4554L88.4725 18.5921L88.6054 18.4921L87.7914 17.2321C87.4471 16.6981 87.3059 16.0576 87.3938 15.4277C87.4816 14.7978 87.7926 14.2208 88.2699 13.8021L89.4028 12.8022L89.3031 12.6688L88.0471 13.4721C87.5151 13.8183 86.8765 13.9603 86.2485 13.8721C85.6205 13.784 85.0453 13.4715 84.6284 12.9922L83.6316 11.8555L83.5021 11.9555L84.3027 13.2321Z" fill="#273A56"/>
<path d="M94.1991 17.8538C94.3885 18.1489 94.4658 18.5025 94.417 18.85C94.3682 19.1976 94.1965 19.5159 93.9333 19.7471L93.3086 20.3004L93.3618 20.3738L94.0629 19.9204C94.3575 19.7302 94.7105 19.6525 95.0575 19.7014C95.4045 19.7504 95.7224 19.9226 95.9534 20.187L96.5016 20.8137L96.5747 20.7604L96.1261 20.0571C95.9354 19.7624 95.8572 19.4085 95.9061 19.0606C95.9549 18.7126 96.1275 18.394 96.3919 18.1637L97.0132 17.6105L96.9567 17.5371L96.2557 17.9871C95.9624 18.1789 95.6098 18.2577 95.263 18.2094C94.9163 18.161 94.5986 17.9886 94.3685 17.7238L93.817 17.0938L93.7439 17.1504L94.1991 17.8538Z" fill="#15325B"/>
<path d="M50.3517 71.9287C77.7698 71.9287 99.9965 60.0286 99.9965 45.3491C99.9965 30.6696 77.7698 18.7695 50.3517 18.7695C22.9337 18.7695 0.707031 30.6696 0.707031 45.3491C0.707031 60.0286 22.9337 71.9287 50.3517 71.9287Z" fill="url(#paint0_radial_4393_5025)"/>
<path d="M41.8906 1L42.09 1.26333" stroke="#D3D3D3" stroke-width="0.425822" stroke-miterlimit="10"/>
<path d="M42.4961 1.78013C44.4597 4.20676 50.7359 11.3466 55.1017 9.11335C60.3379 6.44672 55.8492 -1.01983 50.9054 2.35678C47.7822 4.50008 48.5032 11.2633 55.3376 12.8999C60.9061 14.2332 64.5907 10.6533 65.7735 9.27668" stroke="#273A56" stroke-width="0.425822" stroke-miterlimit="10" stroke-dasharray="0.84 0.84"/>
<path d="M65.9844 9.01333C66.1173 8.84667 66.1871 8.75 66.1871 8.75" stroke="#D3D3D3" stroke-width="0.425822" stroke-miterlimit="10"/>
<path d="M35.3327 80.5336L1.01133 63.1505C-0.417342 62.4272 -0.317667 61.1172 1.21733 60.2239L55.7594 28.6544C57.3011 27.7611 59.7066 27.6244 61.1352 28.3444L95.4599 45.7308C96.8853 46.4541 96.7889 47.7641 95.2506 48.6574L40.7085 80.2302C39.1669 81.1202 36.7614 81.2569 35.3327 80.5336Z" fill="black"/>
<path d="M35.3327 75.2015L1.01133 57.8184C-0.417342 57.0951 -0.317667 55.7851 1.21733 54.8918L55.7594 23.3223C57.3011 22.429 59.7066 22.2923 61.1352 23.0123L95.4599 40.3987C96.8853 41.122 96.7889 42.432 95.2506 43.3253L40.7085 74.8982C39.1669 75.7881 36.7614 75.9248 35.3327 75.2015Z" fill="#273A56"/>
<path d="M35.6392 72.8343L1.32774 55.4512C-0.100936 54.7279 -0.00126219 53.4179 1.53374 52.5246L56.0659 20.9551C57.6075 20.0618 60.013 19.9251 61.4417 20.6451L95.7631 38.0315C97.1918 38.7548 97.0921 40.0648 95.5571 40.9581L41.015 72.5276C39.4734 73.4209 37.0679 73.5643 35.6392 72.8343Z" fill="#182537"/>
<path d="M61.0015 31.7042C67.9024 29.171 77.305 30.5343 81.9333 34.7275C84.6677 37.2142 85.1428 40.1408 83.6443 42.6407C83.8038 40.8008 82.9798 38.8808 81.1192 37.1742C76.4678 32.9742 67.0784 31.6109 60.1875 34.1442C57.7009 35.1068 55.5992 36.8639 54.207 39.1441C54.4197 36.4542 56.8916 33.2076 61.0015 31.7042Z" fill="black"/>
<path d="M54.1289 39.4034L54.1455 39.1667C54.3449 36.6801 56.571 33.2668 60.9965 31.6468C67.9106 29.1068 77.3332 30.4668 81.9914 34.6768C84.6693 37.1101 85.3139 40.01 83.7091 42.6766L83.5762 42.8966L83.5995 42.6633C83.7656 40.7567 82.8951 38.8834 81.0877 37.2401C76.4561 33.0468 67.0867 31.6901 60.1991 34.2168C57.7256 35.1722 55.6368 36.922 54.2585 39.1934L54.1289 39.4034ZM72.2997 30.7568C68.5153 30.2102 64.4519 30.5035 61.0032 31.7568C56.8135 33.3101 54.604 36.4967 54.2951 38.9C55.6957 36.7031 57.7598 35.0131 60.1858 34.0768C67.1033 31.5368 76.5226 32.9001 81.1807 37.1167C82.935 38.7134 83.8154 40.53 83.7357 42.39C85.1245 39.86 84.4633 37.1001 81.9017 34.7734C79.5826 32.6868 76.084 31.3001 72.2997 30.7568Z" fill="black"/>
<path d="M85.2905 42.625L84.4499 45.1817C83.9761 46.5652 83.2443 47.8457 82.2936 48.9549C81.5095 49.7649 80.6323 50.4482 78.6953 51.4949L79.2535 48.7349C79.2535 48.7349 84.1608 44.7883 85.2905 42.625Z" fill="black"/>
<path d="M77.0389 48.9009C74.846 49.4575 74.0752 49.6109 73.2978 49.7342C71.8171 49.9712 70.318 50.0728 68.819 50.0375C66.3109 49.9882 63.8266 49.5381 61.4597 48.7042C59.2022 47.9359 57.1489 46.6614 55.4559 44.9776C53.0139 42.4343 52.7614 38.2344 52.7614 38.2344L52.1301 40.1643C51.2198 42.921 51.8743 45.9009 54.3163 48.4542C55.2474 49.4094 56.3131 50.2225 57.4793 50.8675C58.5303 51.4609 59.635 51.9531 60.7786 52.3375C61.9673 52.742 63.1908 53.0354 64.4333 53.2141C67.0182 53.5875 71.9222 53.9175 75.8627 52.4808L77.0389 48.9009Z" fill="black"/>
<path d="M75.8516 52.4772L82.0746 58.3871L82.882 55.9338L76.6623 50.0273L75.8516 52.4772Z" fill="black"/>
<path d="M79.4455 48.9001C80.8144 48.349 82.0463 47.5035 83.0543 46.4231C84.0623 45.3427 84.822 44.0537 85.2798 42.6469L85.323 42.5202C85.323 42.5002 85.3229 42.4802 85.3396 42.4602C85.4163 42.2345 85.4784 42.004 85.5256 41.7702C85.5483 41.6882 85.5649 41.6047 85.5755 41.5202C85.6054 41.3569 85.6253 41.1869 85.6452 41.0269C85.6452 40.9736 85.6785 40.6036 85.6785 40.4669C85.6785 40.4036 85.6785 40.3369 85.6785 40.2736C85.6785 40.1503 85.6785 40.0336 85.6785 39.9136C85.6785 39.7936 85.6785 39.7636 85.6618 39.6869C85.6452 39.6103 85.6419 39.5036 85.6286 39.4136C85.6153 39.3236 85.5356 38.8703 85.5223 38.807C85.509 38.7436 85.4758 38.6003 85.4459 38.5003C85.4459 38.5003 85.097 37.5003 85.0638 37.4136C84.9973 37.2603 84.9243 37.107 84.8445 36.9537C84.7628 36.7865 84.6718 36.624 84.5721 36.467C84.3032 36.0202 83.9964 35.5975 83.6551 35.2037C83.5388 35.0637 83.4092 34.9203 83.2796 34.7804L83.0603 34.567C78.0766 29.5938 67.7768 28.1071 60.0886 31.2337L59.7231 31.3837C59.4905 31.4871 59.2613 31.5937 59.0387 31.7171L58.7064 31.8804C58.4871 31.9904 58.2745 32.1104 58.0619 32.2137C57.6466 32.4504 57.2512 32.6971 56.8824 32.9537C56.6963 33.0804 56.5103 33.2137 56.3375 33.347C56.1647 33.4804 56.0052 33.6137 55.8358 33.7504C55.517 34.0179 55.2142 34.3039 54.9288 34.607C53.9523 35.5923 53.2215 36.7949 52.7957 38.117C52.0083 40.7169 52.716 43.5169 55.1215 45.9335C59.5005 50.3134 67.026 52.4001 76.6546 50.0368L83.2597 56.2834L84.8179 53.9867L79.4455 48.9001ZM75.2392 48.4368C72.2575 49.1122 69.1809 49.2589 66.1488 48.8701C62.0854 48.2835 58.6333 46.7435 56.4239 44.5369C54.4769 42.5902 53.7659 40.3703 54.3905 38.287C54.7111 37.3024 55.2613 36.4088 55.9953 35.6803C56.2143 35.4465 56.4449 35.224 56.6864 35.0137C56.8259 34.897 56.9721 34.7804 57.115 34.6804C57.2578 34.5804 57.4239 34.4537 57.5668 34.347C57.8991 34.1237 58.2313 33.9104 58.5636 33.7137C58.7463 33.6137 58.9357 33.5104 59.1251 33.417L59.4075 33.2737L60.0255 32.9904C60.1351 32.947 60.2547 32.9004 60.3577 32.8504C63.7932 31.4537 67.9297 31.0037 71.9865 31.5904C76.0432 32.1771 79.5119 33.7204 81.7081 35.9237L81.8044 36.027C81.8497 36.0671 81.892 36.1105 81.9307 36.157C82.047 36.277 82.1566 36.4003 82.2629 36.5303C82.5624 36.8732 82.8304 37.2425 83.0637 37.6336C83.146 37.7663 83.2214 37.9032 83.2896 38.0436C83.3494 38.1603 83.4059 38.2803 83.459 38.4003C83.5122 38.5203 83.7348 39.1803 83.7913 39.3536C83.7913 39.4169 83.8245 39.4769 83.8345 39.5369C83.8444 39.5969 83.9076 39.9103 83.9242 40.0203C83.9408 40.1303 83.9408 40.1636 83.9474 40.2169C83.9541 40.2703 83.9474 40.3403 83.9474 40.3969C83.9474 40.4536 83.9474 40.5803 83.9474 40.6769V40.8103C83.9474 40.9136 83.9242 41.1736 83.9209 41.2236C83.9209 41.3436 83.8943 41.4636 83.871 41.5836C83.871 41.6102 83.871 41.6602 83.871 41.6869C83.8612 41.7161 83.8545 41.7463 83.8511 41.7769C83.8193 41.9315 83.7783 42.084 83.7282 42.2336L83.675 42.3869C83.1368 43.9369 81.8443 45.3635 79.9405 46.5168C79.5451 46.7902 76.824 48.1101 75.2392 48.4468V48.4368Z" fill="black"/>
<path d="M83.2689 56.3804L83.2224 56.337L76.6372 50.1105C67.7362 52.2871 59.8818 50.7771 55.0841 45.9872C52.7385 43.6539 51.9045 40.8473 52.7351 38.114C53.1608 36.7773 53.8977 35.5616 54.8848 34.5674C55.1791 34.2639 55.4896 33.9768 55.8151 33.7074C56.0178 33.5407 56.1739 33.4174 56.3234 33.3041C56.4729 33.1907 56.7022 33.0207 56.8683 32.9041C57.2537 32.6374 57.6557 32.3874 58.0578 32.1641H58.0744C58.2771 32.0507 58.4897 31.9374 58.7057 31.8307L58.7555 31.8074L59.0379 31.6641C59.2439 31.5707 59.4831 31.4574 59.729 31.3508L59.812 31.3141L60.0945 31.2008C67.8093 28.0575 78.1323 29.5341 83.1094 34.534L83.2257 34.654L83.3353 34.7674C83.4549 34.894 83.5912 35.044 83.7141 35.194C84.0561 35.5901 84.365 36.0138 84.6377 36.4607C84.7369 36.6197 84.8268 36.7844 84.9069 36.954C84.98 37.094 85.0531 37.2407 85.1295 37.414C85.1295 37.414 85.4617 38.3606 85.5116 38.5073C85.5444 38.6089 85.571 38.7124 85.5913 38.8173C85.5913 38.8806 85.6777 39.2873 85.6976 39.4306C85.6976 39.5206 85.7242 39.614 85.7308 39.704L85.7475 39.9306C85.7475 40.0539 85.7475 40.1739 85.7475 40.2973C85.7475 40.3306 85.7475 40.3639 85.7475 40.3939V40.4939C85.7475 40.6273 85.7176 41.0039 85.7109 41.0573C85.691 41.2439 85.6677 41.3906 85.6411 41.5539C85.6311 41.6406 85.6144 41.7264 85.5913 41.8106C85.5426 42.0454 85.4793 42.277 85.4019 42.5039C85.4023 42.5117 85.4023 42.5195 85.4019 42.5272V42.5639L85.3587 42.6939C84.9024 44.0926 84.1501 45.3758 83.1534 46.4557C82.1568 47.5356 80.9392 48.3866 79.5842 48.9505L84.9301 53.9971L83.2689 56.3804ZM76.6903 49.9738L83.2689 56.187L84.7474 54.0104L79.3284 48.9005L79.4347 48.8571C80.7908 48.3073 82.0111 47.4674 83.0107 46.3961C84.0103 45.3248 84.7651 44.0477 85.2225 42.6539L85.2657 42.5272C85.2657 42.5272 85.2657 42.5272 85.2657 42.5039V42.4706C85.3389 42.2519 85.3999 42.0294 85.4484 41.8039C85.4714 41.7243 85.488 41.6429 85.4983 41.5606C85.5249 41.4106 85.5448 41.2506 85.5647 41.0673C85.5647 41.0173 85.5979 40.6473 85.6013 40.5139V40.4206C85.6013 40.3873 85.6013 40.3539 85.6013 40.3173C85.6013 40.2006 85.6013 40.084 85.6013 39.964L85.5847 39.7406C85.5847 39.654 85.568 39.5606 85.5548 39.4706C85.5415 39.3806 85.4617 38.9306 85.4484 38.8706C85.4285 38.7682 85.403 38.6669 85.372 38.5673C85.3421 38.4706 85.0398 37.5673 84.9966 37.4907C84.9202 37.3207 84.8504 37.1773 84.7773 37.0373C84.6965 36.8703 84.6067 36.7078 84.5082 36.5507C84.2399 36.1083 83.9354 35.6891 83.5978 35.2974C83.4715 35.1474 83.3353 35.0007 83.219 34.874L83.1127 34.7607C83.0715 34.7232 83.0327 34.6831 82.9964 34.6407C78.0459 29.6941 67.7728 28.2108 60.0945 31.3374L59.812 31.4541L59.729 31.4874C59.4898 31.5941 59.2505 31.7041 59.0645 31.8007L58.7821 31.9407L58.7322 31.9641C58.5196 32.0707 58.3103 32.1874 58.1076 32.2974H58.091C57.6923 32.5207 57.2969 32.7674 56.9148 33.0307C56.7487 33.1474 56.5593 33.2841 56.3766 33.4241C56.1939 33.5641 56.0742 33.6607 55.8749 33.824C55.5587 34.0897 55.258 34.3735 54.9745 34.674C54.0061 35.6484 53.2829 36.8402 52.8647 38.1506C52.0474 40.8373 52.8647 43.5939 55.1905 45.9105C59.9715 50.6871 67.8159 52.1804 76.677 50.0038L76.6903 49.9738ZM66.1148 48.9438C62.0414 48.3538 58.5794 46.8105 56.3666 44.6105C54.403 42.6506 53.6787 40.4106 54.3233 38.304C54.6486 37.308 55.2042 36.4034 55.9447 35.664C56.1507 35.4474 56.3932 35.2207 56.6424 34.9974C56.7686 34.894 56.9049 34.784 57.0776 34.664C57.2504 34.544 57.3833 34.4407 57.5228 34.3307C57.8551 34.1074 58.1874 33.894 58.5429 33.6907C58.7356 33.5841 58.9249 33.4807 59.111 33.3907L59.3934 33.2474C59.5961 33.1507 59.8087 33.0541 60.0147 32.9641L60.347 32.8241C63.799 31.4174 67.9455 30.9708 72.0222 31.5574C76.0989 32.1441 79.5576 33.6874 81.7671 35.8907L81.8668 35.994C81.9033 36.0273 81.9399 36.0673 81.993 36.124C82.1226 36.2607 82.2289 36.3807 82.3253 36.5007C82.6264 36.8461 82.8966 37.2176 83.1327 37.6107C83.2057 37.7273 83.2722 37.8507 83.3586 38.0206C83.4151 38.134 83.4682 38.2506 83.5214 38.354C83.5745 38.4906 83.734 38.9506 83.8204 39.1973L83.8736 39.364C83.8864 39.4111 83.8964 39.459 83.9035 39.5073C83.9234 39.5806 83.9766 39.8806 83.9932 39.9906C83.9932 40.0439 83.9932 40.1006 84.0098 40.1473V40.1906C84.0098 40.2239 84.0098 40.2539 84.0098 40.2806C84.0098 40.3073 84.0098 40.3439 84.0098 40.3706V40.6539V40.7906C84.0098 40.9006 83.9865 41.1606 83.9832 41.2073C83.9832 41.3439 83.9533 41.4639 83.9334 41.5739C83.9334 41.5739 83.9334 41.6039 83.9334 41.6273C83.9334 41.6506 83.9334 41.6639 83.9334 41.6739C83.9334 41.6839 83.9334 41.7406 83.9134 41.7639C83.8811 41.9231 83.8389 42.08 83.7872 42.2339L83.734 42.3906C83.1891 43.9572 81.8867 45.3905 79.963 46.5639C79.5743 46.8005 76.8365 48.1472 75.2052 48.4938C72.2246 49.1757 69.1479 49.328 66.1148 48.9438ZM71.9824 31.6707C67.9256 31.0874 63.8024 31.5307 60.3736 32.9274L60.0413 33.0641C59.832 33.1574 59.6193 33.2541 59.42 33.3507L59.1376 33.4907C58.9548 33.5807 58.7688 33.6807 58.5794 33.7874C58.2272 33.9874 57.8916 34.1974 57.5827 34.414C57.4365 34.5174 57.277 34.6274 57.1341 34.7474C56.9912 34.8674 56.8284 34.984 56.7088 35.0807C56.468 35.2835 56.2384 35.4994 56.0211 35.7274C55.2982 36.4473 54.7561 37.3293 54.4396 38.3006C53.8083 40.3606 54.526 42.5606 56.4597 44.4906C58.6591 46.6939 62.1079 48.2305 66.158 48.8238C69.1834 49.2146 72.2537 49.0679 75.2284 48.3905C76.8465 48.0572 79.5477 46.7238 79.9431 46.4805C81.8336 45.3339 83.1127 43.9239 83.6443 42.3972L83.6942 42.2406C83.745 42.0946 83.7861 41.9454 83.8171 41.7939C83.8208 41.7609 83.8287 41.7284 83.8403 41.6973C83.8394 41.6828 83.8394 41.6684 83.8403 41.6539C83.8412 41.6384 83.8412 41.6228 83.8403 41.6073C83.8603 41.4939 83.8736 41.3806 83.8869 41.2473C83.8869 41.2006 83.9101 40.9439 83.9134 40.8373V40.7039C83.9134 40.6139 83.9134 40.5206 83.9134 40.4306C83.9117 40.4017 83.9117 40.3728 83.9134 40.3439V40.2539V40.2106C83.9134 40.1639 83.9134 40.114 83.8935 40.0606C83.8935 39.954 83.8271 39.654 83.8071 39.584C83.7872 39.514 83.7872 39.4906 83.7772 39.444V39.3973L83.7407 39.284C83.6543 39.0373 83.4948 38.5806 83.445 38.4506C83.3918 38.3373 83.3386 38.2206 83.2822 38.1173C83.2155 37.9778 83.1411 37.842 83.0596 37.7107C82.8264 37.3221 82.5608 36.9541 82.2655 36.6107C82.1658 36.494 82.0595 36.3773 81.9332 36.2407C81.8946 36.1952 81.8536 36.1518 81.8103 36.1107L81.7106 36.0073C79.4912 33.7907 76.0491 32.2574 71.9923 31.6707H71.9824Z" fill="black"/>
<path d="M83.4266 54.1897C82.4843 54.9157 81.7214 55.8499 81.1972 56.9197C81.1092 57.1025 81.0326 57.2906 80.968 57.483C80.7022 58.2863 80.7719 58.8896 81.0975 59.213L89.7726 67.8795C89.4403 67.5462 89.3805 66.9495 89.643 66.1429C90.0834 64.9645 90.8219 63.9214 91.786 63.1162C92.2348 62.7137 92.7382 62.377 93.2811 62.1162C93.7762 61.8929 94.3709 61.7463 94.8128 61.9329C94.9214 61.9771 95.0206 62.0416 95.1052 62.1229C95.1052 62.1229 86.4069 53.4564 86.3936 53.4331C85.656 52.7531 84.2473 53.5664 83.4266 54.1897Z" fill="black"/>
<path d="M89.725 67.929L81.0666 59.2658C80.7111 58.9124 80.6613 58.2658 80.9238 57.4725C80.9914 57.277 81.0702 57.0856 81.1596 56.8991C81.6915 55.8183 82.4633 54.8741 83.4156 54.1392C83.9107 53.7625 85.5985 52.5925 86.4557 53.3892L95.1673 62.0824L95.0743 62.1857C94.9935 62.1084 94.8988 62.0473 94.7952 62.0057C94.3101 61.7957 93.6556 62.0291 93.31 62.1857C92.7739 62.4368 92.277 62.7647 91.8348 63.159C90.8811 63.9571 90.1515 64.9912 89.7184 66.159C89.4692 66.9123 89.5124 67.509 89.8347 67.8256L89.725 67.929ZM83.4555 54.2325C82.5242 54.9503 81.7695 55.8728 81.2494 56.9291C81.164 57.1093 81.0886 57.294 81.0234 57.4825C80.7742 58.2358 80.8174 58.8158 81.143 59.1491L89.4725 67.4823C89.381 67.0363 89.4202 66.5731 89.5855 66.149C90.0296 64.9544 90.7776 63.8972 91.7551 63.0824C92.2081 62.6774 92.7173 62.3405 93.2668 62.0824C93.7113 61.8551 94.2156 61.7734 94.7088 61.8491L86.3461 53.5159C85.5453 52.7725 83.9306 53.8992 83.4555 54.2625V54.2325Z" fill="black"/>
<path d="M93.4054 62.0723C91.8571 62.7057 90.1792 64.529 89.6443 66.1423C89.1094 67.7556 89.9267 68.5656 91.475 67.9356C93.0233 67.3056 94.7045 65.4823 95.2361 63.8656C95.7677 62.249 94.947 61.4457 93.4054 62.0723Z" fill="black"/>
<path d="M23.1849 48.4618L12.6592 54.9851L9.58594 53.2884L19.9953 46.7852L23.1849 48.4618Z" fill="#4B5F7D"/>
<path d="M41.4828 54.5125L27.6911 62.9391L24.6211 61.2424L38.2965 52.8359L41.4828 54.5125Z" fill="#4B5F7D"/>
<path d="M39.6009 49.6258L22.8356 60.1823L19.7656 58.4857L36.4146 47.9492L39.6009 49.6258Z" fill="#4B5F7D"/>
<path d="M38.9611 44.5047L17.6872 57.5978L14.6172 55.9012L35.7715 42.8281L38.9611 44.5047Z" fill="#4B5F7D"/>
<path d="M54.2653 52.7625L32.988 65.8557L29.918 64.1624L51.0757 51.0859L54.2653 52.7625Z" fill="#4B5F7D"/>
<path d="M61.424 29.9893C68.3248 27.456 77.7275 28.8193 82.3557 33.0159C85.0935 35.4992 85.5686 38.4258 84.0701 40.9258C84.2296 39.0858 83.4056 37.1659 81.545 35.4626C76.8935 31.2626 67.5042 29.896 60.6133 32.4326C58.1268 33.3954 56.0252 35.1525 54.6328 37.4325C54.8421 34.7426 57.3141 31.496 61.424 29.9893Z" fill="#606060"/>
<path d="M72.7178 29.0401C68.9368 28.4935 64.8733 28.7868 61.4212 30.0401C57.2051 31.5834 55.0155 34.77 54.7031 37.1833C56.1066 34.9897 58.1699 33.3015 60.5939 32.3634C67.5147 29.8201 76.9341 31.1834 81.5889 35.4C83.3465 36.9967 84.2268 38.8167 84.1471 40.6733C85.5326 38.1467 84.8748 35.3834 82.3099 33.0567C80.0041 30.9734 76.5021 29.5868 72.7178 29.0401Z" fill="#273A56"/>
<path d="M85.718 40.8984L84.8774 43.455C84.4044 44.8385 83.675 46.1198 82.7277 47.2316C81.9436 48.0383 81.0665 48.7249 79.1328 49.7682L79.6877 47.0083C79.6877 47.0083 84.5817 43.0717 85.718 40.8984Z" fill="#273A56"/>
<path d="M77.4587 47.1948C75.2658 47.7481 74.495 47.9015 73.7175 48.0281C72.2377 48.2626 70.7399 48.363 69.2421 48.3281C66.7338 48.2804 64.2493 47.8303 61.8828 46.9948C59.6401 46.1748 57.5237 44.9949 55.8791 43.2682C53.437 40.7149 53.1812 36.5117 53.1812 36.5117L52.5499 38.4383C51.6429 41.1949 52.2974 44.1749 54.7394 46.7315C55.6706 47.6871 56.7349 48.5022 57.8991 49.1515C58.9508 49.7426 60.0554 50.2336 61.1984 50.6181C62.3873 51.0218 63.6107 51.3153 64.8531 51.4948C67.438 51.8681 72.3454 52.2014 76.2858 50.7614L77.4587 47.1948Z" fill="#273A56"/>
<path d="M76.2734 50.763L82.4964 56.6729L83.3071 54.2196L77.0874 48.3164L76.2734 50.763Z" fill="#273A56"/>
<path d="M79.8667 47.1936C81.2383 46.6447 82.4731 45.8005 83.4841 44.7206C84.495 43.6407 85.2575 42.3514 85.7177 40.9437L85.7608 40.8137C85.7648 40.7933 85.7704 40.7733 85.7775 40.7537C85.8526 40.5275 85.9148 40.2971 85.9635 40.0637C85.9849 39.9814 86.0016 39.898 86.0134 39.8137C86.0399 39.6504 86.0632 39.4804 86.0798 39.3237C86.0798 39.2671 86.113 38.8971 86.1164 38.7604C86.1164 38.6971 86.1164 38.6338 86.1164 38.5704C86.1164 38.4471 86.1164 38.3271 86.1164 38.2071C86.1164 38.0871 86.1163 38.0571 86.0997 37.9838C86.0831 37.9104 86.0798 37.8004 86.0665 37.7104C86.0499 37.5704 85.9768 37.1638 85.9602 37.1004C85.9414 36.9978 85.9159 36.8964 85.8838 36.7971C85.8838 36.7971 85.5349 35.7971 85.505 35.7071C85.4352 35.5571 85.3621 35.4038 85.2824 35.2505C85.2018 35.0823 85.112 34.9187 85.0133 34.7605C84.7308 34.3138 84.4107 33.8922 84.0564 33.5005C83.9401 33.3572 83.8105 33.2172 83.6776 33.0772C83.6045 32.9972 83.5281 32.9205 83.455 32.8438C78.4879 27.8806 68.1948 26.3939 60.4966 29.5306L60.1311 29.6806C59.8985 29.7806 59.6693 29.8872 59.4433 29.9939C59.3304 30.0472 59.2207 30.1039 59.1111 30.1605C58.8918 30.2705 58.6759 30.3872 58.4665 30.4939C58.0479 30.7272 57.6525 30.9772 57.2837 31.2305C57.101 31.3605 56.9149 31.4939 56.7422 31.6272C56.5694 31.7605 56.4099 31.8905 56.2371 32.0272C55.9233 32.3014 55.6249 32.5929 55.3434 32.9005C54.368 33.8847 53.6382 35.0862 53.2137 36.4071C52.4262 39.0071 53.1339 41.807 55.5394 44.2237C59.9284 48.6003 67.4439 50.6902 77.0792 48.3269L83.6909 54.5668L85.2492 52.2702L79.8667 47.1936ZM75.6605 46.7303C72.6776 47.4057 69.6 47.5524 66.5668 47.1636C62.5067 46.577 59.0546 45.037 56.8452 42.8304C54.8982 40.8871 54.1872 38.6638 54.8118 36.5805C55.1319 35.5964 55.6808 34.7029 56.4132 33.9738C56.6337 33.7456 56.8655 33.5287 57.1076 33.3238C57.2472 33.2038 57.3934 33.0905 57.5362 32.9905C57.6791 32.8905 57.8452 32.7672 57.9881 32.6572C58.3203 32.4372 58.6526 32.2205 58.9848 32.0272C59.1643 31.9239 59.3536 31.8239 59.5463 31.7272L59.8288 31.5872C60.0348 31.4872 60.2507 31.3905 60.4467 31.3039L60.779 31.1639C64.2145 29.7639 68.3476 29.3139 72.4077 29.9039C76.4678 30.4939 79.9332 32.0339 82.1294 34.2372L82.2257 34.3371L82.352 34.4671C82.4682 34.5905 82.5779 34.7105 82.6842 34.8405C82.9819 35.1859 83.2497 35.5562 83.4849 35.9471C83.5614 36.0705 83.6311 36.1971 83.7109 36.3538C83.7906 36.5105 83.8238 36.5904 83.8803 36.7104C83.9368 36.8304 84.1561 37.4938 84.2126 37.6638C84.2301 37.7252 84.2445 37.7875 84.2558 37.8504C84.2724 37.9238 84.3255 38.2238 84.3421 38.3338C84.3588 38.4438 84.3421 38.4738 84.3654 38.5304C84.3887 38.5871 84.3654 38.6538 84.382 38.7071C84.3986 38.7604 84.382 38.8904 84.382 38.9871C84.382 39.0837 84.382 39.0804 84.382 39.1204C84.382 39.2271 84.3621 39.4837 84.3554 39.5337C84.3554 39.6537 84.3288 39.7737 84.3089 39.8937C84.3089 39.9204 84.3089 39.9737 84.2923 40.0004C84.2822 40.0284 84.2755 40.0575 84.2724 40.0871C84.2383 40.2414 84.1961 40.3938 84.1461 40.5437L84.0963 40.7004C83.558 42.247 82.2656 43.6737 80.3585 44.827C79.9664 45.0737 77.2453 46.3936 75.6605 46.7303Z" fill="#4B5F7D"/>
<path d="M83.8503 52.4735C82.9078 53.1994 82.145 54.1336 81.621 55.2035C81.5325 55.3865 81.4547 55.5746 81.3883 55.7668C81.1259 56.5701 81.1923 57.1734 81.5179 57.5001L90.1963 66.1666C89.864 65.8333 89.8009 65.2366 90.0667 64.4333C90.5062 63.2535 91.2449 62.2091 92.2098 61.4034C92.657 60.9988 93.1607 60.6619 93.7049 60.4034C94.2 60.18 94.7913 60.0334 95.2365 60.2201C95.3441 60.2643 95.4422 60.3288 95.5256 60.41L86.8173 51.7268C86.0764 51.0402 84.671 51.8502 83.8503 52.4735Z" fill="#4B5F7D"/>
<path d="M93.8263 60.3593C92.2781 60.9893 90.5969 62.8126 90.0653 64.4292C89.5337 66.0459 90.3444 66.8525 91.896 66.2192C93.4476 65.5859 95.1221 63.7659 95.657 62.1492C96.192 60.5326 95.3547 59.7293 93.8263 60.3593Z" fill="#273A56"/>
<path d="M27.7124 23.7947C30.009 19.3096 29.2456 14.3208 26.0073 12.6519C22.769 10.9829 18.2821 13.2659 15.9856 17.751C13.689 22.2361 14.4524 27.2249 17.6907 28.8938C20.9289 30.5628 25.4158 28.2798 27.7124 23.7947Z" fill="#182537"/>
<path d="M29.1694 24.5056C31.466 20.0205 30.7026 15.0317 27.4643 13.3628C24.226 11.6938 19.7392 13.9768 17.4426 18.4619C15.146 22.947 15.9094 27.9358 19.1477 29.6047C22.3859 31.2736 26.8728 28.9907 29.1694 24.5056Z" fill="#273A56"/>
<path d="M25.832 24.7396L23.8651 22.3063L21.6357 25.2596L20.8516 24.2896L23.0777 21.3364L21.1108 18.9031L22.0012 17.7264L23.9681 20.1564L26.1942 17.2031L26.9783 18.1764L24.7522 21.1297L26.7191 23.563L25.832 24.7396Z" fill="#4B5F7D"/>
</g>
</g>
</g>
<defs>
<radialGradient id="paint0_radial_4393_5025" cx="0" cy="0" r="1" gradientUnits="userSpaceOnUse" gradientTransform="translate(1.22446 18.783) scale(99.2895 55.1163)">
<stop offset="0.30288" stop-color="#3D5273"/>
<stop offset="1" stop-color="#323F50"/>
</radialGradient>
<clipPath id="clip0_4393_5025">
<rect width="100" height="81" fill="white"/>
</clipPath>
</defs>
</svg>
