<?xml version="1.0" encoding="utf-8"?>
<!-- Generator: Adobe Illustrator 17.0.0, SVG Export Plug-In . SVG Version: 6.00 Build 0)  -->
<!DOCTYPE svg PUBLIC "-//W3C//DTD SVG 1.1//EN" "http://www.w3.org/Graphics/SVG/1.1/DTD/svg11.dtd">
<svg version="1.1" id="Слой_1" xmlns="http://www.w3.org/2000/svg" xmlns:xlink="http://www.w3.org/1999/xlink" x="0px" y="0px"
	 width="1923.192px" height="1944.194px" viewBox="0 0 1923.192 1944.194" enable-background="new 0 0 1923.192 1944.194"
	 xml:space="preserve">
<g>
	<g>
		<path fill="#E8913A" d="M1566.328,421.563H873.782c-177.632,11.82-176.847,207.499-176.847,207.499l0,0v935.057h693.413V629.062
			C1390.349,629.062,1393.632,432.726,1566.328,421.563z"/>
		<g>
			<rect x="648.612" y="640.881" fill="#FFC155" width="8" height="719.678"/>
		</g>
		<g>
			<path fill="#FFC155" d="M1448.084,311.846h-422.998V77.524h422.998V311.846z M1033.086,303.846h406.998V85.524h-406.998V303.846z
				"/>
		</g>
		<g>
			<path fill="#FFC155" d="M656.612,556.235H233.615V261.5h422.997V556.235z M241.615,548.235h406.997V269.5H241.615V548.235z"/>
		</g>
		<g>
			<path fill="#FFC155" d="M1855.202,1026.17h-422.999V790.973h422.999V1026.17z M1440.203,1018.17h406.999V798.973h-406.999
				V1018.17z"/>
		</g>
		<linearGradient id="SVGID_1_" gradientUnits="userSpaceOnUse" x1="1286.6818" y1="1409.8287" x2="800.7681" y2="267.2728">
			<stop  offset="0" style="stop-color:#FF9F55"/>
			<stop  offset="1" style="stop-color:#FFD255"/>
		</linearGradient>
		<path fill="url(#SVGID_1_)" d="M1538.64,408.868c-172.696,11.163-175.979,207.499-175.979,207.499v935.057H669.247V616.367
			c0,0-0.788-195.679,176.847-207.499H1538.64z"/>
		<rect x="760.301" y="653.139" fill="#FFDC94" width="476.284" height="42.025"/>
		<rect x="760.301" y="750.321" fill="#FFDC94" width="406.68" height="29.768"/>
		<rect x="760.301" y="828.899" fill="#FFDC94" width="204.435" height="44.214"/>
		<rect x="1025.146" y="828.899" fill="#FFDC94" width="211.439" height="44.214"/>
		<rect x="760.301" y="914.044" fill="#FFDC94" width="325.695" height="31.519"/>
		<rect x="760.301" y="992.841" fill="#FFDC94" width="366.954" height="17.51"/>
		<rect x="760.301" y="1071.638" fill="#FFDC94" width="441.263" height="17.51"/>
		<g>
			<path fill="#FFDC94" d="M966.236,1248.243H758.801v-99.308h207.435V1248.243z M761.801,1245.243h201.435v-93.308H761.801
				V1245.243z"/>
		</g>
		<rect x="1015.953" y="1150.435" fill="#FFDC94" width="185.611" height="22.764"/>
		<rect x="1015.953" y="1198.588" fill="#FFDC94" width="131.558" height="22.764"/>
		<rect x="760.301" y="1308.029" fill="#FFDC94" width="396.831" height="17.51"/>
		<rect x="760.301" y="1386.826" fill="#FFDC94" width="209.031" height="17.51"/>
		<g>
			<g>
				<g>
					<g>
						<g>
							<g>
								<path fill="#FFCA55" d="M1541.259,935.974l-20.45-33.481c-1.678-2.746-0.811-6.331,1.935-8.008
									c2.746-1.676,6.33-0.81,8.008,1.935l14.462,23.677l38.444-22.754c2.769-1.639,6.342-0.723,7.979,2.046
									c1.64,2.769,0.723,6.341-2.046,7.98L1541.259,935.974z"/>
							</g>
						</g>
					</g>
				</g>
			</g>
			<g>
				<path fill="#FFCA55" d="M1554.988,987.587c-40.553,0-73.544-32.991-73.544-73.544c0-40.552,32.991-73.544,73.544-73.544
					c40.552,0,73.544,32.992,73.544,73.544C1628.532,954.596,1595.54,987.587,1554.988,987.587z M1554.988,851.006
					c-34.759,0-63.037,28.278-63.037,63.038s28.278,63.038,63.037,63.038c34.759,0,63.038-28.278,63.038-63.038
					S1589.747,851.006,1554.988,851.006z"/>
			</g>
		</g>
		<polygon fill="#FFCA55" points="1202.439,170.17 1203.879,201.079 1216.147,200.508 1213.734,148.654 1160.781,151.118 
			1161.352,163.388 1193.36,161.898 1136.935,223.832 1078.224,170.343 1069.953,179.423 1137.743,241.184 		"/>
		<g>
			<path fill="#FFCA55" d="M386.459,369.768c-1.196-1.336-2.962-2.777-5.29-4.32c-2.331-1.54-5.028-3.018-8.091-4.43
				c-3.066-1.411-6.431-2.623-10.096-3.635c-3.668-1.013-7.434-1.657-11.302-1.939l-0.135,41.429l3.8,0.813
				c7.199,1.759,13.698,3.716,19.495,5.868c5.797,2.155,10.692,4.772,14.685,7.853c3.993,3.084,7.082,6.862,9.27,11.338
				c2.187,4.479,3.27,9.918,3.249,16.323c-0.023,7.074-1.313,13.105-3.862,18.1c-2.552,4.995-6.069,9.156-10.548,12.475
				c-4.482,3.322-9.694,5.807-15.635,7.454c-5.944,1.647-12.317,2.527-19.122,2.64l-0.068,21.015l-10.407-0.034l0.07-21.415
				c-9.604-0.7-18.739-2.628-27.401-5.793c-8.664-3.162-16.587-7.56-23.773-13.187l10.27-19.18c1.461,1.605,3.592,3.348,6.388,5.225
				c2.796,1.879,6.058,3.691,9.789,5.435c3.729,1.748,7.826,3.297,12.294,4.644c4.464,1.35,9.099,2.3,13.9,2.847l0.135-41.429
				c-0.8-0.268-1.634-0.505-2.499-0.708c-0.869-0.203-1.7-0.437-2.5-0.708c-7.067-1.891-13.231-3.878-18.494-5.965
				c-5.266-2.084-9.627-4.6-13.085-7.548c-3.461-2.945-6.083-6.391-7.871-10.333c-1.789-3.941-2.673-8.715-2.655-14.319
				c0.022-6.536,1.172-12.336,3.46-17.401c2.284-5.062,5.5-9.42,9.649-13.078c4.146-3.655,8.993-6.507,14.538-8.559
				c5.542-2.049,11.65-3.33,18.326-3.843l0.066-20.214l10.407,0.034l-0.066,20.214c8.67,0.563,16.67,2.325,24,5.282
				c7.327,2.96,13.788,6.519,19.379,10.671L386.459,369.768z M320.395,374.756c-0.019,5.604,1.935,9.814,5.863,12.629
				c3.925,2.814,9.89,5.305,17.888,7.463l0.128-39.427c-8.141,0.373-14.151,2.255-18.031,5.645
				C322.362,364.455,320.414,369.02,320.395,374.756z M378.019,441.392c0.02-5.87-2.302-10.315-6.961-13.332
				c-4.662-3.018-11.189-5.74-19.587-8.17l-0.13,39.628c8.538-0.103,15.116-1.683,19.729-4.738
				C375.684,451.725,378,447.264,378.019,441.392z"/>
		</g>
		<rect x="449.929" y="345.405" fill="#DED4CE" width="166.13" height="23.639"/>
		<rect x="449.929" y="397.048" fill="#DED4CE" width="130.575" height="23.639"/>
		<rect x="449.929" y="448.692" fill="#DED4CE" width="146.514" height="23.639"/>
		<rect x="1659.024" y="870.931" fill="#DED4CE" width="118.704" height="23.639"/>
		<rect x="1659.024" y="922.574" fill="#DED4CE" width="133.194" height="23.639"/>
		<rect x="1251.906" y="131.222" fill="#DED4CE" width="151.028" height="23.639"/>
		<rect x="1251.906" y="182.866" fill="#DED4CE" width="118.704" height="23.639"/>
		<rect x="1251.906" y="234.51" fill="#DED4CE" width="133.194" height="23.639"/>
		<g>
			<polygon fill="#DED4CE" points="1542.64,1182.452 1414.315,1182.452 1414.315,1174.452 1534.64,1174.452 1534.64,1031.364 
				1542.64,1031.364 			"/>
		</g>
		<g>
			<polygon fill="#DED4CE" points="927.148,394.848 919.148,394.848 919.148,353.223 1197.564,353.223 1197.564,323.942 
				1205.564,323.942 1205.564,361.223 927.148,361.223 			"/>
		</g>
		<g>
			<polygon fill="#DED4CE" points="616.059,885.881 470.005,885.881 470.005,570.838 478.005,570.838 478.005,877.881 
				616.059,877.881 			"/>
		</g>
		<g>
			<path fill="#FFC155" d="M1414.401,757.983h-8V662.77c-0.112-1.58-10.265-184.215,143.842-210.785l1.358,7.883
				c-147.092,25.361-137.325,200.871-137.209,202.641L1414.401,757.983z"/>
		</g>
		<g>
			<polygon fill="#FFC155" points="1875.557,940.959 1867.557,940.959 1867.557,779.487 1694.265,779.487 1694.265,771.487 
				1875.557,771.487 			"/>
		</g>
		<g>
			<polygon fill="#FFC155" points="375.612,580.264 211.071,580.264 211.071,425.237 219.071,425.237 219.071,572.264 
				375.612,572.264 			"/>
		</g>
		<g>
			<polygon fill="#FFC155" points="1013.975,182.866 1005.975,182.866 1005.975,60.788 1210.169,60.788 1210.169,68.788 
				1013.975,68.788 			"/>
		</g>
		<g>
			<polygon fill="#FFC155" points="1418.315,1591.643 1268.541,1591.643 1268.541,1583.643 1410.315,1583.643 1410.315,1356.506 
				1418.315,1356.506 			"/>
		</g>
		<g>
			<path fill="#FFDC94" d="M1303.656,1432.977h-130.417v-130.418h130.417V1432.977z M1185.239,1420.977h106.417v-106.418h-106.417
				V1420.977z"/>
		</g>
		<g>
			<polygon fill="#FFDC94" points="1240.508,1394.84 1194.705,1351.662 1208.423,1337.108 1241.416,1368.211 1313.41,1309.057 
				1326.107,1324.51 			"/>
		</g>
		<path opacity="0.24" fill="#3F444F" d="M1198.842,1057.577c-97.84-168.494-313.769-225.779-482.29-127.913
			c-16.915,9.823-32.701,20.828-47.305,32.858v80.925c21.092-24.77,46.674-46.412,76.407-63.695
			c140.836-81.791,321.307-33.909,403.099,106.928c25.11,43.233,37.979,90.196,39.714,136.896c0.131,3.651,0.21,7.276,0.21,10.927
			c0,101.648-52.61,200.564-146.852,255.276c-125.287,72.729-281.961,42.891-372.578-63.747v81.003
			c21.302,17.598,44.468,32.438,68.895,44.389h311.222c7.276-3.571,14.446-7.434,21.564-11.556
			C1239.422,1442.027,1296.707,1226.097,1198.842,1057.577z"/>
		<g>
			
				<rect x="20.888" y="1623.538" transform="matrix(-0.7682 0.6402 -0.6402 -0.7682 1611.4934 2760.5393)" fill="#FF7E55" width="570.202" height="96.941"/>
			
				<rect x="521.473" y="1442.943" transform="matrix(-0.7682 0.6402 -0.6402 -0.7682 1896.3387 2272.8545)" fill="#E66947" width="30.457" height="73.58"/>
			<path fill="#494F5C" d="M497.336,1411.945c97.854,168.506,313.783,225.78,482.289,127.926
				c168.506-97.855,225.78-313.783,127.926-482.289c-97.856-168.506-313.783-225.78-482.29-127.926
				C456.755,1027.511,399.481,1243.439,497.336,1411.945z M547.438,1382.847c-43.403-74.74-50.29-160.649-26.142-237.046
				c21.35-67.55,66.968-127.663,133.06-166.044c140.836-81.787,321.306-33.914,403.091,106.918
				c25.104,43.23,37.992,90.195,39.725,136.894c-0.003,0.002-0.001,0.005-0.001,0.005c3.916,105.435-49.035,209.514-146.642,266.195
				C809.694,1571.556,629.225,1523.684,547.438,1382.847z"/>
			<path opacity="0.3" fill="#C2C2C2" d="M521.296,1145.801c0,0,307.11-233.195,575.876,77.772c0,0-0.002-0.003,0.001-0.005
				c-1.733-46.698-14.621-93.663-39.725-136.894c-81.785-140.832-262.254-188.705-403.091-106.918
				C588.264,1018.138,542.645,1078.251,521.296,1145.801z"/>
		</g>
	</g>
</g>
</svg>
