<svg width="22" height="22" viewBox="0 0 22 22" fill="none" xmlns="http://www.w3.org/2000/svg">
<circle cx="11.0002" cy="11.0002" r="8.88889" fill="url(#paint0_linear_497_4320)"/>
<path d="M11 21C16.5228 21 21 16.5228 21 11C21 5.47715 16.5228 1 11 1C5.47715 1 1 5.47715 1 11C1 16.5228 5.47715 21 11 21Z" fill="#212121" stroke="#E5E5E5"/>
<path d="M7.0008 13.0613H8.33136C8.88642 15.6722 10.8529 17 13.5473 17C14.0794 17 14.6479 16.9527 15 16.8589V14.9498C14.6487 15.0302 14.0722 15.057 13.6242 15.057C12.051 15.057 10.9243 14.4069 10.4644 13.0541H14.2221V12.1496H10.2733C10.2384 11.9496 10.236 11.7353 10.236 11.5004V11.4924C10.236 11.2799 10.2424 11.0781 10.2661 10.8843H14.2261V9.9789H10.4556C10.914 8.61271 12.0439 7.92871 13.5783 7.92871C14.0715 7.92871 14.6067 7.9823 14.9818 8.06981V6.18127C14.6194 6.06072 14.0104 6 13.5069 6C10.8434 6 8.86818 7.35277 8.33373 9.9771H7.00794V10.8816H8.21083C8.19814 11.0754 8.19101 11.2844 8.19101 11.4835V11.4897C8.19101 11.7183 8.19735 11.9389 8.21083 12.1451H7.00794V13.0568H7L7.0008 13.0613Z" fill="#F9FCFF"/>
<defs>
<linearGradient id="paint0_linear_497_4320" x1="11.0002" y1="2.11133" x2="11.0002" y2="19.8891" gradientUnits="userSpaceOnUse">
<stop stop-color="#F0CDFF"/>
<stop offset="1" stop-color="#F0CDFF"/>
</linearGradient>
</defs>
</svg>
