<svg width="22" height="22" viewBox="0 0 22 22" fill="none" xmlns="http://www.w3.org/2000/svg">
<path d="M11 21C16.5228 21 21 16.5228 21 11C21 5.47715 16.5228 1 11 1C5.47715 1 1 5.47715 1 11C1 16.5228 5.47715 21 11 21Z" fill="#212121" stroke="#E5E5E5"/>
<path d="M7 16H14V14.4449H9.50923V14.3728C10.1827 13.9643 10.5323 13.3564 10.5323 12.5572C10.5323 12.3585 10.5108 12.1701 10.4734 11.9883H12.9992V11.0337H10.1942C10.0714 10.6805 9.97303 10.3287 9.97303 9.94158C9.97303 9.03561 10.6465 8.52339 11.8418 8.52339C12.5095 8.52339 13.2038 8.66175 13.608 8.83764V7.34219C13.1449 7.14349 12.3624 7 11.5669 7C9.42523 7 8.10995 8.02662 8.10995 9.70386C8.10995 10.1837 8.23272 10.6098 8.36913 11.0279H7.00144V11.9824H8.6599C8.708 12.198 8.74031 12.4078 8.74031 12.6345C8.74031 13.6442 8.10995 14.3124 7.00144 14.5384V16H7Z" fill="#F9FCFF"/>
</svg>
