<svg width="42" height="42" viewBox="0 0 42 42" fill="none" xmlns="http://www.w3.org/2000/svg">
<mask id="mask0_3360_16088" style="mask-type:alpha" maskUnits="userSpaceOnUse" x="0" y="0" width="42" height="42">
<path d="M21 42C32.598 42 42 32.598 42 21C42 9.40202 32.598 0 21 0C9.40202 0 0 9.40202 0 21C0 32.598 9.40202 42 21 42Z" fill="#E5ECF2"/>
</mask>
<g mask="url(#mask0_3360_16088)">
<path d="M21 42C32.598 42 42 32.598 42 21C42 9.40202 32.598 0 21 0C9.40202 0 0 9.40202 0 21C0 32.598 9.40202 42 21 42Z" fill="#CFBDA9"/>
<path opacity="0.3" fill-rule="evenodd" clip-rule="evenodd" d="M19.1702 -1.5062C19.7128 -3.32346 22.2863 -3.32345 22.8288 -1.5062L26.9867 12.4205C27.0689 12.6955 27.3249 12.8815 27.6118 12.8746L42.1417 12.5254C44.0377 12.4798 44.8329 14.9274 43.2723 16.0049L31.312 24.2629C31.0759 24.426 30.9781 24.727 31.0733 24.9977L35.8954 38.7086C36.5246 40.4976 34.4426 42.0103 32.9355 40.859L21.3859 32.0361C21.1578 31.8618 20.8413 31.8618 20.6132 32.0361L9.06353 40.859C7.55645 42.0103 5.47445 40.4976 6.10367 38.7086L10.9258 24.9977C11.021 24.727 10.9232 24.426 10.687 24.2629L-1.27318 16.0049C-2.83384 14.9274 -2.03858 12.4798 -0.142607 12.5254L14.3873 12.8746C14.6742 12.8815 14.9302 12.6955 15.0124 12.4205L19.1702 -1.5062ZM21.6093 -1.1421C21.4285 -1.74785 20.5706 -1.74785 20.3898 -1.1421L16.2319 12.7846C15.9856 13.6096 15.2175 14.1676 14.3567 14.147L-0.173185 13.7978C-0.805181 13.7826 -1.07026 14.5985 -0.550044 14.9576L11.4102 23.2155C12.1187 23.7048 12.412 24.6077 12.1264 25.42L7.30432 39.1308C7.09459 39.7272 7.78857 40.2314 8.29093 39.8477L19.8406 31.0247C20.5248 30.502 21.4743 30.502 22.1585 31.0247L33.7081 39.8477C34.2105 40.2314 34.9045 39.7272 34.6948 39.1309L29.8727 25.42C29.587 24.6077 29.8804 23.7048 30.5889 23.2155L42.5491 14.9576C43.0694 14.5985 42.8042 13.7826 42.1723 13.7978L27.6424 14.147C26.7816 14.1676 26.0135 13.6096 25.7672 12.7846L21.6093 -1.1421Z" fill="#756859"/>
<path d="M20.6657 9.22714C20.7562 8.92429 21.1851 8.92429 21.2755 9.22714L23.7288 17.4446C23.7699 17.5821 23.898 17.6751 24.0414 17.6716L32.6148 17.4656C32.9308 17.458 33.0633 17.866 32.8032 18.0456L25.7461 22.9182C25.628 22.9997 25.5791 23.1501 25.6267 23.2855L28.472 31.3756C28.5769 31.6738 28.2299 31.9259 27.9787 31.734L21.1638 26.5281C21.0498 26.441 20.8915 26.441 20.7775 26.5281L13.9626 31.734C13.7114 31.9259 13.3644 31.6738 13.4693 31.3756L16.3145 23.2855C16.3622 23.1501 16.3133 22.9997 16.1952 22.9182L9.13805 18.0456C8.87798 17.866 9.01048 17.458 9.32646 17.4656L17.8998 17.6716C18.0433 17.6751 18.1713 17.5821 18.2124 17.4446L20.6657 9.22714Z" fill="#AA7400"/>
</g>
</svg>
