<svg width="16" height="16" viewBox="0 0 16 16" fill="none" xmlns="http://www.w3.org/2000/svg">
<path fill-rule="evenodd" clip-rule="evenodd" d="M1 7V9C1 12.3137 3.68629 15 7 15H9C12.3137 15 15 12.3137 15 9V7C15 3.68629 12.3137 1 9 1H7C3.68629 1 1 3.68629 1 7Z" stroke="#B6B8BA" stroke-width="1.5" stroke-linecap="round" stroke-linejoin="round"/>
<path d="M8 8V12" stroke="#B6B8BA" stroke-width="1.5" stroke-linecap="round"/>
<path d="M8.00012 4.75C8.13864 4.75 8.25012 4.86149 8.25012 5C8.25012 5.13851 8.13864 5.25 8.00012 5.25C7.86161 5.25 7.75012 5.13851 7.75012 5C7.75012 4.86149 7.86161 4.75 8.00012 4.75Z" fill="black" stroke="#B6B8BA" stroke-width="1.5"/>
<path d="M8 4.75C8.13808 4.75 8.25 4.86192 8.25 5C8.25 5.13808 8.13808 5.25 8 5.25C7.86192 5.25 7.75 5.13808 7.75 5C7.75 4.86192 7.86192 4.75 8 4.75Z" fill="#B6B8BA" stroke="#B6B8BA" stroke-width="1.5"/>
</svg>
