<svg width="109" height="82" viewBox="0 0 109 82" fill="none" xmlns="http://www.w3.org/2000/svg">
<path d="M75.0627 42.4348V46.5242C75.0627 51.6216 74.1545 56.0426 72.3635 59.6634C70.9501 62.5206 68.9803 64.8984 66.5089 66.7301C64.2921 68.3732 62.0658 69.2718 60.5887 69.7361C59.3071 70.1389 58.3489 70.2951 58 70.3433C57.6511 70.2951 56.6929 70.1389 55.4113 69.7361C53.9341 69.2718 51.7079 68.3732 49.4911 66.7301C47.0197 64.8984 45.0499 62.5206 43.6365 59.6634C41.8456 56.0426 40.9373 51.6216 40.9373 46.5242V39.3982C43.3683 38.8721 45.7422 38.1319 48.011 37.1917C50.1256 36.3152 52.1544 35.2636 54.0408 34.0664C55.8364 32.9267 57.1623 31.871 58 31.1431C58.8377 31.871 60.1637 32.9267 61.9592 34.0664C63.5216 35.058 65.1818 35.9498 66.9072 36.7246L68.6349 34.2758C66.8828 33.5209 65.1997 32.637 63.6244 31.6442C60.6554 29.7725 59.078 28.1406 59.0645 28.1262L58.0062 27L56.9376 28.1241C56.922 28.1406 55.3446 29.7725 52.3756 31.6442C50.6373 32.7398 48.7677 33.7027 46.8191 34.5058C44.3878 35.5083 41.8244 36.2638 39.2002 36.7517L38 36.9749V46.5242C38 52.121 39.0263 57.0116 41.0504 61.0602C42.6936 64.3459 44.9873 67.0788 47.8683 69.1828C52.7701 72.7628 57.6549 73.2654 57.8605 73.2847L58 73.2983L58.1395 73.2847C58.3451 73.2654 63.2299 72.7628 68.1317 69.1828C71.0127 67.0787 73.3064 64.3458 74.9493 61.0602C76.9737 57.0116 78 52.121 78 46.5242V38.2714L75.0627 42.4348Z" fill="white"/>
<path d="M61.9594 34.0664C60.1682 32.9293 58.8444 31.876 58.0063 31.1484V27L59.0647 28.1262C59.0782 28.1406 60.6555 29.7726 63.6246 31.6442C65.1999 32.637 66.883 33.5209 68.6351 34.2758L66.9074 36.7246C65.1819 35.9498 63.5218 35.058 61.9594 34.0664Z" fill="white"/>
<path d="M78.0002 38.2715V46.5242C78.0002 52.121 76.9739 57.0117 74.9495 61.0602C73.3066 64.3459 71.0129 67.0788 68.1319 69.1828C63.2301 72.7628 58.3453 73.2654 58.1397 73.2848L58.0063 73.2977V70.3425C58.3603 70.2934 59.3146 70.1366 60.5889 69.7362C62.0661 69.2718 64.2922 68.3733 66.509 66.7301C68.9805 64.8984 70.9503 62.5206 72.3637 59.6635C74.1546 56.0427 75.0629 51.6217 75.0629 46.5242V42.4349L78.0002 38.2715Z" fill="white"/>
<path d="M56.7876 62.1057L48.1841 54.988C47.4792 54.4049 47.3806 53.3609 47.9636 52.6561L49.8905 50.3269C50.4736 49.6221 51.5177 49.5234 52.2225 50.1065L56.9328 54.0033L71.9128 32.7695C72.4402 32.0221 73.4736 31.8436 74.221 32.3709L76.6911 34.1135C77.4386 34.6408 77.617 35.6742 77.0897 36.4217L59.1968 61.7844C58.6406 62.5727 57.531 62.7207 56.7876 62.1057Z" fill="#35BA83"/>
<path d="M58 82C66.2843 82 73 81.1046 73 80C73 78.8954 66.2843 78 58 78C49.7157 78 43 78.8954 43 80C43 81.1046 49.7157 82 58 82Z" fill="#2B313F"/>
<path d="M9.39766 41.0196L10.0861 40.6578L8.63878 37.9039M11.3023 36.2844L10.7595 35.2517M9.01576 43.6367C10.5912 44.1266 12.6567 43.0411 13.1467 41.4656M5.79439 39.1791L5.25162 38.1464M10.9194 46.5901C9.37724 47.4006 8.60613 47.8059 7.85903 47.8154C7.20211 47.8237 6.55941 47.6239 6.02306 47.2445C5.41315 46.8129 5.00789 46.0418 4.19736 44.4996M16.5901 37.9864C17.4006 39.5286 17.8058 40.2997 17.8154 41.0469C17.8237 41.7038 17.6238 42.3465 17.2444 42.8828C16.8129 43.4927 16.0418 43.898 14.4996 44.7085M7.98641 32.3158C9.52861 31.5053 10.2997 31.1 11.0468 31.0905C11.7037 31.0822 12.3464 31.282 12.8828 31.6614C13.4927 32.093 13.898 32.8641 14.7085 34.4063M4.40629 34.1974C2.86409 35.0079 2.09299 35.4132 1.66141 36.0231C1.28201 36.5595 1.08214 37.2021 1.09044 37.8591C1.1 38.6062 1.50526 39.3773 2.31578 40.9195" stroke="#3A4759" stroke-linecap="round" stroke-linejoin="round"/>
<path d="M48 7.3C48 4.3299 48 2.8452 49.0248 1.9226C50.051 1 51.7002 1 55 1C58.2998 1 59.9497 1 60.9745 1.9226C61.9993 2.8452 62 4.3306 62 7.3C62 10.2694 62 11.7548 60.9745 12.6774C59.9504 13.6 58.2998 13.6 55 13.6C51.7002 13.6 50.0503 13.6 49.0248 12.6774C47.9993 11.7548 48 10.2694 48 7.3Z" stroke="#3A4759" stroke-linecap="round" stroke-linejoin="round"/>
<path d="M50.1001 10.4499C50.9457 8.6432 54.0985 8.5249 55.0001 10.4499M57.1001 5.8999H59.9001M57.1001 8.6999H59.9001M53.9501 5.5499C53.9501 5.92121 53.8026 6.2773 53.54 6.53985C53.2775 6.8024 52.9214 6.9499 52.5501 6.9499C52.1788 6.9499 51.8227 6.8024 51.5601 6.53985C51.2976 6.2773 51.1501 5.92121 51.1501 5.5499C51.1501 5.1786 51.2976 4.8225 51.5601 4.55995C51.8227 4.2974 52.1788 4.1499 52.5501 4.1499C52.9214 4.1499 53.2775 4.2974 53.54 4.55995C53.8026 4.8225 53.9501 5.1786 53.9501 5.5499Z" stroke="#3A4759" stroke-linecap="round" stroke-linejoin="round"/>
<path d="M97.8399 45.1827C97.6881 45.2197 97.5285 45.2081 97.3836 45.1496C97.2387 45.091 97.1158 44.9885 97.0323 44.8564C94.5528 40.9673 92.9198 34.3685 98.1465 32.1887C99.5799 31.5941 101.19 31.5871 102.628 32.169C104.07 32.7517 105.225 33.8769 105.838 35.2956C108.084 40.4944 102.326 44.1061 97.8399 45.1827Z" stroke="#3A4759" stroke-linecap="round" stroke-linejoin="round"/>
<path d="M100.006 38.6591C100.388 38.8137 100.817 38.8099 101.196 38.6487C101.576 38.4876 101.876 38.1821 102.031 37.7996C102.185 37.4171 102.182 36.9888 102.02 36.6091C101.859 36.2293 101.554 35.9292 101.171 35.7746C100.789 35.6201 100.361 35.6238 99.9808 35.785C99.601 35.9462 99.3008 36.2516 99.1463 36.6342C98.9917 37.0167 98.9955 37.4449 99.1567 37.8247C99.3179 38.2044 99.6233 38.5046 100.006 38.6591Z" stroke="#3A4759" stroke-linecap="round" stroke-linejoin="round"/>
</svg>
