<svg width="105" height="104" viewBox="0 0 105 104" fill="none" xmlns="http://www.w3.org/2000/svg">
<path d="M86.5001 24.2322C86.8433 24.7658 86.9837 25.4062 86.8955 26.0357C86.8073 26.6652 86.4965 27.2416 86.0201 27.6588L84.8945 28.6588L84.9938 28.7921L86.2584 27.9755C86.7881 27.6296 87.4239 27.4877 88.0491 27.5758C88.6743 27.664 89.2469 27.9763 89.6618 28.4555L90.6549 29.5921L90.7874 29.4921L89.9763 28.2321C89.6332 27.6981 89.4925 27.0576 89.5801 26.4277C89.6676 25.7979 89.9775 25.2208 90.453 24.8022L91.5819 23.8022L91.4826 23.6689L90.2312 24.4722C89.701 24.8183 89.0647 24.9604 88.4389 24.8722C87.8132 24.784 87.24 24.4716 86.8246 23.9922L85.8314 22.8555L85.7023 22.9555L86.5001 24.2322Z" fill="#E0E0E0"/>
<path d="M96.3638 28.8577C96.5525 29.1528 96.6296 29.5064 96.581 29.854C96.5323 30.2015 96.3613 30.5199 96.099 30.751L95.4766 31.3044L95.5295 31.3777L96.2281 30.9244C96.5217 30.7341 96.8734 30.6564 97.2191 30.7053C97.5649 30.7543 97.8817 30.9266 98.1118 31.191L98.6581 31.8177L98.7309 31.7643L98.284 31.061C98.0939 30.7663 98.016 30.4124 98.0647 30.0645C98.1134 29.7166 98.2853 29.3981 98.5488 29.1677L99.1679 28.6144L99.1116 28.5411L98.4131 28.9911C98.1208 29.1828 97.7695 29.2618 97.424 29.2134C97.0784 29.165 96.7619 28.9925 96.5326 28.7277L95.9831 28.0977L95.9103 28.1544L96.3638 28.8577Z" fill="#E0E0E0"/>
<path d="M52.6742 82.9287C79.9941 82.9287 102.141 71.0286 102.141 56.3491C102.141 41.6696 79.9941 29.7695 52.6742 29.7695C25.3542 29.7695 3.20703 41.6696 3.20703 56.3491C3.20703 71.0286 25.3542 82.9287 52.6742 82.9287Z" fill="#E0E0E0"/>
<path d="M44.2422 12L44.4408 12.2633" stroke="#343434" stroke-width="0.5" stroke-miterlimit="10"/>
<path d="M44.8477 12.7802C46.8042 15.2068 53.058 22.3467 57.4081 20.1134C62.6256 17.4468 58.153 9.98016 53.2268 13.3568C50.1148 15.5001 50.8333 22.2634 57.6432 23.9C63.1918 25.2333 66.8632 21.6534 68.0418 20.2767" stroke="white" stroke-width="0.5" stroke-miterlimit="10" stroke-dasharray="0.99 0.99"/>
<path d="M68.25 20.0133C68.3824 19.8467 68.4519 19.75 68.4519 19.75" stroke="#343434" stroke-width="0.5" stroke-miterlimit="10"/>
<path d="M37.7063 91.5336L3.50771 74.1506C2.08415 73.4272 2.18347 72.1173 3.71297 71.2239L58.06 39.6544C59.5961 38.7611 61.993 38.6244 63.4165 39.3444L97.6184 56.7308C99.0387 57.4541 98.9427 58.7641 97.4099 59.6574L43.0629 91.2303C41.5268 92.1203 39.1299 92.2569 37.7063 91.5336Z" fill="black"/>
<path d="M37.7063 86.2015L3.50771 68.8185C2.08415 68.0951 2.18347 66.7852 3.71297 65.8918L58.06 34.3223C59.5961 33.429 61.993 33.2923 63.4165 34.0123L97.6184 51.3987C99.0387 52.122 98.9427 53.432 97.4099 54.3253L43.0629 85.8982C41.5268 86.7882 39.1299 86.9249 37.7063 86.2015Z" fill="#343434"/>
<path d="M38.0089 83.8344L3.82022 66.4513C2.39665 65.728 2.49597 64.418 4.02547 63.5247L58.3625 31.9552C59.8986 31.0618 62.2956 30.9252 63.7191 31.6452L97.9176 49.0316C99.3412 49.7549 99.2419 51.0649 97.7124 51.9582L43.3655 83.5277C41.8294 84.421 39.4325 84.5644 38.0089 83.8344Z" fill="white"/>
<path d="M63.2858 42.7082C70.1619 40.1749 79.5309 41.5382 84.1426 45.7315C86.8672 48.2181 87.3407 51.1447 85.8476 53.6447C86.0065 51.8047 85.1855 49.8847 83.3315 48.1781C78.6967 43.9782 69.3409 42.6148 62.4747 45.1481C59.9974 46.1115 57.9035 47.8685 56.5156 50.1481C56.7275 47.4581 59.1905 44.2115 63.2858 42.7082Z" fill="black"/>
<path d="M56.4336 50.4033L56.4501 50.1666C56.6488 47.68 58.8669 44.2667 63.2766 42.6467C70.166 40.1068 79.5549 41.4668 84.1963 45.6767C86.8647 48.11 87.507 51.01 85.9079 53.6766L85.7755 53.8966L85.7987 53.6632C85.9642 51.7566 85.0968 49.8833 83.2959 48.24C78.6809 44.0467 69.345 42.6901 62.4821 45.2167C60.0174 46.1721 57.936 47.922 56.5627 50.1933L56.4336 50.4033ZM74.5393 41.7568C70.7685 41.2101 66.7196 41.5034 63.2832 42.7567C59.1085 44.3101 56.907 47.4967 56.5991 49.9C57.9947 47.7031 60.0514 46.013 62.4688 45.0767C69.3615 42.5367 78.7471 43.9001 83.3886 48.1167C85.1366 49.7133 86.0139 51.5299 85.9344 53.3899C87.3183 50.86 86.6594 48.1 84.107 45.7734C81.7962 43.6867 78.3101 42.3001 74.5393 41.7568Z" fill="black"/>
<path d="M87.4856 53.625L86.6481 56.1816C86.176 57.5651 85.4468 58.8457 84.4995 59.9549C83.7182 60.7649 82.8442 61.4482 80.9141 62.4948L81.4703 59.7349C81.4703 59.7349 86.36 55.7883 87.4856 53.625Z" fill="black"/>
<path d="M79.2609 59.9009C77.0759 60.4575 76.3078 60.6109 75.5332 60.7342C74.0579 60.9718 72.564 61.0722 71.0705 61.0342C68.5711 60.9865 66.0955 60.5364 63.7375 59.7009C61.488 58.9325 59.4421 57.658 57.7552 55.9743C55.3219 53.4343 55.0703 49.2344 55.0703 49.2344L54.4413 51.1643C53.5342 53.921 54.1863 56.9009 56.6196 59.4542C57.5474 60.4094 58.6093 61.2225 59.7713 61.8675C60.8186 62.4609 61.9193 62.9531 63.0588 63.3375C64.2433 63.742 65.4623 64.0354 66.7004 64.2141C69.2761 64.5875 74.1626 64.9175 78.089 63.4808L79.2609 59.9009Z" fill="black"/>
<path d="M78.082 63.4813L84.2828 69.3911L85.0873 66.9378L78.8898 61.0312L78.082 63.4813Z" fill="black"/>
<path d="M81.6615 59.9002C83.0257 59.3502 84.2534 58.5054 85.2579 57.4255C86.2624 56.3456 87.0192 55.0569 87.475 53.6503L87.518 53.5203C87.518 53.5203 87.518 53.4836 87.5345 53.4636C87.611 53.2379 87.6729 53.0074 87.7199 52.7736C87.7425 52.6916 87.7591 52.6081 87.7696 52.5236C87.7994 52.3603 87.8193 52.1903 87.8391 52.0303C87.8391 51.977 87.8722 51.607 87.8722 51.4703C87.8722 51.407 87.8722 51.3403 87.8722 51.277C87.8722 51.1536 87.8722 51.037 87.8722 50.917C87.8722 50.797 87.8722 50.767 87.8557 50.6903C87.8391 50.6137 87.8358 50.507 87.8226 50.417C87.8093 50.327 87.7299 49.8737 87.7166 49.8103C87.7034 49.747 87.6703 49.6037 87.6405 49.5037C87.6405 49.5037 87.2929 48.5037 87.2598 48.417C87.1936 48.2637 87.1207 48.1104 87.0413 47.957C86.9591 47.7892 86.8685 47.6256 86.7698 47.467C86.501 47.0219 86.1954 46.6004 85.8561 46.2071C85.7402 46.0671 85.6111 45.9237 85.482 45.7837L85.2635 45.5671C80.2976 40.5938 70.0347 39.1072 62.3739 42.2338L62.0097 42.3838C61.778 42.4871 61.5496 42.5938 61.3278 42.7171L60.9967 42.8804C60.7782 42.9904 60.5663 43.1104 60.3544 43.2138C59.9406 43.4504 59.5467 43.6971 59.1792 43.9538C58.9938 44.0804 58.8084 44.2138 58.6362 44.3471C58.4641 44.4804 58.3052 44.6137 58.1363 44.7504C57.8187 45.0179 57.5169 45.304 57.2325 45.6071C56.2596 46.5923 55.5313 47.7949 55.1071 49.117C54.3225 51.717 55.0277 54.5136 57.4246 56.9336C61.7879 61.3102 69.2865 63.4001 78.8806 61.0368L85.4621 67.2801L87.0148 64.9868L81.6615 59.9002ZM77.4703 59.4402C74.4993 60.1156 71.4337 60.2622 68.4125 59.8735C64.3636 59.2869 60.9239 57.7469 58.7223 55.5402C56.7823 53.5969 56.0738 51.377 56.6962 49.2937C57.0157 48.3091 57.5639 47.4155 58.2952 46.687C58.5134 46.4533 58.7433 46.2307 58.9838 46.0204C59.1229 45.9037 59.2686 45.7871 59.4109 45.6871C59.5533 45.5871 59.7188 45.4604 59.8612 45.3537C60.1922 45.1304 60.5233 44.9171 60.8543 44.7204C61.0364 44.6204 61.2251 44.5171 61.4138 44.4237L61.6952 44.2804L62.311 43.9971C62.4203 43.9538 62.5394 43.9071 62.6421 43.8571C66.0652 42.4604 70.187 42.0105 74.2292 42.5971C78.2715 43.1838 81.7277 44.7271 83.9161 46.9304L84.0121 47.0337C84.0572 47.0738 84.0993 47.1172 84.1379 47.1637C84.2537 47.2837 84.363 47.407 84.4689 47.537C84.7673 47.8799 85.0343 48.2492 85.2668 48.6404C85.3488 48.773 85.4239 48.9099 85.4919 49.0503C85.5515 49.167 85.6078 49.287 85.6607 49.407C85.7137 49.527 85.9355 50.187 85.9918 50.3603C85.9918 50.4237 86.0249 50.4837 86.0348 50.5437C86.0448 50.6037 86.1077 50.917 86.1242 51.027C86.1408 51.137 86.1408 51.1703 86.1474 51.2236C86.154 51.277 86.1474 51.347 86.1474 51.4036C86.1474 51.4603 86.1474 51.587 86.1474 51.6836V51.817C86.1474 51.9203 86.1242 52.1803 86.1209 52.2303C86.1209 52.3503 86.0944 52.4703 86.0713 52.5903C86.0713 52.6136 86.0713 52.667 86.0713 52.6936C86.0615 52.7228 86.0548 52.753 86.0514 52.7836C86.0197 52.9382 85.9788 53.0907 85.9289 53.2403L85.8759 53.3936C85.3396 54.9436 84.0518 56.3702 82.1548 57.5235C81.7608 57.7902 79.0495 59.1102 77.4703 59.4469V59.4402Z" fill="black"/>
<path d="M85.471 67.3804L85.4247 67.337L78.8631 61.1105C69.9939 63.2871 62.1676 61.7771 57.3871 56.9872C55.0498 54.6539 54.2189 51.8473 55.0465 49.114C55.4707 47.7773 56.2049 46.5616 57.1885 45.5674C57.4817 45.2639 57.7912 44.9768 58.1155 44.7074C58.3174 44.5407 58.473 44.4174 58.622 44.304C58.771 44.1907 58.9994 44.0207 59.1649 43.9041C59.549 43.6374 59.9495 43.3874 60.3501 43.1641H60.3667C60.5686 43.0507 60.7805 42.9374 60.9957 42.8307L61.0453 42.8074L61.3267 42.6641C61.532 42.5707 61.7704 42.4574 62.0154 42.3507L62.0981 42.3141L62.3795 42.2007C70.0668 39.0575 80.3528 40.5341 85.3121 45.534L85.428 45.654L85.5372 45.7674C85.6564 45.894 85.7922 46.044 85.9147 46.194C86.2554 46.5901 86.5632 47.0138 86.835 47.4607C86.9338 47.6197 87.0234 47.7844 87.1032 47.954C87.176 48.094 87.2488 48.2406 87.325 48.414C87.325 48.414 87.656 49.3606 87.7057 49.5073C87.7384 49.6089 87.7649 49.7124 87.7851 49.8173C87.7851 49.8806 87.8712 50.2873 87.8911 50.4306C87.8911 50.5206 87.9176 50.6139 87.9242 50.7039L87.9407 50.9306C87.9407 51.0539 87.9407 51.1739 87.9407 51.2973C87.9407 51.3306 87.9407 51.3639 87.9407 51.3939V51.4939C87.9407 51.6273 87.911 52.0039 87.9043 52.0573C87.8845 52.2439 87.8613 52.3906 87.8348 52.5539C87.8248 52.6406 87.8082 52.7264 87.7851 52.8106C87.7366 53.0454 87.6736 53.277 87.5964 53.5039C87.5969 53.5117 87.5969 53.5195 87.5964 53.5272V53.5639L87.5534 53.6939C87.0987 55.0926 86.3491 56.3758 85.356 57.4557C84.3629 58.5356 83.1497 59.3866 81.7996 59.9505L87.1263 64.9971L85.471 67.3804ZM78.916 60.9738L85.471 67.187L86.9443 65.0104L81.5446 59.9005L81.6506 59.8571C83.0018 59.3072 84.2178 58.4674 85.2138 57.3961C86.2098 56.3248 86.9619 55.0477 87.4177 53.6539L87.4607 53.5272C87.4607 53.5272 87.4607 53.5272 87.4607 53.5039V53.4672C87.5341 53.2487 87.5949 53.0261 87.6428 52.8006C87.6657 52.7209 87.6823 52.6395 87.6924 52.5573C87.7189 52.4073 87.7388 52.2473 87.7587 52.0639C87.7587 52.0139 87.7918 51.6439 87.7951 51.5106V51.4173C87.7951 51.3839 87.7951 51.3506 87.7951 51.3139C87.7951 51.1973 87.7951 51.0806 87.7951 50.9606L87.7785 50.7373C87.7785 50.6506 87.762 50.5573 87.7487 50.4673C87.7355 50.3773 87.656 49.9273 87.6428 49.8673C87.6229 49.7649 87.5975 49.6636 87.5666 49.564C87.5368 49.4673 87.2356 48.564 87.1925 48.4873C87.1164 48.3173 87.0469 48.174 86.974 48.034C86.8936 47.8669 86.8041 47.7045 86.7059 47.5473C86.4386 47.1049 86.1352 46.6857 85.7988 46.294C85.673 46.144 85.5372 45.9974 85.4214 45.8707L85.3154 45.7574C85.2744 45.7198 85.2356 45.6798 85.1996 45.6374C80.2668 40.6908 70.0303 39.2075 62.3795 42.3341L62.0981 42.4507L62.0154 42.4841C61.777 42.5907 61.5386 42.7007 61.3532 42.7974L61.0718 42.9374L61.0222 42.9607C60.8103 43.0674 60.6017 43.1841 60.3998 43.2941H60.3832C59.986 43.5174 59.592 43.7641 59.2113 44.0274C59.0457 44.144 58.857 44.2807 58.675 44.4207C58.4929 44.5607 58.3737 44.6574 58.175 44.8207C57.8599 45.0864 57.5604 45.3702 57.2779 45.6707C56.3129 46.6451 55.5923 47.8368 55.1756 49.1473C54.3612 51.8339 55.1756 54.5906 57.4931 56.9072C62.257 61.6838 70.0734 63.1771 78.9028 61.0005L78.916 60.9738ZM68.3783 59.9438C64.3195 59.3538 60.8699 57.8105 58.665 55.6105C56.7084 53.6506 55.9867 51.4106 56.629 49.304C56.9531 48.308 57.5068 47.4034 58.2446 46.664C58.4498 46.4473 58.6915 46.2207 58.9398 45.9974C59.0656 45.894 59.2013 45.784 59.3735 45.664C59.5456 45.544 59.6781 45.4407 59.8171 45.3307C60.1482 45.1074 60.4792 44.894 60.8335 44.6907C61.0255 44.584 61.2142 44.4807 61.3996 44.3907L61.681 44.2474C61.8829 44.1507 62.0948 44.054 62.3001 43.964L62.6311 43.824C66.0709 42.4174 70.2025 41.9707 74.2646 42.5574C78.3267 43.1441 81.7731 44.6874 83.9746 46.8907L84.074 46.994C84.1183 47.0349 84.1603 47.0783 84.1998 47.124C84.3289 47.2607 84.4348 47.3807 84.5308 47.5007C84.8309 47.8461 85.1001 48.2175 85.3353 48.6106C85.4081 48.7273 85.4743 48.8506 85.5604 49.0206C85.6167 49.134 85.6697 49.2506 85.7226 49.354C85.7756 49.4906 85.9345 49.9506 86.0206 50.1973L86.0736 50.364C86.0863 50.4111 86.0963 50.4589 86.1034 50.5073C86.1232 50.5806 86.1762 50.8806 86.1927 50.9906C86.1927 51.0439 86.1927 51.1006 86.2093 51.1473V51.1906C86.2093 51.2239 86.2093 51.2539 86.2093 51.2806C86.2108 51.3106 86.2108 51.3406 86.2093 51.3706V51.6539V51.7906C86.2093 51.9006 86.1861 52.1606 86.1828 52.2073C86.1828 52.3439 86.153 52.4639 86.1332 52.5739C86.1332 52.5739 86.1332 52.6039 86.1332 52.6272C86.1332 52.6506 86.1332 52.6639 86.1332 52.6739C86.1332 52.6839 86.1332 52.7406 86.1133 52.7639C86.0811 52.9231 86.0391 53.08 85.9875 53.2339L85.9345 53.3906C85.3916 54.9572 84.0938 56.3905 82.177 57.5638C81.7896 57.8005 79.0617 59.1471 77.4362 59.4938C74.4662 60.1757 71.4005 60.328 68.3783 59.9438ZM74.2249 42.6707C70.1826 42.0874 66.0742 42.5307 62.6576 43.9274L62.3266 44.064C62.118 44.1574 61.9061 44.254 61.7075 44.3507L61.4261 44.4907C61.244 44.5807 61.0586 44.6807 60.8699 44.7874C60.519 44.9874 60.1846 45.1974 59.8767 45.414C59.731 45.5174 59.5721 45.6274 59.4298 45.7474C59.2874 45.8674 59.1252 45.984 59.006 46.0807C58.7661 46.2835 58.5373 46.4994 58.3207 46.7273C57.6004 47.4473 57.0603 48.3293 56.7449 49.3006C56.1158 51.3606 56.8309 53.5606 58.7577 55.4905C60.9493 57.6938 64.3858 59.2305 68.4214 59.8238C71.4357 60.2172 74.4953 60.0716 77.4594 59.3938C79.0716 59.0605 81.7631 57.7272 82.1571 57.4838C84.0408 56.3372 85.3154 54.9272 85.8451 53.4006L85.8948 53.2439C85.9455 53.0979 85.9864 52.9487 86.0173 52.7972C86.021 52.7642 86.0288 52.7317 86.0405 52.7006C86.0395 52.6862 86.0395 52.6717 86.0405 52.6572C86.0414 52.6417 86.0414 52.6261 86.0405 52.6106C86.0603 52.4972 86.0736 52.3839 86.0868 52.2506C86.0868 52.2039 86.11 51.9473 86.1133 51.8406V51.7073C86.1133 51.6173 86.1133 51.5239 86.1133 51.4339C86.1115 51.4051 86.1115 51.3761 86.1133 51.3473V51.2573V51.2139C86.1133 51.1673 86.1133 51.1173 86.0934 51.0639C86.0934 50.9573 86.0272 50.6573 86.0073 50.5873C85.9875 50.5173 85.9875 50.4939 85.9776 50.4473V50.4006L85.9411 50.2873C85.8551 50.0406 85.6962 49.584 85.6465 49.454C85.5935 49.3406 85.5406 49.224 85.4843 49.1206C85.4178 48.9811 85.3438 48.8453 85.2625 48.714C85.0302 48.3254 84.7655 47.9574 84.4712 47.614C84.3719 47.4973 84.266 47.3807 84.1402 47.244C84.1017 47.1985 84.0608 47.1551 84.0177 47.114L83.9184 47.0107C81.7069 44.7907 78.2771 43.2574 74.2348 42.6707H74.2249Z" fill="black"/>
<path d="M85.6281 65.1872C84.6892 65.9133 83.929 66.8474 83.4067 67.9172C83.3196 68.0991 83.2433 68.2861 83.1783 68.4772C82.9134 69.2838 82.983 69.8872 83.3074 70.2105L91.9514 78.877C91.6204 78.5437 91.5608 77.947 91.8223 77.1404C92.2611 75.962 92.997 74.9189 93.9576 74.1138C94.4039 73.7101 94.9057 73.3733 95.4474 73.1138C95.9407 72.8904 96.5333 72.7438 96.9736 72.9305C97.0818 72.9746 97.1807 73.0391 97.2649 73.1204L88.5746 64.4372C87.8496 63.7506 86.4459 64.5639 85.6281 65.1872Z" fill="black"/>
<path d="M91.9039 78.929L83.2764 70.2658C82.9222 69.9124 82.8725 69.2658 83.1341 68.4724C83.2015 68.277 83.28 68.0856 83.3691 67.8991C83.8991 66.8183 84.6681 65.8741 85.617 65.1392C86.1103 64.7625 87.7921 63.5925 88.6463 64.3892L97.3267 73.0824L97.234 73.1857C97.1535 73.1084 97.0591 73.0473 96.9559 73.0057C96.4725 72.7957 95.8203 73.029 95.476 73.1857C94.9419 73.4368 94.4467 73.7647 94.0061 74.159C93.0558 74.9571 92.3289 75.9912 91.8973 77.159C91.649 77.9123 91.692 78.509 92.0131 78.8256L91.9039 78.929ZM85.6568 65.2325C84.7288 65.9503 83.9768 66.8728 83.4585 67.9291C83.3735 68.1093 83.2983 68.294 83.2334 68.4824C82.9851 69.2358 83.0281 69.8158 83.3526 70.1491L91.6523 78.4823C91.5611 78.0362 91.6002 77.5731 91.7649 77.149C92.2074 75.9544 92.9527 74.8971 93.9267 74.0824C94.3781 73.6774 94.8855 73.3405 95.433 73.0824C95.8759 72.855 96.3784 72.7734 96.8698 72.849L88.537 64.5158C87.7391 63.7725 86.1302 64.8992 85.6568 65.2625V65.2325Z" fill="black"/>
<path d="M95.571 73.0723C94.0283 73.7057 92.3564 75.5256 91.8234 77.1423C91.2904 78.7589 92.1048 79.5656 93.6475 78.9356C95.1903 78.3056 96.8655 76.4823 97.3951 74.8656C97.9248 73.249 97.1071 72.4457 95.571 73.0723Z" fill="black"/>
<path d="M25.6012 59.4619L15.1132 65.9851L12.0508 64.2885L22.423 57.7852L25.6012 59.4619Z" fill="#E8E8E8"/>
<path d="M43.8366 65.5092L30.0942 73.9391L27.0352 72.2425L40.6617 63.8359L43.8366 65.5092Z" fill="#E8E8E8"/>
<path d="M41.9557 60.6259L25.2504 71.1824L22.1914 69.4857L38.7808 58.9492L41.9557 60.6259Z" fill="#E8E8E8"/>
<path d="M41.3232 55.5048L20.1254 68.5979L17.0664 66.9013L38.145 53.8281L41.3232 55.5048Z" fill="#E8E8E8"/>
<path d="M56.5726 63.7626L35.3715 76.8557L32.3125 75.1624L53.3944 62.0859L56.5726 63.7626Z" fill="#E8E8E8"/>
<path d="M63.7044 40.9894C70.5805 38.4561 79.9496 39.8194 84.5612 44.0127C87.2892 46.4993 87.7626 49.4259 86.2695 51.9259C86.4284 50.0859 85.6074 48.166 83.7534 46.4626C79.1186 42.2627 69.7628 40.8961 62.8966 43.4327C60.419 44.3955 58.3249 46.1525 56.9375 48.4326C57.1461 45.7427 59.6092 42.496 63.7044 40.9894Z" fill="#606060"/>
<path d="M74.958 40.0401C71.1905 39.4935 67.1416 39.7868 63.7019 41.0401C59.5007 42.5834 57.319 45.77 57.0078 48.1833C58.4062 45.9897 60.4621 44.3015 62.8775 43.3634C69.7735 40.8201 79.1591 42.1834 83.7973 46.4C85.5486 47.9967 86.4259 49.8133 86.3465 51.6733C87.727 49.1467 87.0715 46.3834 84.5157 44.0567C82.2181 41.9734 78.7287 40.5868 74.958 40.0401Z" fill="#606060"/>
<path d="M87.9132 51.8984L87.0756 54.4517C86.605 55.8365 85.8783 57.1191 84.9337 58.2317C84.1524 59.0383 83.2784 59.725 81.3516 60.7683L81.9045 58.0083C81.9045 58.0083 86.781 54.0717 87.9132 51.8984Z" fill="#606060"/>
<path d="M79.6767 58.1949C77.4917 58.7482 76.7237 58.9016 75.949 59.0282C74.4745 59.2627 72.982 59.3631 71.4896 59.3282C68.9903 59.2805 66.5146 58.8304 64.1566 57.9949C61.9219 57.1749 59.8131 55.9949 58.1743 54.2683C55.741 51.715 55.4861 47.5117 55.4861 47.5117L54.8571 49.4384C53.9533 52.195 54.6055 55.175 57.0388 57.7316C57.9666 58.6872 59.0271 59.5023 60.1872 60.1515C61.2351 60.7427 62.3357 61.2337 63.4746 61.6182C64.6593 62.0219 65.8783 62.3154 67.1163 62.4948C69.6919 62.8682 74.5817 63.2015 78.5081 61.7615L79.6767 58.1949Z" fill="#606060"/>
<path d="M78.5 61.763L84.7008 67.673L85.5086 65.2197L79.3111 59.3164L78.5 61.763Z" fill="#606060"/>
<path d="M82.0828 58.1937C83.4495 57.6447 84.6799 56.8005 85.6872 55.7206C86.6945 54.6407 87.4543 53.3515 87.9128 51.9438L87.9558 51.8138C87.9598 51.7934 87.9653 51.7733 87.9724 51.7538C88.0473 51.5275 88.1092 51.2972 88.1578 51.0638C88.1791 50.9815 88.1957 50.898 88.2074 50.8138C88.2339 50.6504 88.2571 50.4805 88.2737 50.3205C88.2737 50.2671 88.3068 49.8971 88.3101 49.7605C88.3101 49.6971 88.3101 49.6338 88.3101 49.5705C88.3101 49.4471 88.3101 49.3271 88.3101 49.2071C88.3101 49.0871 88.3101 49.0571 88.2935 48.9838C88.277 48.9105 88.2737 48.8005 88.2604 48.7105C88.2439 48.5705 88.171 48.1638 88.1545 48.1005C88.1357 47.9978 88.1103 47.8965 88.0783 47.7972C88.0783 47.7972 87.7307 46.7972 87.7009 46.7072C87.6314 46.5572 87.5586 46.4038 87.4791 46.2505C87.3988 46.0823 87.3093 45.9187 87.211 45.7605C86.9295 45.3138 86.6105 44.8923 86.2575 44.5005C86.1416 44.3572 86.0125 44.2172 85.8801 44.0772C85.8073 43.9972 85.7311 43.9206 85.6583 43.8439C80.7089 38.8806 70.4526 37.394 62.782 40.5306L62.4178 40.6806C62.1861 40.7806 61.9576 40.8873 61.7325 40.9939C61.6199 41.0473 61.5107 41.1039 61.4014 41.1606C61.1829 41.2706 60.9677 41.3873 60.7592 41.4939C60.342 41.7272 59.9481 41.9772 59.5806 42.2306C59.3985 42.3606 59.2131 42.4939 59.041 42.6272C58.8688 42.7606 58.7099 42.8906 58.5378 43.0272C58.2258 43.3023 57.9285 43.5938 57.6472 43.9005C56.6758 44.8865 55.9488 46.0889 55.5251 47.4105C54.7405 50.0105 55.4456 52.8104 57.8425 55.227C62.2158 59.6003 69.7044 61.6903 79.3052 59.327L85.8933 65.5669L87.446 63.2703L82.0828 58.1937ZM77.8916 57.7303C74.9194 58.4058 71.8528 58.5524 68.8304 58.1637C64.7849 57.577 61.3452 56.037 59.1436 53.8304C57.2036 51.8871 56.4951 49.6638 57.1175 47.5805C57.4365 46.5965 57.9834 45.703 58.7132 44.9739C58.9329 44.7457 59.1639 44.5288 59.4051 44.3239C59.5442 44.2039 59.6898 44.0905 59.8322 43.9905C59.9746 43.8905 60.1401 43.7639 60.2824 43.6572C60.6135 43.4372 60.9446 43.2206 61.2756 43.0272C61.4544 42.9239 61.6431 42.8239 61.8351 42.7272L62.1165 42.5872C62.3218 42.4872 62.537 42.3906 62.7323 42.3039L63.0634 42.1639C66.4865 40.7639 70.6049 40.3139 74.6505 40.9039C78.6961 41.4939 82.149 43.0339 84.3373 45.2372L84.4334 45.3372L84.5592 45.4672C84.675 45.5905 84.7843 45.7105 84.8902 45.8405C85.1868 46.186 85.4537 46.5562 85.6881 46.9472C85.7642 47.0672 85.8337 47.1972 85.9132 47.3538C85.9926 47.5105 86.0258 47.5905 86.082 47.7105C86.1383 47.8305 86.3568 48.4938 86.4131 48.6638C86.4306 48.7253 86.4449 48.7876 86.4561 48.8505C86.4727 48.9238 86.5257 49.2238 86.5422 49.3338C86.5588 49.4438 86.5422 49.4738 86.5654 49.5305C86.5886 49.5871 86.5654 49.6538 86.5819 49.7071C86.5985 49.7605 86.5819 49.8905 86.5819 49.9871C86.5819 50.0838 86.5819 50.0805 86.5819 50.1205C86.5819 50.2271 86.5621 50.4838 86.5554 50.5338C86.5554 50.6538 86.529 50.7738 86.5091 50.8938C86.5091 50.9204 86.5091 50.9738 86.4926 51.0004C86.4825 51.0284 86.4758 51.0575 86.4727 51.0871C86.4387 51.2414 86.3967 51.3939 86.3469 51.5438L86.2972 51.7004C85.7609 53.2471 84.4731 54.6737 82.5728 55.827C82.1821 56.0737 79.4707 57.3937 77.8916 57.7303Z" fill="#E8E8E8"/>
<path d="M86.048 63.4735C85.1089 64.1994 84.3487 65.1336 83.8266 66.2034C83.7383 66.3864 83.661 66.5745 83.5948 66.7668C83.3333 67.5701 83.3995 68.1734 83.724 68.5001L92.3713 77.1666C92.0402 76.8333 91.9773 76.2366 92.2422 75.4333C92.6801 74.2535 93.4161 73.2091 94.3775 72.4034C94.8231 71.9988 95.325 71.6619 95.8673 71.4034C96.3606 71.18 96.9498 71.0334 97.3935 71.22C97.5006 71.2643 97.5984 71.3288 97.6815 71.41L89.0044 62.7268C88.2661 62.0402 86.8657 62.8502 86.048 63.4735Z" fill="white"/>
<path d="M92.327 77.2135L83.6797 68.5469C83.3288 68.1936 83.2791 67.547 83.5406 66.757C83.6069 66.5611 83.6854 66.3696 83.7757 66.1836C84.3044 65.1029 85.0723 64.1587 86.0203 63.4237C86.5169 63.0437 88.1954 61.8737 89.0528 62.6704L97.7332 71.3669L97.6372 71.4669C97.5586 71.3889 97.4651 71.3277 97.3624 71.2869C96.8791 71.0802 96.2269 71.3102 95.8826 71.4669C95.3487 71.7185 94.8536 72.0463 94.4127 72.4402C93.4615 73.2382 92.7334 74.2722 92.3005 75.4402C92.0522 76.1935 92.0953 76.7735 92.4197 77.1068L92.327 77.2135ZM86.0766 63.5237C85.1496 64.2416 84.3987 65.1642 83.8816 66.2203C83.7957 66.4001 83.7205 66.5848 83.6565 66.7736C83.4082 67.5303 83.4513 68.1069 83.7757 68.4403L92.0721 76.7735C91.9838 76.327 92.024 75.8644 92.188 75.4402C92.6306 74.2465 93.3746 73.1896 94.3465 72.3735C94.799 71.9685 95.3075 71.6316 95.8561 71.3736C96.2982 71.1474 96.7996 71.067 97.2896 71.1436L88.9601 62.8104C88.1623 62.067 86.5533 63.1937 86.0766 63.557V63.5237Z" fill="#8C8C8C"/>
<path d="M95.9881 71.3593C94.4454 71.9893 92.7702 73.8126 92.2405 75.4293C91.7108 77.0459 92.5185 77.8526 94.0646 77.2192C95.6106 76.5859 97.2793 74.7659 97.8123 73.1493C98.3453 71.5326 97.511 70.7293 95.9881 71.3593Z" fill="#343434"/>
<path d="M30.1149 34.7947C32.4033 30.3096 31.6426 25.3208 28.4159 23.6519C25.1892 21.9829 20.7184 24.2659 18.43 28.751C16.1417 33.2361 16.9023 38.2249 20.129 39.8938C23.3557 41.5627 27.8265 39.2798 30.1149 34.7947Z" fill="#606060"/>
<path d="M31.5642 35.5056C33.8526 31.0206 33.0919 26.0317 29.8652 24.3628C26.6385 22.6939 22.1677 24.9768 19.8793 29.4619C17.591 33.947 18.3516 38.9358 21.5783 40.6048C24.805 42.2737 29.2758 39.9907 31.5642 35.5056Z" fill="white"/>
<path d="M28.2399 35.7397L26.28 33.3064L24.0586 36.2597L23.2773 35.2897L25.4954 32.3364L23.5355 29.9031L24.4228 28.7231L26.3826 31.1564L28.6008 28.2031L29.3821 29.1764L27.1639 32.1297L29.1238 34.563L28.2399 35.7397Z" fill="#E0E0E0"/>
</svg>
