<svg width="1441" height="458" viewBox="0 0 1441 458" fill="none" xmlns="http://www.w3.org/2000/svg">
<g opacity="0.12">
<mask id="mask0_4555_4314" style="mask-type:alpha" maskUnits="userSpaceOnUse" x="0" y="0" width="1441" height="458">
<mask id="path-1-inside-1_4555_4314" fill="white">
<path d="M0 0H1440.24V458H0V0Z"/>
</mask>
<path d="M0 0H1440.24V458H0V0Z" fill="#1F2125"/>
<path d="M0 1H1440.24V-1H0V1Z" fill="#D8F4F6" fill-opacity="0.3053" mask="url(#path-1-inside-1_4555_4314)"/>
</mask>
<g mask="url(#mask0_4555_4314)">
<mask id="mask1_4555_4314" style="mask-type:luminance" maskUnits="userSpaceOnUse" x="-1090" y="-328" width="3132" height="1819">
<path d="M2041.38 -327.143H-1089.57V1490.32H2041.38V-327.143Z" fill="white"/>
</mask>
<g mask="url(#mask1_4555_4314)">
<path d="M1426.2 -547.713C1465.31 -477.504 1527.89 -385.635 1586.22 -304.409C1603.14 -280.866 1619.52 -258.017 1634.75 -235.76C1672.38 -180.771 1703.17 -131.129 1729.45 -84.2133C1766.01 -18.9483 1795.13 41.9294 1827.38 111.146C1831.91 120.971 1836.53 130.989 1841.24 141.206C1869.97 203.353 1902.08 273.776 1925.34 353.609C1960.29 473.591 1969.58 603.866 1989.91 725.233C2010.24 846.603 2043.81 968.46 2126.06 1072.99C2182.8 1145.09 2262.45 1201.6 2336.84 1257.48C2373.88 1285.36 2410.35 1313.8 2443.14 1345.13C2476.14 1376.44 2505.14 1411.31 2526.72 1450.22C2569.8 1528.4 2577.78 1627.3 2519.74 1698.55" stroke="white" stroke-opacity="0.4" stroke-miterlimit="10"/>
<path d="M1357.55 -543.613C1389.68 -470.879 1451.41 -376.789 1512.51 -296.297C1530.24 -272.964 1547.7 -250.541 1564.26 -228.869C1605.1 -175.396 1640.55 -128.069 1671.84 -83.9121C1715.46 -22.3657 1752.56 34.0883 1792 100.113C1797.55 109.48 1803.17 119.073 1808.85 128.891C1843.55 188.62 1880.72 257.654 1906.48 337.517C1945.18 457.535 1951.58 589.468 1967.87 712.125C1984.16 834.785 2012.8 958.947 2094.68 1064.88C2151.82 1138.82 2234.26 1195.48 2311.66 1250.84C2350.17 1278.45 2388.29 1306.54 2422.71 1337.64C2457.41 1368.76 2488.08 1403.51 2511.14 1442.73C2557.13 1521.43 2566.5 1623.2 2506.3 1695.18" stroke="white" stroke-opacity="0.4" stroke-miterlimit="10"/>
<path d="M1288.88 -539.512C1314.05 -464.254 1374.91 -367.94 1438.79 -288.179C1457.33 -265.053 1475.88 -243.055 1493.75 -221.972C1537.8 -170.011 1577.93 -125.011 1614.23 -83.6055C1664.92 -25.7848 1710.12 26.1692 1756.61 89.0824C1763.19 97.9843 1769.8 107.155 1776.46 116.577C1817.12 173.892 1859.36 241.538 1887.61 321.427C1930.05 441.477 1933.58 575.068 1945.83 699.018C1958.08 822.969 1981.78 949.439 2063.3 1056.78C2120.84 1132.55 2206.06 1189.36 2286.48 1244.2C2326.46 1271.54 2366.24 1299.29 2402.28 1330.15C2438.67 1361.08 2471.03 1395.71 2495.56 1435.24C2544.45 1514.45 2555.21 1619.09 2492.87 1691.81" stroke="white" stroke-opacity="0.4" stroke-miterlimit="10"/>
<path d="M1220.22 -535.416C1238.41 -457.632 1298.41 -359.093 1365.07 -280.07C1384.41 -257.152 1404.04 -235.582 1423.24 -215.085C1470.5 -164.636 1515.31 -121.966 1556.61 -83.3083C1614.39 -29.2206 1667.39 18.4041 1721.22 78.0422C1728.79 86.4971 1736.42 95.2318 1744.06 104.254C1790.68 159.152 1837.99 225.413 1868.74 305.327C1914.92 425.41 1915.56 560.662 1923.78 685.903C1931.99 811.144 1950.73 939.933 2031.9 1048.67C2089.84 1126.28 2177.86 1183.23 2261.28 1237.55C2302.75 1264.62 2344.17 1292.02 2381.84 1322.64C2419.92 1353.39 2453.96 1387.89 2479.97 1427.73C2531.76 1507.47 2543.91 1614.98 2479.42 1688.42" stroke="white" stroke-opacity="0.4" stroke-miterlimit="10"/>
<path d="M1151.54 -531.314C1162.76 -451.005 1221.9 -350.245 1291.33 -271.956C1311.49 -249.248 1332.19 -228.1 1352.71 -208.192C1403.18 -159.248 1452.69 -118.925 1498.97 -83.0052C1563.84 -32.6615 1624.79 10.565 1685.81 67.008C1694.4 75.0085 1703.03 83.3143 1711.64 91.9363C1764.23 144.417 1816.6 209.29 1849.84 289.229C1899.77 409.348 1897.53 546.258 1901.7 672.789C1905.87 799.321 1919.65 930.429 2000.48 1040.56C2058.8 1120.01 2149.62 1177.1 2236.06 1230.91C2279 1257.7 2322.07 1284.75 2361.37 1315.14C2401.14 1345.7 2436.87 1380.08 2464.36 1420.23C2519.05 1500.49 2532.59 1610.87 2465.95 1685.04" stroke="white" stroke-opacity="0.4" stroke-miterlimit="10"/>
<path d="M1082.85 -527.215C1087.1 -444.379 1145.39 -341.394 1217.59 -263.843C1238.56 -241.343 1260.3 -220.584 1282.19 -201.301C1335.74 -153.77 1390.06 -115.895 1441.34 -82.7004C1513.31 -36.1117 1582.19 2.7275 1650.4 55.9754C1660 63.5179 1669.63 71.3984 1679.23 79.6206C1737.78 129.684 1795.22 193.172 1830.95 273.136C1884.62 393.289 1879.5 531.856 1879.63 659.681C1879.77 787.507 1888.57 920.941 1969.08 1032.45C2027.77 1113.76 2121.4 1170.98 2210.85 1224.27C2255.27 1250.79 2299.99 1277.5 2340.92 1307.65C2382.38 1338.02 2419.79 1372.29 2448.76 1412.74C2506.34 1493.52 2521.28 1606.77 2452.49 1681.68" stroke="white" stroke-opacity="0.4" stroke-miterlimit="10"/>
<path d="M1014.21 -523.119C1011.48 -437.757 1068.91 -332.551 1143.89 -255.734C1165.67 -233.445 1188.48 -213.104 1211.7 -194.417C1268.47 -148.392 1327.48 -112.878 1383.74 -82.4068C1462.81 -39.5838 1539.63 -5.12114 1615.03 44.9317C1625.64 52.0198 1636.27 59.4678 1646.85 67.2938C1711.37 114.94 1773.88 177.043 1812.1 257.033C1869.52 377.218 1861.51 517.446 1857.61 646.558C1853.71 775.674 1857.53 911.439 1937.71 1024.33C1996.77 1107.48 2093.23 1164.84 2185.69 1217.62C2231.58 1243.86 2277.96 1270.22 2320.51 1300.14C2363.66 1330.32 2402.76 1364.46 2433.2 1405.22C2493.69 1486.53 2510.01 1602.65 2439.08 1678.28" stroke="white" stroke-opacity="0.4" stroke-miterlimit="10"/>
<path d="M946.011 -519.02C936.313 -431.131 992.879 -323.704 1070.64 -247.622C1093.22 -225.54 1117.12 -205.624 1141.66 -187.526C1201.64 -143.009 1265.34 -109.862 1326.59 -82.1057C1412.76 -43.0593 1497.51 -12.9659 1580.1 33.8955C1591.73 40.5293 1603.36 47.5483 1614.92 54.9781C1685.4 100.207 1752.97 160.922 1793.7 240.941C1854.86 361.158 1843.97 503.044 1836.02 633.45C1828.08 763.857 1826.91 901.958 1906.78 1016.23C1966.2 1101.24 2065.48 1158.72 2160.96 1210.97C2208.33 1236.95 2256.35 1262.96 2300.53 1292.64C2345.38 1322.63 2386.16 1356.66 2418.08 1397.73C2481.47 1479.56 2499.18 1598.54 2426.1 1674.91" stroke="white" stroke-opacity="0.4" stroke-miterlimit="10"/>
<path d="M878.249 -514.92C861.58 -424.505 917.286 -314.854 997.818 -239.509C1021.21 -217.634 1046.19 -198.144 1072.05 -180.634C1135.25 -137.622 1203.63 -106.849 1269.87 -81.8046C1363.13 -46.5422 1455.83 -20.807 1545.61 22.8593C1558.25 29.035 1570.89 35.6288 1583.42 42.6587C1659.86 85.4745 1732.51 144.8 1775.72 224.845C1840.63 345.099 1826.85 488.642 1814.87 620.339C1802.89 752.035 1796.72 892.474 1876.29 1008.12C1936.06 1094.98 2038.18 1152.59 2136.66 1204.33C2185.51 1230.02 2235.18 1255.69 2280.99 1285.14C2327.53 1314.94 2369.99 1348.85 2403.39 1390.23C2469.68 1472.57 2488.79 1594.43 2413.56 1671.53" stroke="white" stroke-opacity="0.4" stroke-miterlimit="10"/>
<path d="M810.829 -510.816C787.188 -417.879 842.034 -306.003 925.343 -231.393C949.547 -209.725 975.601 -190.66 1002.79 -173.739C1069.2 -132.232 1142.3 -103.934 1213.49 -81.4996C1313.89 -50.1593 1414.48 -28.6442 1511.46 11.827C1525.12 17.5447 1538.75 23.7095 1552.26 30.3433C1634.67 70.7418 1712.38 128.679 1758.09 208.752C1826.74 329.039 1810.08 474.243 1794.06 607.231C1778.04 740.218 1766.62 883.125 1846.14 1000.01C1906.07 1088.84 2011.22 1146.47 2112.71 1197.69C2163.04 1223.12 2214.36 1248.44 2261.8 1277.66C2310.03 1307.27 2354.17 1341.05 2389.05 1382.74C2458.24 1465.61 2478.73 1590.34 2401.36 1668.16" stroke="white" stroke-opacity="0.4" stroke-miterlimit="10"/>
<path d="M743.685 -506.721C713.068 -411.257 767.059 -297.157 853.143 -223.281C878.153 -201.824 905.292 -183.18 933.796 -166.848C1003.42 -126.846 1081.18 -100.9 1157.4 -81.1987C1264.85 -53.6133 1373.42 -36.4856 1477.59 0.79052C1492.26 6.05388 1506.9 11.7898 1521.39 18.0237C1609.76 56.005 1692.54 112.557 1740.73 192.656C1813.13 312.976 1793.59 459.841 1773.53 594.119C1753.48 728.4 1737.1 873.611 1816.27 991.902C1876.59 1082.56 1984.53 1140.35 2089.04 1191.05C2140.84 1216.2 2193.81 1241.17 2242.88 1270.16C2292.8 1299.58 2338.63 1333.24 2374.98 1375.24C2447.07 1458.63 2468.96 1586.23 2389.43 1664.78" stroke="white" stroke-opacity="0.4" stroke-miterlimit="10"/>
<path d="M676.761 -502.621C639.173 -404.631 692.303 -288.31 781.164 -215.168C806.983 -193.918 835.2 -175.7 865.031 -159.957C937.866 -121.46 1020.29 -97.869 1101.52 -80.894C1216.04 -57.0634 1332.58 -44.323 1443.94 -10.242C1459.62 -5.43299 1475.27 -0.126005 1490.73 5.70804C1585.07 41.2721 1672.91 96.4393 1723.61 176.564C1799.75 296.916 1777.32 445.439 1753.22 581.011C1729.13 716.582 1707.81 864.102 1786.62 983.796C1847.34 1076.29 1958.07 1134.22 2065.59 1184.41C2118.87 1209.28 2173.49 1233.92 2224.18 1262.66C2275.79 1291.89 2323.31 1325.43 2361.14 1367.74C2436.13 1451.65 2459.41 1582.12 2377.74 1661.41" stroke="white" stroke-opacity="0.4" stroke-miterlimit="10"/>
<path d="M610.018 -498.521C565.458 -398.005 617.729 -279.463 709.365 -207.055C801.002 -134.651 924.249 -100.672 1045.83 -80.5965C1167.4 -60.5208 1291.92 -52.1714 1410.47 -21.2819C1529.02 9.6077 1644.75 67.1703 1706.66 160.461C1786.54 280.849 1761.23 431.03 1733.1 567.892C1704.97 704.754 1678.7 854.581 1757.15 975.682C1818.27 1070.01 1931.79 1128.09 2042.32 1177.76C2152.86 1227.43 2269.59 1275.8 2347.48 1360.24C2425.37 1444.68 2450.05 1578.01 2366.22 1658.03" stroke="white" stroke-opacity="0.4" stroke-miterlimit="10"/>
<path d="M2302.58 1700.08C2385.89 1618.59 2366.45 1486.51 2295.31 1400.34C2276.71 1377.81 2255.5 1357.58 2232.43 1339.03C2167.28 1286.61 2087.15 1247.41 2008.8 1207.86C1954.89 1180.59 1899.55 1151.41 1849.52 1117.1C1801.08 1083.91 1757.84 1046.08 1726.31 1000.22C1644.46 880.816 1659.97 735.874 1679.55 600.873C1698.69 465.541 1718.27 314.794 1642.01 192.119C1600.56 125.444 1535.14 75.3834 1462.54 39.3977C1431.66 24.0728 1399.45 11.307 1367.07 0.820235C1310.12 -17.5906 1251.79 -30.0547 1192.57 -41.5629C1138.9 -51.9624 1084.44 -61.7513 1029.58 -73.9173C989.628 -82.852 948.901 -93.2915 908.478 -105.985C832.229 -129.808 757.85 -161.057 697.848 -209.155C605.944 -282.856 556.187 -403.445 603.198 -503.99" stroke="white" stroke-opacity="0.2" stroke-miterlimit="10"/>
<path d="M2238.84 1742.14C2321.63 1659.18 2307.43 1528.35 2243.05 1440.45C2226.21 1417.46 2206.83 1396.62 2185.56 1377.33C2125.52 1322.8 2050.26 1280.38 1975.19 1237.96C1923.52 1208.64 1869.77 1177.69 1820.13 1142.3C1772.1 1108.08 1728.37 1070.07 1695.37 1024.75C1610.14 907.044 1615.35 767.019 1625.91 633.847C1636.52 500.071 1649.9 348.727 1577.28 223.773C1537.8 155.869 1476.87 103.61 1410.47 65.0435C1382.24 48.6064 1352.96 34.6738 1323.56 22.9148C1271.87 2.29393 1219.05 -12.6275 1164.8 -26.8981C1115.63 -39.773 1065.13 -52.3607 1013.23 -67.2457C975.388 -78.0996 936.239 -90.4329 896.496 -104.518C821.646 -130.821 746.319 -162.404 686.238 -211.258C594.067 -286.257 546.827 -408.885 596.288 -509.463" stroke="white" stroke-opacity="0.2" stroke-miterlimit="10"/>
<path d="M2174.99 1784.2C2257.27 1699.76 2248.29 1570.18 2190.66 1480.55C2175.6 1457.11 2158.03 1435.66 2138.57 1415.62C2083.63 1358.99 2013.25 1313.35 1941.46 1268.06C1892.03 1236.7 1839.86 1203.97 1790.62 1167.5C1743 1132.26 1698.78 1094.06 1664.32 1049.29C1575.69 933.273 1570.35 798.119 1572.16 666.822C1573.98 534.555 1581.42 382.666 1512.43 255.426C1474.92 186.293 1418.48 131.838 1358.29 90.6912C1332.7 73.1418 1306.34 58.0387 1279.95 45.0111C1233.51 22.1838 1186.2 4.79803 1136.93 -12.2316C1092.24 -27.5818 1045.72 -43.0267 996.782 -60.5724C961.044 -73.3855 923.51 -87.6417 884.406 -103.05C811.021 -131.97 734.68 -163.753 674.515 -213.363C582.077 -289.656 537.355 -414.33 589.262 -514.938" stroke="white" stroke-opacity="0.2" stroke-miterlimit="10"/>
<path d="M2110.99 1826.26C2192.75 1740.35 2189.01 1612.02 2138.13 1520.67C2124.83 1496.77 2109.09 1474.71 2091.43 1453.93C2041.59 1395.19 1976.09 1346.33 1907.58 1298.16C1860.39 1264.76 1809.81 1230.26 1760.97 1192.71C1713.76 1156.45 1668.93 1118.12 1633.12 1073.83C1540.82 959.686 1525.17 829.207 1518.25 699.808C1511.26 569.031 1512.79 416.615 1447.43 287.088C1411.9 216.727 1359.95 160.073 1305.96 116.348C1283.01 97.6868 1259.59 81.4169 1236.19 67.1171C1194.99 42.0834 1153.2 22.2367 1108.9 2.44096C1068.71 -15.3847 1026.16 -33.6901 980.179 -53.893C946.549 -68.6689 910.601 -84.7898 872.166 -101.576C800.204 -133.003 722.89 -165.096 662.642 -215.458C569.933 -293.049 527.728 -419.766 582.089 -520.402" stroke="white" stroke-opacity="0.2" stroke-miterlimit="10"/>
<path d="M2046.79 1868.31C2128.04 1780.93 2129.53 1653.86 2085.41 1560.77C2073.87 1536.42 2059.95 1513.75 2044.09 1492.23C1999.36 1431.39 1938.73 1379.3 1873.5 1328.26C1828.56 1292.82 1779.55 1256.54 1731.12 1217.91C1684.31 1180.63 1638.98 1142.12 1601.72 1098.37C1505.99 985.949 1479.77 860.268 1464.15 732.784C1448.31 603.479 1443.96 450.554 1382.23 318.741C1348.67 247.151 1301.22 188.302 1253.43 141.997C1233.13 122.223 1212.63 104.782 1192.22 89.2139C1156.28 61.9738 1120 39.6627 1080.68 17.1081C1044.98 -3.19298 1006.39 -24.37 963.373 -47.2155C931.842 -63.9616 897.489 -81.9363 859.722 -100.104C789.179 -134.036 710.897 -166.441 650.57 -217.555C557.593 -296.444 517.905 -425.204 574.713 -525.869" stroke="white" stroke-opacity="0.2" stroke-miterlimit="10"/>
<path d="M1982.36 1910.37C2063.09 1821.52 2069.81 1695.7 2032.45 1600.88C2022.68 1576.08 2010.57 1552.79 1996.53 1530.53C1956.89 1467.58 1901.01 1412.4 1839.19 1358.36C1796.4 1320.96 1749.07 1282.82 1701.03 1243.11C1654.64 1204.81 1608.8 1166.13 1570.09 1122.91C1470.94 1012.22 1434.1 891.329 1409.81 765.767C1385.09 637.924 1374.9 484.497 1316.8 350.401C1285.21 277.587 1242.26 216.538 1200.66 167.652C1183.01 146.762 1165.47 128.126 1148.02 111.318C1117.4 81.8136 1086.64 57.0271 1052.21 31.7826C1021.07 8.94072 986.379 -15.0534 946.333 -40.5342C916.906 -59.2577 884.148 -79.0752 847.044 -98.6275C777.921 -135.057 698.67 -167.778 638.259 -219.649C545.015 -299.835 507.845 -430.637 567.099 -531.332" stroke="white" stroke-opacity="0.2" stroke-miterlimit="10"/>
<path d="M1917.63 1952.43C1997.84 1862.09 2009.8 1737.53 1979.19 1640.98C1971.19 1615.73 1960.9 1591.83 1948.66 1568.83C1914.12 1503.77 1863.1 1445.37 1804.58 1388.46C1764.02 1349.01 1718.28 1309.1 1670.65 1268.31C1624.66 1228.98 1578.32 1190.12 1538.16 1147.44C1435.6 1038.46 1388.08 922.368 1355.18 798.741C1321.54 672.351 1305.54 518.434 1251.07 382.052C1221.46 308.009 1182.99 244.765 1147.6 193.294C1132.59 171.292 1117.99 151.489 1103.53 133.409C1078.17 101.702 1052.93 74.4542 1023.46 46.4435C996.828 21.1299 966.082 -5.76124 928.999 -33.8664C901.677 -54.5746 870.509 -76.2242 834.073 -97.165C766.369 -136.084 686.15 -169.133 625.66 -221.756C532.149 -303.236 497.492 -436.081 559.201 -536.809" stroke="white" stroke-opacity="0.2" stroke-miterlimit="10"/>
<path d="M1852.52 1994.49C1932.22 1902.68 1949.41 1779.37 1925.55 1681.09C1919.32 1655.38 1910.85 1630.87 1900.41 1607.13C1870.98 1539.97 1824.82 1478.34 1769.59 1418.56C1731.26 1377.07 1687.12 1335.39 1639.88 1293.51C1594.31 1253.16 1547.48 1214.12 1505.85 1171.98C1399.89 1064.72 1341.66 953.418 1300.16 831.721C1257.57 706.785 1235.8 552.377 1184.95 413.709C1157.32 338.437 1123.35 272.994 1094.16 218.946C1081.79 195.832 1070.12 174.862 1058.65 155.509C1038.56 121.603 1018.83 91.891 994.32 61.1142C972.194 33.3325 945.406 3.53339 911.283 -27.189C886.068 -49.889 856.483 -73.3561 820.719 -95.6927C754.426 -137.094 673.247 -170.478 612.673 -223.856C518.895 -306.634 486.755 -441.523 550.91 -542.275" stroke="white" stroke-opacity="0.2" stroke-miterlimit="10"/>
<path d="M1786.95 2036.54C1866.13 1943.27 1888.56 1821.21 1871.45 1721.2C1866.99 1695.03 1860.34 1669.91 1851.71 1645.43C1827.38 1576.17 1786.08 1511.31 1734.15 1448.66C1698.05 1405.12 1655.5 1361.67 1608.66 1318.71C1563.49 1277.35 1516.17 1238.12 1473.08 1196.52C1363.73 1090.96 1294.74 984.471 1244.7 864.697C1193.11 741.222 1165.6 586.317 1118.39 445.365C1092.73 368.865 1063.25 301.226 1040.27 244.598C1030.55 220.371 1021.81 198.238 1013.33 177.61C998.494 141.508 984.276 109.335 964.73 75.7848C947.109 45.5387 924.287 12.8171 893.115 -20.5114C870.013 -45.2107 842.005 -70.4916 806.913 -94.2204C742.032 -138.101 659.892 -171.822 599.24 -225.954C505.194 -310.029 475.567 -446.96 542.177 -547.742" stroke="white" stroke-opacity="0.2" stroke-miterlimit="10"/>
<path d="M1720.8 2078.61C1799.47 1983.85 1827.12 1863.05 1816.78 1761.31C1814.07 1734.69 1809.24 1708.96 1802.42 1683.73C1783.19 1612.36 1746.77 1544.27 1698.12 1478.76C1664.26 1433.17 1623.29 1387.95 1576.86 1343.91C1532.1 1301.53 1484.28 1262.11 1439.72 1221.06C1327 1117.2 1247.2 1015.54 1188.63 897.678C1128.02 775.676 1094.81 620.261 1051.23 477.023C1027.55 399.294 1002.57 329.46 985.774 270.251C978.703 244.912 972.887 221.619 967.406 199.712C957.825 161.414 949.121 126.784 934.548 90.4533C921.423 57.7426 902.587 22.0949 874.354 -13.8363C853.373 -40.5384 826.931 -67.6222 792.515 -92.754C729.036 -139.107 645.945 -173.169 585.209 -228.057C490.896 -313.426 463.786 -452.404 532.842 -553.215" stroke="white" stroke-opacity="0.2" stroke-miterlimit="10"/>
<path d="M1653.95 2120.66C1732.1 2024.43 1764.99 1904.88 1761.39 1801.42C1760.46 1774.34 1757.45 1748 1752.43 1722.03C1738.3 1648.56 1706.76 1577.23 1661.38 1508.86C1629.77 1461.22 1590.39 1414.24 1544.35 1369.11C1500 1325.71 1451.7 1286.1 1405.67 1245.6C1289.57 1143.43 1198.93 1046.62 1131.88 930.656C1062.2 810.14 1023.33 654.199 983.381 508.678C961.673 429.72 941.184 357.687 930.594 295.901C926.164 269.45 923.271 244.994 920.792 221.81C916.454 181.317 913.269 144.227 903.667 105.122C895.034 69.9505 880.198 31.3658 854.895 -7.16068C836.043 -35.8693 811.158 -64.7524 777.419 -91.2837C715.339 -140.104 631.3 -174.516 570.48 -230.159C475.904 -316.823 451.307 -457.844 522.814 -558.684" stroke="white" stroke-opacity="0.2" stroke-miterlimit="10"/>
<path d="M1586.22 2162.72C1663.85 2065.01 1701.98 1946.72 1705.14 1841.52C1705.98 1813.99 1704.78 1787.03 1701.57 1760.33C1692.54 1684.75 1665.88 1610.19 1623.78 1538.96C1594.41 1489.27 1556.61 1440.52 1510.98 1394.31C1467.03 1349.88 1418.25 1310.08 1370.75 1270.13C1251.29 1169.65 1149.77 1077.71 1074.26 963.632C995.489 844.624 950.979 688.137 914.664 540.331C894.931 460.148 878.938 385.916 874.546 321.545C872.764 293.981 872.739 268.362 873.311 243.903C874.125 201.211 876.542 161.666 871.925 119.785C867.775 82.1488 856.954 40.6308 834.574 -0.487434C817.855 -31.2025 794.515 -61.8812 761.46 -89.8156C700.774 -141.101 615.792 -175.865 554.893 -232.261C460.046 -320.226 437.966 -463.286 511.923 -564.158" stroke="white" stroke-opacity="0.2" stroke-miterlimit="10"/>
<path d="M1517.39 2204.78C1594.51 2105.6 1637.86 1988.56 1647.78 1881.63C1650.38 1853.65 1651.01 1826.08 1649.6 1798.63C1645.67 1720.95 1624.06 1643.09 1585.07 1569.07C1558.06 1517.28 1521.73 1466.8 1476.49 1419.51C1432.95 1374.07 1383.69 1334.07 1334.72 1294.67C1211.89 1195.87 1099.47 1108.85 1015.52 996.617C927.643 879.144 877.518 722.086 844.831 571.993C827.072 490.582 815.571 414.15 817.383 347.202C818.243 318.527 821.144 291.737 824.714 266.009C830.779 221.111 838.598 179.113 839.066 134.461C839.312 94.361 832.608 49.9131 813.137 6.19595C798.564 -26.5256 776.756 -58.9964 744.386 -88.3375C685.086 -142.083 599.168 -177.204 538.186 -234.352C443.071 -323.611 423.509 -468.717 499.913 -569.619" stroke="white" stroke-opacity="0.2" stroke-miterlimit="10"/>
<path d="M1447.38 2246.83C1523.98 2146.18 1572.56 2030.4 1589.23 1921.74C1593.6 1893.3 1596.05 1865.12 1596.44 1836.93C1597.62 1757.14 1580.88 1676.06 1545.17 1599.17C1520.41 1545.34 1485.65 1493.09 1440.81 1444.72C1397.69 1398.25 1347.95 1358.05 1297.5 1319.21C1171.32 1222.08 1047.97 1139.99 955.591 1029.59C858.59 913.676 802.864 756.025 773.808 603.646C758.024 521.006 751.015 442.379 759.026 372.85C762.533 343.062 768.356 315.102 774.923 288.106C786.236 241.001 799.574 196.538 805.013 149.128C809.756 106.552 807.076 59.1856 790.507 12.8695C778.083 -21.8586 757.803 -56.1213 726.118 -86.8691C668.199 -143.072 581.351 -178.549 520.289 -236.453C424.903 -327.01 407.863 -474.159 486.717 -575.09" stroke="white" stroke-opacity="0.2" stroke-miterlimit="10"/>
<path d="M1376.28 2288.89C1452.37 2186.77 1506.18 2072.23 1529.61 1961.84C1535.74 1932.95 1540.01 1904.16 1542.21 1875.24C1548.49 1793.34 1536.63 1709.04 1504.19 1629.27C1481.67 1573.39 1448.5 1519.37 1404.06 1469.92C1361.34 1422.43 1311.21 1381.94 1259.2 1343.75C1129.88 1248.07 995.388 1171.16 894.593 1062.57C788.457 948.236 727.141 789.965 701.713 635.303C687.904 551.434 685.391 470.611 699.601 398.502C705.754 367.601 714.504 338.475 724.064 310.206C740.629 260.895 759.477 213.972 769.893 163.799C779.127 118.748 780.484 68.4657 766.808 19.5469C756.538 -17.1803 737.773 -53.2424 706.781 -85.3969C650.236 -144.057 562.465 -179.894 501.32 -238.551C405.667 -330.405 391.139 -479.597 472.444 -580.557" stroke="white" stroke-opacity="0.2" stroke-miterlimit="10"/>
<path d="M1304.21 2330.95C1379.78 2227.35 1438.84 2114.07 1469.01 2001.95C1476.92 1972.61 1483 1943.2 1487.01 1913.53C1498.39 1829.53 1491.41 1742.01 1462.25 1659.37C1441.97 1601.45 1410.39 1545.65 1366.34 1495.12C1324.03 1446.61 1273.41 1405.93 1219.93 1368.28C1087.22 1274.29 941.828 1202.34 832.62 1095.55C717.343 982.813 650.441 823.902 628.645 666.957C616.81 581.86 618.789 498.838 639.203 424.151C647.998 392.139 659.675 361.842 672.232 332.304C694.048 280.783 718.407 231.403 733.795 178.467C747.521 130.941 752.919 77.7472 742.132 26.2222C734.025 -12.5079 716.7 -50.322 686.467 -83.9269C631.175 -144.961 542.602 -181.241 481.378 -240.654C385.458 -333.802 373.447 -485.04 457.198 -586.029" stroke="white" stroke-opacity="0.2" stroke-miterlimit="10"/>
<path d="M1231.27 2373.01C1306.33 2267.94 1370.61 2155.91 1407.55 2042.06C1417.22 2012.26 1425.12 1982.24 1430.93 1951.84C1447.41 1865.73 1445.31 1774.98 1419.43 1689.47C1401.39 1629.51 1371.39 1571.93 1327.75 1520.32C1285.84 1470.79 1234.73 1429.92 1179.79 1392.82C1043.69 1300.53 887.4 1233.56 769.78 1128.53C645.36 1017.42 572.873 857.846 554.709 698.615C544.848 612.289 551.323 527.072 577.936 449.801C589.379 416.672 603.977 385.212 619.532 354.402C646.6 300.675 676.469 248.83 696.833 193.132C715.055 143.13 724.59 87.0178 716.592 32.8938C710.722 -7.83909 694.846 -47.4634 665.29 -82.4604C611.396 -145.977 521.875 -182.592 460.567 -242.757C364.38 -337.203 354.883 -490.484 441.089 -591.502" stroke="white" stroke-opacity="0.2" stroke-miterlimit="10"/>
<path d="M1157.58 2415.06C1232.12 2308.52 1301.64 2197.74 1345.32 2082.16C1356.76 2051.91 1366.48 2021.28 1374.1 1990.14C1395.69 1901.92 1398.46 1807.95 1375.86 1719.57C1360.06 1657.56 1331.65 1598.21 1288.4 1545.51C1246.91 1494.96 1195.31 1453.91 1138.9 1417.36C999.399 1326.76 832.073 1264.92 706.18 1161.5C572.467 1052.18 494.548 891.785 480.012 730.268C472.126 642.717 483.093 555.301 515.905 475.449C529.99 441.208 547.52 408.577 566.071 376.499C598.387 320.565 633.775 266.259 659.111 207.799C681.825 155.321 695.359 96.3158 690.291 39.5674C686.551 -3.15381 672.227 -44.5992 643.352 -80.992C590.856 -146.988 500.388 -183.937 438.997 -244.858C342.542 -340.602 335.562 -495.922 424.214 -596.973" stroke="white" stroke-opacity="0.2" stroke-miterlimit="10"/>
<path d="M1083.23 2457.12C1176.63 2320.83 1271.19 2182.15 1316.62 2028.44C1362.04 1874.73 1352.3 1701.13 1248.41 1570.72C1105.87 1391.81 830.834 1337.17 641.933 1194.48C421.881 1028.27 342.238 735.619 453.232 501.101C499.136 404.11 573.044 318.806 620.738 222.473C668.433 126.137 686.405 8.45285 620.763 -79.5159C569.662 -147.994 478.251 -185.278 416.78 -246.951C320.058 -343.993 315.596 -501.356 406.698 -602.436" stroke="white" stroke-opacity="0.2" stroke-miterlimit="10"/>
<path d="M358.264 -610.713C270.623 -507.768 274.634 -352.23 365.298 -252.241C424.423 -187.034 512.019 -143.807 564.828 -72.7446C633.917 20.3057 630.878 138.262 589.274 239.902C548.53 339.448 477.541 429.696 435.803 528.882C338.539 760.023 417.464 1040.98 632.552 1204.15C815.404 1342.69 1079.54 1398.37 1216.55 1572.36C1317.12 1700.79 1324.71 1870.21 1281.67 2021.04C1236.87 2178.06 1145.43 2321 1053.37 2461.27" stroke="white" stroke-opacity="0.2" stroke-width="1.0052" stroke-miterlimit="10"/>
<path d="M309.785 -618.99C225.604 -514.177 229.06 -360.275 313.767 -257.53C370.529 -188.681 454.326 -139.624 508.842 -65.9734C581.38 32.1585 593.178 150.235 557.76 257.335C523.833 359.941 455.858 455.1 418.329 556.667C334.323 784.013 413.002 1053.68 623.122 1213.83C799.925 1348.22 1053.67 1404.64 1184.64 1574.02C1282.26 1700.25 1287.4 1865.73 1246.68 2013.64C1202.54 2174 1114.18 2321.18 1023.45 2465.42" stroke="white" stroke-opacity="0.2" stroke-width="1.0105" stroke-miterlimit="10"/>
<path d="M261.338 -627.266C180.618 -520.588 183.407 -368.143 262.273 -262.814C316.631 -190.217 396.666 -135.435 452.898 -59.1966C528.88 44.0206 555.397 162.09 526.292 274.773C499.028 380.32 434.15 480.335 400.899 584.457C329.631 807.627 408.581 1066.4 613.742 1223.51C784.5 1353.75 1027.57 1411.09 1152.79 1575.67C1247.25 1699.84 1250.21 1861.27 1211.74 2006.25C1168.3 2169.97 1082.98 2321.36 993.58 2469.58" stroke="white" stroke-opacity="0.2" stroke-width="1.0158" stroke-miterlimit="10"/>
<path d="M212.904 -635.543C135.645 -526.997 137.628 -375.861 210.788 -268.103C262.686 -191.665 339.019 -131.249 396.958 -52.4253C476.388 55.8735 517.483 173.845 494.824 292.201C474.067 400.602 412.338 505.393 383.47 612.234C324.391 830.875 404.164 1079.1 604.361 1233.17C769.07 1359.27 1001.45 1417.53 1120.93 1577.31C1212.24 1699.41 1213.1 1856.82 1176.8 1998.85C1134.09 2165.93 1051.78 2321.53 963.715 2473.72" stroke="white" stroke-opacity="0.2" stroke-width="1.021" stroke-miterlimit="10"/>
<path d="M164.488 -643.82C90.689 -533.406 91.7243 -383.444 159.324 -273.393C208.688 -193.028 281.393 -127.065 341.04 -45.6541C423.918 67.7263 479.445 185.534 463.377 309.634C448.978 420.826 390.413 530.31 366.062 640.019C318.606 853.832 399.764 1091.8 594.998 1242.85C753.658 1364.8 975.321 1424 1089.09 1578.97C1177.23 1699.01 1176.07 1852.39 1141.87 1991.45C1099.96 2161.92 1020.6 2321.7 933.867 2477.87" stroke="white" stroke-opacity="0.2" stroke-width="1.0262" stroke-miterlimit="10"/>
<path d="M116.1 -652.1C45.7626 -539.821 45.7041 -390.916 107.889 -278.681C154.632 -194.314 223.793 -122.881 285.151 -38.8812C371.478 79.5808 441.289 197.185 431.959 327.064C423.773 441.016 368.347 555.094 348.68 667.802C312.261 876.537 395.394 1104.51 585.664 1252.52C738.279 1370.32 949.205 1430.49 1057.28 1580.61C1142.23 1698.62 1139.13 1847.97 1106.98 1984.05C1065.9 2157.92 989.444 2321.88 904.04 2482.02" stroke="white" stroke-opacity="0.2" stroke-width="1.0315" stroke-miterlimit="10"/>
<path d="M67.7327 -660.377C0.855554 -546.23 -0.446911 -398.299 56.4696 -283.97C100.495 -195.54 166.212 -118.694 229.277 -32.11C319.048 91.4373 403.003 208.816 400.557 344.497C398.453 461.189 346.091 579.771 331.317 695.583C305.359 899.04 390.676 1117.57 576.35 1262.19C722.628 1376.12 923.084 1436.99 1025.49 1582.26C1107.25 1698.23 1102.27 1843.57 1072.1 1976.65C1031.92 2153.93 958.309 2322.05 874.237 2486.17" stroke="white" stroke-opacity="0.2" stroke-width="1.0367" stroke-miterlimit="10"/>
<path d="M19.4031 -668.654C-44.0133 -552.642 -46.706 -405.613 5.09249 -289.259C46.2916 -196.714 108.669 -114.511 173.446 -25.3388C266.665 103.29 364.626 220.447 369.201 361.929C373.063 481.358 323.648 604.371 314.001 723.368C297.945 921.405 386.334 1130.31 567.082 1271.87C707.29 1381.67 896.98 1443.51 993.747 1583.91C1072.29 1697.87 1065.51 1839.18 1037.27 1969.26C998.038 2149.97 927.22 2322.23 844.484 2490.32" stroke="white" stroke-opacity="0.2" stroke-width="1.042" stroke-miterlimit="10"/>
<path d="M-28.8883 -676.93C-88.8439 -559.049 -93.0728 -412.878 -46.2504 -294.547C-7.98602 -197.847 51.1639 -110.322 117.653 -18.5657C214.316 115.145 326.158 232.095 337.88 379.36C347.607 501.54 300.968 628.915 296.718 751.151C290.022 943.681 382.035 1143.04 557.844 1281.54C691.986 1387.21 870.881 1450.05 962.033 1585.56C1037.34 1697.51 1028.84 1834.8 1002.47 1961.86C964.258 2146 896.166 2322.4 814.761 2494.47" stroke="white" stroke-opacity="0.2" stroke-width="1.0472" stroke-miterlimit="10"/>
<path d="M-77.1378 -685.207C-133.633 -565.462 -139.527 -420.109 -97.5475 -299.833C-62.3389 -198.953 -6.29479 -106.135 61.9015 -11.7907C162.013 127.001 287.618 243.766 306.6 396.796C322.1 521.75 278.029 653.44 279.478 778.935C281.636 965.919 377.785 1155.76 548.652 1291.21C676.737 1392.75 844.794 1456.62 930.365 1587.21C1002.41 1697.17 992.266 1830.43 967.719 1954.47C930.59 2142.06 865.154 2322.58 785.081 2498.63" stroke="white" stroke-opacity="0.2" stroke-width="1.0525" stroke-miterlimit="10"/>
<path d="M-125.325 -693.484C-178.36 -571.871 -186.049 -427.328 -148.787 -305.122C-116.747 -200.044 -63.6999 -101.952 6.20798 -5.01951C109.767 138.858 249.032 255.466 275.378 414.225C296.581 541.978 254.818 677.971 262.295 806.716C272.831 988.172 373.598 1168.48 539.518 1300.88C661.554 1398.27 818.728 1463.19 898.755 1588.86C967.519 1696.84 955.801 1826.06 933.02 1947.06C897.052 2138.12 834.195 2322.75 755.453 2502.77" stroke="white" stroke-opacity="0.2" stroke-width="1.0577" stroke-miterlimit="10"/>
<path d="M-173.45 -701.76C-223.023 -578.278 -232.621 -434.542 -199.959 -310.41C-171.2 -201.126 -121.034 -97.7668 -49.4184 1.75367C57.5892 150.713 210.426 267.208 244.223 431.659C271.062 562.244 231.32 702.552 245.175 834.503C263.66 1010.5 369.491 1181.19 530.447 1310.56C646.442 1403.79 792.687 1469.8 867.208 1590.51C932.657 1696.54 919.444 1821.71 898.388 1939.67C863.663 2134.2 803.307 2322.93 725.897 2506.93" stroke="white" stroke-opacity="0.2" stroke-width="1.063" stroke-miterlimit="10"/>
<path d="M-221.488 -710.037C-267.6 -584.691 -279.218 -441.765 -251.044 -315.699C-225.683 -202.213 -178.285 -93.58 -104.958 8.52489C5.49383 162.566 171.823 278.988 213.155 449.092C245.579 582.537 207.528 727.218 228.146 862.288C254.192 1032.93 365.478 1193.88 521.462 1320.23C631.421 1409.3 766.691 1476.42 835.751 1592.17C897.853 1696.25 883.225 1817.36 863.846 1932.28C830.458 2130.29 772.506 2323.11 696.428 2511.08" stroke="white" stroke-opacity="0.2" stroke-width="1.0682" stroke-miterlimit="10"/>
<path d="M-269.413 -718.314C-312.065 -591.099 -325.795 -449.01 -302.02 -320.989C-280.166 -203.312 -235.423 -89.3969 -160.385 15.2961C-46.4847 174.418 133.27 290.812 182.2 466.521C220.168 602.863 183.461 752 211.23 890.065C244.506 1055.51 361.595 1206.56 512.595 1329.9C616.53 1414.8 740.762 1483.06 804.408 1593.81C863.111 1695.97 847.16 1813 829.418 1924.88C797.461 2126.38 741.818 2323.28 667.076 2515.22" stroke="white" stroke-opacity="0.2" stroke-width="1.0735" stroke-miterlimit="10"/>
<path d="M-317.195 -726.592C-356.386 -597.512 -372.321 -456.281 -352.85 -326.274C-334.603 -204.421 -292.414 -85.2101 -215.669 22.0709C-98.3205 186.275 94.7968 302.68 151.392 483.957C194.87 623.225 159.14 776.95 194.461 917.854C234.679 1078.3 357.876 1219.23 503.874 1339.58C601.794 1420.29 714.93 1489.72 773.211 1595.46C828.471 1695.72 811.284 1808.66 795.137 1917.48C764.716 2122.48 711.281 2323.46 637.871 2519.38" stroke="white" stroke-opacity="0.2" stroke-width="1.0787" stroke-miterlimit="10"/>
<path d="M-364.797 -734.867C-400.528 -603.919 -418.737 -463.582 -403.504 -331.562C-388.964 -205.554 -349.234 -81.0213 -270.777 28.8442C-149.985 198.133 56.4537 314.589 120.755 501.388C169.715 643.618 134.59 802.097 177.864 945.637C224.795 1101.31 354.349 1231.88 495.321 1349.25C587.238 1425.77 689.207 1496.4 742.182 1597.11C793.931 1695.48 775.617 1804.31 761.022 1910.08C732.251 2118.59 680.908 2323.63 608.829 2523.52" stroke="white" stroke-opacity="0.2" stroke-width="1.084" stroke-miterlimit="10"/>
<path d="M-412.167 -743.143C-444.432 -610.33 -464.992 -470.92 -453.921 -336.849C-443.175 -206.716 -405.813 -76.8362 -325.648 35.6137C-201.408 209.984 18.3019 326.531 90.3555 518.818C144.772 664.044 109.884 827.478 161.503 973.416C214.967 1124.57 351.335 1244.28 487.01 1358.92C573.098 1431.1 663.658 1503.1 711.395 1598.76C759.557 1695.27 740.224 1799.96 727.145 1902.68C700.152 2114.7 650.771 2323.8 580.024 2527.67" stroke="white" stroke-opacity="0.2" stroke-width="1.0892" stroke-miterlimit="10"/>
<path d="M-459.24 -751.422C-488.045 -616.741 -511.01 -478.301 -504.046 -342.141C-497.179 -207.907 -462.1 -72.6514 -380.228 42.383C-252.539 221.835 -19.5878 338.516 60.2473 536.249C120.107 684.495 85.0946 853.13 145.43 1001.2C205.302 1148.13 348.27 1256.98 478.985 1368.59C559.025 1436.62 638.326 1509.81 680.894 1600.41C725.383 1695.09 705.157 1795.61 693.56 1895.29C668.483 2110.81 620.93 2323.98 551.515 2531.82" stroke="white" stroke-opacity="0.2" stroke-width="1.0945" stroke-miterlimit="10"/>
<path d="M-505.958 -759.697C-531.306 -623.148 -556.725 -485.722 -553.811 -347.425C-550.897 -209.127 -518.03 -68.4626 -434.442 49.1598C-303.31 233.697 -57.1501 350.546 30.504 553.683C95.7906 704.983 60.3274 879.081 129.726 1028.99C195.935 1172 345.578 1269.69 471.325 1378.26C545.316 1442.15 613.279 1516.54 650.758 1602.06C691.456 1694.93 670.491 1791.25 660.339 1887.89C637.328 2106.94 591.449 2324.15 523.366 2535.98" stroke="white" stroke-opacity="0.4" stroke-width="1.0997" stroke-miterlimit="10"/>
<path d="M518.244 2530.61C580.892 2335.5 625.464 2135.86 648.746 1934.32C650.566 1918.57 652.253 1902.81 653.81 1887.03C663.278 1791.08 682.306 1695.4 642.083 1603.3C604.975 1518.31 538.215 1444.16 464.842 1380.54C349.172 1280.17 211.803 1190.84 137.466 1066.14C131.108 1055.47 125.213 1044.55 119.832 1033.34C48.2544 884.377 79.4387 710.134 11.9813 560.041C-9.19647 512.965 -38.8779 470.604 -73.9905 431.263C-179.996 312.448 -332.962 222.698 -438.346 102.092C-447.547 91.5576 -456.388 80.7837 -464.8 69.7408C-547.662 -39.016 -585.772 -170.098 -594.355 -301.406C-594.789 -308.062 -595.148 -314.717 -595.436 -321.369C-601.356 -459.286 -577.109 -597.489 -549.624 -733.635" stroke="white" stroke-opacity="0.4" stroke-width="1.102" stroke-miterlimit="10"/>
<path d="M513.276 2525.24C575.423 2331.48 620.522 2133.33 642.676 1933.15C644.409 1917.5 645.995 1901.84 647.44 1886.17C656.223 1790.92 673.314 1695.89 633.572 1604.55C596.835 1520.1 531.277 1446.17 458.522 1382.81C343.015 1282.09 204.393 1194.21 128.215 1070.29C121.703 1059.7 115.654 1048.84 110.105 1037.7C36.3527 889.675 63.258 715.29 -6.37436 566.4C-28.2702 519.655 -58.5485 477.635 -94.5294 438.916C-203.09 322.024 -358.502 238.232 -467.555 121.657C-477.073 111.475 -486.241 101.039 -494.987 90.3201C-581.159 -15.2452 -623.765 -144.587 -635.366 -275.415C-635.955 -282.045 -636.464 -288.678 -636.894 -295.312C-645.815 -432.843 -622.75 -571.828 -593.123 -707.57" stroke="white" stroke-opacity="0.4" stroke-width="1.1044" stroke-miterlimit="10"/>
<path d="M508.437 2519.88C570.088 2327.47 615.712 2130.79 636.735 1931.98C638.376 1916.44 639.866 1900.88 641.194 1885.32C649.292 1790.76 664.446 1696.37 625.184 1605.8C588.815 1521.88 524.463 1448.19 452.326 1385.09C336.986 1284.02 197.108 1197.59 119.089 1074.45C112.422 1063.92 106.214 1053.13 100.503 1042.07C24.5757 894.976 47.202 720.446 -24.6054 572.766C-47.2234 526.348 -78.0946 484.674 -114.948 446.58C-226.059 331.615 -383.922 253.78 -496.64 141.232C-506.476 131.403 -515.965 121.305 -525.048 110.913C-614.531 8.54297 -661.629 -119.061 -676.248 -249.406C-676.991 -256.014 -677.647 -262.626 -678.223 -269.241C-690.15 -406.39 -668.262 -546.15 -636.494 -681.492" stroke="#3E4451" stroke-width="1.1067" stroke-miterlimit="10"/>
<path d="M503.695 2514.51C564.844 2323.46 610.995 2128.26 630.887 1930.81C632.44 1915.38 633.83 1899.92 635.045 1884.46C642.454 1790.59 655.675 1696.85 616.889 1607.05C580.892 1523.67 517.742 1450.2 446.223 1387.36C331.05 1285.94 189.915 1200.96 110.051 1078.6C103.229 1068.14 96.8672 1057.42 90.9894 1046.43C12.8867 900.276 31.23 725.6 -42.744 579.127C-66.0842 533.04 -97.5482 491.711 -135.27 454.239C-248.932 341.196 -409.245 269.32 -525.633 160.803C-535.785 151.326 -545.6 141.567 -555.022 131.498C-647.815 32.3155 -699.409 -93.5473 -717.043 -223.416C-717.936 -229.999 -718.746 -236.589 -719.464 -243.19C-734.396 -379.954 -713.69 -520.491 -679.776 -655.43" stroke="#3E4452" stroke-width="1.109" stroke-miterlimit="10"/>
<path d="M499.023 2509.14C559.676 2319.44 606.352 2125.73 625.113 1929.64C626.578 1914.31 627.864 1898.96 628.97 1883.6C635.696 1790.42 646.98 1697.33 608.673 1608.3C573.043 1525.45 511.105 1452.22 440.199 1389.64C325.189 1287.86 182.801 1204.34 101.096 1082.75C94.1203 1072.36 87.5996 1061.71 81.5548 1050.79C1.27299 905.573 15.3414 730.755 -60.8075 585.485C-84.8658 539.729 -116.927 498.742 -155.517 461.894C-271.729 350.775 -434.493 284.859 -554.55 180.373C-565.02 171.25 -575.16 161.828 -584.916 152.083C-681.02 56.0918 -737.11 -68.0298 -757.766 -197.418C-758.814 -203.976 -759.77 -210.548 -760.634 -217.127C-778.568 -353.513 -759.039 -494.828 -722.983 -629.363" stroke="#3E4452" stroke-width="1.1113" stroke-miterlimit="10"/>
<path d="M494.398 2503.78C554.55 2315.43 601.752 2123.19 619.381 1928.46C620.759 1913.24 621.945 1898 622.938 1882.74C628.979 1790.26 638.326 1697.81 600.495 1609.55C565.237 1527.23 504.5 1454.23 434.213 1391.9C319.369 1289.78 175.725 1207.71 92.1749 1086.9C85.0447 1076.58 78.3654 1066 72.1577 1055.14C-10.299 910.864 -0.509616 735.9 -78.8335 591.838C-103.614 546.408 -136.272 505.77 -175.73 469.544C-294.493 360.351 -459.708 300.39 -583.434 199.935C-594.222 191.164 -604.687 182.077 -614.777 172.659C-714.179 79.8663 -774.769 -42.5178 -798.435 -171.423C-799.633 -177.959 -800.739 -184.509 -801.749 -191.07C-822.685 -327.074 -804.338 -469.167 -766.14 -603.299" stroke="#3E4452" stroke-width="1.1136" stroke-miterlimit="10"/>
<path d="M489.831 2498.41C549.481 2311.41 597.214 2120.66 613.712 1927.29C615.002 1912.18 616.087 1897.04 616.964 1881.89C622.32 1790.09 629.73 1698.29 592.38 1610.8C557.493 1529.01 497.954 1456.24 428.289 1394.18C313.608 1291.7 168.712 1211.08 83.3202 1091.05C76.0355 1080.81 69.2016 1070.29 62.827 1059.5C-21.8047 916.164 -16.2984 741.055 -96.7931 598.199C-122.296 553.101 -155.546 512.804 -195.873 477.2C-317.187 369.93 -484.852 315.926 -612.244 219.502C-623.348 211.088 -634.135 202.335 -644.564 193.24C-747.284 103.643 -812.37 -17 -839.054 -145.425C-840.407 -151.936 -841.663 -158.464 -842.815 -165.01C-866.757 -300.629 -849.587 -443.5 -809.247 -577.229" stroke="#3E4452" stroke-width="1.1159" stroke-miterlimit="10"/>
<path d="M485.043 2493.04C544.198 2307.4 592.452 2118.12 607.819 1926.12C609.021 1911.11 610.006 1896.07 610.77 1881.02C615.441 1789.92 620.914 1698.76 584.044 1612.04C549.524 1530.79 491.193 1458.25 422.145 1396.45C307.631 1293.62 161.478 1214.45 74.2416 1095.2C66.8025 1085.02 59.81 1074.58 53.2725 1063.86C-33.5342 921.457 -32.3068 746.203 -114.972 604.554C-141.193 559.786 -175.041 519.831 -216.236 484.852C-340.1 379.505 -510.215 331.462 -641.277 239.066C-652.695 231.004 -663.812 222.589 -674.574 213.818C-780.604 127.412 -850.187 8.51023 -879.889 -119.435C-881.396 -125.924 -882.799 -132.43 -884.101 -138.955C-911.044 -274.188 -895.051 -417.833 -852.57 -551.162" stroke="#3F4552" stroke-width="1.1183" stroke-miterlimit="10"/>
<path d="M480.597 2487.68C539.25 2303.38 588.031 2115.59 602.27 1924.95C603.385 1910.04 604.27 1895.11 604.921 1880.17C608.908 1789.76 612.444 1699.25 576.05 1613.3C541.901 1532.58 484.772 1460.27 416.342 1398.73C301.995 1295.55 154.59 1217.83 65.5081 1099.36C57.9145 1089.25 50.7634 1078.87 44.0632 1068.22C-44.9185 926.76 -47.9701 751.365 -132.811 610.918C-159.753 566.478 -194.194 526.872 -236.261 492.515C-362.681 389.094 -535.242 347.005 -669.973 258.64C-681.708 250.931 -693.151 242.854 -704.247 234.406C-813.588 151.196 -887.666 34.0311 -920.383 -93.4346C-922.044 -99.8975 -923.593 -106.386 -925.042 -112.892C-954.99 -247.748 -940.179 -392.174 -895.556 -525.1" stroke="#3F4552" stroke-width="1.1206" stroke-miterlimit="10"/>
<path d="M475.959 2482.31C534.115 2299.37 583.422 2113.06 596.53 1923.77C597.553 1908.98 598.338 1894.15 598.88 1879.31C602.182 1789.6 603.781 1699.73 567.867 1614.54C534.09 1534.35 478.163 1462.28 410.351 1401C296.167 1297.47 147.51 1221.2 56.5867 1103.51C48.8386 1093.48 41.533 1083.16 34.6658 1072.59C-56.495 932.059 -63.8255 756.518 -150.837 617.279C-178.502 573.169 -213.535 533.905 -256.471 500.173C-385.441 398.675 -560.453 362.544 -698.849 278.21C-710.902 270.853 -722.67 263.114 -734.1 254.994C-846.751 174.978 -925.326 59.5512 -961.06 -67.4311C-962.872 -73.8686 -964.575 -80.3351 -966.166 -86.8235C-999.12 -221.297 -985.486 -366.502 -938.722 -499.023" stroke="#3F4553" stroke-width="1.1229" stroke-miterlimit="10"/>
<path d="M471.28 2476.95C528.935 2295.36 578.768 2110.52 590.745 1922.6C591.68 1907.91 592.364 1893.19 592.79 1878.45C595.408 1789.43 595.069 1700.21 559.631 1615.79C526.222 1536.14 471.501 1464.29 404.311 1403.27C290.294 1299.39 140.38 1224.58 47.612 1107.67C39.7095 1097.7 32.2452 1087.45 25.2152 1076.94C-68.1206 937.355 -79.7302 761.669 -168.916 623.636C-197.3 579.857 -232.93 540.935 -276.734 507.828C-408.255 408.253 -585.717 378.083 -727.783 297.777C-740.152 290.772 -752.246 283.371 -764.014 275.575C-879.972 198.751 -963.043 85.0648 -1001.8 -41.4377C-1003.76 -47.8534 -1005.61 -54.2981 -1007.35 -60.7683C-1043.3 -194.86 -1030.85 -340.839 -981.945 -472.961" stroke="#3F4553" stroke-width="1.1252" stroke-miterlimit="10"/>
<path d="M466.546 2471.59C523.7 2291.35 574.062 2107.99 584.908 1921.43C585.755 1906.85 586.34 1892.23 586.653 1877.6C588.586 1789.26 586.311 1700.69 551.353 1617.04C518.315 1537.92 464.796 1466.3 398.224 1405.55C284.374 1301.32 133.203 1227.95 38.5944 1111.82C30.5375 1101.93 22.9188 1091.75 15.7218 1081.3C-79.789 942.654 -95.6775 766.826 -187.039 629.996C-216.144 586.544 -252.367 547.971 -297.044 515.482C-431.115 417.833 -611.024 393.617 -756.763 317.342C-769.45 310.69 -781.865 303.628 -793.972 296.154C-913.24 222.525 -1000.81 110.581 -1042.57 -15.4457C-1044.69 -21.8358 -1046.69 -28.2588 -1048.57 -34.7144C-1087.54 -168.418 -1076.26 -315.174 -1025.21 -446.893" stroke="#404653" stroke-width="1.1275" stroke-miterlimit="10"/>
<path d="M461.753 2466.21C518.411 2287.33 569.295 2105.45 579.01 1920.26C579.769 1905.78 580.254 1891.26 580.454 1876.74C581.698 1789.1 577.49 1701.17 543.008 1618.29C510.342 1539.71 458.025 1468.32 392.071 1407.82C278.384 1303.24 125.961 1231.32 29.5066 1115.98C21.2952 1106.15 13.5179 1096.04 6.15811 1085.66C-91.5318 947.952 -111.695 771.978 -205.227 636.356C-235.055 593.235 -271.87 555.003 -317.415 523.139C-454.038 427.413 -636.397 409.155 -785.806 336.915C-798.81 330.619 -811.551 323.891 -823.991 316.741C-946.57 246.303 -1038.63 136.1 -1083.41 10.5534C-1085.69 4.18861 -1087.83 -2.21248 -1089.86 -8.64992C-1131.83 -141.979 -1121.73 -289.513 -1068.54 -420.828" stroke="#404653" stroke-width="1.1298" stroke-miterlimit="10"/>
<path d="M456.91 2460.85C513.067 2283.32 564.481 2102.92 573.064 1919.09C573.736 1904.71 574.12 1890.31 574.208 1875.88C574.767 1788.93 568.622 1701.65 534.62 1619.54C502.321 1541.49 451.216 1470.33 385.875 1410.09C272.355 1305.16 118.675 1234.7 20.3801 1120.13C12.0142 1110.37 4.08248 1100.33 -3.44432 1090.02C-103.309 953.248 -127.756 777.129 -223.458 642.714C-254.004 599.923 -291.421 562.033 -337.834 530.794C-477.011 436.992 -661.817 424.695 -814.891 356.482C-828.208 350.539 -841.279 344.149 -854.053 337.322C-979.946 270.08 -1076.51 161.617 -1124.31 36.5507C-1126.73 30.2077 -1129.03 23.8248 -1131.2 17.4092C-1176.17 -115.538 -1167.25 -263.85 -1111.92 -394.762" stroke="#404653" stroke-width="1.1322" stroke-miterlimit="10"/>
<path d="M452.026 2455.48C507.686 2279.31 559.622 2100.39 567.074 1917.91C567.654 1903.64 567.938 1889.34 567.913 1875.02C567.788 1788.77 559.706 1702.12 526.184 1620.79C494.256 1543.27 444.349 1472.34 379.63 1412.37C266.277 1307.08 111.341 1238.07 11.2048 1124.28C2.68439 1114.59 -5.40592 1104.62 -13.0955 1094.38C-115.135 958.547 -143.861 782.286 -241.739 649.074C-273.006 606.61 -311.016 569.069 -358.298 538.452C-500.025 446.576 -687.281 440.233 -844.025 376.051C-857.659 370.461 -871.056 364.408 -884.164 357.905C-1013.36 293.855 -1114.42 187.13 -1165.24 62.5464C-1167.81 56.2289 -1170.26 49.8678 -1172.57 43.4703C-1220.55 -89.0953 -1212.81 -238.182 -1155.33 -368.693" stroke="#404653" stroke-width="1.1345" stroke-miterlimit="10"/>
<path d="M447.122 2450.12C502.281 2275.29 554.743 2097.85 561.067 1916.74C561.56 1902.58 561.744 1888.38 561.606 1874.16C560.796 1788.6 550.777 1702.6 517.731 1622.03C486.175 1545.05 437.474 1474.36 373.369 1414.64C260.179 1309 103.99 1241.44 2.00862 1128.43C-6.66621 1118.81 -14.9151 1108.91 -22.7675 1098.74C-126.982 963.842 -159.987 787.435 -260.04 655.43C-292.03 613.297 -330.632 576.097 -378.782 546.106C-523.06 456.152 -712.767 455.767 -873.18 395.616C-887.132 390.379 -900.849 384.664 -914.296 378.489C-1046.8 317.633 -1152.36 212.645 -1206.19 88.542C-1208.92 82.2463 -1211.52 75.907 -1213.97 69.5277C-1264.95 -62.6489 -1258.4 -212.517 -1198.78 -342.625" stroke="#404654" stroke-width="1.1368" stroke-miterlimit="10"/>
<path d="M442.203 2444.75C496.865 2271.28 549.853 2095.32 555.047 1915.57C555.452 1901.52 555.535 1887.42 555.285 1873.31C553.79 1788.44 541.834 1703.08 509.268 1623.28C478.079 1546.83 430.585 1476.37 367.098 1416.91C254.074 1310.92 96.6293 1244.82 -7.19311 1132.59C-16.0224 1123.04 -24.4259 1113.2 -32.4453 1103.1C-138.839 969.144 -176.123 792.592 -278.346 661.793C-311.054 619.991 -350.254 583.133 -399.276 553.763C-546.105 465.733 -738.262 471.308 -902.345 415.185C-916.614 410.3 -930.657 404.924 -944.442 399.072C-1080.26 341.407 -1190.31 238.161 -1247.16 114.537C-1250.04 108.267 -1252.79 101.95 -1255.4 95.5849C-1309.37 -36.21 -1303.99 -186.856 -1242.23 -316.561" stroke="#414754" stroke-width="1.1391" stroke-miterlimit="10"/>
<path d="M437.131 2439.39C491.293 2267.27 544.807 2092.79 548.869 1914.4C549.186 1900.45 549.169 1886.46 548.806 1872.45C546.627 1788.27 532.734 1703.57 500.644 1624.53C469.827 1548.62 423.535 1478.38 360.665 1419.19C247.809 1312.84 89.1072 1248.19 -16.5603 1136.74C-25.5441 1127.26 -34.1062 1117.49 -42.2884 1107.46C-150.857 974.44 -192.42 797.747 -296.814 668.155C-330.244 626.68 -370.037 590.171 -419.927 561.422C-569.307 475.318 -763.914 486.848 -931.663 434.756C-946.249 430.224 -960.618 425.186 -974.736 419.657C-1113.86 365.188 -1228.41 263.679 -1288.27 140.539C-1291.31 134.294 -1294.21 127.995 -1296.96 121.652C-1353.94 -9.7653 -1349.74 -161.189 -1285.84 -290.49" stroke="#414754" stroke-width="1.1414" stroke-miterlimit="10"/>
<path d="M432.338 2434.02C485.999 2263.25 540.043 2090.25 542.974 1913.23C545.904 1736.2 492.156 1551.78 354.52 1421.46C241.826 1314.77 81.8723 1251.57 -25.6363 1140.89C-194.875 966.678 -219.204 691.577 -440.295 569.08C-592.23 484.899 -789.284 502.386 -960.701 454.325C-1122.45 408.976 -1259.85 301.644 -1329.11 166.534C-1398.38 31.4241 -1398.4 -129.301 -1329.17 -264.426" stroke="#414754" stroke-width="1.1437" stroke-miterlimit="10"/>
<path d="M-1375.53 -243.992C-1434.73 -131.041 -1447.09 -0.194449 -1410.36 119.627C-1402.7 144.624 -1392.88 169.131 -1380.91 192.867C-1335.61 282.748 -1260.02 360.611 -1166.6 415.139C-1117.05 444.058 -1062.75 466.366 -1005.66 481.036C-947.376 496.027 -886.352 503.489 -825.332 509.665C-703.68 521.987 -581.343 528.944 -477.809 580.851C-357.572 641.133 -290.219 745.415 -228.902 857.868C-175.538 955.557 -127.889 1059.16 -48.7096 1140.52C-32.437 1157.24 -14.9662 1172.87 3.42709 1187.68C107.329 1271.34 239.451 1327.9 336.961 1417.81C477.253 1547.14 530.658 1733.76 526.588 1911.83C522.518 2089.9 467.154 2263.88 416.395 2436.09" stroke="#414754" stroke-width="1.1437" stroke-miterlimit="10"/>
<path d="M-1421.85 -223.557C-1482.98 -109.449 -1497.83 22.9201 -1461.89 144.726C-1454.39 170.127 -1444.65 195.059 -1432.68 219.198C-1387.34 310.664 -1310.52 389.96 -1214.92 443.993C-1164.2 472.658 -1108.72 494.115 -1050.58 507.749C-991.259 521.679 -929.329 527.865 -867.624 532.558C-744.636 541.932 -621.214 544.891 -515.287 592.629C-393.243 647.629 -320.45 746.844 -255.815 857.585C-199.424 953.892 -151.475 1058.38 -71.7442 1140.15C-55.3714 1156.95 -37.7795 1172.65 -19.19 1187.46C85.7887 1271.13 220.165 1325 319.441 1414.17C462.384 1542.5 515.451 1731.32 510.241 1910.44C505.032 2089.56 448.349 2264.52 400.491 2438.16" stroke="#414754" stroke-width="1.1437" stroke-miterlimit="10"/>
<path d="M-1468.15 -203.121C-1531.21 -87.8578 -1548.54 46.0382 -1513.4 169.825C-1506.07 195.633 -1496.39 220.983 -1484.42 245.53C-1439.04 338.584 -1361 419.308 -1263.22 472.847C-1211.32 501.254 -1154.67 521.867 -1095.49 534.459C-1035.13 547.326 -972.286 552.234 -909.897 555.447C-785.573 561.873 -661.111 560.856 -552.743 604.402C-428.945 654.149 -350.654 748.269 -282.709 857.298C-223.287 952.22 -175.041 1057.59 -94.7597 1139.78C-78.2825 1156.65 -60.5739 1172.41 -41.7924 1187.23C64.2593 1270.92 200.894 1322.08 301.94 1410.53C447.534 1537.87 500.259 1728.88 493.909 1909.04C487.56 2089.21 429.558 2265.15 384.602 2440.23" stroke="#414754" stroke-width="1.1437" stroke-miterlimit="10"/>
<path d="M-1514.42 -182.686C-1579.4 -66.2663 -1599.22 69.1563 -1564.87 194.928C-1557.7 221.143 -1548.1 246.911 -1536.12 271.865C-1490.7 366.504 -1411.43 448.66 -1311.48 501.708C-1258.4 529.861 -1200.58 549.624 -1140.35 561.176C-1078.96 572.982 -1015.21 576.613 -952.131 578.343C-826.471 581.825 -701.012 576.853 -590.159 616.183C-464.658 660.711 -380.824 749.701 -309.559 857.018C-247.111 950.556 -198.565 1056.81 -117.736 1139.42C-101.159 1156.36 -83.3293 1172.19 -64.3558 1187.01C42.7729 1270.71 181.662 1319.18 284.474 1406.88C432.723 1533.24 485.105 1726.44 477.612 1907.66C470.123 2088.87 410.802 2265.79 368.747 2442.3" stroke="#414754" stroke-width="1.1437" stroke-miterlimit="10"/>
<path d="M-1560.66 -162.256C-1627.56 -44.6807 -1649.86 92.2649 -1616.31 220.021C-1609.31 246.644 -1599.78 272.833 -1587.8 298.19C-1542.34 394.414 -1461.85 478.003 -1359.71 530.556C-1305.46 558.454 -1246.46 577.37 -1185.19 587.879C-1122.76 598.624 -1058.1 600.979 -994.34 601.226C-867.341 601.761 -740.93 592.866 -627.556 627.947C-500.397 667.295 -410.969 751.12 -336.394 856.721C-270.915 948.874 -222.072 1056.01 -140.693 1139.03C-124.011 1156.05 -106.064 1171.95 -86.8986 1186.77C21.3029 1270.48 162.455 1316.26 267.028 1403.22C417.928 1528.59 469.968 1723.99 461.339 1906.25C452.711 2088.5 392.066 2266.41 352.917 2444.36" stroke="#414754" stroke-width="1.1437" stroke-miterlimit="10"/>
<path d="M-1606.87 -141.818C-1675.7 -23.0873 -1700.49 115.385 -1667.72 245.123C-1660.89 272.148 -1651.44 298.76 -1639.45 324.524C-1593.95 422.332 -1512.22 507.353 -1407.91 559.412C-1352.49 587.056 -1292.31 605.121 -1229.99 614.59C-1166.53 624.274 -1100.96 625.35 -1036.52 624.118C-908.181 621.704 -780.847 608.924 -664.914 639.722C-536.136 673.934 -441.08 752.547 -363.186 856.433C-294.681 947.2 -245.538 1055.22 -163.607 1138.66C-146.821 1155.75 -128.757 1171.71 -109.395 1186.55C-0.11682 1270.27 143.289 1313.34 249.633 1399.58C403.183 1523.95 454.886 1721.55 445.117 1904.86C435.348 2088.16 373.385 2267.04 337.137 2446.43" stroke="#414754" stroke-width="1.1437" stroke-miterlimit="10"/>
<path d="M-1653.06 -121.383C-1723.81 -1.49587 -1751.09 138.499 -1719.12 270.225C-1712.46 297.658 -1703.07 324.687 -1691.08 350.859C-1645.54 450.256 -1562.59 536.705 -1456.1 588.27C-1399.5 615.655 -1338.15 632.878 -1274.79 641.304C-1210.28 649.926 -1143.81 649.726 -1078.68 647.01C-949.008 641.649 -820.781 625.023 -702.26 651.499C-571.895 680.622 -471.174 753.975 -389.97 856.149C-318.434 945.535 -268.994 1054.43 -186.512 1138.29C-169.626 1155.46 -151.437 1171.49 -131.888 1186.32C-21.5364 1270.06 124.128 1310.44 232.238 1395.94C388.439 1519.32 439.803 1719.11 428.891 1903.46C417.978 2087.82 354.7 2267.67 321.349 2448.5" stroke="#414754" stroke-width="1.1437" stroke-miterlimit="10"/>
<path d="M-1699.23 -100.951C-1771.91 20.0917 -1801.67 161.614 -1770.5 295.321C-1764 323.16 -1754.69 350.608 -1742.68 377.186C-1697.11 478.168 -1612.93 566.049 -1504.26 617.12C-1446.49 644.251 -1383.96 660.623 -1319.55 668.009C-1254.02 675.57 -1186.63 674.094 -1120.82 669.896C-989.807 661.586 -860.711 641.154 -739.585 663.265C-607.66 687.35 -501.253 755.393 -416.734 855.855C-342.172 943.856 -292.431 1053.64 -209.398 1137.91C-192.408 1155.15 -174.102 1171.25 -154.36 1186.08C-42.9318 1269.84 104.987 1307.52 214.862 1392.28C373.714 1514.67 424.736 1716.66 412.688 1902.06C400.636 2087.46 336.039 2268.3 305.589 2450.56" stroke="#414754" stroke-width="1.1437" stroke-miterlimit="10"/>
<path d="M-1745.38 -80.5156C-1819.98 41.6831 -1852.23 184.732 -1821.85 320.42C-1815.52 348.667 -1806.28 376.536 -1794.27 403.518C-1748.65 506.084 -1663.25 595.398 -1552.4 645.974C-1493.46 672.851 -1429.75 688.375 -1364.3 694.718C-1297.73 701.218 -1229.43 698.462 -1162.93 692.785C-1030.58 681.527 -900.629 657.337 -776.881 675.039C-643.407 694.133 -531.298 756.821 -443.464 855.567C-365.871 942.184 -315.834 1052.85 -232.25 1137.54C-215.159 1154.86 -196.733 1171.01 -176.795 1185.86C-64.2933 1269.62 85.888 1304.6 197.529 1388.64C359.032 1510.03 409.716 1714.22 396.525 1900.67C383.333 2087.11 317.412 2268.93 289.868 2452.63" stroke="#414754" stroke-width="1.1437" stroke-miterlimit="10"/>
<path d="M-1791.51 -60.0801C-1868.03 63.2746 -1902.76 207.846 -1873.18 345.519C-1867.02 374.169 -1857.85 402.46 -1845.83 429.853C-1800.18 534.004 -1713.55 624.75 -1600.52 674.836C-1540.4 701.458 -1475.52 716.132 -1409.02 721.439C-1341.42 726.877 -1272.21 722.845 -1205.03 715.685C-1071.35 701.479 -940.538 673.578 -814.161 686.823C-679.146 700.974 -561.33 758.257 -470.182 855.291C-389.562 940.523 -339.224 1052.07 -255.089 1137.18C-237.894 1154.58 -219.351 1170.79 -199.221 1185.64C-85.6423 1269.42 66.7933 1301.71 180.201 1385C344.358 1505.41 394.696 1711.79 380.369 1899.29C366.037 2086.78 298.797 2269.57 274.154 2454.71" stroke="#414754" stroke-width="1.1437" stroke-miterlimit="10"/>
<path d="M-1837.62 -39.6504C-1916.07 84.8638 -1953.28 230.959 -1924.5 370.616C-1918.5 399.673 -1909.41 428.382 -1897.39 456.182C-1851.69 561.922 -1763.84 654.096 -1648.63 703.687C-1587.33 730.051 -1521.28 743.878 -1453.74 748.146C-1385.1 752.522 -1314.98 747.215 -1247.11 738.571C-1112.09 721.422 -980.435 689.849 -851.431 698.595C-714.876 707.853 -591.349 759.679 -496.887 855.002C-413.24 938.848 -362.602 1051.28 -277.92 1136.8C-260.621 1154.27 -241.96 1170.56 -221.638 1185.41C-106.987 1269.2 47.7072 1298.79 162.884 1381.35C329.693 1500.77 379.692 1709.34 364.221 1897.88C348.75 2086.42 280.191 2270.2 258.449 2456.77" stroke="#414754" stroke-width="1.1437" stroke-miterlimit="10"/>
<path d="M-1883.71 -19.2148C-1964.08 106.455 -2003.78 254.073 -1975.79 395.715C-1969.96 425.18 -1960.94 454.306 -1948.91 482.513C-1903.18 589.838 -1814.1 683.444 -1696.71 732.541C-1634.24 758.651 -1567.01 771.631 -1498.42 774.855C-1428.75 778.171 -1357.72 771.584 -1289.17 761.457C-1152.81 741.36 -1020.3 706.163 -888.668 710.365C-750.568 714.77 -621.339 761.101 -523.562 854.707C-436.884 937.169 -385.95 1050.49 -300.717 1136.42C-283.318 1153.97 -264.536 1170.32 -244.018 1185.18C-128.29 1268.98 28.663 1295.87 145.602 1377.7C315.062 1496.13 364.723 1706.9 348.112 1896.49C331.501 2086.07 261.618 2270.83 242.783 2458.84" stroke="#414754" stroke-width="1.1437" stroke-miterlimit="10"/>
<path d="M-1929.79 1.22266C-2012.08 128.049 -2054.27 277.193 -2027.07 420.82C-2021.41 450.688 -2012.46 480.24 -2000.43 508.85C-1954.65 617.76 -1864.35 712.798 -1744.78 761.401C-1681.14 787.256 -1612.74 799.386 -1543.1 801.57C-1472.39 803.824 -1400.45 795.962 -1331.21 784.355C-1193.52 761.31 -1060.11 719.57 -925.898 722.144C-786.274 724.823 -651.318 762.531 -550.226 854.426C-460.522 935.506 -409.287 1049.7 -323.503 1136.06C-305.999 1153.68 -287.1 1170.1 -266.39 1184.96C-149.589 1268.77 9.62188 1292.97 128.327 1374.06C300.437 1491.5 349.756 1704.46 332.006 1895.1C314.255 2085.73 243.053 2271.46 227.119 2460.91" stroke="#414754" stroke-width="1.1437" stroke-miterlimit="10"/>
<path d="M-1975.85 21.6582C-2060.07 149.64 -2104.74 300.311 -2078.33 445.919C-2072.84 476.194 -2063.97 506.164 -2051.93 535.182C-2006.11 645.68 -1914.58 742.147 -1792.83 790.255C-1728.01 815.856 -1658.44 827.138 -1587.76 828.28C-1516 829.472 -1443.16 820.334 -1373.24 807.241C-1234.21 781.248 -1099.95 738.926 -963.11 733.914C-821.879 728.741 -681.283 763.953 -576.876 854.135C-484.141 933.831 -432.606 1048.91 -346.275 1135.68C-328.671 1153.38 -309.651 1169.86 -288.749 1184.72C-170.871 1268.55 -9.40546 1290.05 111.069 1370.41C285.831 1486.85 334.812 1702.02 315.922 1893.7C297.031 2085.38 224.51 2272.09 211.473 2462.97" stroke="#414754" stroke-width="1.1437" stroke-miterlimit="10"/>
<path d="M-2021.9 42.0898C-2108.05 171.228 -2155.2 323.422 -2129.59 471.014C-2124.26 501.696 -2115.46 532.084 -2103.41 561.509C-2057.56 673.592 -1964.81 771.491 -1840.88 819.109C-1774.89 844.455 -1704.13 854.887 -1632.41 854.989C-1559.62 855.12 -1485.87 844.706 -1415.26 830.13C-1274.89 801.188 -1139.73 755.359 -1000.31 745.687C-857.488 735.778 -711.235 765.381 -603.513 853.847C-507.752 932.158 -455.916 1048.12 -369.034 1135.31C-351.326 1153.08 -332.189 1169.63 -311.091 1184.49C-192.14 1268.34 -28.4115 1287.14 93.825 1366.76C271.237 1482.22 319.875 1699.57 299.846 1892.3C279.816 2085.03 205.976 2272.72 195.84 2465.04" stroke="#414754" stroke-width="1.1437" stroke-miterlimit="10"/>
<path d="M-2067.93 62.5254C-2156.01 192.819 -2205.65 346.54 -2180.83 496.113C-2175.67 527.203 -2166.94 558.009 -2154.89 587.841C-2109 701.508 -2015.02 800.84 -1888.91 847.963C-1821.75 873.051 -1749.81 882.64 -1677.04 881.698C-1603.22 880.768 -1528.56 869.074 -1457.27 853.019C-1315.56 821.13 -1179.47 771.826 -1037.5 757.46C-893.051 742.844 -741.175 766.806 -630.139 853.56C-531.351 930.486 -479.214 1047.34 -391.782 1134.94C-373.969 1152.79 -354.715 1169.4 -333.425 1184.27C-213.397 1268.13 -47.4144 1284.23 76.588 1363.11C256.651 1477.58 304.951 1697.13 283.782 1890.91C262.612 2084.68 187.449 2273.35 180.218 2467.11" stroke="#414754" stroke-width="1.1437" stroke-miterlimit="10"/>
<path d="M-2113.96 82.9609C-2203.96 214.411 -2256.09 369.658 -2232.06 521.216C-2227.06 552.713 -2218.41 583.94 -2206.35 614.176C-2160.42 729.428 -2065.21 830.192 -1936.92 876.82C-1868.59 901.654 -1795.48 910.392 -1721.66 908.415C-1646.8 906.423 -1571.23 893.454 -1499.25 875.915C-1356.21 841.082 -1219.17 788.328 -1074.68 769.238C-928.582 749.936 -771.1 768.234 -656.749 853.277C-554.93 928.822 -502.497 1046.55 -414.517 1134.57C-396.604 1152.49 -377.23 1169.17 -355.747 1184.04C-234.646 1267.91 -66.4056 1281.32 59.3668 1359.47C242.085 1472.95 290.039 1694.7 267.73 1889.52C245.421 2084.34 168.937 2273.99 164.608 2469.18" stroke="#414754" stroke-width="1.1437" stroke-miterlimit="10"/>
<path d="M-2160.9 100.965C-2252.82 233.57 -2307.43 390.341 -2284.2 543.884C-2279.37 575.784 -2270.79 607.433 -2258.73 638.075C-2212.76 754.916 -2116.33 857.108 -1985.86 903.243C-1916.35 927.822 -1842.06 935.713 -1767.21 932.693C-1691.31 929.639 -1614.83 915.394 -1542.17 896.373C-1397.79 858.591 -1259.78 802.417 -1112.78 778.579C-965.009 754.618 -801.953 767.228 -684.288 850.558C-579.443 924.718 -526.709 1043.33 -438.178 1131.77C-420.161 1149.76 -400.67 1166.51 -378.991 1181.39C-256.813 1265.27 -86.3179 1275.98 41.2204 1353.39C226.589 1465.88 274.205 1689.82 250.756 1885.69C227.307 2081.56 149.506 2272.19 148.078 2468.82" stroke="#414754" stroke-width="1.1437" stroke-miterlimit="10"/>
<path d="M-2208.06 118.352C-2301.91 252.113 -2359.01 410.41 -2336.57 565.934C-2314.13 721.458 -2202.44 871.442 -2035.01 929.052C-1892.69 978.025 -1731.01 956.946 -1585.3 916.217C-1439.58 875.487 -1300.56 815.911 -1151.08 787.308C-1001.61 758.705 -833.008 765.607 -712.028 847.222C-582.211 934.798 -531.819 1090.04 -402.44 1178.11C-279.189 1262.01 -106.431 1270.02 22.8729 1346.7C210.893 1458.2 258.17 1684.33 233.578 1881.25C208.985 2078.16 129.864 2269.77 131.342 2467.84" stroke="#414754" stroke-width="1.1437" stroke-miterlimit="10"/>
<path d="M-2208.4 125.621C-2300.46 258.114 -2355.75 414.608 -2333.74 568.3C-2318.38 675.577 -2260.89 780.212 -2172.07 853.91C-2133.64 885.785 -2089.35 911.862 -2040.1 929.855C-1901.46 980.54 -1743.33 964.085 -1599.69 927.895C-1506.89 904.519 -1416.48 873.226 -1324.22 846.651C-1273.71 832.086 -1222.61 818.964 -1170.29 809.579C-1078.97 793.225 -980.827 789.87 -891.265 809.382C-835.73 821.465 -783.673 842.231 -738.337 873.488C-659.679 927.728 -610.189 1006.86 -552.692 1079.05C-517.296 1123.49 -479.036 1165.19 -429.834 1197.49C-392.584 1221.96 -350.98 1239.73 -307.568 1254.78C-207.661 1289.39 -97.4727 1309.66 -10.0273 1363.88C63.6085 1409.54 111.646 1474.13 141.027 1545.3C169.401 1614.4 180.36 1690.15 179.203 1766C178.548 1808.73 173.964 1851.54 166.354 1893.29C160.455 1925.72 153.196 1958.16 145.301 1990.77C125.919 2070.84 103.009 2151.81 86.3769 2233.09C69.6534 2314.8 59.2544 2396.74 63.7797 2478.33" stroke="#414754" stroke-width="1.1437" stroke-miterlimit="10"/>
<path d="M-2210.26 132.895C-2300.53 264.119 -2354 418.814 -2332.43 570.67C-2317.38 676.675 -2261.53 780.092 -2175.1 853.863C-2137.72 885.748 -2094.63 912.072 -2046.7 930.661C-1911.74 983.059 -1757.15 971.223 -1615.6 939.582C-1524.14 919.142 -1434.66 890.735 -1343.31 866.196C-1293.33 852.743 -1242.73 840.505 -1191 831.853C-1100.6 816.794 -1003.84 814.213 -915.833 834.634C-861.308 847.254 -810.495 868.493 -766.152 899.75C-689.189 954.019 -640.138 1032.15 -582.207 1102.44C-546.535 1145.72 -507.845 1185.83 -458.735 1216.87C-421.585 1240.38 -380.281 1257.46 -337.32 1272.05C-238.366 1305.61 -129.221 1326.1 -44.4345 1381.06C28.0908 1428.07 71.6654 1494.79 95.8364 1565.61C119.06 1634.47 124.282 1708.13 118.175 1781.65C114.722 1823.09 107.504 1864.58 97.623 1905.31C89.9751 1936.96 81.1584 1968.76 71.9743 2000.98C49.4356 2080.11 25.2897 2161.62 9.53057 2243.47C-6.31622 2325.73 -13.7262 2408.19 -5.29355 2488.81" stroke="#414754" stroke-width="1.1437" stroke-miterlimit="10"/>
<path d="M-2213.75 140.164C-2302.22 270.116 -2353.87 423.012 -2332.74 573.036C-2317.99 677.772 -2263.79 779.972 -2179.76 853.812C-2143.42 885.712 -2101.53 912.279 -2054.93 931.464C-1923.65 985.577 -1772.6 978.362 -1633.12 951.26C-1543 933.758 -1454.46 908.237 -1364.03 885.737C-1314.59 873.393 -1264.47 862.041 -1213.34 854.128C-1123.86 840.366 -1028.48 838.559 -942.02 859.889C-888.505 873.044 -838.94 894.759 -795.587 926.019C-720.323 980.318 -671.706 1057.44 -613.34 1125.85C-577.397 1167.96 -538.273 1206.47 -489.255 1236.25C-452.209 1258.8 -411.202 1275.2 -368.688 1289.32C-270.685 1321.84 -162.596 1342.57 -80.4567 1398.24C-9.05007 1446.63 30.2622 1515.41 49.0312 1585.93C67.2909 1654.52 66.5897 1726.11 55.527 1797.32C49.2776 1837.45 39.4254 1877.62 27.2774 1917.35C17.8803 1948.21 7.50661 1979.36 -2.9633 2011.2C-28.658 2089.39 -54.0397 2171.44 -68.9263 2253.86C-83.8923 2336.66 -88.3215 2419.64 -75.973 2499.31" stroke="#414754" stroke-width="1.1437" stroke-miterlimit="10"/>
<path d="M-2218.75 147.434C-2305.43 276.117 -2355.27 427.21 -2334.57 575.402C-2320.12 678.866 -2267.57 779.852 -2185.93 853.764C-2150.65 885.675 -2109.95 912.494 -2064.67 932.271C-1937.07 988.096 -1789.56 985.501 -1652.17 962.943C-1563.39 948.377 -1475.77 925.743 -1386.26 905.278C-1337.35 894.046 -1287.74 883.574 -1237.19 876.402C-1148.63 863.938 -1054.63 862.906 -969.731 885.144C-917.227 898.837 -868.91 921.021 -826.546 952.285C-752.977 1006.61 -704.798 1082.73 -645.999 1149.24C-609.784 1190.2 -570.226 1227.1 -521.299 1255.63C-484.354 1277.23 -443.648 1292.94 -401.584 1306.6C-304.537 1338.06 -197.521 1359.08 -118.012 1415.42C-47.7321 1465.22 -12.816 1536.08 0.692995 1606.24C13.8555 1674.61 7.36421 1744.09 -8.65374 1812.99C-17.6959 1851.81 -30.1863 1890.67 -44.6054 1929.38C-55.7516 1959.45 -67.6826 1989.96 -79.4383 2021.42C-108.289 2098.66 -134.911 2181.25 -148.921 2264.24C-163.01 2347.59 -164.45 2431.09 -148.194 2509.79" stroke="#414754" stroke-width="1.1437" stroke-miterlimit="10"/>
</g>
</g>
</g>
</svg>
