<svg width="42" height="42" viewBox="0 0 42 42" fill="none" xmlns="http://www.w3.org/2000/svg">
<mask id="mask0_3360_16106" style="mask-type:luminance" maskUnits="userSpaceOnUse" x="0" y="0" width="42" height="42">
<path d="M42 0H0V42H42V0Z" fill="white"/>
</mask>
<g mask="url(#mask0_3360_16106)">
<mask id="mask1_3360_16106" style="mask-type:alpha" maskUnits="userSpaceOnUse" x="0" y="0" width="42" height="42">
<path d="M21 42C32.598 42 42 32.598 42 21C42 9.40202 32.598 0 21 0C9.40202 0 0 9.40202 0 21C0 32.598 9.40202 42 21 42Z" fill="#E5ECF2"/>
</mask>
<g mask="url(#mask1_3360_16106)">
<path d="M21 42C32.598 42 42 32.598 42 21C42 9.40202 32.598 0 21 0C9.40202 0 0 9.40202 0 21C0 32.598 9.40202 42 21 42Z" fill="#D2DBDB"/>
<path opacity="0.3" fill-rule="evenodd" clip-rule="evenodd" d="M19.1704 -1.18784C19.7129 -3.00509 22.2864 -3.0051 22.8289 -1.18784L26.9196 12.5133C27.0016 12.7883 27.2577 12.9743 27.5446 12.9674L41.8392 12.6239C43.7352 12.5784 44.5304 15.0259 42.9698 16.1035L31.2032 24.2277C30.9671 24.3907 30.8693 24.6917 30.9645 24.9624L35.7085 38.4513C36.3377 40.2404 34.2557 41.7531 32.7486 40.6018L21.386 31.9217C21.1579 31.7475 20.8414 31.7475 20.6134 31.9217L9.25068 40.6018C7.7436 41.7531 5.66159 40.2404 6.29081 38.4513L11.0348 24.9625C11.13 24.6917 11.0323 24.3907 10.7961 24.2277L-0.970444 16.1035C-2.5311 15.0259 -1.73585 12.5784 0.160122 12.6239L14.4547 12.9674C14.7417 12.9743 14.9977 12.7883 15.0798 12.5133L19.1704 -1.18784ZM21.6094 -0.82374C21.4286 -1.42949 20.5707 -1.42949 20.3899 -0.82374L16.2993 12.8774C16.053 13.7024 15.2849 14.2605 14.4242 14.2398L0.129544 13.8962C-0.502443 13.8811 -0.767532 14.6969 -0.247311 15.0561L11.5192 23.1803C12.2278 23.6696 12.5211 24.5725 12.2354 25.3847L7.49147 38.8736C7.28173 39.4699 7.97571 39.9742 8.47807 39.5904L19.8407 30.9103C20.525 30.3876 21.4744 30.3876 22.1586 30.9103L33.5212 39.5904C34.0236 39.9742 34.7176 39.47 34.5078 38.8736L29.7639 25.3847C29.4782 24.5725 29.7716 23.6696 30.4801 23.1803L42.2466 15.0561C42.7669 14.6969 42.5017 13.8811 41.8698 13.8962L27.5751 14.2398C26.7144 14.2605 25.9463 13.7024 25.7 12.8774L21.6094 -0.82374Z" fill="#005357"/>
<path d="M20.695 8.97519C20.7855 8.67233 21.2144 8.67233 21.3048 8.97519L23.7581 17.1926C23.7992 17.3301 23.9273 17.4232 24.0707 17.4197L32.6441 17.2137C32.9601 17.2061 33.0926 17.614 32.8325 17.7936L25.7754 22.6662C25.6573 22.7477 25.6084 22.8982 25.656 23.0336L28.5013 31.1237C28.6062 31.4219 28.2592 31.674 28.008 31.4821L21.1931 26.2761C21.0791 26.189 20.9208 26.189 20.8068 26.2761L13.9919 31.4821C13.7407 31.674 13.3937 31.4219 13.4986 31.1237L16.3438 23.0336C16.3915 22.8982 16.3426 22.7477 16.2245 22.6662L9.16735 17.7936C8.90728 17.614 9.03977 17.2061 9.35576 17.2137L17.9291 17.4197C18.0726 17.4232 18.2006 17.3301 18.2417 17.1926L20.695 8.97519Z" fill="#7A8F8F"/>
</g>
</g>
</svg>
