<svg width="42" height="42" viewBox="0 0 42 42" fill="none" xmlns="http://www.w3.org/2000/svg">
<g clip-path="url(#clip0_3360_16696)">
<mask id="mask0_3360_16696" style="mask-type:luminance" maskUnits="userSpaceOnUse" x="0" y="0" width="42" height="42">
<path d="M42 0H0V42H42V0Z" fill="white"/>
</mask>
<g mask="url(#mask0_3360_16696)">
<mask id="mask1_3360_16696" style="mask-type:alpha" maskUnits="userSpaceOnUse" x="0" y="0" width="42" height="42">
<path d="M21 42C32.598 42 42 32.598 42 21C42 9.40202 32.598 0 21 0C9.40202 0 0 9.40202 0 21C0 32.598 9.40202 42 21 42Z" fill="#E5ECF2"/>
</mask>
<g mask="url(#mask1_3360_16696)">
<path d="M21 42C32.598 42 42 32.598 42 21C42 9.40202 32.598 0 21 0C9.40202 0 0 9.40202 0 21C0 32.598 9.40202 42 21 42Z" fill="#B4DCFF"/>
<path d="M21.1016 41.8691C32.6995 41.8691 42.1016 32.4671 42.1016 20.8691C42.1016 9.27116 32.6995 -0.130859 21.1016 -0.130859C9.50358 -0.130859 0.101562 9.27116 0.101562 20.8691C0.101562 32.4671 9.50358 41.8691 21.1016 41.8691Z" fill="#A9BDCF"/>
<path opacity="0.3" fill-rule="evenodd" clip-rule="evenodd" d="M19.2718 -1.63706C19.8143 -3.45432 22.3879 -3.45431 22.9304 -1.63706L27.0883 12.2896C27.1704 12.5646 27.4264 12.7506 27.7133 12.7438L42.2432 12.3946C44.1392 12.349 44.9345 14.7965 43.3738 15.8741L31.4136 24.1321C31.1774 24.2951 31.0796 24.5961 31.1749 24.8669L35.997 38.5777C36.6262 40.3668 34.5442 41.8795 33.0371 40.7282L21.4874 31.9052C21.2593 31.731 20.9429 31.731 20.7148 31.9052L9.16509 40.7282C7.65802 41.8795 5.57601 40.3668 6.20523 38.5777L11.0273 24.8669C11.1226 24.5961 11.0248 24.2951 10.7886 24.1321L-1.17162 15.8741C-2.73228 14.7965 -1.93701 12.349 -0.0410445 12.3946L14.4889 12.7438C14.7758 12.7506 15.0318 12.5646 15.1139 12.2896L19.2718 -1.63706ZM21.7109 -1.27296C21.53 -1.87871 20.6722 -1.87871 20.4913 -1.27296L16.3334 12.6537C16.0872 13.4788 15.319 14.0368 14.4583 14.0161L-0.0716226 13.6669C-0.703619 13.6517 -0.968698 14.4676 -0.448481 14.8268L11.5117 23.0847C12.2203 23.5739 12.5136 24.4769 12.2279 25.2891L7.40589 38.9999C7.19615 39.5963 7.89013 40.1005 8.39249 39.7168L19.9422 30.8938C20.6264 30.3712 21.5758 30.3712 22.26 30.8938L33.8097 39.7168C34.3121 40.1005 35.0061 39.5963 34.7963 39L29.9743 25.2891C29.6886 24.4769 29.9819 23.5739 30.6905 23.0847L42.6507 14.8268C43.1709 14.4676 42.9058 13.6517 42.2738 13.6669L27.7439 14.0161C26.8832 14.0368 26.115 13.4788 25.8688 12.6537L21.7109 -1.27296Z" fill="#756859"/>
<path d="M20.6657 8.22714C20.7562 7.92429 21.1851 7.92429 21.2755 8.22714L23.7288 16.4446C23.7699 16.5821 23.898 16.6751 24.0414 16.6716L32.6148 16.4656C32.9308 16.458 33.0633 16.866 32.8032 17.0456L25.7461 21.9182C25.628 21.9997 25.5791 22.1501 25.6267 22.2855L28.472 30.3756C28.5769 30.6738 28.2299 30.9259 27.9787 30.734L21.1638 25.5281C21.0498 25.441 20.8915 25.441 20.7775 25.5281L13.9626 30.734C13.7114 30.9259 13.3644 30.6738 13.4693 30.3756L16.3145 22.2855C16.3622 22.1501 16.3133 21.9997 16.1952 21.9182L9.13805 17.0456C8.87798 16.866 9.01048 16.458 9.32646 16.4656L17.8998 16.6716C18.0433 16.6751 18.1713 16.5821 18.2124 16.4446L20.6657 8.22714Z" fill="#01567E"/>
</g>
</g>
</g>
<defs>
<clipPath id="clip0_3360_16696">
<rect width="42" height="42" fill="white"/>
</clipPath>
</defs>
</svg>
