<svg width="263" height="184" viewBox="0 0 263 184" fill="none" xmlns="http://www.w3.org/2000/svg">
<path d="M258.364 183.252H17.7941C15.2341 183.252 13.1582 181.177 13.1582 178.616C13.1582 176.056 15.2335 173.98 17.7941 173.98H258.364C260.924 173.98 262.999 176.056 262.999 178.616C262.999 181.177 260.924 183.252 258.364 183.252Z" fill="#FF7129"/>
<path d="M235.22 127.646H84.0079C76.6289 127.646 70.6465 121.664 70.6465 114.285V13.3614C70.6465 5.98239 76.6283 0 84.0079 0H235.22C242.599 0 248.582 5.98178 248.582 13.3614V114.285C248.582 121.664 242.599 127.646 235.22 127.646Z" fill="#3D4351"/>
<path opacity="0.5" d="M248.581 19.4006H70.6445V13.3614C70.6445 5.98239 76.6263 0 84.0059 0H235.219C242.598 0 248.58 5.98178 248.58 13.3614V19.4006H248.581Z" fill="#D6D6D6"/>
<path d="M218.806 12.628H113.544C111.927 12.628 110.615 11.3166 110.615 9.69878C110.615 8.08095 111.927 6.76953 113.544 6.76953H218.807C220.425 6.76953 221.736 8.08095 221.736 9.69878C221.736 11.3166 220.424 12.628 218.806 12.628Z" fill="#F5F5F5"/>
<path d="M83.4231 9.69788C83.4231 11.0196 82.3516 12.0911 81.0299 12.0911C79.7082 12.0911 78.6367 11.0196 78.6367 9.69788C78.6367 8.37619 79.7082 7.30469 81.0299 7.30469C82.3516 7.30469 83.4231 8.37619 83.4231 9.69788Z" fill="#F5F5F5"/>
<path d="M92.3567 9.69788C92.3567 11.0196 91.2852 12.0911 89.9635 12.0911C88.6418 12.0911 87.5703 11.0196 87.5703 9.69788C87.5703 8.37619 88.6418 7.30469 89.9635 7.30469C91.2852 7.30469 92.3567 8.37619 92.3567 9.69788Z" fill="#F5F5F5"/>
<path d="M101.146 9.69788C101.146 11.0196 100.074 12.0911 98.7526 12.0911C97.4309 12.0911 96.3594 11.0196 96.3594 9.69788C96.3594 8.37619 97.4309 7.30469 98.7526 7.30469C100.074 7.30469 101.146 8.37619 101.146 9.69788Z" fill="#F5F5F5"/>
<path d="M172.313 47.3438L157.269 62.3876L142.225 47.3438L133.146 56.4222L148.191 71.4661L133.146 86.51L142.225 95.5884L157.269 80.5439L172.313 95.5884L181.392 86.51L166.347 71.4661L181.392 56.4216L172.313 47.3438Z" fill="#D6D6D6"/>
<path d="M219.725 173.983H158.105L162.973 104.276C163.264 100.117 166.87 96.7461 171.029 96.7461H217.59C221.749 96.7461 224.884 100.117 224.594 104.276L219.725 173.983Z" fill="#1282D6"/>
<path d="M210.661 173.983H149.041L153.909 104.276C154.199 100.117 157.806 96.7461 161.964 96.7461H208.526C212.684 96.7461 215.82 100.117 215.53 104.276L210.661 173.983Z" fill="#3897E9"/>
<path d="M185.69 96.7473C187.989 98.8897 188.894 100.92 189.275 102.469C190.05 105.631 189.388 109.865 189.386 109.903C190.575 111.314 192.09 113.216 193.717 115.556C193.717 115.556 197.353 120.791 199.918 126.222C203.113 132.99 208.294 143.961 205.876 155.633C204.024 164.576 197.7 173.984 197.7 173.984H162.641L166.936 96.7383L185.69 96.7473Z" fill="#1282D6"/>
<path d="M120.089 53.0214C120.261 52.469 123.082 43.7991 129.707 40.8469C132.877 39.4345 136.451 39.2992 136.451 39.2992C136.82 39.2853 138.345 39.2393 140.4 39.5766C140.4 39.5766 145.142 40.1507 148.599 42.6019C154.683 46.9163 158.209 57.7183 157.56 67.1128C157.329 70.453 156.537 73.8839 158.709 76.4505C159.881 77.8351 161.825 78.295 164.582 79.1398C170.309 80.8948 179.732 83.1122 183.52 90.7801C187.308 98.448 187.77 109.257 185.275 112.213C182.781 115.17 123.252 114.892 121.144 112.582C119.036 110.273 115.156 99.0946 114.694 90.2253C114.283 82.3416 119.806 79.0764 121.144 69.3586C122.076 62.5911 121.074 56.8239 120.089 53.0214Z" fill="#262626"/>
<path d="M154.049 52.1641C155.19 54.3905 156.828 57.9809 158.021 62.627C159.907 69.968 158.418 71.1392 160.146 73.9663C163.984 80.2448 172.315 76.4109 180.286 83.5742C184.756 87.5918 186.304 92.545 186.826 94.291C189.093 101.87 186.978 108.371 186.084 110.718" stroke="#262626" stroke-miterlimit="10" stroke-linecap="round" stroke-linejoin="round"/>
<path d="M122.27 66.8516C121.154 69.3668 119.356 73.3488 117.004 78.215C112.709 87.1025 111.511 88.7173 111.835 91.8864C112.398 97.3763 117.08 103.126 117.08 103.126" stroke="#262626" stroke-miterlimit="10" stroke-linecap="round" stroke-linejoin="round"/>
<path d="M131.375 86.1289C131.375 86.1289 146.652 86.1289 146.719 86.1289C158.852 86.1289 172.142 94.8121 180.121 103.295C186.504 110.081 191.175 118.331 194.719 126.947C199.335 138.169 203.855 153.719 198.209 165.333C197.366 167.067 195.455 170.87 191.402 172.923C186.943 175.181 182.285 173.832 180.841 173.832C171.418 173.832 87.903 173.858 87.903 173.858C85.6712 152.164 89.9711 135.819 93.0768 126.901C95.9619 118.617 99.3366 109.263 108.144 100.38C116.578 91.8738 125.878 87.9534 131.375 86.1289Z" fill="#FEC02D"/>
<path d="M130.676 86.1289L119.959 174.233L113.031 174.18L123.763 88.8775L130.676 86.1289Z" fill="#EAA418"/>
<path d="M139.016 92.6128C143.314 92.6291 146.811 89.1583 146.827 84.8602L146.891 68.1139L131.327 68.0547L131.264 84.8016C131.247 89.0991 134.718 92.5964 139.016 92.6128Z" fill="#F7A99C"/>
<path d="M131.282 80.1139L141.419 74.9062C141.316 75.7838 140.74 79.8951 137.124 82.7343C134.816 84.5473 132.39 84.9613 131.27 85.0785L131.282 80.1139Z" fill="#FF7769"/>
<path d="M147.269 62.9271C147.318 62.6739 147.985 62.292 148.189 62.1608C148.536 61.9396 148.91 61.7632 149.301 61.6369C150.061 61.3927 150.895 61.3359 151.675 61.5148C153.227 61.8708 154.602 63.1743 154.86 64.771C155.01 65.6987 154.796 66.6577 154.399 67.5093C153.801 68.7893 152.787 69.865 151.563 70.5703C150.548 71.1547 149.394 71.4852 148.227 71.5547C147.993 71.5686 145.602 71.513 145.619 71.4218C146.17 68.5904 146.72 65.7591 147.269 62.9271Z" fill="#F7A99C"/>
<path d="M149.403 63.0867C149.218 64.3364 148.12 70.9268 142.18 75.5833C141.086 76.4408 133.811 82.1434 127.155 79.3604C118.602 75.7845 119.535 61.736 119.595 60.9751C119.799 58.403 120.4 50.8276 126.673 46.7857C131.793 43.4872 137.342 44.7001 138.129 44.8851C138.958 45.0803 144.24 46.4129 147.472 51.5915C150.404 56.2908 149.704 61.0422 149.403 63.0867Z" fill="#F7A99C"/>
<path d="M124.449 60.988C124.311 62.0849 123.465 62.8814 122.559 62.7678C121.654 62.6542 121.032 61.6727 121.17 60.5758C121.307 59.479 122.153 58.6818 123.059 58.796C123.964 58.9103 124.586 59.8911 124.449 60.988Z" fill="#262626"/>
<path d="M134.333 62.2262C134.195 63.3231 133.35 64.1196 132.444 64.006C131.539 63.8923 130.916 62.9109 131.054 61.814C131.192 60.7171 132.038 59.9206 132.943 60.0342C133.848 60.1478 134.471 61.1293 134.333 62.2262Z" fill="#262626"/>
<path d="M127.433 62.6289L125.918 64.6752C125.64 65.0511 125.744 65.5854 126.144 65.8289L127.535 66.6756" stroke="#262626" stroke-width="1.3478" stroke-miterlimit="10" stroke-linecap="round" stroke-linejoin="round"/>
<path d="M137.648 67.393C137.493 68.6234 136.37 69.4961 135.14 69.3414C133.91 69.1867 133.037 68.0638 133.192 66.8334C133.346 65.6029 134.469 64.7302 135.7 64.885C136.931 65.0397 137.803 66.1625 137.648 67.393Z" fill="#FF7769"/>
<path d="M148.314 68.5535C148.307 68.3069 148.285 66.6359 149.626 65.4302C150.677 64.4856 151.899 64.424 152.232 64.418" stroke="#262626" stroke-width="1.3478" stroke-miterlimit="10" stroke-linecap="round" stroke-linejoin="round"/>
<path d="M149.496 65.7584C149.57 65.747 150.47 65.6219 151.097 66.3017C151.613 66.8602 151.566 67.5515 151.556 67.6663" stroke="#262626" stroke-width="1.3478" stroke-miterlimit="10" stroke-linecap="round" stroke-linejoin="round"/>
<path d="M120.76 63.841C120.335 63.7878 119.925 63.864 119.561 64.0283C119.604 65.234 119.72 66.6965 119.985 68.2479C120.057 68.2642 120.126 68.2878 120.201 68.2974C121.431 68.4521 122.554 67.5795 122.709 66.349C122.863 65.1186 121.991 63.9957 120.76 63.841Z" fill="#FF7769"/>
<path d="M125.375 70.7771C125.634 70.4622 126.44 69.5666 127.835 69.2179C129.414 68.8232 130.682 69.3974 131.022 69.5642" stroke="#262626" stroke-width="1.3478" stroke-miterlimit="10" stroke-linecap="round" stroke-linejoin="round"/>
<path d="M118.896 57.1063H128.689C128.689 57.1063 129.059 53.919 130.029 52.3483C131 50.7776 132.477 49.8076 132.477 49.8076C132.255 50.3703 132.002 51.1154 131.808 52.0135C131.669 52.6541 131.485 53.5038 131.496 54.6115C131.496 54.6115 131.5 55.0309 131.738 57.1057H140.238C140.042 56.5883 139.624 55.2709 139.984 53.6416C140.298 52.2195 141.044 51.2828 141.419 50.87C141.131 53.4204 141.454 55.4522 141.762 56.7364C142.299 58.9755 143.195 60.6223 143.864 61.8522C144.506 63.0336 145.136 63.977 145.621 64.6503C145.621 64.6503 146.774 63.1932 147.709 62.6269C148.645 62.0606 149.6 61.5506 149.6 61.5506C149.815 60.4368 150.007 58.7446 149.707 56.737C149.089 52.6045 146.797 49.9043 145.839 48.8963C142.588 45.4769 138.698 44.7088 137.282 44.4501C134.259 43.8983 131.836 44.3589 131 44.5426C130.346 44.6864 128.828 45.0641 127.062 45.9864C125.836 46.6258 122.364 48.4883 120.306 52.5689C119.819 53.534 119.182 55.0708 118.896 57.1063Z" fill="#262626"/>
<path d="M129.302 86.8594C129.302 86.8594 119.821 125.703 118.713 138.729C117.604 151.755 117.189 174.234 117.189 174.234L87.9027 173.861C87.3062 169.654 86.7726 163.933 86.9787 157.16C87.4616 141.327 91.6901 129.552 93.3533 125.287C97.2682 115.246 101.995 103.12 114.278 94.2462C119.958 90.1434 125.483 88.0137 129.302 86.8594Z" fill="#FDB6D6"/>
<path d="M109.983 111.379L97.7871 173.982H105.086L109.983 111.379Z" fill="#FF94CA"/>
<path d="M112.107 100.203C111.438 103.969 110.391 110.263 109.455 118.128C108.308 127.761 108.481 130.072 106.595 154.691C106.03 162.071 105.086 173.985 105.086 173.985" stroke="#262626" stroke-miterlimit="10" stroke-linecap="round" stroke-linejoin="round"/>
<path d="M138.701 159.997C139.809 161.145 140.447 162.247 140.815 163.011C141.971 165.411 142.011 167.691 142.039 169.304C142.056 170.265 142.001 171.063 141.947 171.614C141.947 171.614 127.627 166.995 125.503 167.18C123.63 167.342 114.3 169.728 112.107 170.294C111.803 170.372 111.485 170.364 111.184 170.271L108.042 169.304L105.079 169.431C104.015 169.476 103.286 168.388 103.72 167.416C103.827 167.174 103.972 166.911 104.162 166.625C105.455 164.685 106.749 163.3 106.749 163.3L102 164.156C101.54 164.158 100.786 164.094 100.527 163.632C100.141 162.943 101.089 161.781 101.737 161.002C103.24 159.196 104.882 158.224 105.409 157.919C107.264 156.843 108.994 155.84 111.829 154.986C114.064 154.312 120.216 152.359 127.789 154.281C132.752 155.541 136.396 158.03 138.701 159.997Z" fill="#F7A99C"/>
<path d="M137.944 159.371C138.007 159.856 138.339 162.806 136.218 165.33C133.855 168.143 130.421 168.073 130.004 168.057L141.946 171.612C141.946 171.612 142.035 167.341 141.824 166.29C141.613 165.24 140.877 162.814 140.119 161.776C139.362 160.739 137.944 159.371 137.944 159.371Z" fill="#FF7769"/>
<path d="M108.041 169.305C109.415 167.801 111.786 165.577 115.301 163.822C118.614 162.168 121.633 161.585 123.608 161.359" stroke="#262626" stroke-miterlimit="10" stroke-linecap="round" stroke-linejoin="round"/>
<path d="M105.078 169.429C107.245 165.734 109.643 163.812 111.413 162.743C111.413 162.743 112.721 161.953 119.589 159.371" stroke="#262626" stroke-miterlimit="10" stroke-linecap="round" stroke-linejoin="round"/>
<path d="M106.533 163.337C108.276 160.766 110.095 159.571 111.414 158.956C113.762 157.861 117.327 157.293 117.327 157.293" stroke="#262626" stroke-miterlimit="10" stroke-linecap="round" stroke-linejoin="round"/>
<path d="M148.312 86.1289C148.312 86.1289 145.318 108.379 144.902 121.682C144.487 134.986 144.061 157.712 144.061 157.712L138.701 159.999C138.701 159.999 141.259 167.551 141.418 169.907C141.577 172.263 141.418 174.233 141.418 174.233C149.257 174.08 155.627 174.274 160.007 174.48C163.732 174.656 169.28 174.69 180.377 174.758C184.323 174.782 187.657 174.764 191.4 172.924C191.843 172.706 195.603 170.809 198.392 166.997C200.197 164.53 203.03 159.3 201.44 146.349C200.771 140.9 198.45 123.852 185.227 107.686C177.673 98.4509 170.218 93.9733 168.144 92.7809C161.855 89.1657 156.322 87.6929 155.173 87.3956C152.436 86.6891 150.069 86.3277 148.312 86.1289Z" fill="#FDB6D6"/>
<path d="M166.307 128.656C166.449 132.138 166.211 138.386 163.01 145.147C161.297 148.764 159.218 151.511 157.467 153.457C161.286 152.473 165.104 151.489 168.923 150.505L166.307 128.656Z" fill="#FF94CA"/>
<path d="M181.949 147.598C181.949 147.598 148.501 155.82 144.061 157.714C139.622 159.608 138.701 160.001 138.701 160.001" stroke="#262626" stroke-miterlimit="10" stroke-linecap="round" stroke-linejoin="round"/>
<path d="M184.536 112.953C184.536 112.953 200.98 143.901 196.084 156.558C195.335 158.493 193.681 162.68 189.545 165.721C185.665 168.572 181.485 169.023 174.281 169.215C167.982 169.382 159.603 169.346 149.615 168.568" stroke="white" stroke-miterlimit="10" stroke-linecap="round" stroke-linejoin="round"/>
<path d="M179.726 101.691C172.942 104.378 169.781 107.999 168.184 110.46C168.184 110.46 163.282 118.009 169.32 150.758" stroke="#262626" stroke-miterlimit="10" stroke-linecap="round" stroke-linejoin="round"/>
<path d="M140.229 174.76H95.3398V169.383H142.548V172.441C142.548 173.722 141.51 174.76 140.229 174.76Z" fill="#374ACC"/>
<path d="M100.253 174.759H38.3103C36.8943 174.759 35.6064 173.611 35.433 172.195L29.8084 126.189C29.6355 124.773 30.643 123.625 32.0583 123.625H94.0016C95.4176 123.625 96.7055 124.773 96.8789 126.189L102.503 172.195C102.676 173.611 101.669 174.759 100.253 174.759Z" fill="#374ACC"/>
<path d="M96.626 174.759H34.6833C33.2673 174.759 31.9795 173.611 31.806 172.195L26.1814 126.189C26.0086 124.773 27.016 123.625 28.4314 123.625H90.3747C91.7906 123.625 93.0785 124.773 93.2519 126.189L98.876 172.195C99.0494 173.611 98.042 174.759 96.626 174.759Z" fill="#4450E4"/>
<path d="M26.1814 126.188C26.6298 126.066 28.2712 140.409 37.6451 153.321C39.2666 155.554 42.1916 159.523 47.1605 163.391C47.1605 163.391 52.2134 167.324 71.0417 174.758C70.027 174.758 69.0117 174.758 67.997 174.758C65.5005 174.758 63.0039 174.758 60.5068 174.758C57.3467 174.758 54.1866 174.758 51.0265 174.758C48.0217 174.758 45.0169 174.758 42.0115 174.758C40.3991 174.758 38.7873 174.76 37.1749 174.759C35.8907 174.759 34.2928 175.046 33.1464 174.328C32.1976 173.735 31.783 172.561 31.647 171.451C31.5509 170.664 31.5618 169.87 31.4736 169.083C31.3859 168.304 31.2355 167.532 31.1406 166.752C30.9327 165.051 30.7242 163.348 30.5163 161.646C30.1761 158.862 29.8358 156.078 29.495 153.294C29.1281 150.292 28.7607 147.29 28.3938 144.288C28.053 141.5 27.7122 138.712 27.3713 135.925C27.1096 133.785 26.8866 131.639 26.5863 129.504C26.2424 127.054 26.072 126.218 26.1814 126.188Z" fill="#5D6FF4"/>
<path d="M28.4316 123.625H90.3749C91.7909 123.625 93.0788 124.773 93.2522 126.189L98.8762 172.195" stroke="#262626" stroke-miterlimit="10" stroke-linecap="round" stroke-linejoin="round"/>
<path d="M64.3216 147.912C64.3216 149.883 62.7243 151.48 60.7536 151.48C58.7828 151.48 57.1855 149.883 57.1855 147.912C57.1855 145.941 58.7828 144.344 60.7536 144.344C62.7237 144.343 64.3216 145.941 64.3216 147.912Z" fill="#FEC02D"/>
<path d="M196.547 100.941H203.425C206.444 100.941 208.826 103.509 208.6 106.519L206.5 134.476" stroke="white" stroke-miterlimit="10" stroke-linecap="round" stroke-linejoin="round"/>
<path d="M78.8526 133.317H7.32082C3.83014 133.317 1 130.488 1 126.996V79.2544C1 75.7637 3.83014 72.9336 7.32082 72.9336H78.8526C82.3433 72.9336 85.1734 75.7637 85.1734 79.2544V126.996C85.1734 130.488 82.3433 133.317 78.8526 133.317Z" fill="#3D4351"/>
<path opacity="0.5" d="M85.1734 82.1111H1V79.2544C1 75.7637 3.83014 72.9336 7.32082 72.9336H78.8526C82.3433 72.9336 85.1734 75.7637 85.1734 79.2544V82.1111Z" fill="#D6D6D6"/>
<path d="M71.0888 78.9082H21.294C20.5289 78.9082 19.9082 78.2876 19.9082 77.5225C19.9082 76.7574 20.5289 76.1367 21.294 76.1367H71.0888C71.8539 76.1367 72.4745 76.7574 72.4745 77.5225C72.4745 78.2882 71.8545 78.9082 71.0888 78.9082Z" fill="#F5F5F5"/>
<path d="M7.04572 77.5226C7.04572 78.1481 6.53868 78.6551 5.91379 78.6551C5.28829 78.6551 4.78125 78.1481 4.78125 77.5226C4.78125 76.8971 5.28829 76.3906 5.91379 76.3906C6.53868 76.3906 7.04572 76.8977 7.04572 77.5226Z" fill="#F5F5F5"/>
<path d="M11.2703 77.5226C11.2703 78.1481 10.7633 78.6551 10.1378 78.6551C9.5123 78.6551 9.00586 78.1481 9.00586 77.5226C9.00586 76.8971 9.5129 76.3906 10.1378 76.3906C10.7633 76.3906 11.2703 76.8977 11.2703 77.5226Z" fill="#F5F5F5"/>
<path d="M15.4285 77.5226C15.4285 78.1481 14.9215 78.6551 14.2966 78.6551C13.6711 78.6551 13.1641 78.1481 13.1641 77.5226C13.1641 76.8971 13.6711 76.3906 14.2966 76.3906C14.9215 76.3906 15.4285 76.8977 15.4285 77.5226Z" fill="#F5F5F5"/>
<path d="M49.0943 95.3281L41.9776 102.445L34.8609 95.3281L30.5664 99.6226L37.6831 106.739L30.5664 113.855L34.8609 118.151L41.9776 111.034L49.0943 118.151L53.3888 113.855L46.2721 106.739L53.3888 99.6226L49.0943 95.3281Z" fill="#D6D6D6"/>
<path d="M78.8526 133.317H7.32082C3.83014 133.317 1 130.488 1 126.996V79.2544C1 75.7637 3.83014 72.9336 7.32082 72.9336H78.8526C82.3433 72.9336 85.1734 75.7637 85.1734 79.2544V126.996C85.1734 130.488 82.3433 133.317 78.8526 133.317Z" stroke="#262626" stroke-miterlimit="10" stroke-linecap="round" stroke-linejoin="round"/>
<path d="M108.352 40.1445L117.701 44.0232" stroke="#FF7129" stroke-miterlimit="10" stroke-linecap="round" stroke-linejoin="round"/>
<path d="M107.947 29.9102L119.78 41.1479" stroke="#FF7129" stroke-miterlimit="10" stroke-linecap="round" stroke-linejoin="round"/>
<path d="M118.229 29.7422L122.584 38.8792" stroke="#FF7129" stroke-miterlimit="10" stroke-linecap="round" stroke-linejoin="round"/>
<path d="M231.453 79.9517C232.301 77.7289 233.153 76.0035 234.01 74.7767C234.866 73.5499 236 72.5576 237.41 71.8015C238.235 71.3386 239.097 70.9996 240.001 70.7826C240.902 70.5663 241.76 70.2997 242.571 69.9831C243.382 69.667 244.124 69.2482 244.798 68.7285C245.471 68.2081 246.016 67.4025 246.433 66.3093C247.137 64.4636 247.121 62.9787 246.384 61.8559C245.646 60.733 244.58 59.9057 243.187 59.3738C241.189 58.6118 239.602 58.6438 238.426 59.4675C237.247 60.2918 236.205 61.6099 235.299 63.4217L228.009 60.6405C228.713 58.7949 229.653 57.2327 230.831 55.9551C232.009 54.6781 233.355 53.7238 234.869 53.0929C236.382 52.462 238.029 52.1622 239.809 52.1936C241.588 52.2245 243.419 52.5998 245.304 53.3183C249.373 54.8703 252.268 56.925 253.991 59.4808C255.713 62.0372 255.863 65.1798 254.441 68.9104C253.98 70.1166 253.456 71.1241 252.866 71.9351C252.276 72.7455 251.596 73.4248 250.827 73.9729C250.056 74.5205 249.191 74.9786 248.231 75.346C247.27 75.714 246.209 76.064 245.046 76.397C243.972 76.7215 243.077 77.0599 242.361 77.4117C241.643 77.764 241.037 78.1919 240.544 78.6935C240.051 79.1957 239.64 79.7625 239.313 80.3929C238.986 81.0238 238.665 81.7539 238.349 82.5824L231.453 79.9517ZM227.066 90.7737L229.891 83.3699L237.52 86.2804L234.696 93.6842L227.066 90.7737Z" fill="#FDB6D6"/>
<path d="M34.7246 41.675C34.1843 40.2929 33.8543 39.1392 33.7353 38.2134C33.6162 37.2875 33.7238 36.3544 34.058 35.4135C34.2448 34.8544 34.5004 34.3359 34.8267 33.8567C35.1525 33.3786 35.4365 32.8958 35.6789 32.4093C35.9206 31.9234 36.088 31.4188 36.1811 30.8966C36.2735 30.3745 36.1877 29.7737 35.9218 29.0938C35.4728 27.9462 34.8431 27.2675 34.0314 27.0578C33.2198 26.8481 32.381 26.9134 31.5149 27.2524C30.273 27.7383 29.5532 28.4182 29.355 29.2921C29.1568 30.1666 29.2281 31.2121 29.569 32.4292L25.0364 34.2017C24.5874 33.0541 24.3668 31.9385 24.3752 30.8549C24.3837 29.7719 24.6049 28.7669 25.0394 27.8404C25.4739 26.9146 26.1085 26.0854 26.9431 25.3536C27.7771 24.6223 28.7803 24.027 29.9521 23.5689C32.4819 22.5796 34.6805 22.3143 36.5479 22.7718C38.4147 23.2305 39.8023 24.6187 40.7088 26.9375C41.0019 27.6875 41.182 28.3729 41.2503 28.9947C41.3174 29.6166 41.2884 30.2155 41.1627 30.7914C41.0364 31.3674 40.8291 31.9415 40.5396 32.5138C40.2501 33.0867 39.9068 33.6929 39.5098 34.3347C39.1502 34.9348 38.8788 35.4666 38.6951 35.9296C38.512 36.3931 38.4111 36.8445 38.3942 37.2827C38.3766 37.722 38.425 38.156 38.538 38.5832C38.651 39.0117 38.8094 39.4837 39.0106 39.9986L34.7246 41.675ZM37.2363 48.512L35.4359 43.9093L40.1794 42.054L41.9797 46.6566L37.2363 48.512Z" fill="#FDB6D6"/>
<path d="M246.604 173.984H227.324L226.037 153.457H247.89L246.604 173.984Z" fill="#FEC02D"/>
<path d="M245.274 153.455H228.652V135.955C228.652 131.365 232.373 127.645 236.963 127.645C241.553 127.645 245.274 131.365 245.274 135.955V153.455Z" fill="#94E261"/>
<mask id="mask0_814_13899" style="mask-type:luminance" maskUnits="userSpaceOnUse" x="228" y="127" width="18" height="27">
<path d="M245.272 153.463H228.65V135.963C228.65 131.373 232.371 127.652 236.961 127.652C241.551 127.652 245.272 131.373 245.272 135.963V153.463Z" fill="white"/>
</mask>
<g mask="url(#mask0_814_13899)">
<path d="M231.688 130.184C231.688 132.51 230.291 132.51 230.291 134.838C230.291 137.166 231.688 137.166 231.688 139.493C231.688 141.82 230.291 141.82 230.291 144.147C230.291 146.475 231.688 146.475 231.688 148.804C231.688 151.133 230.291 151.133 230.291 153.461" stroke="#262626" stroke-width="0.5" stroke-miterlimit="10" stroke-linecap="round" stroke-linejoin="round"/>
<path d="M235.342 128C235.342 130.545 233.814 130.545 233.814 133.091C233.814 135.637 235.342 135.637 235.342 138.184C235.342 140.729 233.814 140.729 233.814 143.275C233.814 145.822 235.342 145.822 235.342 148.369C235.342 150.917 233.814 150.917 233.814 153.464" stroke="#262626" stroke-width="0.5" stroke-miterlimit="10" stroke-linecap="round" stroke-linejoin="round"/>
<path d="M240.72 128.211C240.72 130.735 239.205 130.735 239.205 133.26C239.205 135.785 240.72 135.785 240.72 138.31C240.72 140.834 239.205 140.834 239.205 143.359C239.205 145.885 240.72 145.885 240.72 148.411C240.72 150.937 239.205 150.937 239.205 153.463" stroke="#262626" stroke-width="0.5" stroke-miterlimit="10" stroke-linecap="round" stroke-linejoin="round"/>
<path d="M244.479 131.254C244.479 133.474 243.146 133.474 243.146 135.694C243.146 137.915 244.479 137.915 244.479 140.135C244.479 142.355 243.146 142.355 243.146 144.575C243.146 146.797 244.479 146.797 244.479 149.019C244.479 151.24 243.146 151.24 243.146 153.462" stroke="#262626" stroke-width="0.5" stroke-miterlimit="10" stroke-linecap="round" stroke-linejoin="round"/>
</g>
<path d="M247.889 153.457L246.603 173.984H227.322C229.897 173.286 234.965 171.538 239.719 167.067C245.193 161.917 247.179 156.045 247.889 153.457Z" fill="#EAA418"/>
<path d="M246.785 156.719C246.002 158.664 244.681 161.342 242.455 164.109C240.231 166.873 237.9 168.735 236.168 169.916" stroke="#262626" stroke-width="0.5" stroke-miterlimit="10" stroke-linecap="round" stroke-linejoin="round"/>
</svg>
