<svg width="44" height="60" viewBox="0 0 44 60" fill="none" xmlns="http://www.w3.org/2000/svg">
<g clip-path="url(#clip0_2095_2633)">
<path d="M20.8869 45.1738C20.1665 45.1738 19.7013 45.2376 19.4258 45.3007V54.6384C19.7018 54.7022 20.1465 54.7022 20.5482 54.7022C23.4696 54.7228 25.3756 53.1144 25.3756 49.7051C25.3963 46.7404 23.6604 45.1738 20.8869 45.1738Z" fill="black"/>
<path d="M8.41428 45.1318C7.75829 45.1318 7.31363 45.195 7.08008 45.2582V49.4724C7.35579 49.5355 7.69478 49.5573 8.15883 49.5573C9.87528 49.5573 10.9334 48.6888 10.9334 47.2279C10.9336 45.9154 10.0226 45.1318 8.41428 45.1318Z" fill="black"/>
<path d="M43.5179 14.3782C43.5144 14.103 43.4272 13.8312 43.2382 13.6164L31.6692 0.402396C31.6669 0.398692 31.6625 0.397494 31.6601 0.394117C31.5911 0.317102 31.5119 0.253594 31.4268 0.197603C31.4016 0.181263 31.3751 0.166557 31.3486 0.151634C31.2751 0.111764 31.1981 0.0786491 31.1166 0.0544661C31.0959 0.0481481 31.0752 0.0392156 31.0534 0.0335511C30.9662 0.0124183 30.8754 0 30.7846 0H2.35294C1.05577 0 0 1.05588 0 2.35305V57.6471C0 58.9448 1.05577 60.0001 2.35294 60.0001H41.1764C42.4736 60.0001 43.5294 58.9448 43.5294 57.6471V14.51C43.5293 14.4658 43.5225 14.4224 43.5179 14.3782ZM12.8171 50.5307C11.7164 51.5681 10.0859 52.0347 8.17994 52.0347C7.75707 52.0347 7.37482 52.0129 7.07951 51.9715V57.0738H3.88235V42.9928C4.87701 42.824 6.27526 42.6964 8.24476 42.6964C10.2346 42.6964 11.6535 43.0778 12.606 43.8396C13.517 44.5598 14.1294 45.7456 14.1294 47.1426C14.1294 48.5408 13.6647 49.7265 12.8171 50.5307ZM26.4326 55.3803C24.931 56.6291 22.6442 57.2219 19.8501 57.2219C18.177 57.2219 16.9919 57.1162 16.1859 57.0106V42.9928C17.3719 42.8033 18.9183 42.6964 20.5482 42.6964C23.257 42.6964 25.0149 43.1836 26.3919 44.2209C27.8745 45.3221 28.8063 47.0794 28.8063 49.5989C28.8051 52.3311 27.8101 54.2153 26.4326 55.3803ZM39.6483 45.4493H34.1634V48.7098H39.2875V51.3362H34.1634V57.0738H30.9248V42.8033H39.6483V45.4493ZM2.35294 39.9511V2.35305H29.6081V14.3917C29.6081 15.041 30.1344 15.5682 30.7846 15.5682H41.1764L41.1776 39.9511H2.35294Z" fill="black"/>
<path d="M33.8352 25.2874C33.7662 25.281 32.1084 25.1297 29.5636 25.1297C28.7663 25.1297 27.9633 25.1453 27.1705 25.1751C22.1451 21.4039 18.029 17.6297 15.8254 15.5146C15.8656 15.2817 15.8933 15.0976 15.9061 14.9562C16.1968 11.8881 15.8737 9.81689 14.9491 8.7999C14.3436 8.1353 13.4544 7.91417 12.5272 8.16743C11.9513 8.31831 10.8854 8.87691 10.5442 10.0141C10.1674 11.2707 10.773 12.7959 12.3642 14.5645C12.3895 14.5913 12.9295 15.1571 13.9106 16.1158C13.2729 19.1564 11.6036 25.7179 10.7937 28.8688C8.89144 29.8853 7.30648 31.1097 6.07946 32.5142L5.99907 32.6062L5.94711 32.7165C5.82075 32.982 5.21672 34.36 5.6702 35.467C5.87729 35.9702 6.2653 36.3379 6.79242 36.5309L6.93371 36.5689C6.93371 36.5689 7.06116 36.5965 7.28523 36.5965C8.26671 36.5965 10.6894 36.0807 11.9888 31.292L12.3036 30.0787C16.8395 27.874 22.5093 27.1628 26.619 26.9647C28.7329 28.5323 30.8365 29.9724 32.8747 31.2477L32.9413 31.2862C33.0401 31.3368 33.9339 31.7781 34.9806 31.779C36.4765 31.779 37.5691 30.8611 37.9758 29.2613L37.9964 29.1519C38.1101 28.2377 37.8804 27.4136 37.3323 26.7694C36.1779 25.4123 34.0283 25.294 33.8352 25.2874ZM7.32184 34.8309C7.31268 34.82 7.30833 34.8098 7.30375 34.7982C7.20615 34.5632 7.32325 33.9933 7.49558 33.5758C8.23545 32.7485 9.12357 31.9892 10.1484 31.3055C9.15037 34.5362 7.69896 34.8155 7.32184 34.8309ZM13.6586 13.3659C12.126 11.6598 12.149 10.8139 12.2314 10.5292C12.3667 10.0533 12.9774 9.87342 12.9826 9.87179C13.2902 9.78813 13.4769 9.80458 13.6432 9.98704C14.0191 10.4 14.342 11.6463 14.2144 13.9323C13.8525 13.5687 13.6586 13.3659 13.6586 13.3659ZM12.8667 27.8945L12.8932 27.7934L12.8897 27.7946C13.6571 24.7889 14.7639 20.3877 15.4003 17.5606L15.4232 17.5825L15.4255 17.5689C17.4843 19.5077 20.6412 22.3436 24.421 25.293L24.3786 25.2947L24.4411 25.3419C20.8803 25.6427 16.6274 26.3446 12.8667 27.8945ZM36.2514 28.8806C35.9803 29.8769 35.4587 30.013 34.9807 30.013C34.4258 30.013 33.8916 29.7821 33.7698 29.7263C32.3819 28.8564 30.962 27.9085 29.5292 26.8943C29.5406 26.8943 29.551 26.8943 29.5636 26.8943C32.0199 26.8943 33.656 27.0434 33.7203 27.048C34.1305 27.0633 35.4288 27.255 35.9882 27.9127C36.2076 28.1706 36.2916 28.4787 36.2514 28.8806Z" fill="black"/>
</g>
<defs>
<clipPath id="clip0_2095_2633">
<rect width="44" height="60" fill="white"/>
</clipPath>
</defs>
</svg>
