<svg width="564" height="397" viewBox="0 0 564 397" fill="none" xmlns="http://www.w3.org/2000/svg">
<g clip-path="url(#clip0_4283_4218)">
<path d="M25.315 58.9268C11.316 58.9268 0 70.2558 0 84.2458V371.622C0 385.593 11.317 396.941 25.315 396.941H538.245C552.226 396.941 563.573 385.593 563.573 371.622V84.2448C563.573 70.2558 552.225 58.9258 538.245 58.9258H333.649V84.5928H229.917V58.9258L25.315 58.9268ZM529.518 99.6988V356.467H34.048V99.6988H529.518Z" fill="#1E48DE"/>
<path d="M100.305 182.531C100.305 216.174 127.594 243.459 161.237 243.459C194.874 243.459 222.163 216.174 222.163 182.531C222.163 148.875 194.874 121.605 161.237 121.605C127.593 121.605 100.305 148.875 100.305 182.531Z" fill="#1E48DE"/>
<path d="M196.491 249.203H125.966C94.3443 249.203 68.6953 274.852 68.6953 306.48V334.268H253.773V306.48C253.774 274.852 228.125 249.203 196.491 249.203ZM181.567 326.793H173.113H144.632H136.171L123.038 257.809C124.333 257.715 125.61 257.621 126.923 257.621H190.809C192.128 257.621 193.412 257.715 194.706 257.809L181.567 326.793Z" fill="#1E48DE"/>
<path d="M144.633 326.792H173.114L166.051 280.422H165.803L172.732 267.676H172.727H145.014L151.938 280.422H151.689L144.633 326.792Z" fill="#1E48DE"/>
<path d="M494.852 153.988H279.344V190.745H494.852V153.988Z" fill="#1E48DE"/>
<path d="M494.852 212.727H279.344V227.33H494.852V212.727Z" fill="#1E48DE"/>
<path d="M494.852 250.16H279.344V264.763H494.852V250.16Z" fill="#1E48DE"/>
<path d="M494.852 287.582H279.344V302.182H494.852V287.582Z" fill="#1E48DE"/>
<path d="M229.918 58.929V84.596H333.65V58.929V0H229.918V58.929Z" fill="#1E48DE"/>
</g>
<defs>
<clipPath id="clip0_4283_4218">
<rect width="564" height="397" fill="white"/>
</clipPath>
</defs>
</svg>
