<svg width="72" height="72" viewBox="0 0 72 72" fill="none" xmlns="http://www.w3.org/2000/svg">
<path d="M36 0C15.9429 0 0 15.9429 0 36C0 56.0571 15.9429 72 36 72C56.0571 72 72 56.0571 72 36C72 15.9429 56.0571 0 36 0ZM36 66.8571C19.0286 66.8571 5.14286 52.9714 5.14286 36C5.14286 19.0286 19.0286 5.14286 36 5.14286C52.9714 5.14286 66.8571 19.0286 66.8571 36C66.8571 52.9714 52.9714 66.8571 36 66.8571Z" fill="#FF0000"/>
<path d="M49.8857 54L36 40.1143L22.1143 54L18 49.8857L31.8857 36L18 22.1143L22.1143 18L36 31.8857L49.8857 18L54 22.1143L40.1143 36L54 49.8857L49.8857 54Z" fill="#FF0000"/>
</svg>
