<svg width="142" height="143" viewBox="0 0 142 143" fill="none" xmlns="http://www.w3.org/2000/svg">
<g clip-path="url(#clip0_330_2659)">
<path d="M5.2832 0.5H136.343C138.984 0.500093 141.125 2.64152 141.125 5.2832V137.238C141.125 139.88 138.984 142.02 136.343 142.021H5.2832C2.64163 142.02 0.5 139.88 0.5 137.238V5.2832C0.500116 2.64161 2.64181 0.500117 5.2832 0.5Z" fill="url(#paint0_linear_330_2659)" fill-opacity="0.12"/>
<path d="M5.2832 0.5H136.343C138.984 0.500093 141.125 2.64152 141.125 5.2832V137.238C141.125 139.88 138.984 142.02 136.343 142.021H5.2832C2.64163 142.02 0.5 139.88 0.5 137.238V5.2832C0.500116 2.64161 2.64181 0.500117 5.2832 0.5Z" stroke="url(#paint1_radial_330_2659)"/>
<path d="M5.2832 0.5H136.343C138.984 0.500093 141.125 2.64152 141.125 5.2832V137.238C141.125 139.88 138.984 142.02 136.343 142.021H5.2832C2.64163 142.02 0.5 139.88 0.5 137.238V5.2832C0.500116 2.64161 2.64181 0.500117 5.2832 0.5Z" stroke="url(#paint2_radial_330_2659)"/>
<path d="M5.2832 0.5H136.343C138.984 0.500093 141.125 2.64152 141.125 5.2832V137.238C141.125 139.88 138.984 142.02 136.343 142.021H5.2832C2.64163 142.02 0.5 139.88 0.5 137.238V5.2832C0.500116 2.64161 2.64181 0.500117 5.2832 0.5Z" stroke="url(#paint3_radial_330_2659)"/>
<path d="M71 111C93.0914 111 111 93.0914 111 71C111 48.9086 93.0914 31 71 31C48.9086 31 31 48.9086 31 71C31 93.0914 48.9086 111 71 111Z" stroke="#CB5C71" stroke-width="3" stroke-linecap="round" stroke-linejoin="round"/>
<path d="M83 59L59 83" stroke="#CB5C71" stroke-width="3" stroke-linecap="round" stroke-linejoin="round"/>
<path d="M59 59L83 83" stroke="#CB5C71" stroke-width="3" stroke-linecap="round" stroke-linejoin="round"/>
</g>
<defs>
<linearGradient id="paint0_linear_330_2659" x1="9.10686e-07" y1="-3.16639e-06" x2="168.481" y2="47.5855" gradientUnits="userSpaceOnUse">
<stop offset="0.0303834" stop-color="white" stop-opacity="0.4"/>
<stop offset="0.960276" stop-color="white" stop-opacity="0.11"/>
</linearGradient>
<radialGradient id="paint1_radial_330_2659" cx="0" cy="0" r="1" gradientUnits="userSpaceOnUse" gradientTransform="translate(160.475 -11.2163) rotate(135.712) scale(220.169 76.3404)">
<stop stop-color="white"/>
<stop offset="1" stop-color="white" stop-opacity="0"/>
</radialGradient>
<radialGradient id="paint2_radial_330_2659" cx="0" cy="0" r="1" gradientUnits="userSpaceOnUse" gradientTransform="scale(34.284 55.8881)">
<stop stop-color="white" stop-opacity="0.81"/>
<stop offset="1" stop-color="white" stop-opacity="0.19"/>
</radialGradient>
<radialGradient id="paint3_radial_330_2659" cx="0" cy="0" r="1" gradientUnits="userSpaceOnUse" gradientTransform="translate(141.667) rotate(90) scale(57.1509 30.0168)">
<stop stop-opacity="0.5"/>
<stop offset="1" stop-opacity="0"/>
</radialGradient>
<clipPath id="clip0_330_2659">
<rect width="142" height="143" fill="white"/>
</clipPath>
</defs>
</svg>
