<?xml version="1.0" encoding="utf-8"?>
<!-- Generator: Adobe Illustrator 17.0.0, SVG Export Plug-In . SVG Version: 6.00 Build 0)  -->
<!DOCTYPE svg PUBLIC "-//W3C//DTD SVG 1.1//EN" "http://www.w3.org/Graphics/SVG/1.1/DTD/svg11.dtd">
<svg version="1.1" id="Layer_1" xmlns="http://www.w3.org/2000/svg" xmlns:xlink="http://www.w3.org/1999/xlink" x="0px" y="0px"
	 width="40px" height="40px" viewBox="0 0 40 40" enable-background="new 0 0 40 40" xml:space="preserve">
<circle fill="none" stroke="#3C4147" cx="20" cy="20" r="19.5"/>
<path fill="none" stroke="#00C9FF" stroke-width="1.5" stroke-linecap="round" d="M16.5,20h0.9 M23.7,20h-3.6"/>
<path fill="none" stroke="#00C9FF" stroke-width="1.5" stroke-linecap="round" d="M23.7,16.4h-0.9 M20.1,16.4h-3.6"/>
<path fill="none" stroke="#00C9FF" stroke-width="1.5" stroke-linecap="round" d="M16.5,23.6H21"/>
<path fill="none" stroke="#00C9FF" stroke-width="1.5" stroke-linecap="round" d="M12,21.8v-3.6c0-3.394,0-5.091,1.054-6.146
	S15.806,11,19.2,11H21c3.394,0,5.091,0,6.146,1.054c0.588,0.588,0.848,1.375,0.963,2.546 M28.2,18.2v3.6
	c0,3.394,0,5.091-1.054,6.146C26.091,29,24.394,29,21,29h-1.8c-3.394,0-5.091,0-6.146-1.054c-0.588-0.588-0.848-1.375-0.963-2.546"
	/>
</svg>
