<svg width="50" height="50" viewBox="0 0 50 50" fill="none" xmlns="http://www.w3.org/2000/svg">
<g clip-path="url(#clip0_3787_4187)">
<path d="M25 49.5C38.531 49.5 49.5 38.531 49.5 25C49.5 11.469 38.531 0.5 25 0.5C11.469 0.5 0.5 11.469 0.5 25C0.5 38.531 11.469 49.5 25 49.5Z" stroke="#00C9FF"/>
<path d="M15.5857 11.5H26.9372C27.3277 11.5 27.5229 11.6952 27.5229 12.0857C27.5229 12.4762 27.3277 12.6714 26.9372 12.6714H15.5857C15.1952 12.6714 15 12.4762 15 12.0857C15 11.6952 15.1952 11.5 15.5857 11.5Z" fill="#00C9FF"/>
<path d="M30.4607 11.5H33.9854C34.3759 11.5 34.5711 11.6952 34.5711 12.0857C34.5711 12.4762 34.3759 12.6714 33.9854 12.6714H30.4607C30.0702 12.6714 29.875 12.4762 29.875 12.0857C29.875 11.6952 30.0702 11.5 30.4607 11.5Z" fill="#00C9FF"/>
<path d="M33.7917 36.1516H16.5623C16.4074 36.1503 16.2592 36.0881 16.1496 35.9786C16.0401 35.869 15.9779 35.7208 15.9766 35.5659C15.9766 31.046 19.8434 27.1585 22.5387 25.0023C19.8434 22.8408 15.9766 18.9533 15.9766 14.4335C15.9779 14.2785 16.0401 14.1303 16.1496 14.0208C16.2592 13.9112 16.4074 13.8491 16.5623 13.8477H33.7917C33.9471 13.8477 34.096 13.9095 34.2059 14.0193C34.3157 14.1291 34.3774 14.2781 34.3774 14.4335C34.3774 18.9533 30.5107 22.8408 27.8205 25.0023C30.5003 27.1741 34.3671 31.046 34.3671 35.5659C34.3671 35.7195 34.3068 35.8669 34.1992 35.9765C34.0916 36.086 33.9453 36.1489 33.7917 36.1516ZM17.205 34.9802H33.1697C32.8172 30.8335 28.8883 27.2829 26.4988 25.4688C26.4267 25.4136 26.3684 25.3426 26.3282 25.2613C26.2881 25.1799 26.2672 25.0904 26.2672 24.9997C26.2672 24.909 26.2881 24.8195 26.3282 24.7381C26.3684 24.6568 26.4267 24.5858 26.4988 24.5306C28.8883 22.7216 32.8172 19.1399 33.1697 15.0244H17.205C17.5523 19.1399 21.4865 22.7216 23.8708 24.5306C23.9428 24.5858 24.0012 24.6568 24.0413 24.7381C24.0815 24.8195 24.1024 24.909 24.1024 24.9997C24.1024 25.0904 24.0815 25.1799 24.0413 25.2613C24.0012 25.3426 23.9428 25.4136 23.8708 25.4688C21.4606 27.2829 17.5264 30.8595 17.205 34.9802Z" fill="#00C9FF"/>
<path d="M15.5857 37.3281H34.7641C35.1545 37.3281 35.3498 37.5234 35.3498 37.9138C35.3498 38.3043 35.1545 38.4995 34.7641 38.4995H15.5857C15.1952 38.4995 15 38.3043 15 37.9138C15 37.5234 15.1952 37.3281 15.5857 37.3281Z" fill="#00C9FF"/>
<path d="M24.4679 23.7535L25.204 24.3133L25.94 23.7535C27.148 22.8414 28.2674 21.8175 29.2833 20.6953H21.0988C22.1253 21.8162 23.2532 22.8399 24.4679 23.7535ZM25.9141 26.2467L25.1781 25.6869L24.4679 26.2467C22.8196 27.501 19.2587 30.5385 18.3672 34.0217H32.0149C31.1233 30.5385 27.5779 27.501 25.9141 26.2467Z" fill="#00C9FF"/>
<path d="M28.1172 12.0857C28.1172 12.2411 28.1789 12.39 28.2887 12.4999C28.3986 12.6097 28.5475 12.6714 28.7029 12.6714C28.8582 12.6714 29.0072 12.6097 29.1171 12.4999C29.2269 12.39 29.2886 12.2411 29.2886 12.0857C29.2886 11.9304 29.2269 11.7814 29.1171 11.6716C29.0072 11.5617 28.8582 11.5 28.7029 11.5C28.5475 11.5 28.3986 11.5617 28.2887 11.6716C28.1789 11.7814 28.1172 11.9304 28.1172 12.0857Z" fill="#00C9FF"/>
</g>
<defs>
<clipPath id="clip0_3787_4187">
<rect width="50" height="50" fill="white"/>
</clipPath>
</defs>
</svg>
