<svg width="170" height="127" viewBox="0 0 170 127" fill="none" xmlns="http://www.w3.org/2000/svg">
<g clip-path="url(#clip0_4283_4301)">
<path fill-rule="evenodd" clip-rule="evenodd" d="M88.892 0H140.204C146.696 0.00855952 151.955 5.27266 151.964 11.7693V24.9445C150.595 24.691 149.185 24.5585 147.743 24.5585C147.647 24.5585 147.55 24.5591 147.454 24.5602C159.932 24.7141 170 34.8771 170 47.3914C170 60.0017 159.777 70.2244 147.167 70.2244C134.557 70.2244 124.334 60.0017 124.334 47.3915C124.334 35.325 133.694 25.4446 145.55 24.6149V11.7693C145.545 8.81631 143.155 6.42392 140.204 6.41964H88.892C85.9415 6.42392 83.5512 8.81631 83.5469 11.7693V106.302H87.182L87.1286 106.303H87.0751L87.0006 106.304H83.5469V114.484C83.5512 117.437 85.9415 119.829 88.892 119.833H140.204C143.155 119.829 145.545 117.437 145.55 114.484V70.5051C146.271 70.5733 147.003 70.6082 147.743 70.6082C149.185 70.6082 150.595 70.4757 151.964 70.2222V114.484C151.955 120.98 146.696 126.244 140.204 126.253H88.892C82.4009 126.244 77.1414 120.98 77.1329 114.484V106.304H33.3489C31.126 106.304 28.9604 105.524 27.2501 104.108C27.0216 103.915 26.8076 103.717 26.5921 103.503C25.7367 102.648 25.0434 101.626 24.5865 100.548C24.0585 99.3349 23.7922 98.0583 23.7922 96.7474V59.0662C23.7922 58.4362 23.8544 57.8134 23.9778 57.2124C24.273 55.6819 24.9519 54.2394 25.9425 53.0301C26.1522 52.767 26.3641 52.5379 26.5927 52.31C28.3983 50.5039 30.7977 49.5091 33.3489 49.5091H77.1324V53.2923H33.3488C31.811 53.2923 30.3618 53.8933 29.2691 54.9855C29.0489 55.2074 28.8764 55.4104 28.7412 55.6083L28.367 56.1533L56.9756 81.1057C57.869 81.8797 59.0047 82.3046 60.1744 82.3046C61.3559 82.3046 62.4926 81.8787 63.3754 81.1047L77.1324 69.1149V73.5018L70.5513 79.2435L77.1324 84.9781V89.3555L68.0408 81.4289L65.5507 83.5966C64.0574 84.8939 62.1488 85.6091 60.1747 85.6091C58.2079 85.6091 56.3024 84.8939 54.8081 83.5966L52.3171 81.4299L29.587 101.238L30.4863 101.76C31.3459 102.256 32.336 102.519 33.3489 102.519H77.1324V106.302L77.1329 11.7693C77.1414 5.27266 82.4009 0.00855952 88.892 0ZM105.996 104.854H123.1C124.871 104.854 126.307 106.292 126.307 108.064C126.307 109.836 124.871 111.274 123.1 111.274H105.996C104.226 111.274 102.789 109.836 102.789 108.064C102.789 106.292 104.226 104.854 105.996 104.854ZM147.167 27.0585C158.397 27.0585 167.5 36.1619 167.5 47.3914C167.5 58.621 158.397 67.7244 147.167 67.7244C135.937 67.7244 126.834 58.621 126.834 47.3915C126.834 36.1619 135.937 27.0585 147.167 27.0585ZM27.5946 97.0801C27.5791 96.9775 27.5756 96.8635 27.5756 96.7474V59.8464L49.7988 79.2331L27.7998 98.4138L27.5946 97.0801ZM18.8034 43.7463C18.3795 43.7463 18.0359 44.09 18.0359 44.5138C18.0359 44.9377 18.3795 45.2813 18.8034 45.2813H46.6251C47.049 45.2813 47.3926 44.9377 47.3926 44.5138C47.3926 44.09 47.049 43.7463 46.6251 43.7463H18.8034ZM9.59341 38.7587C9.59341 38.3349 9.93703 37.9912 10.3609 37.9912H38.1826C38.6065 37.9912 38.9501 38.3349 38.9501 38.7587C38.9501 39.1826 38.6065 39.5262 38.1826 39.5262H10.3609C9.93703 39.5262 9.59341 39.1826 9.59341 38.7587ZM0.767495 32.2361C0.343619 32.2361 0 32.5797 0 33.0036C0 33.4275 0.343619 33.7711 0.767495 33.7711H28.5892C29.0131 33.7711 29.3567 33.4275 29.3567 33.0036C29.3567 32.5797 29.0131 32.2361 28.5892 32.2361H0.767495ZM145.515 49.9353L141.411 45.8315C140.698 45.1182 139.628 45.1182 138.914 45.8315C138.201 46.5448 138.201 47.6147 138.914 48.328L144.195 53.6082C144.217 53.6332 144.24 53.6577 144.265 53.6819C144.621 54.0386 144.978 54.2169 145.513 54.2169C146.048 54.2169 146.405 54.0386 146.761 53.6819L157.461 42.9825C158.174 42.2692 158.174 41.1993 157.461 40.486C156.747 39.7727 155.677 39.7727 154.964 40.486L145.515 49.9353Z" fill="#1E48DE"/>
</g>
<defs>
<clipPath id="clip0_4283_4301">
<rect width="170" height="127" fill="white"/>
</clipPath>
</defs>
</svg>
