<svg width="32" height="24" viewBox="0 0 32 24" fill="none" xmlns="http://www.w3.org/2000/svg">
<path d="M25.8921 8.53611L7.3904 9.22339C6.77812 9.22339 6.42109 9.4526 6.25244 10.0413L2.41183 23.1803C2.25303 23.7387 1.49181 24 0.962266 24C0.433073 24 0 23.5669 0 23.0377V19.3555V4.27017V3.54944V1.34076C0 0.600316 0.600316 0 1.34076 0H10.867C11.2226 0 11.5634 0.141189 11.8148 0.392582L14.5787 3.1565C14.8301 3.40789 15.1713 3.54908 15.5265 3.54908H24.5513C25.2918 3.54908 25.8921 4.1494 25.8921 4.88985V5.34792V8.53611Z" fill="#FFA101"/>
<path d="M0.962891 23.9996C1.49208 23.9996 1.76636 23.5958 1.92516 23.0374L5.79676 9.53044C5.96541 8.94174 6.50376 8.53613 7.1164 8.53613H30.84C31.4065 8.53613 31.8135 9.08047 31.6537 9.6241L27.8173 22.6606C27.644 23.2772 27.2641 24.0049 26.4783 23.9996H0.962891Z" fill="#FFCA28"/>
</svg>
