<svg width="22" height="22" viewBox="0 0 22 22" fill="none" xmlns="http://www.w3.org/2000/svg">
<path d="M11 21C16.5228 21 21 16.5228 21 11C21 5.47715 16.5228 1 11 1C5.47715 1 1 5.47715 1 11C1 16.5228 5.47715 21 11 21Z" fill="#212121" stroke="#E5E5E5"/>
<path d="M11.8162 15.6129V17H10.5201V15.592C9.24226 15.4584 8.02407 14.9667 7 14.2086L7.95759 12.9281C8.80436 13.5691 9.60757 13.9951 10.5804 14.1339V11.391C8.40543 10.859 7.389 10.0889 7.389 8.50554C7.389 6.98931 8.65762 5.9536 10.5216 5.81108V5H11.8177V5.83795C12.8334 5.94465 13.7956 6.31848 14.6232 6.90497L13.7872 8.22795C13.1307 7.76383 12.4597 7.46983 11.7596 7.32657V9.99566C14.0287 10.5277 15 11.3828 15 12.8923C14.9977 14.4339 13.713 15.4636 11.8162 15.6129Z" fill="white"/>
<path d="M9 8.43253C9 9.14379 9.19861 9.60496 10 10V7C9.34277 7.08789 9 7.6796 9 8.43253Z" fill="#212121"/>
<path d="M12 12V14C12.6359 13.9452 13 13.579 13 13.0486C12.9995 12.5511 12.7887 12.252 12 12Z" fill="#212121"/>
</svg>
