<svg width="53" height="17" viewBox="0 0 53 17" fill="none" xmlns="http://www.w3.org/2000/svg">
<path d="M27.5485 5.3484C27.5186 7.63636 29.6527 8.91306 31.2603 9.6722C32.912 10.451 33.4668 10.9505 33.4602 11.647C33.4479 12.7129 32.1427 13.1834 30.9214 13.2017C28.7906 13.2337 27.5516 12.6442 26.5667 12.1984L25.7991 15.679C26.7873 16.1202 28.6171 16.5051 30.5146 16.522C34.9688 16.522 37.8828 14.3914 37.8986 11.088C37.916 6.8955 31.9143 6.66344 31.9554 4.78953C31.9695 4.22131 32.529 3.61495 33.7551 3.46078C34.3619 3.3829 36.0372 3.32329 37.9366 4.17085L38.682 0.803282C37.6606 0.442883 36.3478 0.0977802 34.7134 0.0977802C30.521 0.0977802 27.5723 2.25739 27.5485 5.3484ZM45.8452 0.387848C45.0319 0.387848 44.3465 0.847585 44.0406 1.55309L37.678 16.2746H42.1289L43.0146 13.9026H48.4535L48.9673 16.2746H52.8903L49.467 0.387848H45.8452ZM46.4679 4.67946L47.7523 10.6451H44.2345L46.4679 4.67946ZM22.1521 0.388046L18.6437 16.2744H22.885L26.3918 0.38765H22.1521M15.8777 0.38765L11.4631 11.201L9.67731 2.00686C9.46777 0.9805 8.64029 0.387848 7.72137 0.387848H0.504886L0.403809 0.849174C1.88532 1.1607 3.56858 1.66315 4.58837 2.20077C5.21247 2.52918 5.39043 2.81627 5.59546 3.59667L8.97776 16.2746H13.4598L20.3314 0.387848L15.8777 0.38765Z" fill="url(#paint0_linear_494_4425)"/>
<defs>
<linearGradient id="paint0_linear_494_4425" x1="2413.42" y1="49.4689" x2="2459.49" y2="-1637.4" gradientUnits="userSpaceOnUse">
<stop stop-color="white"/>
<stop offset="0.578125" stop-color="#4C6AB4"/>
</linearGradient>
</defs>
</svg>
