<?xml version="1.0" encoding="utf-8"?>
<!-- Generator: Adobe Illustrator 17.0.0, SVG Export Plug-In . SVG Version: 6.00 Build 0)  -->
<!DOCTYPE svg PUBLIC "-//W3C//DTD SVG 1.1//EN" "http://www.w3.org/Graphics/SVG/1.1/DTD/svg11.dtd">
<svg version="1.1" id="Layer_1" xmlns="http://www.w3.org/2000/svg" xmlns:xlink="http://www.w3.org/1999/xlink" x="0px" y="0px"
	 width="140px" height="118.333px" viewBox="0 0 140 118.333" enable-background="new 0 0 140 118.333" xml:space="preserve">
<g>
	<path fill="#FAC12D" d="M11.076,114.354c-1.698,0-3.344-0.462-4.758-1.336c-1.329-0.821-2.432-1.987-3.192-3.374
		c-0.759-1.386-1.148-2.944-1.125-4.506c0.025-1.662,0.521-3.298,1.436-4.729L62.361,8.165C64.035,5.544,66.891,3.98,70,3.98
		c3.109,0,5.965,1.564,7.639,4.185l58.924,92.245c0.914,1.431,1.411,3.066,1.436,4.729c0.023,1.562-0.366,3.12-1.125,4.506
		c-0.759,1.386-1.863,2.553-3.192,3.374c-1.414,0.874-3.06,1.336-4.758,1.336L11.076,114.354L11.076,114.354z"/>
	<path fill="#010101" d="M128.924,111.058H11.076c-2.14,0-4.031-1.12-5.059-2.997s-0.954-4.073,0.198-5.877L65.139,9.939
		C66.22,8.247,67.992,7.276,70,7.276c2.008,0,3.78,0.971,4.861,2.663l58.924,92.245c1.152,1.803,1.226,4,0.198,5.876
		C132.955,109.937,131.064,111.058,128.924,111.058z M70,10.938c-0.744,0-1.374,0.345-1.775,0.972L9.301,104.156
		c-0.427,0.668-0.453,1.45-0.072,2.145s1.054,1.094,1.847,1.094h117.849c0.793,0,1.466-0.399,1.847-1.094
		c0.381-0.695,0.354-1.477-0.072-2.145L71.775,11.911C71.374,11.284,70.744,10.938,70,10.938z"/>
	<circle fill="#010101" cx="70" cy="92.495" r="5.971"/>
	<path fill="#010101" d="M67.16,77.51l-1.612-40.707c-0.097-2.459,1.817-4.531,4.276-4.629c2.459-0.097,4.531,1.817,4.629,4.276
		c0.046,0.492-1.625,40.591-1.612,41.059C72.572,81.127,67.439,81.133,67.16,77.51L67.16,77.51z"/>
</g>
</svg>
