<svg width="273" height="252" viewBox="0 0 273 252" fill="none" xmlns="http://www.w3.org/2000/svg">
<path d="M74.9906 125.054C74.4196 135.131 82.1546 143.795 92.2266 144.372C92.5816 144.39 92.9336 144.402 93.2806 144.402C102.97 144.402 110.993 136.818 111.545 127.131C112.118 117.055 104.388 108.39 94.3076 107.818C84.1696 107.226 75.5646 115.021 74.9906 125.054Z" fill="#0033AD"/>
<path d="M6.75107 120.378C3.49106 120.191 0.692047 122.686 0.511047 125.949C0.322052 129.209 2.81607 132.009 6.07706 132.194C9.34006 132.379 12.1381 129.883 12.3251 126.623C12.5061 123.356 10.0141 120.563 6.75107 120.378Z" fill="#0033AD"/>
<path d="M73.8286 18.8438C76.7446 17.3748 77.9216 13.8159 76.4506 10.8958C74.9766 7.9808 71.4216 6.8038 68.4996 8.27682C65.5846 9.74582 64.4106 13.3048 65.8816 16.2218C67.3526 19.1418 70.9076 20.3128 73.8286 18.8438Z" fill="#0033AD"/>
<path d="M92.399 51.2269C96.912 48.9559 98.725 43.4569 96.452 38.9479C94.179 34.4389 88.679 32.6239 84.169 34.8949C79.66 37.1669 77.844 42.6659 80.119 47.1759C82.392 51.6869 87.889 53.5029 92.399 51.2269Z" fill="#0033AD"/>
<path d="M29.9141 73.4929C33.3941 75.7749 38.0621 74.8059 40.3441 71.3249C42.6231 67.8489 41.6531 63.1799 38.1751 60.9009C34.6931 58.6189 30.0281 59.5899 27.7461 63.0689C25.4641 66.5459 26.4371 71.2149 29.9141 73.4929Z" fill="#0033AD"/>
<path d="M41.0401 117.081C36.0001 116.793 31.68 120.648 31.3891 125.691C31.102 130.736 34.9591 135.053 40.0001 135.344C45.0441 135.63 49.3681 131.774 49.6531 126.731C49.939 121.686 46.0841 117.365 41.0401 117.081Z" fill="#0033AD"/>
<path d="M30.9128 178.528C27.1998 180.398 25.7068 184.929 27.5798 188.642C29.4498 192.357 33.9808 193.848 37.6918 191.978C41.4058 190.103 42.9008 185.577 41.0268 181.86C39.1568 178.149 34.6298 176.653 30.9128 178.528Z" fill="#0033AD"/>
<path d="M66.4369 98.1899C71.4069 101.45 78.0779 100.063 81.3329 95.0909C84.5928 90.1258 83.2058 83.4549 78.2369 80.1999C73.2679 76.9378 66.5999 78.3269 63.3419 83.2919C60.0808 88.2638 61.4688 94.9319 66.4369 98.1899Z" fill="#0033AD"/>
<path d="M179.158 50.5001C183.382 53.2691 189.05 52.0891 191.819 47.8641C194.59 43.6441 193.414 37.9751 189.189 35.2031C184.968 32.4321 179.296 33.6091 176.527 37.8371C173.756 42.0571 174.937 47.7291 179.158 50.5001Z" fill="#0033AD"/>
<path d="M197.92 18.223C200.649 20.016 204.321 19.251 206.113 16.52C207.902 13.786 207.14 10.119 204.408 8.32597C201.679 6.53196 198.01 7.29795 196.214 10.028C194.421 12.763 195.187 16.4289 197.92 18.223Z" fill="#0033AD"/>
<path d="M180.597 107.63C170.46 107.041 161.849 114.834 161.281 124.863C160.708 134.942 168.439 143.607 178.514 144.181C178.865 144.2 179.219 144.21 179.568 144.21C189.257 144.21 197.279 136.627 197.829 126.947C198.108 122.062 196.466 117.363 193.211 113.719C189.961 110.067 185.477 107.906 180.597 107.63Z" fill="#0033AD"/>
<path d="M98.4131 96.923C101.541 103.132 107.808 106.994 114.773 106.994C117.604 106.994 120.45 106.314 122.996 105.033C132.01 100.49 135.648 89.46 131.106 80.446C127.974 74.232 121.709 70.375 114.746 70.375C111.915 70.375 109.069 71.055 106.523 72.333C97.5101 76.876 93.8711 87.904 98.4131 96.923Z" fill="#0033AD"/>
<path d="M241.91 73.4739C245.621 71.6019 247.119 67.0739 245.246 63.3559C243.372 59.6409 238.845 58.1499 235.131 60.0218C231.416 61.8919 229.921 66.4219 231.795 70.1359C233.669 73.8489 238.193 75.3419 241.91 73.4739Z" fill="#0033AD"/>
<path d="M195.485 79.305C190.175 81.978 188.044 88.448 190.716 93.754C193.391 99.061 199.859 101.192 205.166 98.521C210.471 95.846 212.607 89.376 209.935 84.069C207.26 78.764 200.789 76.628 195.485 79.305Z" fill="#0033AD"/>
<path d="M135.725 15.464C139.877 15.7 143.435 12.5269 143.672 8.37093C143.907 4.21993 140.733 0.659995 136.581 0.424949C132.427 0.188926 128.867 3.36397 128.631 7.51797C128.397 11.67 131.57 15.228 135.725 15.464Z" fill="#0033AD"/>
<path d="M135.639 62.8498C141.571 63.1869 146.655 58.6499 146.993 52.7168C147.33 46.7839 142.793 41.6969 136.858 41.3619C130.929 41.0249 125.846 45.5599 125.507 51.4949C125.17 57.4259 129.707 62.5099 135.639 62.8498Z" fill="#0033AD"/>
<path d="M77.3387 172.697C82.6477 170.022 84.7817 163.552 82.1107 158.247C79.4347 152.942 72.9637 150.804 67.6597 153.482C62.3537 156.155 60.2187 162.62 62.8917 167.929C65.5667 173.234 72.0337 175.368 77.3387 172.697Z" fill="#0033AD"/>
<path d="M142.595 78.5491C137.059 86.9901 139.422 98.3591 147.862 103.895C150.855 105.858 154.32 106.896 157.886 106.896C164.089 106.896 169.811 103.806 173.211 98.6281C178.744 90.1851 176.381 78.8121 167.941 73.282C164.948 71.319 161.484 70.2791 157.918 70.2791C151.716 70.2791 145.991 73.371 142.595 78.5491Z" fill="#0033AD"/>
<path d="M174.415 155.079C171.284 148.863 165.014 145.005 158.055 145.005C155.221 145.005 152.374 145.68 149.828 146.966C145.463 149.166 142.217 152.935 140.686 157.582C139.151 162.223 139.518 167.183 141.722 171.553C144.85 177.764 151.118 181.624 158.075 181.624C160.912 181.624 163.755 180.947 166.306 179.663C175.319 175.123 178.957 164.091 174.415 155.079Z" fill="#0033AD"/>
<path d="M206.386 153.807C201.421 150.552 194.747 151.939 191.489 156.904C188.23 161.873 189.621 168.545 194.587 171.802C199.557 175.059 206.224 173.675 209.484 168.703C212.743 163.737 211.359 157.065 206.386 153.807Z" fill="#0033AD"/>
<path d="M241.434 126.31C241.724 121.267 237.865 116.943 232.819 116.655C227.779 116.369 223.459 120.223 223.17 125.271C222.881 130.311 226.738 134.633 231.784 134.921C236.824 135.209 241.149 131.348 241.434 126.31Z" fill="#0033AD"/>
<path d="M266.748 119.804C263.481 119.621 260.689 122.113 260.5 125.377C260.315 128.639 262.809 131.438 266.075 131.622C269.336 131.807 272.132 129.313 272.317 126.049C272.506 122.785 270.011 119.988 266.748 119.804Z" fill="#0033AD"/>
<path d="M242.911 178.503C239.43 176.221 234.759 177.193 232.484 180.671C230.202 184.148 231.172 188.819 234.651 191.1C238.128 193.381 242.794 192.411 245.081 188.93C247.357 185.449 246.391 180.785 242.911 178.503Z" fill="#0033AD"/>
<path d="M74.9067 233.777C72.1747 231.983 68.5057 232.747 66.7137 235.479C64.9207 238.214 65.6827 241.88 68.4167 243.673C71.1487 245.467 74.8177 244.7 76.6067 241.97C78.4017 239.234 77.6387 235.568 74.9067 233.777Z" fill="#0033AD"/>
<path d="M198.994 233.156C196.079 234.622 194.905 238.18 196.377 241.102C197.845 244.017 201.402 245.191 204.324 243.719C207.239 242.248 208.417 238.693 206.945 235.776C205.475 232.858 201.915 231.685 198.994 233.156Z" fill="#0033AD"/>
<path d="M130.232 173.446C132.912 169.357 133.843 164.469 132.847 159.684C131.85 154.899 129.051 150.785 124.962 148.104C121.969 146.141 118.501 145.101 114.934 145.101C108.737 145.101 103.009 148.191 99.6127 153.372C96.9317 157.461 96.0027 162.35 97.0017 167.136C97.9947 171.921 100.797 176.035 104.885 178.716C107.879 180.679 111.344 181.715 114.91 181.715C121.109 181.716 126.835 178.625 130.232 173.446Z" fill="#0033AD"/>
<path d="M93.6648 201.5C89.4417 198.729 83.7748 199.909 81.0038 204.131C78.2328 208.356 79.4108 214.023 83.6348 216.795C87.8588 219.564 93.5298 218.386 96.2988 214.162C99.0708 209.936 97.8867 204.269 93.6648 201.5Z" fill="#0033AD"/>
<path d="M136.327 236.533C132.175 236.296 128.616 239.472 128.379 243.624C128.142 247.78 131.315 251.336 135.47 251.575C139.622 251.809 143.184 248.634 143.418 244.48C143.652 240.328 140.479 236.767 136.327 236.533Z" fill="#0033AD"/>
<path d="M136.41 189.149C130.481 188.814 125.394 193.347 125.058 199.28C124.721 205.212 129.255 210.298 135.188 210.633C141.124 210.973 146.207 206.435 146.542 200.503C146.883 194.57 142.345 189.485 136.41 189.149Z" fill="#0033AD"/>
<path d="M180.422 200.768C175.915 203.044 174.1 208.539 176.376 213.052C178.645 217.565 184.145 219.374 188.656 217.102C193.168 214.831 194.978 209.332 192.708 204.821C190.435 200.31 184.938 198.496 180.422 200.768Z" fill="#0033AD"/>
</svg>
