<?xml version="1.0" encoding="utf-8"?>
<!-- Generator: Adobe Illustrator 17.0.0, SVG Export Plug-In . SVG Version: 6.00 Build 0)  -->
<!DOCTYPE svg PUBLIC "-//W3C//DTD SVG 1.1//EN" "http://www.w3.org/Graphics/SVG/1.1/DTD/svg11.dtd">
<svg version="1.1" id="Layer_1" xmlns:sketch="http://www.bohemiancoding.com/sketch/ns"
	 xmlns="http://www.w3.org/2000/svg" xmlns:xlink="http://www.w3.org/1999/xlink" x="0px" y="0px" width="800px" height="800px"
	 viewBox="0 0 800 800" enable-background="new 0 0 800 800" xml:space="preserve">
<title>globe</title>
<desc>Created with Sketch Beta.</desc>
<g id="Page-1" sketch:type="MSPage">
	<g id="Icon-Set" transform="translate(-204.000000, -671.000000)" sketch:type="MSLayerGroup">
		<path id="globe" sketch:type="MSShapeGroup" fill="#FFFFFF" d="M893.9,1266.724c-47.875-15.924-99.35-27.824-153.525-35.524
			c7.375-43.326,11.3-88.725,12.55-135.2H953.05C948.575,1159.025,927.4,1217.35,893.9,1266.724L893.9,1266.724z M689.85,1409.976
			c16.65-40.225,30.275-83.701,40.75-129.5c44.95,6.65,88.05,16.475,128.875,29.375
			C814.375,1357.925,755.825,1393.301,689.85,1409.976L689.85,1409.976z M628.275,1419.775C620.225,1420.35,612.2,1421,604,1421
			s-16.2-0.65-24.275-1.225c-21.275-44.299-38.5-93.6-51.25-145.924c24.85-2.176,50.025-3.45,75.525-3.45s50.675,1.274,75.55,3.45
			C666.775,1326.174,649.55,1375.475,628.275,1419.775L628.275,1419.775z M348.525,1309.85
			c40.825-12.9,83.925-22.725,128.875-29.375c10.475,45.799,24.1,89.275,40.75,129.5
			C452.175,1393.301,393.65,1357.925,348.525,1309.85L348.525,1309.85z M314.1,1266.724c-33.5-49.374-54.675-107.7-59.15-170.724
			h200.125c1.25,46.475,5.175,91.875,12.55,135.2C413.45,1238.9,361.975,1250.8,314.1,1266.724L314.1,1266.724z M314.1,875.276
			c47.875,15.924,99.35,27.849,153.525,35.524c-7.375,43.326-11.3,88.725-12.55,135.201H254.95
			C259.425,982.975,280.6,924.65,314.1,875.276L314.1,875.276z M518.15,732.024c-16.65,40.225-30.275,83.701-40.75,129.5
			c-44.95-6.624-88.05-16.475-128.875-29.375C393.65,784.075,452.175,748.699,518.15,732.024L518.15,732.024z M579.725,722.225
			C587.8,721.674,595.8,721,604,721s16.225,0.674,24.275,1.225c21.275,44.299,38.5,93.625,51.275,145.924
			c-24.875,2.176-50.05,3.45-75.55,3.45s-50.675-1.274-75.525-3.45C541.225,815.85,558.45,766.525,579.725,722.225L579.725,722.225z
			 M702.85,1096c-1.35,44.025-5.35,87.324-12.875,128.9c-28.15-2.451-56.775-3.9-85.975-3.9s-57.825,1.45-85.95,3.9
			c-7.55-41.576-11.55-84.875-12.875-128.9H702.85L702.85,1096z M505.175,1046c1.325-44.025,5.325-87.325,12.875-128.9
			c28.125,2.451,56.75,3.9,85.95,3.9s57.825-1.45,85.95-3.9c7.55,41.576,11.55,84.875,12.9,128.9H505.175L505.175,1046z
			 M859.475,832.15c-40.825,12.9-83.925,22.751-128.875,29.375c-10.475-45.799-24.1-89.275-40.75-129.5
			C755.825,748.699,814.375,784.075,859.475,832.15L859.475,832.15z M893.9,875.276c33.5,49.374,54.675,107.7,59.15,170.724H752.925
			c-1.25-46.475-5.175-91.875-12.55-135.201C794.55,903.124,846.025,891.2,893.9,875.276L893.9,875.276z M604,671
			c-220.9,0-400,179.076-400,400s179.1,400,400,400s400-179.076,400-400S824.9,671,604,671L604,671z"/>
	</g>
</g>
</svg>
