<?xml version="1.0" encoding="utf-8"?>
<!-- Generator: Adobe Illustrator 17.0.0, SVG Export Plug-In . SVG Version: 6.00 Build 0)  -->
<!DOCTYPE svg PUBLIC "-//W3C//DTD SVG 1.1//EN" "http://www.w3.org/Graphics/SVG/1.1/DTD/svg11.dtd">
<svg version="1.1" id="Layer_1" xmlns="http://www.w3.org/2000/svg" xmlns:xlink="http://www.w3.org/1999/xlink" x="0px" y="0px"
	 width="26px" height="26px" viewBox="0 0 26 26" enable-background="new 0 0 26 26" xml:space="preserve">
<g>
	<circle fill="#FF5747" cx="13.399" cy="13.194" r="12.071"/>
	<g>
		<path fill="#FFFFFF" d="M18.311,18.086c-0.182,0.183-0.477,0.183-0.66,0.002L8.489,8.961c-0.183-0.182-0.183-0.477-0.002-0.66l0,0
			C8.669,8.119,8.964,8.118,9.147,8.3l9.162,9.126C18.492,17.608,18.493,17.903,18.311,18.086L18.311,18.086z"/>
		<path fill="#FFFFFF" d="M18.225,8.217c0.185,0.179,0.19,0.475,0.01,0.66L9.232,18.16c-0.179,0.185-0.475,0.19-0.66,0.01l0,0
			c-0.185-0.179-0.19-0.475-0.01-0.66l9.003-9.284C17.745,8.042,18.041,8.038,18.225,8.217L18.225,8.217z"/>
	</g>
</g>
</svg>
