<?xml version="1.0" encoding="utf-8"?>
<!-- Generator: Adobe Illustrator 17.0.0, SVG Export Plug-In . SVG Version: 6.00 Build 0)  -->
<!DOCTYPE svg PUBLIC "-//W3C//DTD SVG 1.1//EN" "http://www.w3.org/Graphics/SVG/1.1/DTD/svg11.dtd">
<svg version="1.1" id="Layer_1" xmlns="http://www.w3.org/2000/svg" xmlns:xlink="http://www.w3.org/1999/xlink" x="0px" y="0px"
	 width="76px" height="49.406px" viewBox="-25.996 -12.736 76 49.406" enable-background="new -25.996 -12.736 76 49.406"
	 xml:space="preserve">
<path fill="#FFFFFF" d="M36.884,22.203v1.474h10.12v-6.65H45.53v5.175H36.884z M36.884,0.257v1.474h8.645v5.176h1.475v-6.65H36.884z
	 M31.666,11.664V8.238h2.313c1.128,0,1.533,0.376,1.533,1.402v0.607c0,1.055-0.39,1.417-1.533,1.417H31.666z M35.337,12.271
	c1.055-0.275,1.792-1.258,1.792-2.429c0-0.737-0.289-1.402-0.838-1.937c-0.694-0.665-1.619-0.998-2.819-0.998H30.22v10.12h1.446
	v-4.033h2.169c1.113,0,1.561,0.463,1.561,1.619v2.414h1.475v-2.183c0-1.59-0.376-2.197-1.533-2.371V12.271z M23.165,12.603h4.453
	v-1.33h-4.453V8.237h4.886v-1.33H21.69v10.12h6.578v-1.33h-5.103V12.603z M18.322,13.138v0.694c0,1.46-0.535,1.937-1.879,1.937
	h-0.318c-1.345,0-1.995-0.434-1.995-2.443v-2.718c0-2.024,0.68-2.443,2.024-2.443h0.289c1.316,0,1.735,0.492,1.749,1.851h1.59
	c-0.145-1.995-1.475-3.253-3.47-3.253c-0.968,0-1.778,0.304-2.385,0.882c-0.911,0.853-1.417,2.299-1.417,4.323
	c0,1.952,0.434,3.398,1.33,4.294c0.607,0.593,1.446,0.911,2.27,0.911c0.867,0,1.663-0.347,2.067-1.099h0.202v0.954h1.33v-5.219
	h-3.918v1.33H18.322z M5.571,8.237h1.576c1.489,0,2.299,0.376,2.299,2.4v2.66c0,2.024-0.81,2.4-2.299,2.4H5.571V8.237z
	 M7.277,17.027c2.761,0,3.788-2.096,3.788-5.06c0-3.007-1.099-5.06-3.817-5.06H4.125v10.12H7.277z M-2.857,12.603h4.453v-1.33
	h-4.453V8.237h4.886v-1.33h-6.361v10.12h6.578v-1.33h-5.103V12.603z M-11.387,6.907h-1.474v10.12h6.65v-1.33h-5.176V6.907z
	 M-22.996,17.027v6.65h10.12v-1.475h-8.645v-5.175H-22.996z M-22.996,0.257v6.65h1.474V1.732h8.645V0.257H-22.996z"/>
</svg>
