<?xml version="1.0" encoding="utf-8"?>
<!-- Generator: Adobe Illustrator 17.0.0, SVG Export Plug-In . SVG Version: 6.00 Build 0)  -->
<!DOCTYPE svg PUBLIC "-//W3C//DTD SVG 1.1//EN" "http://www.w3.org/Graphics/SVG/1.1/DTD/svg11.dtd">
<svg version="1.1" id="Layer_1" xmlns="http://www.w3.org/2000/svg" xmlns:xlink="http://www.w3.org/1999/xlink" x="0px" y="0px"
	 width="523px" height="129px" viewBox="41.5 330.5 523 129" enable-background="new 41.5 330.5 523 129" xml:space="preserve">
<g>
	<path fill="#FFFFFF" d="M225.27,394.294v-17.323h9.297c5.886,0,9.431,3.344,9.431,8.695c0,5.217-3.612,8.628-9.431,8.628H225.27z
		 M235.971,404.461c11.906,0,19.865-7.826,19.865-18.862s-7.959-18.795-19.865-18.795h-22.54v60.397h11.772v-22.741H235.971z"/>
	<path fill="#FFFFFF" d="M274.965,402.588c0.268-4.615,3.077-8.16,7.826-8.16c5.418,0,7.759,3.679,7.759,8.361v24.48h11.37v-26.42
		c0-9.23-4.949-16.588-15.584-16.588c-4.013,0-8.628,1.338-11.304,4.615v-23.276h-11.304v61.668h11.304v-24.681H274.965z"/>
	<path fill="#FFFFFF" d="M310.883,415.765c0,6.555,5.485,12.641,14.38,12.641c6.22,0,10.233-2.876,12.374-6.22
		c0,1.672,0.134,3.344,0.401,5.016h10.367c-0.334-2.207-0.468-4.414-0.535-6.622v-20.668c0-8.428-4.95-15.919-18.26-15.919
		c-11.237,0-17.323,7.224-17.992,13.778l10.033,2.14c0.334-3.679,3.077-6.822,8.026-6.822c4.749,0,7.09,2.475,7.09,5.485
		c0,1.471-0.736,2.675-3.144,3.01l-10.3,1.538C316.367,404.06,310.883,408.273,310.883,415.765z M327.671,419.911
		c-3.679,0-5.418-2.408-5.418-4.883c0-3.21,2.274-4.883,5.217-5.284l9.431-1.471v1.873
		C336.834,417.637,332.42,419.911,327.671,419.911L327.671,419.911z"/>
	<path fill="#FFFFFF" d="M370.678,403.056c0-4.883,2.876-8.695,7.826-8.695c5.418,0,7.759,3.679,7.759,8.361v24.48h11.37v-26.42
		c0-9.23-4.749-16.588-15.183-16.588c-4.548,0-9.565,1.94-12.106,6.287v-5.15h-11.036v41.937h11.304v-24.212H370.678z"/>
	<path fill="#FFFFFF" d="M423.049,372.757h-10.233v5.886c0,3.746-2.073,6.622-6.488,6.622h-2.14v10.033h7.558v19.53
		c0,8.093,5.083,12.976,13.31,12.976c2.207,0.067,4.348-0.268,6.421-1.003v-9.297c-1.137,0.268-2.341,0.334-3.478,0.334
		c-3.21,0-4.95-1.204-4.95-4.883v-17.524h8.428v-10.033h-8.428L423.049,372.757L423.049,372.757z"/>
	<path fill="#FFFFFF" d="M459.569,418.172c-5.551,0-10.635-4.08-10.635-11.906s5.083-11.906,10.635-11.906
		c5.551,0,10.635,4.013,10.635,11.906C470.203,414.159,465.12,418.172,459.569,418.172z M459.569,383.994
		c-12.508,0-22.005,9.297-22.005,22.206c0,12.909,9.498,22.206,22.005,22.206c12.508,0,22.005-9.364,22.005-22.206
		S472.076,383.927,459.569,383.994L459.569,383.994z"/>
	<path fill="#FFFFFF" d="M501.84,427.202v-24.547c0-4.615,2.876-8.294,7.826-8.294c5.083,0,7.424,3.411,7.424,7.892v24.881h11.237
		v-24.547c0-4.548,2.876-8.294,7.759-8.294c5.217,0,7.424,3.411,7.424,7.892v24.881h10.969v-27.155
		c0-11.237-7.424-15.919-15.183-15.919c-5.551,0-9.966,1.873-13.31,7.023c-2.14-4.548-6.755-7.023-12.441-7.023
		c-4.615,0-9.966,2.207-12.24,6.287v-5.083h-10.835v41.937L501.84,427.202z"/>
	
		<linearGradient id="SVGID_1_" gradientUnits="userSpaceOnUse" x1="175.3525" y1="441.3875" x2="175.3525" y2="269.1875" gradientTransform="matrix(0.6689 0 0 -0.6689 -2.1754 633.6015)">
		<stop  offset="0" style="stop-color:#534BB1"/>
		<stop  offset="1" style="stop-color:#551BF9"/>
	</linearGradient>
	<circle fill="url(#SVGID_1_)" cx="115.11" cy="395.967" r="57.588"/>
	
		<linearGradient id="SVGID_2_" gradientUnits="userSpaceOnUse" x1="177.2322" y1="410.2276" x2="177.2322" y2="296.5976" gradientTransform="matrix(0.6689 0 0 -0.6689 -2.1754 633.6015)">
		<stop  offset="0" style="stop-color:#FFFFFF"/>
		<stop  offset="1" style="stop-color:#FFFFFF;stop-opacity:0.82"/>
	</linearGradient>
	<path fill="url(#SVGID_2_)" d="M156.378,396.702h-10.167c0-20.801-16.788-37.656-37.523-37.656
		c-20.534,0-37.255,16.387-37.656,36.921c-0.401,21.002,19.397,39.262,40.466,39.262h2.675c18.594,0,43.542-14.514,47.422-32.172
		c0.602-2.876-1.271-5.618-4.147-6.22C157.113,396.702,156.779,396.702,156.378,396.702z M93.506,397.639
		c0,2.809-2.274,5.016-5.083,5.016c-2.809,0-5.016-2.274-5.016-5.016v-8.16c0-2.809,2.274-5.016,5.083-5.016
		c2.809,0,5.016,2.274,5.016,5.016V397.639z M111.03,397.639c0,2.809-2.274,5.016-5.083,5.016c-2.809,0-5.016-2.274-5.016-5.016
		v-8.16c0-2.809,2.274-5.016,5.083-5.016c2.809,0,5.016,2.274,5.016,5.016V397.639z"/>
</g>
</svg>
