<svg width="109" height="96" viewBox="0 0 109 96" fill="none" xmlns="http://www.w3.org/2000/svg">
<path d="M107.53 75.69L89.8098 94.69C89.4266 95.1027 88.9624 95.432 88.4463 95.6574C87.9301 95.8828 87.373 95.9994 86.8098 96H2.80982C2.40918 95.9997 2.0173 95.8827 1.68217 95.6631C1.34704 95.4436 1.08319 95.1311 0.922943 94.7639C0.762694 94.3967 0.712996 93.9908 0.779934 93.5958C0.846872 93.2008 1.02754 92.8339 1.29982 92.54L18.9998 73.54C19.3831 73.1273 19.8473 72.7979 20.3634 72.5726C20.8796 72.3472 21.4366 72.2306 21.9998 72.23H106C106.404 72.2216 106.802 72.333 107.143 72.5502C107.484 72.7674 107.753 73.0806 107.917 73.4505C108.081 73.8203 108.131 74.2303 108.062 74.6288C107.993 75.0273 107.808 75.3965 107.53 75.69ZM89.8098 37.4199C89.4251 37.0091 88.9606 36.6811 88.4448 36.4558C87.929 36.2306 87.3727 36.1129 86.8098 36.11H2.80982C2.40918 36.1102 2.0173 36.2272 1.68217 36.4468C1.34704 36.6663 1.08319 36.9788 0.922943 37.346C0.762694 37.7132 0.712996 38.1191 0.779934 38.5141C0.846872 38.9091 1.02754 39.2761 1.29982 39.57L18.9998 58.58C19.3846 58.9908 19.849 59.3188 20.3648 59.5441C20.8807 59.7693 21.437 59.887 21.9998 59.8899H106C106.4 59.8878 106.79 59.7693 107.124 59.5491C107.457 59.3288 107.72 59.0162 107.879 58.6494C108.038 58.2826 108.087 57.8774 108.019 57.4833C107.952 57.0892 107.772 56.7232 107.5 56.43L89.8098 37.4199ZM2.80982 23.77H86.8098C87.373 23.7695 87.9301 23.6529 88.4463 23.4275C88.9625 23.2021 89.4266 22.8727 89.8098 22.46L107.53 3.45995C107.738 3.24036 107.894 2.9776 107.989 2.69044C108.083 2.40328 108.113 2.09882 108.076 1.79883C108.039 1.49883 107.936 1.21071 107.775 0.955056C107.613 0.699403 107.398 0.482534 107.143 0.319952C106.802 0.102907 106.404 -0.00842762 106 -4.77414e-05H21.9998C21.4366 0.000545099 20.8796 0.117171 20.3634 0.342556C19.8473 0.567941 19.3831 0.897252 18.9998 1.30995L1.29982 20.31C1.02754 20.6038 0.846872 20.9708 0.779934 21.3658C0.712996 21.7608 0.762694 22.1667 0.922943 22.5339C1.08319 22.9011 1.34704 23.2136 1.68217 23.4331C2.0173 23.6527 2.40918 23.7697 2.80982 23.77Z" fill="url(#paint0_linear_1244_5)"/>
<defs>
<linearGradient id="paint0_linear_1244_5" x1="9.80982" y1="98.29" x2="97.8898" y2="-1.01005" gradientUnits="userSpaceOnUse">
<stop offset="0.08" stop-color="#9945FF"/>
<stop offset="0.3" stop-color="#8752F3"/>
<stop offset="0.5" stop-color="#5497D5"/>
<stop offset="0.6" stop-color="#43B4CA"/>
<stop offset="0.72" stop-color="#28E0B9"/>
<stop offset="0.97" stop-color="#19FB9B"/>
</linearGradient>
</defs>
</svg>
