<?xml version="1.0" encoding="utf-8"?>
<!-- Generator: Adobe Illustrator 17.0.0, SVG Export Plug-In . SVG Version: 6.00 Build 0)  -->
<!DOCTYPE svg PUBLIC "-//W3C//DTD SVG 1.1//EN" "http://www.w3.org/Graphics/SVG/1.1/DTD/svg11.dtd">
<svg version="1.1" id="Layer_1" xmlns="http://www.w3.org/2000/svg" xmlns:xlink="http://www.w3.org/1999/xlink" x="0px" y="0px"
	 width="76px" height="49.406px" viewBox="0 0 76 49.406" enable-background="new 0 0 76 49.406" xml:space="preserve">
<g>
	<g>
		<polygon points="45.871,19.85 53.282,19.85 53.282,21.799 49.252,27.26 53.282,27.26 53.282,29.557 45.871,29.557 45.871,27.607 
			49.901,22.146 45.871,22.146 		"/>
		<path d="M70.876,25.96c0.911-0.346,1.863-1.256,1.863-2.86c0-1.95-1.343-3.207-3.337-3.207h-4.55v9.664h2.513v-3.25h0.955
			l1.777,3.25H73L70.876,25.96z M69.1,24.053h-1.734v-1.95H69.1c0.65,0,1.083,0.391,1.083,0.953
			C70.183,23.663,69.749,24.053,69.1,24.053z"/>
		<path d="M58.74,19.719c-2.947,0-5.027,2.123-5.027,4.984s2.123,4.984,5.027,4.984c2.904,0,5.07-2.123,5.07-4.984
			S61.689,19.719,58.74,19.719z M58.74,27.433c-1.474,0-2.472-1.127-2.472-2.73c0-1.647,0.996-2.73,2.472-2.73
			s2.513,1.127,2.513,2.73S60.216,27.433,58.74,27.433z"/>
		<polygon points="37.638,19.85 44.659,19.85 44.659,22.103 40.151,22.103 40.151,23.533 44.528,23.533 44.528,25.743 
			40.151,25.743 40.151,27.303 44.659,27.303 44.659,29.557 37.638,29.557 		"/>
		<path d="M36.468,23.1c0-1.95-1.343-3.207-3.337-3.207h-4.55v9.664h2.513v-3.25h0.953l1.776,3.25h2.904l-2.123-3.597
			C35.515,25.613,36.468,24.703,36.468,23.1z M32.826,24.053h-1.731v-1.95h1.731c0.651,0,1.083,0.391,1.083,0.953
			C33.911,23.663,33.478,24.053,32.826,24.053z"/>
		<polygon points="19.611,19.85 27.454,19.85 27.454,22.146 24.767,22.146 24.767,29.557 22.254,29.557 22.254,22.146 
			19.611,22.146 		"/>
	</g>
	<path d="M14.778,19.34c0-2.538-2.203-4.644-4.884-4.644s-4.884,2.107-4.884,4.644v1.484H3v10.677l0,0l6.895,3.208l6.895-3.208l0,0
		V20.873h-2.011C14.778,20.873,14.778,19.34,14.778,19.34z M7.501,19.34c0-1.197,1.053-2.155,2.394-2.155s2.394,0.957,2.394,2.155
		v1.484H7.501V19.34z M14.012,29.778l-4.117,1.915l-4.118-1.915v-6.416h8.235V29.778z"/>
</g>
</svg>
