<?xml version="1.0" encoding="utf-8"?>
<!-- Generator: Adobe Illustrator 17.0.0, SVG Export Plug-In . SVG Version: 6.00 Build 0)  -->
<!DOCTYPE svg PUBLIC "-//W3C//DTD SVG 1.1//EN" "http://www.w3.org/Graphics/SVG/1.1/DTD/svg11.dtd">
<svg version="1.1" id="Layer_1" xmlns="http://www.w3.org/2000/svg" xmlns:xlink="http://www.w3.org/1999/xlink" x="0px" y="0px"
	 width="126px" height="22px" viewBox="0 29.955 126 22" enable-background="new 0 29.955 126 22" xml:space="preserve">
<g>
	<g>
		<path fill="#5570E1" d="M10.617,31.337c5.312,0,9.618,4.305,9.618,9.618s-4.305,9.618-9.618,9.618s-9.618-4.305-9.618-9.618
			S5.305,31.337,10.617,31.337z"/>
		<path fill="#FFFFFF" d="M7.112,38.765c1.935-1.89,5.076-1.89,7.011,0l0.233,0.229c0.098,0.094,0.098,0.248,0,0.342l-0.796,0.778
			c-0.049,0.049-0.128,0.049-0.177,0l-0.32-0.312c-1.353-1.319-3.539-1.319-4.892,0l-0.342,0.334c-0.049,0.049-0.128,0.049-0.177,0
			l-0.796-0.778c-0.098-0.094-0.098-0.248,0-0.342L7.112,38.765z M15.772,40.373l0.71,0.691c0.098,0.094,0.098,0.248,0,0.342
			l-3.197,3.122c-0.098,0.094-0.255,0.094-0.349,0l0,0l-2.269-2.217c-0.023-0.023-0.064-0.023-0.086,0l0,0l-2.269,2.217
			c-0.098,0.094-0.255,0.094-0.349,0l0,0l-3.208-3.122c-0.098-0.094-0.098-0.248,0-0.342l0.71-0.691
			c0.098-0.094,0.255-0.094,0.349,0l2.269,2.217c0.023,0.023,0.064,0.023,0.086,0l0,0l2.269-2.217c0.098-0.094,0.255-0.094,0.349,0
			l0,0l2.269,2.217c0.023,0.023,0.064,0.023,0.086,0l2.269-2.217C15.516,40.279,15.674,40.279,15.772,40.373L15.772,40.373z"/>
	</g>
	<g>
		<path d="M36.41,36.622l-2.36,9.054h-2.67l-1.445-5.959l-1.496,5.959h-2.67l-2.296-9.054h2.361l1.302,6.591l1.612-6.591h2.425
			l1.547,6.591l1.317-6.591H36.41z"/>
		<path d="M37.5,40.118c0.28-0.559,0.66-0.989,1.142-1.29c0.481-0.301,1.018-0.452,1.612-0.452c0.507,0,0.952,0.103,1.335,0.31
			c0.383,0.207,0.678,0.477,0.884,0.812v-1.019h2.204v7.197h-2.204v-1.019c-0.217,0.335-0.514,0.606-0.897,0.812
			c-0.383,0.207-0.828,0.31-1.335,0.31c-0.585,0-1.118-0.152-1.599-0.459c-0.482-0.305-0.862-0.739-1.142-1.302
			s-0.419-1.214-0.419-1.954C37.081,41.326,37.221,40.676,37.5,40.118z M42.015,40.775c-0.305-0.319-0.678-0.477-1.115-0.477
			c-0.439,0-0.811,0.157-1.116,0.471c-0.305,0.314-0.458,0.746-0.458,1.296s0.152,0.986,0.458,1.309
			c0.305,0.322,0.677,0.484,1.116,0.484c0.438,0,0.811-0.159,1.115-0.477c0.305-0.317,0.459-0.752,0.459-1.302
			S42.32,41.093,42.015,40.775z"/>
		<path d="M48.483,36.131v9.545h-2.205v-9.545H48.483z"/>
		<path d="M52.288,36.131v9.545h-2.206v-9.545H52.288z"/>
		<path d="M60.633,42.607h-4.991c0.034,0.447,0.178,0.789,0.432,1.025c0.253,0.237,0.564,0.355,0.935,0.355
			c0.55,0,0.933-0.233,1.148-0.697h2.348c-0.121,0.472-0.338,0.898-0.651,1.275c-0.314,0.379-0.708,0.675-1.18,0.891
			c-0.474,0.215-1.001,0.322-1.587,0.322c-0.704,0-1.333-0.15-1.883-0.451c-0.55-0.301-0.98-0.732-1.29-1.289
			c-0.309-0.559-0.464-1.213-0.464-1.961c0-0.748,0.152-1.402,0.457-1.96c0.305-0.559,0.733-0.989,1.284-1.29
			c0.55-0.301,1.183-0.452,1.896-0.452c0.697,0,1.316,0.146,1.858,0.438s0.965,0.71,1.271,1.252
			c0.305,0.542,0.457,1.173,0.457,1.896C60.673,42.168,60.66,42.383,60.633,42.607z M58.415,41.381c0-0.378-0.128-0.679-0.387-0.903
			c-0.258-0.223-0.581-0.335-0.967-0.335c-0.37,0-0.681,0.107-0.935,0.322c-0.254,0.215-0.412,0.52-0.471,0.916
			C55.655,41.381,58.415,41.381,58.415,41.381z"/>
		<path d="M65.846,43.806v1.87h-1.122c-0.8,0-1.423-0.195-1.871-0.587c-0.447-0.39-0.671-1.029-0.671-1.915v-2.863h-0.877v-1.832
			h0.877v-1.755h2.206v1.755h1.445v1.832h-1.446v2.89c0,0.215,0.052,0.37,0.155,0.465c0.103,0.094,0.276,0.141,0.516,0.141
			L65.846,43.806L65.846,43.806z"/>
		<path d="M70.012,38.743c0.387-0.7,0.926-1.247,1.619-1.638c0.692-0.392,1.476-0.587,2.354-0.587c1.074,0,1.994,0.283,2.76,0.85
			c0.766,0.568,1.277,1.342,1.536,2.323h-2.426c-0.18-0.379-0.436-0.666-0.767-0.864c-0.331-0.198-0.707-0.297-1.129-0.297
			c-0.679,0-1.229,0.237-1.651,0.709c-0.421,0.474-0.631,1.106-0.631,1.897c0,0.791,0.21,1.422,0.631,1.896
			c0.422,0.472,0.972,0.709,1.651,0.709c0.422,0,0.797-0.098,1.129-0.297c0.331-0.197,0.587-0.485,0.767-0.864h2.426
			c-0.258,0.981-0.77,1.752-1.536,2.315c-0.766,0.564-1.685,0.845-2.76,0.845c-0.878,0-1.663-0.195-2.354-0.587
			c-0.693-0.39-1.232-0.935-1.619-1.631c-0.387-0.697-0.581-1.491-0.581-2.386C69.431,40.242,69.625,39.444,70.012,38.743z"/>
		<path d="M81.007,45.328c-0.563-0.301-1.005-0.732-1.328-1.289c-0.322-0.559-0.484-1.213-0.484-1.961
			c0-0.739,0.162-1.391,0.49-1.954c0.326-0.563,0.773-0.995,1.342-1.296c0.567-0.301,1.203-0.452,1.908-0.452
			c0.705,0,1.342,0.151,1.91,0.452c0.567,0.301,1.014,0.733,1.342,1.296c0.326,0.563,0.49,1.214,0.49,1.954
			c0,0.739-0.166,1.391-0.496,1.954c-0.331,0.564-0.784,0.996-1.355,1.297c-0.572,0.301-1.209,0.451-1.915,0.451
			C82.204,45.779,81.57,45.629,81.007,45.328z M83.987,43.407c0.296-0.31,0.445-0.753,0.445-1.329S84.288,41.059,84,40.749
			c-0.288-0.309-0.642-0.464-1.064-0.464c-0.43,0-0.786,0.152-1.071,0.457c-0.283,0.306-0.426,0.751-0.426,1.335
			c0,0.576,0.14,1.019,0.419,1.329c0.28,0.31,0.63,0.464,1.052,0.464C83.33,43.87,83.689,43.716,83.987,43.407z"/>
		<path d="M94.255,39.221c0.503,0.545,0.755,1.296,0.755,2.251v4.204h-2.193v-3.908c0-0.481-0.125-0.855-0.374-1.122
			c-0.249-0.266-0.584-0.399-1.005-0.399c-0.422,0-0.757,0.134-1.006,0.399c-0.249,0.267-0.374,0.641-0.374,1.122v3.908h-2.206
			v-7.197h2.206v0.955c0.223-0.319,0.524-0.569,0.903-0.755c0.378-0.185,0.804-0.277,1.276-0.277
			C93.077,38.402,93.752,38.674,94.255,39.221z"/>
		<path d="M102.949,39.221c0.503,0.545,0.755,1.296,0.755,2.251v4.204h-2.193v-3.908c0-0.481-0.125-0.855-0.374-1.122
			c-0.249-0.266-0.584-0.399-1.005-0.399c-0.422,0-0.757,0.134-1.006,0.399c-0.249,0.267-0.374,0.641-0.374,1.122v3.908h-2.206
			v-7.197h2.206v0.955c0.223-0.319,0.524-0.569,0.903-0.755c0.378-0.185,0.804-0.277,1.276-0.277
			C101.771,38.402,102.446,38.674,102.949,39.221z"/>
		<path d="M111.983,42.607h-4.991c0.034,0.447,0.178,0.789,0.432,1.025c0.253,0.237,0.564,0.355,0.935,0.355
			c0.55,0,0.933-0.233,1.148-0.697h2.348c-0.121,0.472-0.338,0.898-0.651,1.275c-0.314,0.379-0.708,0.675-1.18,0.891
			c-0.474,0.215-1.001,0.322-1.587,0.322c-0.704,0-1.333-0.15-1.883-0.451c-0.55-0.301-0.98-0.732-1.29-1.289
			c-0.309-0.559-0.464-1.213-0.464-1.961c0-0.748,0.152-1.402,0.457-1.96c0.305-0.559,0.733-0.989,1.284-1.29
			c0.55-0.301,1.183-0.452,1.896-0.452c0.697,0,1.316,0.146,1.858,0.438s0.965,0.71,1.271,1.252
			c0.305,0.542,0.457,1.173,0.457,1.896C112.022,42.168,112.01,42.383,111.983,42.607z M109.766,41.381
			c0-0.378-0.128-0.679-0.387-0.903c-0.258-0.223-0.581-0.335-0.967-0.335c-0.37,0-0.681,0.107-0.935,0.322s-0.412,0.52-0.471,0.916
			C107.006,41.381,109.766,41.381,109.766,41.381z"/>
		<path d="M113.203,40.118c0.305-0.559,0.731-0.989,1.277-1.29c0.545-0.301,1.171-0.452,1.877-0.452
			c0.903,0,1.658,0.237,2.264,0.709c0.606,0.474,1.004,1.14,1.193,2h-2.347c-0.199-0.55-0.581-0.826-1.149-0.826
			c-0.404,0-0.727,0.157-0.967,0.471c-0.24,0.314-0.362,0.763-0.362,1.348s0.121,1.034,0.362,1.348s0.563,0.471,0.967,0.471
			c0.568,0,0.95-0.276,1.149-0.825h2.347c-0.189,0.843-0.588,1.503-1.199,1.985c-0.611,0.482-1.363,0.723-2.257,0.723
			c-0.705,0-1.331-0.15-1.877-0.451c-0.547-0.301-0.972-0.732-1.277-1.289c-0.305-0.559-0.457-1.213-0.457-1.961
			C112.746,41.329,112.898,40.676,113.203,40.118z"/>
		<path d="M125.001,43.806v1.87h-1.122c-0.8,0-1.423-0.195-1.871-0.587c-0.447-0.39-0.671-1.029-0.671-1.915v-2.863h-0.877v-1.832
			h0.877v-1.755h2.206v1.755h1.445v1.832h-1.445v2.89c0,0.215,0.052,0.37,0.155,0.465c0.103,0.094,0.276,0.141,0.516,0.141
			L125.001,43.806L125.001,43.806z"/>
	</g>
</g>
</svg>
